<?xml version="1.0" encoding="utf-8"?>
<!-- Generator: Adobe Illustrator 17.0.0, SVG Export Plug-In . SVG Version: 6.00 Build 0)  -->
<!DOCTYPE svg PUBLIC "-//W3C//DTD SVG 1.1//EN" "http://www.w3.org/Graphics/SVG/1.1/DTD/svg11.dtd">
<svg version="1.1" id="图层_1" xmlns="http://www.w3.org/2000/svg" xmlns:xlink="http://www.w3.org/1999/xlink" x="0px" y="0px"
	 width="32px" height="32px" viewBox="0 0 32 32" enable-background="new 0 0 32 32" xml:space="preserve">
<g>
	<path fill="#FFFFFF" d="M16,31.5C7.453,31.5,0.5,24.547,0.5,16S7.453,0.5,16,0.5S31.5,7.453,31.5,16S24.547,31.5,16,31.5z"/>
	<path fill="#CCCCCC" d="M16,1c8.271,0,15,6.729,15,15s-6.729,15-15,15S1,24.271,1,16S7.729,1,16,1 M16,0C7.163,0,0,7.163,0,16
		s7.163,16,16,16s16-7.163,16-16S24.837,0,16,0L16,0z"/>
</g>
<g>
	<polygon fill="#76CC4B" points="17.108,10.491 16.26,11.022 21.412,19.945 22.127,19.185 	"/>
	<polygon fill="#76CC4B" points="15.71,11.073 14.983,10.333 9.904,19.13 10.88,19.441 	"/>
	<polygon fill="#76CC4B" points="21.115,21.928 10.655,21.928 10.705,22.928 21.24,22.928 	"/>
</g>
<g>
	<g>
		<g>
			<path fill="#76CC4B" d="M24.16,18.587c-1.915,0-3.467,0.776-3.467,1.733c0,0.957,1.552,1.733,3.467,1.733
				s3.467-0.776,3.467-1.733C27.626,19.363,26.074,18.587,24.16,18.587z"/>
		</g>
		<path fill="#76CC4B" d="M24.16,22.271c-1.915,0-3.467-0.776-3.467-1.733v2.167c0,0.957,1.552,1.733,3.467,1.733
			s3.467-0.776,3.467-1.733v-2.167C27.626,21.495,26.074,22.271,24.16,22.271z"/>
	</g>
	<g>
		<g>
			<path fill="#FFFFFF" d="M21.593,20.597l2.747-1.374l-0.372-0.186h1.277l0,0.638l-0.372-0.186l-2.747,1.374L21.593,20.597z
				 M26.727,20.417l-0.372-0.186l-2.747,1.374l-0.532-0.266l2.747-1.374l-0.372-0.186h1.277V20.417z"/>
		</g>
	</g>
</g>
<g>
	<g>
		<g>
			<path fill="#76CC4B" d="M16,5.684c-1.915,0-3.467,0.776-3.467,1.733S14.085,9.151,16,9.151s3.467-0.776,3.467-1.733
				S17.915,5.684,16,5.684z"/>
		</g>
		<path fill="#76CC4B" d="M16,9.367c-1.915,0-3.467-0.776-3.467-1.733v2.167c0,0.957,1.552,1.733,3.467,1.733
			s3.467-0.776,3.467-1.733V7.634C19.467,8.591,17.915,9.367,16,9.367z"/>
	</g>
	<g>
		<g>
			<path fill="#FFFFFF" d="M13.433,7.694L16.18,6.32l-0.372-0.186h1.277l0,0.638l-0.372-0.186L13.965,7.96L13.433,7.694z
				 M18.567,7.514l-0.372-0.186l-2.747,1.374l-0.532-0.266l2.747-1.374L17.29,6.875h1.277V7.514z"/>
		</g>
	</g>
</g>
<g>
	<g>
		<g>
			<path fill="#76CC4B" d="M8.355,18.587c-1.915,0-3.467,0.776-3.467,1.733c0,0.957,1.552,1.733,3.467,1.733
				s3.467-0.776,3.467-1.733C11.821,19.363,10.269,18.587,8.355,18.587z"/>
		</g>
		<path fill="#76CC4B" d="M8.355,22.271c-1.915,0-3.467-0.776-3.467-1.733v2.167c0,0.957,1.552,1.733,3.467,1.733
			s3.467-0.776,3.467-1.733v-2.167C11.821,21.495,10.269,22.271,8.355,22.271z"/>
	</g>
	<g>
		<g>
			<path fill="#FFFFFF" d="M5.788,20.597l2.747-1.374l-0.372-0.186h1.277l0,0.638l-0.372-0.186l-2.747,1.374L5.788,20.597z
				 M10.922,20.417l-0.372-0.186l-2.747,1.374L7.27,21.339l2.747-1.374l-0.372-0.186h1.277V20.417z"/>
		</g>
	</g>
</g>
</svg>
