<?xml version="1.0" encoding="utf-8"?>
<!-- Generator: Adobe Illustrator 21.0.0, SVG Export Plug-In . SVG Version: 6.00 Build 0)  -->
<svg version="1.1" id="图层_1" xmlns="http://www.w3.org/2000/svg" xmlns:xlink="http://www.w3.org/1999/xlink" x="0px" y="0px"
	 width="80px" height="80px" viewBox="0 0 80 80" enable-background="new 0 0 80 80" xml:space="preserve">
<g>
	<path fill="none" d="M63.939,48.057c0.902-1.104,1.354-2.427,1.354-3.97c0-4.102-2.7-6.152-8.101-6.152h-7.954v22.69h4.834v-8.789
		h1.465c0.527,0,1.025,0.176,1.494,0.527s1.069,1.138,1.802,2.358l3.56,5.903h5.566l-4.277-6.724
		c-1.27-1.953-2.427-3.105-3.472-3.457v-0.059C61.793,49.937,63.035,49.16,63.939,48.057z M58.635,47.156
		c-0.688,0.659-1.599,0.989-2.731,0.989h-2.373v-6.533h2.461c2.451,0,3.677,1.025,3.677,3.076
		C59.668,45.674,59.325,46.497,58.635,47.156z"/>
	<path fill="none" d="M24.234,60.625h5.244l1.67-5.2h8.247l1.699,5.2h5.273l-8.145-22.69H32.54L24.234,60.625z M35.265,41.846h0.132
		c0.068,0.82,0.186,1.479,0.352,1.978l2.578,7.866h-6.05l2.593-7.925C35.074,43.149,35.206,42.51,35.265,41.846z"/>
	<path fill="none" d="M64.401,32.5l-0.01-7.535c-0.001-0.928-0.755-1.68-1.683-1.678l-7.017,0.011c-0.002,0-0.005,0-0.006,0
		c-3.144,0-5.704-3.296-5.71-7.351l-0.014-9.84c-0.001-0.928-0.755-1.68-1.683-1.678L17.689,4.475
		c-1.185,0.002-2.148,1.322-2.146,2.943L15.578,32.5H64.401z"/>
	<path fill="none" d="M15.634,72.643c0.002,1.62,0.968,2.936,2.152,2.936c0.001,0,0.001,0,0.002,0l44.521-0.069
		c1.186-0.002,2.149-1.322,2.147-2.943L64.449,67H15.626L15.634,72.643z"/>
	<path fill="none" d="M20.506,58.618c1.382-1.602,2.073-3.901,2.073-6.899V37.935h-4.834v13.608c0,3.525-1.162,5.288-3.486,5.288
		c-1.074,0-2.031-0.317-2.871-0.952v4.556c0.977,0.391,2.036,0.586,3.179,0.586C17.145,61.021,19.124,60.22,20.506,58.618z"/>
	<path fill="#848484" d="M38.326,51.689l-2.578-7.866c-0.166-0.498-0.283-1.157-0.352-1.978h-0.132
		c-0.059,0.664-0.19,1.304-0.396,1.919l-2.593,7.925H38.326z"/>
	<path fill="#848484" d="M70.063,32.5h-2.106l-0.013-9.715l-0.005-3.195c-0.001-0.367-0.121-0.724-0.344-1.016L53.774,0.435
		c-0.072-0.095-0.15-0.162-0.226-0.217L53.378,0L17.684,0.055c-1.544,0.002-2.988,0.784-4.066,2.201
		c-1.054,1.386-1.633,3.221-1.63,5.166L12.023,32.5H9.938c-2.313,0-4.188,1.875-4.188,4.188v26.125C5.75,65.125,7.625,67,9.938,67
		h2.133l0.008,5.65c0.003,1.946,0.587,3.779,1.645,5.161C14.803,79.223,16.246,80,17.788,80c0.002,0,0.005,0,0.008,0l44.521-0.069
		c1.544-0.002,2.988-0.784,4.066-2.201c1.054-1.386,1.633-3.221,1.63-5.167L68.004,67h2.058c2.313,0,4.188-1.875,4.188-4.188V36.688
		C74.25,34.375,72.375,32.5,70.063,32.5z M63.683,53.901l4.277,6.724h-5.566l-3.56-5.903c-0.732-1.221-1.333-2.007-1.802-2.358
		s-0.967-0.527-1.494-0.527h-1.465v8.789h-4.834v-22.69h7.954c5.4,0,8.101,2.051,8.101,6.152c0,1.543-0.452,2.866-1.354,3.97
		c-0.904,1.104-2.146,1.88-3.729,2.329v0.059C61.256,50.796,62.413,51.948,63.683,53.901z M17.689,4.475l30.587-0.047
		c0.928-0.001,1.682,0.75,1.683,1.678l0.014,9.84c0.006,4.055,2.566,7.351,5.71,7.351c0.002,0,0.005,0,0.006,0l7.017-0.011
		c0.928-0.001,1.682,0.75,1.683,1.678l0.01,7.535H15.578L15.543,7.418C15.541,5.797,16.504,4.477,17.689,4.475z M46.368,60.625
		h-5.273l-1.699-5.2h-8.247l-1.67,5.2h-5.244l8.306-22.69h5.684L46.368,60.625z M11.388,55.879c0.84,0.635,1.797,0.952,2.871,0.952
		c2.324,0,3.486-1.763,3.486-5.288V37.935h4.834v13.784c0,2.998-0.691,5.298-2.073,6.899s-3.361,2.402-5.939,2.402
		c-1.143,0-2.202-0.195-3.179-0.586V55.879z M64.456,72.568c0.002,1.621-0.961,2.941-2.147,2.943L17.789,75.58
		c-0.001,0-0.001,0-0.002,0c-1.185,0-2.15-1.317-2.152-2.936L15.626,67h48.822L64.456,72.568z"/>
	<path fill="#848484" d="M55.992,41.611h-2.461v6.533h2.373c1.133,0,2.044-0.33,2.731-0.989c0.689-0.659,1.033-1.482,1.033-2.468
		C59.668,42.637,58.443,41.611,55.992,41.611z"/>
</g>
</svg>
