<?xml version="1.0" encoding="utf-8"?>
<!-- Generator: Adobe Illustrator 21.0.0, SVG Export Plug-In . SVG Version: 6.00 Build 0)  -->
<svg version="1.1" id="图层_1" xmlns="http://www.w3.org/2000/svg" xmlns:xlink="http://www.w3.org/1999/xlink" x="0px" y="0px"
	 width="80px" height="80px" viewBox="0 0 80 80" enable-background="new 0 0 80 80" xml:space="preserve">
<path fill="#848484" d="M53.35,40l24.023-24.023c3.508-3.508,3.508-9.194,0-12.702l-0.645-0.645c-3.508-3.508-9.194-3.508-12.702,0
	L40.004,26.653L15.981,2.631c-3.508-3.508-9.194-3.508-12.702,0L2.634,3.275c-3.508,3.508-3.508,9.194,0,12.702L26.657,40
	L2.634,64.023c-3.508,3.508-3.508,9.194,0,12.702l0.645,0.645c3.508,3.508,9.194,3.508,12.702,0l24.023-24.023l24.023,24.023
	c3.508,3.508,9.194,3.508,12.702,0l0.645-0.645c3.508-3.508,3.508-9.194,0-12.702L53.35,40z"/>
</svg>
