<?xml version="1.0" encoding="utf-8"?>
<!-- Generator: Adobe Illustrator 21.0.0, SVG Export Plug-In . SVG Version: 6.00 Build 0)  -->
<svg version="1.1" id="图层_1" xmlns="http://www.w3.org/2000/svg" xmlns:xlink="http://www.w3.org/1999/xlink" x="0px" y="0px"
	 width="80px" height="80px" viewBox="0 0 80 80" enable-background="new 0 0 80 80" xml:space="preserve">
<g>
	<g>
		<path fill="#848484" d="M5.871,22.108c0.236,0.136,0.494,0.201,0.748,0.201c0.519,0,1.023-0.27,1.301-0.751
			c2.081-3.612,4.738-6.828,7.897-9.559c0.627-0.542,0.696-1.489,0.154-2.116c-0.543-0.627-1.489-0.695-2.116-0.154
			c-3.415,2.952-6.286,6.427-8.535,10.331C4.907,20.777,5.154,21.695,5.871,22.108z"/>
		<path fill="#848484" d="M40.004,0c-5.4,0-10.638,1.058-15.57,3.144c-0.763,0.323-1.12,1.203-0.797,1.966
			c0.322,0.763,1.202,1.121,1.966,0.797C30.162,3.978,35.008,3,40.004,3c20.402,0,37,16.598,37,37s-16.598,37-37,37
			s-37-16.598-37-37c0-2.318,0.216-4.639,0.642-6.898c0.153-0.814-0.382-1.599-1.196-1.752c-0.813-0.153-1.598,0.383-1.752,1.196
			c-0.46,2.442-0.693,4.95-0.693,7.454c0,22.056,17.944,40,40,40s40-17.944,40-40S62.06,0,40.004,0z"/>
	</g>
	<g>
		<g>
			<path fill="#848484" d="M58.325,57.014H21.683c-0.628,0-1.137-0.509-1.137-1.137V24.122c0-0.628,0.509-1.137,1.137-1.137h36.642
				c0.628,0,1.137,0.509,1.137,1.137v31.755C59.461,56.505,58.952,57.014,58.325,57.014z M22.819,54.741h34.369V25.259H22.819
				V54.741z"/>
		</g>
		<g>
			<path fill="#848484" d="M40.004,42.303c-0.266,0-0.534-0.094-0.748-0.281L25.423,29.939c-0.472-0.413-0.521-1.131-0.108-1.604
				c0.414-0.471,1.13-0.521,1.605-0.108l13.085,11.431l13.085-11.431c0.476-0.413,1.191-0.363,1.605,0.108
				c0.412,0.473,0.364,1.191-0.108,1.604L40.752,42.023C40.537,42.21,40.27,42.303,40.004,42.303z"/>
		</g>
	</g>
</g>
</svg>
