<?xml version="1.0" encoding="utf-8"?>
<!-- Generator: Adobe Illustrator 21.0.0, SVG Export Plug-In . SVG Version: 6.00 Build 0)  -->
<svg version="1.1" id="图层_1" xmlns="http://www.w3.org/2000/svg" xmlns:xlink="http://www.w3.org/1999/xlink" x="0px" y="0px"
	 width="80px" height="80px" viewBox="0 0 80 80" enable-background="new 0 0 80 80" xml:space="preserve">
<path fill="#848484" d="M40,5C20.67,5,5,20.67,5,40s15.67,35,35,35c19.33,0,35-15.67,35-35S59.33,5,40,5z M20.556,64.755
	c0.003-0.019,0.009-0.035,0.011-0.054C21.716,54.256,30.07,46.38,40,46.38s18.284,7.876,19.432,18.321
	c0.002,0.019,0.008,0.036,0.011,0.055C54.084,68.974,47.334,71.5,40,71.5C32.666,71.5,25.916,68.974,20.556,64.755z M31.872,34.024
	c0-4.482,3.646-8.128,8.128-8.128c4.482,0,8.128,3.646,8.128,8.128S44.482,42.152,40,42.152
	C35.518,42.152,31.872,38.506,31.872,34.024z M61.867,62.641c-1.713-9.468-8.686-16.784-17.433-18.66
	c3.809-1.699,6.466-5.517,6.466-9.957c0-6.02-4.88-10.9-10.9-10.9c-6.02,0-10.9,4.88-10.9,10.9c0,4.44,2.656,8.258,6.466,9.957
	c-8.747,1.876-15.72,9.193-17.433,18.66C12.2,56.909,8.5,48.881,8.5,40C8.5,22.631,22.631,8.5,40,8.5S71.5,22.631,71.5,40
	C71.5,48.881,67.8,56.909,61.867,62.641z"/>
</svg>
