<?xml version="1.0" encoding="utf-8"?>
<!-- Generator: Adobe Illustrator 21.0.0, SVG Export Plug-In . SVG Version: 6.00 Build 0)  -->
<svg version="1.1" id="图层_1" xmlns="http://www.w3.org/2000/svg" xmlns:xlink="http://www.w3.org/1999/xlink" x="0px" y="0px"
	 width="80px" height="80px" viewBox="0 0 80 80" enable-background="new 0 0 80 80" xml:space="preserve">
<g>
	<path fill="#848484" d="M25.465,29.078c-14.277,0-25.461,4.98-25.461,11.337c0,6.357,11.184,11.336,25.461,11.336
		c14.277,0,25.461-4.98,25.461-11.336C50.925,34.058,39.742,29.078,25.465,29.078z M25.465,49.63
		c-13.961,0-23.339-4.765-23.339-9.215S11.504,31.2,25.465,31.2c13.961,0,23.339,4.765,23.339,9.215S39.425,49.63,25.465,49.63z"/>
	<path fill="#848484" d="M49.865,45.978c-0.586,0-1.061,0.475-1.061,1.061c0,4.45-9.378,9.215-23.339,9.215
		c-13.961,0-23.339-4.765-23.339-9.215c0-0.586-0.475-1.061-1.061-1.061c-0.586,0-1.061,0.475-1.061,1.061v21.624
		C0.004,75.02,11.187,80,25.465,80c14.277,0,25.461-4.98,25.461-11.337V47.039C50.925,46.453,50.45,45.978,49.865,45.978z
		 M48.804,68.663c0,4.45-9.378,9.215-23.339,9.215c-13.961,0-23.339-4.765-23.339-9.215V51.651
		c3.897,3.996,12.771,6.725,23.339,6.725c10.568,0,19.442-2.729,23.339-6.725V68.663z"/>
	<path fill="#848484" d="M75.796,4.04C72.987,1.346,69.116,0,64.182,0c-4.492,0-8.306,1.515-11.445,4.545
		c-3.145,3.03-4.829,7.69-5.049,13.97h7.743c0-4.261,0.842-7.347,2.525-9.257c1.683-1.904,3.756-2.861,6.228-2.861
		c2.466,0,4.376,0.732,5.723,2.188c1.347,1.462,2.02,3.65,2.02,6.564c0,1.573-0.337,3.198-1.01,4.881s-1.91,3.314-3.703,4.881
		c-2.472,2.247-4.208,4.324-5.218,6.228c-1.01,1.91-1.515,3.871-1.515,5.891v3.366h6.059V38.04c0-0.673,0.447-1.904,1.347-3.703
		c0.894-1.793,2.466-3.587,4.713-5.386c2.241-1.793,4.04-3.924,5.386-6.396c1.346-2.466,2.02-5.159,2.02-8.079
		C80.004,10.215,78.599,6.733,75.796,4.04z"/>
	<rect x="59.806" y="50.158" fill="#848484" width="7.406" height="8.079"/>
</g>
</svg>
