<?xml version="1.0" encoding="utf-8"?>
<!-- Generator: Adobe Illustrator 21.0.0, SVG Export Plug-In . SVG Version: 6.00 Build 0)  -->
<svg version="1.1" id="图层_1" xmlns="http://www.w3.org/2000/svg" xmlns:xlink="http://www.w3.org/1999/xlink" x="0px" y="0px"
	 width="80px" height="80px" viewBox="0 0 80 80" enable-background="new 0 0 80 80" xml:space="preserve">
<path fill="#848484" d="M73.209,46.03c-0.258-0.623-0.866-1.029-1.54-1.029H54.464V1.667c0-0.92-0.746-1.667-1.667-1.667H27.21
	c-0.92,0-1.667,0.746-1.667,1.667v43.335H8.338c-0.674,0-1.282,0.406-1.54,1.029c-0.258,0.623-0.116,1.34,0.361,1.816l31.666,31.665
	C39.151,79.837,39.578,80,40.004,80c0.426,0,0.853-0.163,1.178-0.488l31.665-31.665C73.324,47.37,73.467,46.654,73.209,46.03z
	 M40.004,75.977L12.362,48.335H27.21c0.92,0,1.667-0.746,1.667-1.667V3.333H51.13v43.335c0,0.92,0.746,1.667,1.667,1.667h14.849
	L40.004,75.977z"/>
</svg>
