<?xml version="1.0" encoding="utf-8"?>
<!-- Generator: Adobe Illustrator 21.0.0, SVG Export Plug-In . SVG Version: 6.00 Build 0)  -->
<svg version="1.1" id="图层_1" xmlns="http://www.w3.org/2000/svg" xmlns:xlink="http://www.w3.org/1999/xlink" x="0px" y="0px"
	 width="80px" height="80px" viewBox="0 0 80 80" enable-background="new 0 0 80 80" xml:space="preserve">
<g>
	
		<rect x="19.707" y="34.883" transform="matrix(0.7071 -0.7071 0.7071 0.7071 -14.6625 40.7896)" fill="#848484" width="44.398" height="6.422"/>
</g>
<g>
	<path fill="#848484" d="M78.221,12.987L67.013,1.779c-2.371-2.371-6.252-2.371-8.623,0L34.423,25.745
		c-0.055,0.055-0.102,0.115-0.155,0.171l3.372,3.372c0.044-0.063,0.09-0.124,0.146-0.18L61.754,5.142
		c0.514-0.514,1.382-0.514,1.896,0l11.208,11.208c0.514,0.514,0.514,1.382,0,1.896L50.891,42.213
		c-0.056,0.056-0.117,0.102-0.18,0.146l3.372,3.372c0.057-0.053,0.116-0.1,0.171-0.155L78.221,21.61
		C80.593,19.239,80.593,15.358,78.221,12.987z"/>
	<path fill="#848484" d="M45.732,54.083l-3.372-3.372c-0.044,0.063-0.09,0.125-0.146,0.18L18.246,74.858
		c-0.514,0.514-1.382,0.514-1.896,0L5.142,63.649c-0.514-0.514-0.514-1.382,0-1.896l23.967-23.967
		c0.056-0.056,0.117-0.102,0.18-0.146l-3.372-3.372c-0.057,0.052-0.116,0.1-0.171,0.155L1.779,58.39
		c-2.371,2.371-2.371,6.252,0,8.623l11.208,11.208c2.371,2.371,6.252,2.371,8.623,0l23.967-23.967
		C45.632,54.2,45.679,54.14,45.732,54.083z"/>
</g>
</svg>
