<?xml version="1.0" encoding="utf-8"?>
<!-- Generator: Adobe Illustrator 21.0.0, SVG Export Plug-In . SVG Version: 6.00 Build 0)  -->
<svg version="1.1" id="图层_1" xmlns="http://www.w3.org/2000/svg" xmlns:xlink="http://www.w3.org/1999/xlink" x="0px" y="0px"
	 width="80px" height="80px" viewBox="0 0 80 80" enable-background="new 0 0 80 80" xml:space="preserve">
<g>
	<path fill="#848484" d="M40,8.5c17.369,0,31.5,14.131,31.5,31.5S57.369,71.5,40,71.5S8.5,57.369,8.5,40S22.631,8.5,40,8.5 M40,5
		C20.67,5,5,20.67,5,40s15.67,35,35,35c19.33,0,35-15.67,35-35S59.33,5,40,5L40,5z"/>
	<g>
		<path fill="#848484" d="M51.547,30.874c0,1.799-0.481,3.458-1.443,4.978c-0.962,1.523-2.248,2.836-3.849,3.941
			c-1.605,1.108-2.729,2.214-3.368,3.319c-0.643,1.108-0.962,1.867-0.962,2.282v1.452h-4.33v-2.074c0-1.245,0.361-2.453,1.083-3.63
			c0.722-1.173,1.962-2.453,3.729-3.837c1.282-0.966,2.165-1.971,2.646-3.008c0.481-1.037,0.722-2.038,0.722-3.008
			c0-1.795-0.481-3.144-1.443-4.045c-0.962-0.898-2.327-1.348-4.09-1.348c-1.767,0-3.248,0.59-4.45,1.763
			c-1.203,1.176-1.804,3.079-1.804,5.704h-5.533c0.158-3.87,1.361-6.741,3.609-8.608c2.244-1.867,4.969-2.8,8.179-2.8
			c3.526,0,6.292,0.83,8.3,2.489C50.544,26.103,51.547,28.249,51.547,30.874z M43.127,55.142c0,0.83-0.323,1.523-0.962,2.074
			c-0.643,0.554-1.443,0.83-2.406,0.83s-1.767-0.275-2.406-0.83c-0.643-0.551-0.962-1.245-0.962-2.074c0-0.83,0.32-1.52,0.962-2.074
			c0.639-0.551,1.443-0.83,2.406-0.83s1.763,0.279,2.406,0.83C42.804,53.622,43.127,54.312,43.127,55.142z"/>
	</g>
</g>
</svg>
