<?xml version="1.0" encoding="utf-8"?>
<!-- Generator: Adobe Illustrator 21.0.0, SVG Export Plug-In . SVG Version: 6.00 Build 0)  -->
<svg version="1.1" id="图层_1" xmlns="http://www.w3.org/2000/svg" xmlns:xlink="http://www.w3.org/1999/xlink" x="0px" y="0px"
	 width="80px" height="80px" viewBox="0 0 80 80" enable-background="new 0 0 80 80" xml:space="preserve">
<g>
	<path fill="#848484" d="M5.872,22.108c0.236,0.136,0.494,0.201,0.748,0.201c0.519,0,1.023-0.27,1.301-0.751
		c2.081-3.612,4.738-6.828,7.897-9.559c0.627-0.542,0.696-1.489,0.154-2.116c-0.542-0.627-1.489-0.695-2.116-0.154
		c-3.415,2.952-6.286,6.427-8.535,10.331C4.907,20.777,5.154,21.695,5.872,22.108z"/>
	<path fill="#848484" d="M40.003,0c-5.399,0-10.638,1.058-15.57,3.144c-0.763,0.323-1.12,1.203-0.797,1.966
		c0.322,0.763,1.202,1.121,1.966,0.797C30.163,3.978,35.007,3,40.003,3c20.402,0,37,16.598,37,37s-16.598,37-37,37
		c-20.401,0-37-16.598-37-37c0-2.318,0.216-4.639,0.642-6.898c0.153-0.814-0.382-1.599-1.196-1.752
		c-0.814-0.153-1.598,0.383-1.752,1.196c-0.46,2.442-0.693,4.95-0.693,7.454c0,22.056,17.944,40,40,40s40-17.944,40-40
		S62.059,0,40.003,0z"/>
	<path fill="#848484" d="M50.545,36.803c1.554,0,3.109-0.593,4.294-1.779c2.372-2.372,2.372-6.217,0-8.589
		c-1.186-1.186-2.74-1.779-4.294-1.779c-1.554,0-3.109,0.593-4.294,1.779c-2.372,2.372-2.372,6.217,0,8.589
		C47.436,36.21,48.99,36.803,50.545,36.803z M48.372,28.557c0.58-0.58,1.352-0.9,2.173-0.9s1.593,0.32,2.173,0.9
		c1.198,1.198,1.198,3.148,0,4.346c-0.58,0.581-1.352,0.9-2.173,0.9s-1.593-0.32-2.173-0.9
		C47.173,31.705,47.173,29.755,48.372,28.557z"/>
	<path fill="#848484" d="M15.86,59.469c0.15,0.524,0.573,0.925,1.104,1.048l7.991,1.844c0.503,0.115,1.032-0.035,1.398-0.401
		l1.204-1.204l2.068,2.068c0.281,0.281,0.663,0.439,1.061,0.439s0.779-0.158,1.061-0.439l2.829-2.83
		c0.586-0.586,0.586-1.536,0-2.121l-2.067-2.068l1.767-1.767l3.443,3.443c0.586,0.586,1.535,0.586,2.121,0l3.852-3.852
		c0.281-0.281,0.439-0.663,0.439-1.061s-0.158-0.779-0.439-1.061l-3.443-3.443l4.942-4.942c1.685,0.726,3.517,1.106,5.36,1.106
		c3.604,0,6.993-1.404,9.542-3.953c2.551-2.55,3.955-5.941,3.955-9.547c0-3.607-1.404-6.998-3.955-9.548
		c-2.55-2.55-5.941-3.955-9.548-3.955s-6.998,1.405-9.548,3.955c-3.97,3.971-5.052,9.836-2.848,14.904L16.241,57.995
		C15.855,58.38,15.709,58.944,15.86,59.469z M41.024,37.454c0.468-0.467,0.574-1.186,0.262-1.769
		c-2.2-4.109-1.464-9.085,1.832-12.382c1.984-1.984,4.621-3.076,7.427-3.076s5.442,1.092,7.427,3.076
		c1.983,1.984,3.076,4.622,3.076,7.427s-1.093,5.442-3.076,7.426c-1.982,1.982-4.617,3.074-7.421,3.074
		c-1.729,0-3.445-0.429-4.961-1.241c-0.58-0.312-1.301-0.206-1.769,0.262l-6.755,6.754c-0.281,0.281-0.439,0.663-0.439,1.061
		s0.158,0.779,0.439,1.061l3.443,3.443l-1.73,1.73l-3.443-3.443c-0.586-0.586-1.535-0.586-2.121,0l-3.888,3.888
		c-0.281,0.281-0.439,0.663-0.439,1.061s0.158,0.779,0.439,1.061l2.068,2.068l-0.708,0.708l-2.068-2.068
		c-0.293-0.293-0.677-0.439-1.061-0.439s-0.768,0.146-1.061,0.439l-1.677,1.676l-4.544-1.049L41.024,37.454z"/>
</g>
</svg>
