<?xml version="1.0" encoding="utf-8"?>
<!-- Generator: Adobe Illustrator 21.0.0, SVG Export Plug-In . SVG Version: 6.00 Build 0)  -->
<svg version="1.1" id="图层_1" xmlns="http://www.w3.org/2000/svg" xmlns:xlink="http://www.w3.org/1999/xlink" x="0px" y="0px"
	 width="80px" height="80px" viewBox="0 0 80 80" enable-background="new 0 0 80 80" xml:space="preserve">
<path fill="#848484" d="M74.524,69.041c-0.677,0-1.323,0.129-1.922,0.354L10.609,7.401c0.225-0.599,0.354-1.245,0.354-1.922
	C10.962,2.453,8.509,0,5.483,0C2.457,0,0.004,2.453,0.004,5.479c0,3.026,2.453,5.479,5.479,5.479c0.677,0,1.323-0.129,1.922-0.354
	l61.993,61.993c-0.225,0.599-0.354,1.245-0.354,1.922c0,3.026,2.453,5.479,5.479,5.479c3.026,0,5.479-2.453,5.479-5.479
	C80.004,71.495,77.55,69.041,74.524,69.041z M2.978,5.479c0-1.383,1.121-2.505,2.505-2.505c1.383,0,2.505,1.121,2.505,2.505
	S6.866,7.984,5.483,7.984C4.1,7.984,2.978,6.863,2.978,5.479z M74.524,77.026c-1.383,0-2.505-1.122-2.505-2.505
	s1.121-2.505,2.505-2.505c1.383,0,2.505,1.121,2.505,2.505S75.908,77.026,74.524,77.026z"/>
</svg>
