<?xml version="1.0" encoding="utf-8"?>
<!-- Generator: Adobe Illustrator 21.0.0, SVG Export Plug-In . SVG Version: 6.00 Build 0)  -->
<svg version="1.1" id="图层_1" xmlns="http://www.w3.org/2000/svg" xmlns:xlink="http://www.w3.org/1999/xlink" x="0px" y="0px"
	 width="80px" height="80px" viewBox="0 0 80 80" enable-background="new 0 0 80 80" xml:space="preserve">
<g>
	<path fill="#848484" d="M40.004,17.324c15.334,0,27.345-3.483,27.345-7.93c0-4.447-12.011-7.93-27.345-7.93
		s-27.345,3.483-27.345,7.93C12.658,13.84,24.67,17.324,40.004,17.324z"/>
	<path fill="#848484" d="M66.21,13.285c-0.629,0-1.139,0.332-1.139,0.742c0,3.113-10.073,6.446-25.067,6.446
		s-25.067-3.333-25.067-6.446c0-0.41-0.51-0.742-1.139-0.742s-1.139,0.332-1.139,0.742v15.127c0,4.447,12.011,7.93,27.345,7.93
		s27.345-3.483,27.345-7.93V14.027C67.349,13.617,66.839,13.285,66.21,13.285z"/>
	<path fill="#848484" d="M66.21,33.663c-0.629,0-1.139,0.332-1.139,0.742c0,3.113-10.073,6.446-25.067,6.446
		s-25.067-3.333-25.067-6.446c0-0.41-0.51-0.742-1.139-0.742s-1.139,0.332-1.139,0.742v15.127c0,4.447,12.011,7.93,27.345,7.93
		s27.345-3.483,27.345-7.93V34.405C67.349,33.995,66.839,33.663,66.21,33.663z"/>
	<path fill="#848484" d="M66.21,54.738c-0.629,0-1.139,0.332-1.139,0.742c0,3.113-10.073,6.446-25.067,6.446
		s-25.067-3.333-25.067-6.446c0-0.41-0.51-0.742-1.139-0.742s-1.139,0.332-1.139,0.742v15.127c0,4.447,12.011,7.93,27.345,7.93
		s27.345-3.483,27.345-7.93V55.48C67.349,55.07,66.839,54.738,66.21,54.738z"/>
</g>
</svg>
