<?xml version="1.0" encoding="utf-8"?>
<!-- Generator: Adobe Illustrator 21.0.0, SVG Export Plug-In . SVG Version: 6.00 Build 0)  -->
<svg version="1.1" id="图层_1" xmlns="http://www.w3.org/2000/svg" xmlns:xlink="http://www.w3.org/1999/xlink" x="0px" y="0px"
	 width="80px" height="80px" viewBox="0 0 80 80" enable-background="new 0 0 80 80" xml:space="preserve">
<g>
	<path fill="#848484" d="M8.678,0C6.838,0,5.345,1.493,5.345,3.333v73.333C5.345,78.507,6.838,80,8.678,80s3.333-1.493,3.333-3.333
		V3.333C12.012,1.493,10.519,0,8.678,0z"/>
	<path fill="#848484" d="M25.211,34.491h25.511c2.757,0,5-2.243,5-5V15.554c0-2.757-2.243-5-5-5H25.211c-2.757,0-5,2.243-5,5v13.936
		C20.211,32.248,22.454,34.491,25.211,34.491z M23.544,15.554c0-0.919,0.748-1.667,1.667-1.667h25.511
		c0.919,0,1.667,0.748,1.667,1.667v13.936c0,0.919-0.748,1.667-1.667,1.667H25.211c-0.919,0-1.667-0.748-1.667-1.667V15.554z"/>
	<path fill="#848484" d="M69.662,45.509H25.211c-2.757,0-5,2.243-5,5v13.936c0,2.757,2.243,5,5,5h44.451c2.757,0,5-2.243,5-5V50.509
		C74.662,47.752,72.419,45.509,69.662,45.509z M71.329,64.446c0,0.919-0.748,1.667-1.667,1.667H25.211
		c-0.919,0-1.667-0.748-1.667-1.667V50.509c0-0.919,0.748-1.667,1.667-1.667h44.451c0.919,0,1.667,0.748,1.667,1.667V64.446z"/>
</g>
</svg>
