<?xml version="1.0" encoding="utf-8"?>
<!-- Generator: Adobe Illustrator 21.0.0, SVG Export Plug-In . SVG Version: 6.00 Build 0)  -->
<svg version="1.1" id="图层_1" xmlns="http://www.w3.org/2000/svg" xmlns:xlink="http://www.w3.org/1999/xlink" x="0px" y="0px"
	 width="80px" height="80px" viewBox="0 0 80 80" enable-background="new 0 0 80 80" xml:space="preserve">
<g>
	<path fill="#848484" d="M40.004,10c16.544,0,30,13.46,30,30c0,16.544-13.457,30-30,30c-16.54,0-30-13.457-30-30
		C10.003,23.46,23.464,10,40.004,10 M40.004,0C17.914,0,0.005,17.91,0.005,40s17.909,40,39.999,40c22.09,0,39.999-17.91,39.999-40
		S62.094,0,40.004,0"/>
	<path fill="#848484" d="M48.005,57c-1.28,0-2.561-0.487-3.537-1.464l-9.993-9.997c-0.908-0.899-1.467-2.146-1.47-3.523v-0.004V42
		V22c0-2.764,2.237-5,5-5c2.763,0,5,2.236,5,5v17.929l8.536,8.534c1.951,1.953,1.951,5.12,0,7.073
		C50.564,56.513,49.283,57,48.005,57"/>
</g>
</svg>
