<?xml version="1.0" encoding="utf-8"?>
<!-- Generator: Adobe Illustrator 21.0.0, SVG Export Plug-In . SVG Version: 6.00 Build 0)  -->
<svg version="1.1" id="图层_1" xmlns="http://www.w3.org/2000/svg" xmlns:xlink="http://www.w3.org/1999/xlink" x="0px" y="0px"
	 width="80px" height="80px" viewBox="0 0 80 80" enable-background="new 0 0 80 80" xml:space="preserve">
<g>
	<path fill="#848484" d="M49.376,0l-2.371,54.764H32.89L30.406,0H49.376z M46.807,77.206C44.943,79.069,42.714,80,40.117,80
		c-2.635,0-4.884-0.931-6.746-2.794c-1.865-1.863-2.794-4.113-2.794-6.747c0-2.71,0.958-4.987,2.878-6.831
		c1.92-1.843,3.99-2.766,6.21-2.766c2.936,0,5.327,0.941,7.172,2.823c1.844,1.883,2.765,4.121,2.765,6.718
		C49.601,73.076,48.669,75.343,46.807,77.206z"/>
</g>
</svg>
