<?xml version="1.0" encoding="utf-8"?>
<!-- Generator: Adobe Illustrator 21.0.0, SVG Export Plug-In . SVG Version: 6.00 Build 0)  -->
<svg version="1.1" id="图层_1" xmlns="http://www.w3.org/2000/svg" xmlns:xlink="http://www.w3.org/1999/xlink" x="0px" y="0px"
	 width="80px" height="80px" viewBox="0 0 80 80" enable-background="new 0 0 80 80" xml:space="preserve">
<g>
	<path fill="#848484" d="M74,1.544H6c-3.3,0-6,2.7-6,6v64.911c0,3.3,2.7,6,6,6h68c3.3,0,6-2.7,6-6V7.544
		C80,4.244,77.3,1.544,74,1.544z M2.313,73.916c-0.825,0-1.494-0.669-1.494-1.494s0.669-1.494,1.494-1.494s1.494,0.669,1.494,1.494
		S3.137,73.916,2.313,73.916z M1.375,56.188V23.813c0-0.619,0.506-1.125,1.125-1.125s1.125,0.506,1.125,1.125v32.375
		c0,0.619-0.506,1.125-1.125,1.125S1.375,56.806,1.375,56.188z M2.313,9.072c-0.825,0-1.494-0.669-1.494-1.494
		s0.669-1.494,1.494-1.494s1.494,0.669,1.494,1.494S3.137,9.072,2.313,9.072z M75.167,76H4.833V4h70.333V76z M77.688,73.916
		c-0.825,0-1.494-0.669-1.494-1.494s0.669-1.494,1.494-1.494s1.494,0.669,1.494,1.494S78.512,73.916,77.688,73.916z M76.625,56.188
		V23.813c0-0.619,0.506-1.125,1.125-1.125s1.125,0.506,1.125,1.125v32.375c0,0.619-0.506,1.125-1.125,1.125
		S76.625,56.806,76.625,56.188z M77.688,9.072c-0.825,0-1.494-0.669-1.494-1.494s0.669-1.494,1.494-1.494s1.494,0.669,1.494,1.494
		S78.512,9.072,77.688,9.072z"/>
	<path fill="#848484" d="M12.5,13.835c0.842,0.553,1.032-1.716,0-2.405c-1.032-0.689-5.256-3.511-5.256-3.511
		C6.781,7.611,6.162,7.735,5.855,8.195S5.673,9.275,6.132,9.582C6.132,9.582,11.658,13.282,12.5,13.835z"/>
	<path fill="#848484" d="M67.5,13.835c0.842-0.553,6.368-4.253,6.368-4.253c0.459-0.307,0.583-0.928,0.276-1.387
		s-0.926-0.584-1.388-0.276c0,0-4.224,2.821-5.256,3.511C66.468,12.119,66.659,14.388,67.5,13.835z"/>
	<path fill="#848484" d="M7.243,72.081c0,0,4.224-2.821,5.256-3.511c1.032-0.689,0.842-2.959,0-2.405
		c-0.842,0.553-6.368,4.253-6.368,4.253c-0.459,0.307-0.583,0.928-0.276,1.387S6.781,72.389,7.243,72.081z"/>
	<path fill="#848484" d="M67.5,68.57c1.032,0.689,5.256,3.511,5.256,3.511c0.462,0.308,1.081,0.184,1.388-0.276
		s0.183-1.081-0.276-1.387c0,0-5.526-3.7-6.368-4.253C66.659,65.612,66.468,67.881,67.5,68.57z"/>
	<path fill="#848484" d="M37.125,70.625h5.75c1.1,0,2-0.9,2-2V11.375c0-1.1-0.9-2-2-2h-5.75c-1.1,0-2,0.9-2,2v57.251
		C35.125,69.725,36.025,70.625,37.125,70.625z M40,10.835c0.825,0,1.494,0.669,1.494,1.494S40.825,13.823,40,13.823
		s-1.494-0.669-1.494-1.494S39.175,10.835,40,10.835z M40,66.079c0.825,0,1.494,0.669,1.494,1.494S40.825,69.066,40,69.066
		s-1.494-0.669-1.494-1.494S39.175,66.079,40,66.079z"/>
	<path fill="#848484" d="M21.289,70.625h5.75c1.1,0,2-0.9,2-2V11.375c0-1.1-0.9-2-2-2h-5.75c-1.1,0-2,0.9-2,2v57.251
		C19.289,69.725,20.19,70.625,21.289,70.625z M24.164,10.835c0.825,0,1.494,0.669,1.494,1.494s-0.669,1.494-1.494,1.494
		s-1.494-0.669-1.494-1.494S23.34,10.835,24.164,10.835z M24.164,66.079c0.825,0,1.494,0.669,1.494,1.494s-0.669,1.494-1.494,1.494
		s-1.494-0.669-1.494-1.494S23.34,66.079,24.164,66.079z"/>
	<path fill="#848484" d="M52.961,70.625h5.75c1.1,0,2-0.9,2-2V11.375c0-1.1-0.9-2-2-2h-5.75c-1.1,0-2,0.9-2,2v57.251
		C50.961,69.725,51.861,70.625,52.961,70.625z M55.836,10.835c0.825,0,1.494,0.669,1.494,1.494s-0.669,1.494-1.494,1.494
		s-1.494-0.669-1.494-1.494S55.011,10.835,55.836,10.835z M55.836,66.079c0.825,0,1.494,0.669,1.494,1.494s-0.669,1.494-1.494,1.494
		s-1.494-0.669-1.494-1.494S55.011,66.079,55.836,66.079z"/>
</g>
</svg>
