<?xml version="1.0" encoding="utf-8"?>
<!-- Generator: Adobe Illustrator 21.0.0, SVG Export Plug-In . SVG Version: 6.00 Build 0)  -->
<svg version="1.1" id="图层_1" xmlns="http://www.w3.org/2000/svg" xmlns:xlink="http://www.w3.org/1999/xlink" x="0px" y="0px"
	 width="80px" height="80px" viewBox="0 0 80 80" enable-background="new 0 0 80 80" xml:space="preserve">
<path fill="#848484" d="M79.871,41.272c-0.269-0.648-0.902-1.071-1.603-1.071h-9.463c0.004-0.068,0.02-0.132,0.02-0.201
	c0-18.975-15.436-34.411-34.411-34.411C15.44,5.589,0.004,21.025,0.004,40s15.436,34.411,34.41,34.411
	c9.191,0,17.832-3.58,24.332-10.079c1.356-1.355,1.356-3.554,0-4.909c-1.354-1.356-3.554-1.356-4.909,0
	c-5.188,5.188-12.086,8.045-19.423,8.045C19.268,67.468,6.946,55.146,6.946,40s12.322-27.468,27.468-27.468S61.882,24.854,61.882,40
	c0,0.069,0.016,0.133,0.02,0.201h-9.463c-0.702,0-1.335,0.423-1.603,1.071c-0.269,0.649-0.12,1.395,0.376,1.892l12.914,12.914
	c0.339,0.339,0.783,0.509,1.227,0.509s0.888-0.17,1.227-0.509l12.914-12.914C79.992,42.667,80.14,41.921,79.871,41.272z
	 M65.354,52.396l-8.724-8.724h17.448L65.354,52.396z"/>
</svg>
