<?xml version="1.0" encoding="utf-8"?>
<!-- Generator: Adobe Illustrator 21.0.0, SVG Export Plug-In . SVG Version: 6.00 Build 0)  -->
<svg version="1.1" id="图层_1" xmlns="http://www.w3.org/2000/svg" xmlns:xlink="http://www.w3.org/1999/xlink" x="0px" y="0px"
	 width="80px" height="80px" viewBox="0 0 80 80" enable-background="new 0 0 80 80" xml:space="preserve">
<path fill="#848484" d="M75.78,59.889H64.117c-2.329,0-4.224,1.895-4.224,4.224v4.165H37.822V49.371
	c4.465-0.789,7.859-4.679,7.859-9.371c0-5.261-4.265-9.526-9.526-9.526c-4.691,0-8.581,3.394-9.371,7.859H10.096v-21.65
	c3.85-0.776,6.759-4.182,6.759-8.258C16.856,3.78,13.076,0,8.43,0S0.004,3.78,0.004,8.426c0,4.075,2.909,7.481,6.759,8.258V40
	c0,0.92,0.746,1.667,1.667,1.667h18.355c0.694,3.923,3.782,7.01,7.704,7.704v20.574c0,0.92,0.746,1.667,1.667,1.667h23.738v4.165
	c0,2.329,1.895,4.224,4.224,4.224H75.78c2.329,0,4.224-1.895,4.224-4.224V64.113C80.004,61.784,78.109,59.889,75.78,59.889z
	 M3.337,8.426c0-2.808,2.284-5.093,5.093-5.093s5.093,2.284,5.093,5.093s-2.284,5.093-5.093,5.093S3.337,11.235,3.337,8.426z
	 M76.67,75.776c0,0.491-0.4,0.89-0.89,0.89H64.117c-0.491,0-0.89-0.4-0.89-0.89V64.113c0-0.491,0.4-0.89,0.89-0.89H75.78
	c0.491,0,0.89,0.4,0.89,0.89V75.776z"/>
</svg>
