<?xml version="1.0" encoding="utf-8"?>
<!-- Generator: Adobe Illustrator 21.0.0, SVG Export Plug-In . SVG Version: 6.00 Build 0)  -->
<svg version="1.1" id="图层_1" xmlns="http://www.w3.org/2000/svg" xmlns:xlink="http://www.w3.org/1999/xlink" x="0px" y="0px"
	 width="80px" height="80px" viewBox="0 0 80 80" enable-background="new 0 0 80 80" xml:space="preserve">
<path fill="#848484" d="M79.515,38.822L47.85,7.157c-0.478-0.477-1.194-0.621-1.816-0.361c-0.623,0.258-1.029,0.866-1.029,1.54
	V25.54H1.67c-0.92,0-1.667,0.746-1.667,1.667v25.587c0,0.92,0.746,1.667,1.667,1.667h43.335v17.205c0,0.674,0.406,1.282,1.029,1.54
	c0.207,0.085,0.423,0.127,0.638,0.127c0.434,0,0.859-0.169,1.178-0.488l31.665-31.665C80.166,40.528,80.166,39.473,79.515,38.822z
	 M48.339,67.642V52.793c0-0.92-0.746-1.667-1.667-1.667H3.337V28.873h43.335c0.92,0,1.667-0.746,1.667-1.667V12.359L75.98,40
	L48.339,67.642z"/>
</svg>
