<?xml version="1.0" encoding="utf-8"?>
<!-- Generator: Adobe Illustrator 21.0.0, SVG Export Plug-In . SVG Version: 6.00 Build 0)  -->
<svg version="1.1" id="图层_1" xmlns="http://www.w3.org/2000/svg" xmlns:xlink="http://www.w3.org/1999/xlink" x="0px" y="0px"
	 width="80px" height="80px" viewBox="0 0 80 80" enable-background="new 0 0 80 80" xml:space="preserve">
<g>
	<path fill="#848484" d="M79.568,38.964L60.292,19.688c-0.429-0.429-1.074-0.557-1.635-0.325c-0.561,0.232-0.926,0.779-0.926,1.386
		v9.941H33.277c-0.828,0-1.5,0.671-1.5,1.5v15.67c0,0.829,0.672,1.5,1.5,1.5h24.454v9.941c0,0.607,0.365,1.154,0.926,1.386
		c0.186,0.077,0.381,0.114,0.574,0.114c0.39,0,0.773-0.152,1.061-0.439l19.276-19.276C80.154,40.5,80.154,39.55,79.568,38.964z
		 M60.731,55.68v-7.82c0-0.829-0.672-1.5-1.5-1.5H34.777V33.69h24.454c0.828,0,1.5-0.671,1.5-1.5v-7.82l15.655,15.655L60.731,55.68z
		"/>
	<path fill="#848484" d="M64.991,65.944c-14.026,13.535-36.655,13.33-50.443-0.457C7.747,58.686,4.001,49.644,4,40.027
		s3.743-18.658,10.542-25.458C28.579,0.534,51.42,0.536,65.46,14.575c0.781,0.781,2.048,0.781,2.828,0
		c0.781-0.781,0.781-2.047,0-2.828C52.69-3.853,27.31-3.855,11.714,11.741C4.159,19.295-0.001,29.341,0,40.027
		c0.001,10.686,4.164,20.731,11.72,28.288c7.753,7.753,18.019,11.641,28.292,11.64c10.025-0.001,20.058-3.704,27.756-11.132
		c0.795-0.768,0.817-2.033,0.051-2.828C67.052,65.2,65.786,65.179,64.991,65.944z"/>
</g>
</svg>
