<?xml version="1.0" encoding="utf-8"?>
<!-- Generator: Adobe Illustrator 21.0.0, SVG Export Plug-In . SVG Version: 6.00 Build 0)  -->
<svg version="1.1" id="图层_1" xmlns="http://www.w3.org/2000/svg" xmlns:xlink="http://www.w3.org/1999/xlink" x="0px" y="0px"
	 width="80px" height="80px" viewBox="0 0 80 80" enable-background="new 0 0 80 80" xml:space="preserve">
<g>
	<path fill="#848484" d="M80.003,40.004c0-0.001,0-0.003,0-0.004c0-0.001,0-0.003,0-0.004C80.001,17.907,62.093,0,40.004,0
		c-22.091,0-40,17.909-40,40c0,22.091,17.908,39.999,39.999,40l0.001,0c0.001,0,0.001,0,0.001,0
		C62.094,79.999,80.001,62.093,80.003,40.004z M43.337,76.508v-5.152c0-1.841-1.493-3.333-3.333-3.333s-3.333,1.493-3.333,3.333
		v5.152C19.108,74.917,5.086,60.896,3.495,43.333h5.153c1.841,0,3.333-1.493,3.333-3.333s-1.493-3.333-3.333-3.333H3.495
		C5.086,19.105,19.108,5.083,36.67,3.492v5.153c0,1.841,1.493,3.333,3.333,3.333s3.333-1.493,3.333-3.333V3.492
		c17.562,1.591,31.584,15.613,33.175,33.175h-5.152c-1.841,0-3.333,1.493-3.333,3.333s1.493,3.333,3.333,3.333h5.152
		C74.921,60.895,60.899,74.917,43.337,76.508z"/>
	<path fill="#848484" d="M51.612,25.907L39.875,37.643L23.008,20.776c-0.651-0.651-1.706-0.651-2.357,0s-0.651,1.706,0,2.357
		l18.046,18.046c0.326,0.326,0.752,0.488,1.178,0.488c0.426,0,0.853-0.163,1.178-0.488l12.915-12.915
		c0.651-0.651,0.651-1.706,0-2.357C53.318,25.256,52.263,25.256,51.612,25.907z"/>
</g>
</svg>
