<?xml version="1.0" encoding="utf-8"?>
<!-- Generator: Adobe Illustrator 21.0.0, SVG Export Plug-In . SVG Version: 6.00 Build 0)  -->
<svg version="1.1" id="图层_1" xmlns="http://www.w3.org/2000/svg" xmlns:xlink="http://www.w3.org/1999/xlink" x="0px" y="0px"
	 width="80px" height="80px" viewBox="0 0 80 80" enable-background="new 0 0 80 80" xml:space="preserve">
<g>
	<polygon fill="#848484" points="40,73.416 54.488,58.929 44.982,58.929 44.982,42.705 35.018,42.705 35.018,58.929 25.512,58.929 	
		"/>
	<polygon fill="#848484" points="44.982,37.295 44.982,21.071 54.488,21.071 40,6.584 25.512,21.071 35.018,21.071 35.018,37.295 	
		"/>
	<polygon fill="#848484" points="65.429,75.836 14.571,75.836 14.571,67.568 10.534,67.568 10.534,76.836 10.534,80 13.571,80 
		66.429,80 69.466,80 69.466,76.836 69.466,67.568 65.429,67.568 	"/>
	<polygon fill="#848484" points="66.429,0 13.571,0 10.534,0 10.534,3.164 10.534,12.432 14.571,12.432 14.571,4.164 65.429,4.164 
		65.429,12.432 69.466,12.432 69.466,3.164 69.466,0 	"/>
</g>
</svg>
