<?xml version="1.0" encoding="utf-8"?>
<!-- Generator: Adobe Illustrator 21.0.0, SVG Export Plug-In . SVG Version: 6.00 Build 0)  -->
<svg version="1.1" id="图层_1" xmlns="http://www.w3.org/2000/svg" xmlns:xlink="http://www.w3.org/1999/xlink" x="0px" y="0px"
	 width="80px" height="80px" viewBox="0 0 80 80" enable-background="new 0 0 80 80" xml:space="preserve">
<g>
	<path fill="#848484" d="M55,25c-8.25,0-15,6.75-15,15v0c0,8.25,6.75,15,15,15s15-6.75,15-15v0C70,31.75,63.25,25,55,25L55,25z"/>
	<g>
		<path fill="#848484" d="M25,20h30c11.028,0,20,8.972,20,20c0,11.028-8.972,20-20,20H25C13.972,60,5,51.028,5,40
			C5,28.972,13.972,20,25,20 M25,15C11.25,15,0,26.25,0,40v0c0,13.75,11.25,25,25,25h30c13.75,0,25-11.25,25-25v0
			c0-13.75-11.25-25-25-25H25L25,15z"/>
	</g>
</g>
</svg>
