<?xml version="1.0" encoding="utf-8"?>
<!-- Generator: Adobe Illustrator 21.0.0, SVG Export Plug-In . SVG Version: 6.00 Build 0)  -->
<svg version="1.1" id="图层_1" xmlns="http://www.w3.org/2000/svg" xmlns:xlink="http://www.w3.org/1999/xlink" x="0px" y="0px"
	 width="80px" height="80px" viewBox="0 0 80 80" enable-background="new 0 0 80 80" xml:space="preserve">
<g>
	<path fill="#848484" d="M1.67,15.573c0.92,0,1.667-0.746,1.667-1.667V12.24c0-0.92-0.746-1.667-1.667-1.667
		s-1.667,0.746-1.667,1.667v1.667C0.004,14.827,0.75,15.573,1.67,15.573z"/>
	<path fill="#848484" d="M1.67,7.24c0.92,0,1.667-0.746,1.667-1.667V5.354c0-0.283,0.05-0.557,0.15-0.814
		c0.332-0.859-0.094-1.824-0.953-2.156C1.677,2.054,0.71,2.479,0.378,3.337C0.13,3.979,0.004,4.658,0.004,5.354v0.219
		C0.004,6.493,0.75,7.24,1.67,7.24z"/>
	<path fill="#848484" d="M25.955,0h-1.667c-0.92,0-1.667,0.746-1.667,1.667s0.746,1.667,1.667,1.667h1.667
		c0.92,0,1.667-0.746,1.667-1.667S26.875,0,25.955,0z"/>
	<path fill="#848484" d="M1.67,23.906c0.92,0,1.667-0.746,1.667-1.667v-1.667c0-0.92-0.746-1.667-1.667-1.667
		s-1.667,0.746-1.667,1.667v1.667C0.004,23.16,0.75,23.906,1.67,23.906z"/>
	<path fill="#848484" d="M15.955,3.333h1.667c0.92,0,1.667-0.746,1.667-1.667S18.542,0,17.622,0h-1.667
		c-0.92,0-1.667,0.746-1.667,1.667S15.035,3.333,15.955,3.333z"/>
	<path fill="#848484" d="M7.622,3.333h1.667c0.92,0,1.667-0.746,1.667-1.667S10.209,0,9.288,0H7.622
		c-0.92,0-1.667,0.746-1.667,1.667S6.701,3.333,7.622,3.333z"/>
	<path fill="#848484" d="M74.903,0H54.052c-0.92,0-1.667,0.746-1.667,1.667s0.746,1.667,1.667,1.667h20.262L55.31,22.337
		c-0.651,0.651-0.651,1.706,0,2.357c0.326,0.326,0.752,0.488,1.178,0.488c0.426,0,0.853-0.163,1.178-0.488L76.67,5.69v20.261
		c0,0.92,0.746,1.667,1.667,1.667s1.667-0.746,1.667-1.667V5.354C80.004,2.402,77.715,0,74.903,0z"/>
	<path fill="#848484" d="M25.955,76.667H5.694l19.004-19.004c0.651-0.651,0.651-1.706,0-2.357c-0.651-0.651-1.706-0.651-2.357,0
		L3.337,74.31V54.048c0-0.92-0.746-1.667-1.667-1.667s-1.667,0.746-1.667,1.667v20.598c0,2.952,2.288,5.354,5.1,5.354h20.851
		c0.92,0,1.667-0.746,1.667-1.667S26.875,76.667,25.955,76.667z"/>
	<path fill="#848484" d="M55.718,76.667h-1.667c-0.92,0-1.667,0.746-1.667,1.667S53.131,80,54.052,80h1.667
		c0.92,0,1.667-0.746,1.667-1.667S56.639,76.667,55.718,76.667z"/>
	<path fill="#848484" d="M78.337,64.428c-0.92,0-1.667,0.746-1.667,1.667v1.667c0,0.92,0.746,1.667,1.667,1.667
		s1.667-0.746,1.667-1.667v-1.667C80.004,65.174,79.257,64.428,78.337,64.428z"/>
	<path fill="#848484" d="M78.337,56.095c-0.92,0-1.667,0.746-1.667,1.667v1.667c0,0.92,0.746,1.667,1.667,1.667
		s1.667-0.746,1.667-1.667v-1.667C80.004,56.841,79.257,56.095,78.337,56.095z"/>
	<path fill="#848484" d="M78.337,72.761c-0.92,0-1.667,0.746-1.667,1.667v0.221c0.001,0.282-0.05,0.554-0.149,0.811
		c-0.333,0.859,0.093,1.824,0.951,2.157c0.199,0.077,0.402,0.114,0.603,0.114c0.667,0,1.298-0.404,1.554-1.064
		c0.25-0.644,0.376-1.324,0.375-2.019v-0.218C80.004,73.507,79.257,72.761,78.337,72.761z"/>
	<path fill="#848484" d="M72.385,76.667h-1.667c-0.92,0-1.667,0.746-1.667,1.667S69.798,80,70.718,80h1.667
		c0.92,0,1.667-0.746,1.667-1.667S73.305,76.667,72.385,76.667z"/>
	<path fill="#848484" d="M64.052,76.667h-1.667c-0.92,0-1.667,0.746-1.667,1.667S61.464,80,62.385,80h1.667
		c0.92,0,1.667-0.746,1.667-1.667S64.972,76.667,64.052,76.667z"/>
</g>
</svg>
