<?xml version="1.0" encoding="utf-8"?>
<!-- Generator: Adobe Illustrator 21.0.0, SVG Export Plug-In . SVG Version: 6.00 Build 0)  -->
<svg version="1.1" id="图层_1" xmlns="http://www.w3.org/2000/svg" xmlns:xlink="http://www.w3.org/1999/xlink" x="0px" y="0px"
	 width="80px" height="80px" viewBox="0 0 80 80" enable-background="new 0 0 80 80" xml:space="preserve">
<g>
	<path fill="#848484" d="M40,5.8c9.091,0,17.667,3.57,24.149,10.051C70.63,22.333,74.2,30.909,74.2,40s-3.57,17.667-10.051,24.149
		C57.667,70.63,49.091,74.2,40,74.2c-9.091,0-17.667-3.57-24.149-10.051C9.37,57.667,5.8,49.091,5.8,40
		c0-9.091,3.57-17.667,10.051-24.149C22.333,9.37,30.909,5.8,40,5.8 M40,0L40,0C18,0,0,18,0,40v0c0,22,18,40,40,40h0
		c22,0,40-18,40-40v0C80,18,62,0,40,0L40,0z"/>
	<g>
		<path fill="#848484" d="M54.793,28.33c0,2.327-0.616,4.473-1.849,6.439c-1.233,1.97-2.88,3.668-4.931,5.097
			c-2.057,1.434-3.496,2.864-4.315,4.292c-0.824,1.434-1.233,2.415-1.233,2.951v1.878h-5.547v-2.683c0-1.61,0.462-3.173,1.387-4.695
			c0.925-1.517,2.514-3.173,4.777-4.963c1.642-1.249,2.774-2.549,3.39-3.89s0.925-2.636,0.925-3.89c0-2.322-0.616-4.066-1.849-5.231
			c-1.233-1.161-2.981-1.744-5.239-1.744c-2.263,0-4.161,0.763-5.701,2.28c-1.541,1.522-2.311,3.982-2.311,7.378h-7.088
			c0.202-5.005,1.743-8.719,4.623-11.134c2.874-2.415,6.366-3.622,10.478-3.622c4.517,0,8.061,1.073,10.632,3.219
			C53.507,22.159,54.793,24.934,54.793,28.33z M43.082,63.206h-6.78v-6.439h6.78V63.206z"/>
	</g>
</g>
</svg>
