<?xml version="1.0" encoding="utf-8"?>
<!-- Generator: Adobe Illustrator 21.0.0, SVG Export Plug-In . SVG Version: 6.00 Build 0)  -->
<svg version="1.1" id="图层_1" xmlns="http://www.w3.org/2000/svg" xmlns:xlink="http://www.w3.org/1999/xlink" x="0px" y="0px"
	 width="80px" height="80px" viewBox="0 0 80 80" enable-background="new 0 0 80 80" xml:space="preserve">
<g>
	<path fill="#848484" d="M51.954,15.888H44.79H11.401H4.238c-2.335,0-4.234,1.934-4.234,4.31v55.493C0.004,78.067,1.903,80,4.238,80
		h47.716c2.335,0,4.234-1.933,4.234-4.309V20.198C56.188,17.821,54.288,15.888,51.954,15.888z M11.271,19.224
		c0.042-0.002,0.085-0.002,0.13-0.002H44.79c0.046,0,0.089,0.001,0.13,0.002v6.51c-0.042,0.002-0.085,0.002-0.13,0.002H11.401
		c-0.046,0-0.089-0.001-0.13-0.002V19.224z M52.854,75.691c0,0.538-0.404,0.976-0.901,0.976H4.238c-0.496,0-0.901-0.438-0.901-0.976
		V20.198c0-0.539,0.404-0.977,0.901-0.977h3.7v7.523c0,1.413,1.36,2.325,3.464,2.325H44.79c2.104,0,3.464-0.912,3.464-2.325v-7.523
		h3.7c0.496,0,0.901,0.438,0.901,0.977V75.691z"/>
	<path fill="#848484" d="M46.098,34.291H10.093c-0.73,0-1.321,0.592-1.321,1.321c0,0.73,0.592,1.321,1.321,1.321h36.005
		c0.73,0,1.321-0.592,1.321-1.321C47.419,34.883,46.827,34.291,46.098,34.291z"/>
	<path fill="#848484" d="M46.098,42.219H10.093c-0.73,0-1.321,0.592-1.321,1.321c0,0.73,0.592,1.321,1.321,1.321h36.005
		c0.73,0,1.321-0.592,1.321-1.321C47.419,42.81,46.827,42.219,46.098,42.219z"/>
	<path fill="#848484" d="M46.098,50.146H10.093c-0.73,0-1.321,0.592-1.321,1.321c0,0.73,0.592,1.321,1.321,1.321h36.005
		c0.73,0,1.321-0.592,1.321-1.321C47.419,50.738,46.827,50.146,46.098,50.146z"/>
	<path fill="#848484" d="M46.098,58.074H10.093c-0.73,0-1.321,0.592-1.321,1.321c0,0.73,0.592,1.321,1.321,1.321h36.005
		c0.73,0,1.321-0.592,1.321-1.321C47.419,58.665,46.827,58.074,46.098,58.074z"/>
	<path fill="#848484" d="M27.6,66.001H10.093c-0.73,0-1.321,0.592-1.321,1.321s0.592,1.321,1.321,1.321H27.6
		c0.73,0,1.321-0.592,1.321-1.321S28.33,66.001,27.6,66.001z"/>
	<path fill="#848484" d="M75.004,0H20.513c-2.757,0-5,2.18-5,4.861v5.847c0,0.92,0.746,1.667,1.667,1.667s1.667-0.746,1.667-1.667
		V4.861c0-0.842,0.748-1.528,1.667-1.528h54.491c0.919,0,1.667,0.685,1.667,1.528v70.278c0,0.842-0.748,1.528-1.667,1.528H63.756
		c-0.92,0-1.667,0.746-1.667,1.667S62.836,80,63.756,80h11.248c2.757,0,5-2.18,5-4.861V4.861C80.004,2.18,77.761,0,75.004,0z"/>
</g>
</svg>
