<?xml version="1.0" encoding="utf-8"?>
<!-- Generator: Adobe Illustrator 21.0.0, SVG Export Plug-In . SVG Version: 6.00 Build 0)  -->
<svg version="1.1" id="图层_1" xmlns="http://www.w3.org/2000/svg" xmlns:xlink="http://www.w3.org/1999/xlink" x="0px" y="0px"
	 width="80px" height="80px" viewBox="0 0 80 80" enable-background="new 0 0 80 80" xml:space="preserve">
<g>
	<path fill="#848484" d="M78.337,29.305c-0.92,0-1.667,0.593-1.667,1.325c0,5.559-14.734,11.512-36.667,11.512
		S3.337,36.19,3.337,30.63c0-0.732-0.746-1.325-1.667-1.325s-1.667,0.593-1.667,1.325v27.013c0,7.942,17.57,14.163,40,14.163
		s40-6.221,40-14.163V30.63C80.004,29.899,79.257,29.305,78.337,29.305z"/>
	<path fill="#848484" d="M40.004,36.518c22.43,0,40-6.221,40-14.162c0-7.942-17.57-14.162-40-14.162s-40,6.22-40,14.162
		C0.004,30.297,17.574,36.518,40.004,36.518z M10.192,22.242l8.707-3.083c0.083-0.042,0.221-0.069,0.376-0.069
		c0.256,0,0.468,0.067,0.461,0.165c0,0,0,0.001,0,0.002v1.681H36V15.18h-4.758c-0.186,0-0.354-0.04-0.426-0.101
		c-0.071-0.061-0.032-0.131,0.1-0.178l8.757-3.101c0.18-0.064,0.472-0.064,0.652,0l8.707,3.083c0.118,0.03,0.194,0.078,0.194,0.133
		c0,0.091-0.189,0.166-0.466,0.163c-0.001,0-0.003,0-0.005,0h-4.749v5.758h16.263v-1.685c0-0.066,0.112-0.125,0.284-0.151
		c0.172-0.025,0.37-0.011,0.502,0.035l8.757,3.101c0.18,0.064,0.18,0.167,0,0.231l-8.707,3.083
		c-0.083,0.042-0.221,0.069-0.376,0.069c-0.256,0-0.468-0.067-0.461-0.165c0,0,0-0.001,0-0.002v-1.681H44.007v5.758h4.758
		c0.186,0,0.354,0.04,0.426,0.101c0.071,0.061,0.032,0.131-0.1,0.178l-8.757,3.101c-0.18,0.064-0.472,0.064-0.652,0l-8.707-3.083
		c-0.118-0.03-0.194-0.078-0.194-0.133c0-0.091,0.189-0.166,0.466-0.163c0.001,0,0.003,0,0.005,0H36v-5.758H19.737v1.685
		c0,0.066-0.112,0.125-0.284,0.151c-0.172,0.025-0.37,0.011-0.502-0.035l-8.757-3.101C10.012,22.409,10.012,22.306,10.192,22.242z"
		/>
</g>
</svg>
