<?xml version="1.0" encoding="utf-8"?>
<!-- Generator: Adobe Illustrator 21.0.0, SVG Export Plug-In . SVG Version: 6.00 Build 0)  -->
<svg version="1.1" id="图层_1" xmlns="http://www.w3.org/2000/svg" xmlns:xlink="http://www.w3.org/1999/xlink" x="0px" y="0px"
	 width="80px" height="80px" viewBox="0 0 80 80" enable-background="new 0 0 80 80" xml:space="preserve">
<g>
	<path fill="#848484" d="M36.194,80h7.619v-3.809h-7.619V80z"/>
	<path fill="#848484" d="M28.573,64.763h22.861v-3.809H28.573V64.763z"/>
	<path fill="#848484" d="M28.573,72.381h22.861v-3.811H28.573V72.381z"/>
	<path fill="#848484" d="M40.004,0C25.28,0,13.339,11.938,13.339,26.665c0,10.632,6.24,19.781,15.242,24.066v6.413h22.858v-6.422
		c8.992-4.284,15.23-13.426,15.23-24.057C66.669,11.938,54.73,0,40.004,0z M37.197,47.406l5-17.737H29.81l13-21.302l-5,16h12.387
		L37.197,47.406z"/>
</g>
</svg>
