<?xml version="1.0" encoding="utf-8"?>
<!-- Generator: Adobe Illustrator 21.0.0, SVG Export Plug-In . SVG Version: 6.00 Build 0)  -->
<svg version="1.1" id="图层_1" xmlns="http://www.w3.org/2000/svg" xmlns:xlink="http://www.w3.org/1999/xlink" x="0px" y="0px"
	 width="80px" height="80px" viewBox="0 0 80 80" enable-background="new 0 0 80 80" xml:space="preserve">
<g>
	<path fill="#848484" d="M69.591,55.211c-1.302,0-2.542,0.249-3.691,0.686L46.585,22.442c2.337-1.909,3.831-4.812,3.831-8.066
		c0-5.751-4.662-10.412-10.412-10.412c-5.751,0-10.412,4.662-10.412,10.412c0,3.253,1.494,6.157,3.831,8.066L14.194,55.747
		c-1.172-0.457-2.443-0.717-3.778-0.717c-5.751,0-10.412,4.662-10.412,10.412c0,5.751,4.662,10.412,10.412,10.412
		c5.119,0,9.365-3.697,10.239-8.564h38.669c0.799,4.956,5.085,8.746,10.267,8.746c5.751,0,10.412-4.662,10.412-10.412
		C80.004,59.873,75.342,55.211,69.591,55.211z M10.416,72.521c-3.904,0-7.079-3.176-7.079-7.079s3.176-7.079,7.079-7.079
		s7.079,3.176,7.079,7.079S14.32,72.521,10.416,72.521z M59.324,63.957H20.711c-0.374-2.611-1.706-4.913-3.642-6.523l19.244-33.331
		c1.149,0.436,2.389,0.686,3.691,0.686c1.302,0,2.543-0.25,3.691-0.686L63.01,57.557C61.081,59.133,59.738,61.389,59.324,63.957z
		 M69.591,72.703c-3.904,0-7.079-3.176-7.079-7.079c0-3.904,3.176-7.079,7.079-7.079s7.079,3.176,7.079,7.079
		C76.67,69.527,73.495,72.703,69.591,72.703z"/>
</g>
</svg>
