<?xml version="1.0" encoding="utf-8"?>
<!-- Generator: Adobe Illustrator 21.0.0, SVG Export Plug-In . SVG Version: 6.00 Build 0)  -->
<svg version="1.1" id="图层_1" xmlns="http://www.w3.org/2000/svg" xmlns:xlink="http://www.w3.org/1999/xlink" x="0px" y="0px"
	 width="80px" height="80px" viewBox="0 0 80 80" enable-background="new 0 0 80 80" xml:space="preserve">
<g>
	<path fill="#848484" d="M79.515,77.083L70.933,68.5c3.526-4.676,3.173-11.348-1.087-15.607c-2.33-2.33-5.384-3.495-8.439-3.495
		s-6.108,1.165-8.439,3.495c-4.661,4.661-4.661,12.217,0,16.877c2.33,2.33,5.385,3.495,8.439,3.495c2.529,0,5.051-0.811,7.169-2.409
		l8.583,8.583c0.326,0.326,0.752,0.488,1.178,0.488c0.426,0,0.853-0.163,1.178-0.488C80.166,78.788,80.166,77.734,79.515,77.083z
		 M55.326,67.413c-3.353-3.353-3.353-8.81,0-12.163c1.624-1.624,3.784-2.519,6.082-2.519c2.297,0,4.457,0.895,6.082,2.519
		c3.353,3.353,3.353,8.81,0,12.163c-1.625,1.624-3.784,2.519-6.082,2.519C59.11,69.932,56.95,69.038,55.326,67.413z"/>
	<path fill="#848484" d="M10.991,41.121c0.212,0.098,0.443,0.16,0.692,0.16h22.874c0.949,1.884,2.88,3.189,5.133,3.189
		c3.185,0,5.767-2.582,5.767-5.767c0-2.602-1.734-4.775-4.101-5.494V11.608c0-0.091-0.038-0.17-0.052-0.258
		c2.157-0.633,3.775-2.475,4.077-4.755h22.555c0.794,0,1.44,0.75,1.44,1.67v24.67c0,0.091,0.038,0.17,0.052,0.258
		c-2.394,0.702-4.153,2.889-4.153,5.51c0,3.185,2.582,5.767,5.767,5.767s5.767-2.582,5.767-5.767c0-2.621-1.759-4.808-4.153-5.51
		c0.014-0.087,0.052-0.166,0.052-0.258V8.264c0-2.759-2.141-5.003-4.774-5.003H44.823c-0.949-1.884-2.88-3.189-5.133-3.189
		c-3.185,0-5.767,2.582-5.767,5.767c0,2.621,1.759,4.808,4.153,5.51c-0.014,0.087-0.052,0.166-0.052,0.258v21.601
		c-2.132,0.647-3.726,2.478-4.025,4.739H11.683c-0.077,0-0.142,0.034-0.216,0.044c-0.354-2.846-2.754-5.056-5.696-5.056
		c-3.185,0-5.767,2.582-5.767,5.767c0,2.312,1.369,4.292,3.334,5.212v23.717c0,2.759,2.141,5.003,4.773,5.003h24.901
		c0.408,0,0.769-0.164,1.059-0.408c0.576,2.578,2.869,4.509,5.62,4.509c3.185,0,5.767-2.582,5.767-5.767
		c0-3.185-2.582-5.767-5.767-5.767c-2.752,0-5.045,1.931-5.62,4.508c-0.29-0.244-0.651-0.408-1.059-0.408H8.11
		c-0.793,0-1.44-0.75-1.44-1.67V44.379C8.596,44.076,10.196,42.832,10.991,41.121z"/>
</g>
</svg>
