<?xml version="1.0" encoding="utf-8"?>
<!-- Generator: Adobe Illustrator 21.0.0, SVG Export Plug-In . SVG Version: 6.00 Build 0)  -->
<svg version="1.1" id="图层_1" xmlns="http://www.w3.org/2000/svg" xmlns:xlink="http://www.w3.org/1999/xlink" x="0px" y="0px"
	 width="80px" height="80px" viewBox="0 0 80 80" enable-background="new 0 0 80 80" xml:space="preserve">
<g>
	<g>
		<polygon fill="#848484" points="47.08,25.6 10.08,25.6 10.08,22 43.48,22 43.48,13.2 10.08,13.2 10.08,9.6 47.08,9.6 		"/>
	</g>
	<g>
		<path fill="#848484" d="M21.394,50.568c-0.461,0-0.921-0.176-1.273-0.527L10.08,40l10.041-10.041c0.702-0.703,1.843-0.703,2.545,0
			c0.703,0.703,0.703,1.843,0,2.545L15.171,40l7.495,7.495c0.703,0.703,0.703,1.843,0,2.545
			C22.315,50.392,21.854,50.568,21.394,50.568z"/>
	</g>
	<g>
		<polygon fill="#848484" points="47.08,70.4 10.08,70.4 10.08,66.8 43.48,66.8 43.48,58 10.08,58 10.08,54.4 47.08,54.4 		"/>
	</g>
	<g>
		<path fill="#848484" d="M69.92,48h-38.8V32h38.8V48z M34.72,44.4h31.6v-8.8h-31.6V44.4z"/>
	</g>
</g>
</svg>
