<?xml version="1.0" encoding="utf-8"?>
<!-- Generator: Adobe Illustrator 21.0.0, SVG Export Plug-In . SVG Version: 6.00 Build 0)  -->
<svg version="1.1" id="图层_1" xmlns="http://www.w3.org/2000/svg" xmlns:xlink="http://www.w3.org/1999/xlink" x="0px" y="0px"
	 width="80px" height="80px" viewBox="0 0 80 80" enable-background="new 0 0 80 80" xml:space="preserve">
<g>
	<path fill="#848484" d="M46.705,43.725c4.467-2.692,7.228-7.958,6.135-13.716c-0.993-5.228-5.204-9.4-10.441-10.346
		c-8.236-1.488-15.479,4.883-15.479,12.862c0,4.744,2.568,8.906,6.374,11.2c-6.489,2.189-11.572,7.459-13.495,14.064
		c1.279,1.021,2.638,1.945,4.064,2.766C25.319,52.972,31.999,47.223,40,47.223c8.001,0,14.681,5.749,16.136,13.331
		c1.427-0.821,2.785-1.745,4.064-2.766C58.277,51.184,53.194,45.914,46.705,43.725z M41.438,40.885
		c-5.794,0.958-10.756-4.004-9.798-9.798c0.58-3.51,3.411-6.341,6.921-6.921c5.794-0.958,10.756,4.004,9.798,9.798
		C47.779,37.473,44.948,40.304,41.438,40.885z"/>
	<path fill="#848484" d="M40,5.8c9.091,0,17.667,3.57,24.149,10.051C70.63,22.333,74.2,30.909,74.2,40
		c0,9.091-3.57,17.667-10.051,24.149C57.667,70.63,49.091,74.2,40,74.2c-9.091,0-17.667-3.57-24.149-10.051
		C9.37,57.667,5.8,49.091,5.8,40c0-9.091,3.57-17.667,10.051-24.149C22.333,9.37,30.909,5.8,40,5.8 M40,0L40,0C18,0,0,18,0,40v0
		c0,22,18,40,40,40h0c22,0,40-18,40-40v0C80,18,62,0,40,0L40,0z"/>
</g>
</svg>
