<?xml version="1.0" encoding="utf-8"?>
<!-- Generator: Adobe Illustrator 21.0.0, SVG Export Plug-In . SVG Version: 6.00 Build 0)  -->
<svg version="1.1" id="图层_1" xmlns="http://www.w3.org/2000/svg" xmlns:xlink="http://www.w3.org/1999/xlink" x="0px" y="0px"
	 width="80px" height="80px" viewBox="0 0 80 80" enable-background="new 0 0 80 80" xml:space="preserve">
<path fill="#848484" d="M67.989,16.001c-1.453,0-2.824,0.393-4,1.076v-5.076c0-4.413-3.586-8-8-8c-1.649,0-3.176,0.5-4.453,1.355
	C50.442,2.24,47.473,0,43.988,0c-3.485,0-6.455,2.24-7.549,5.355C35.168,4.5,33.636,4,31.988,4c-4.412,0-8,3.588-8,8v29.494
	l-5.385-9.332c-1.043-1.901-2.748-3.252-4.795-3.813c-1.996-0.543-4.072-0.256-5.848,0.809c-3.629,2.176-5.012,7.096-3.08,10.969
	c0.119,0.242,2.672,5.469,10.639,21.399c3.752,7.5,7.869,12.868,12.237,15.938C31.183,79.875,33.552,80,33.992,80h20.001
	c3.402,0,6.567-1.105,9.41-3.289c2.664-2.051,4.985-5.02,6.879-8.817c3.735-7.47,5.711-17.806,5.711-29.896l0-14.001
	c0-4.412-3.59-8-8-8L67.989,16.001z M71.99,38.002c0,11.469-1.828,21.185-5.289,28.103c-2.258,4.516-6.297,9.899-12.712,9.899
	H34.027c-0.154-0.012-1.84-0.199-4.379-2.102c-2.531-1.895-6.42-5.887-10.553-14.157c-8.108-16.219-10.6-21.327-10.623-21.376
	c-0.004-0.008-0.004-0.012-0.008-0.016c-1.004-2.012-0.293-4.649,1.555-5.756c0.832-0.5,1.805-0.631,2.74-0.379
	c0.996,0.271,1.832,0.944,2.348,1.887c0.01,0.012,0.018,0.029,0.025,0.041l6.244,10.821c1.276,2.332,2.711,3.309,4.268,2.915
	c1.561-0.395,2.348-1.957,2.348-4.629l0-31.251c0-2.203,1.797-4,4-4c2.204,0,4.001,1.797,4.001,4v26.001c0,1.104,0.896,2,2,2
	c1.104,0,2-0.896,2-2V8c0-2.203,1.797-4,4-4c2.203,0,4,1.797,4,4v30.001c0,1.104,0.894,2,2,2c1.106,0,2-0.896,2-2V12.001
	c0-2.203,1.797-4,4-4c2.203,0,4,1.797,4,4v30.001c0,1.102,0.894,2,2,2c1.106,0,2-0.898,2-2V24.001c0-2.203,1.797-4,4-4
	c2.203,0,4,1.797,4,4v14.001H71.99z"/>
</svg>
