<?xml version="1.0" encoding="utf-8"?>
<!-- Generator: Adobe Illustrator 21.0.0, SVG Export Plug-In . SVG Version: 6.00 Build 0)  -->
<svg version="1.1" id="图层_1" xmlns="http://www.w3.org/2000/svg" xmlns:xlink="http://www.w3.org/1999/xlink" x="0px" y="0px"
	 width="80px" height="80px" viewBox="0 0 80 80" enable-background="new 0 0 80 80" xml:space="preserve">
<g>
	<path fill="#848484" d="M78.221,12.987L67.013,1.779c-2.371-2.371-6.252-2.371-8.623,0L34.423,25.745
		c-0.055,0.055-0.102,0.115-0.155,0.171l3.372,3.372c0.044-0.063,0.09-0.124,0.146-0.18L61.754,5.142
		c0.514-0.514,1.382-0.514,1.896,0l11.208,11.208c0.514,0.514,0.514,1.382,0,1.896L50.891,42.213
		c-0.056,0.056-0.117,0.102-0.18,0.146l3.372,3.372c0.057-0.053,0.116-0.1,0.171-0.155L78.221,21.61
		C80.593,19.239,80.593,15.358,78.221,12.987z"/>
	<path fill="#848484" d="M45.732,54.083l-3.372-3.372c-0.044,0.063-0.09,0.125-0.146,0.18L18.246,74.858
		c-0.514,0.514-1.382,0.514-1.896,0L5.142,63.649c-0.514-0.514-0.514-1.382,0-1.896l23.967-23.967
		c0.056-0.056,0.117-0.102,0.18-0.146l-3.372-3.372c-0.057,0.052-0.116,0.1-0.171,0.155L1.779,58.39
		c-2.371,2.371-2.371,6.252,0,8.623l11.208,11.208c2.371,2.371,6.252,2.371,8.623,0l23.967-23.967
		C45.632,54.2,45.679,54.14,45.732,54.083z"/>
	<path fill="#848484" d="M32.992,19.827l0.12,0.034c1.289,0.37,2.645-0.383,3.015-1.671l4.314-15.047
		c0.369-1.289-0.383-2.645-1.671-3.015l-0.12-0.034c-1.289-0.369-2.645,0.383-3.015,1.671l-4.314,15.047
		C30.952,18.101,31.704,19.457,32.992,19.827z"/>
	<path fill="#848484" d="M0.102,37.472c0.324,1.301,1.654,2.1,2.955,1.775l15.188-3.787c1.301-0.324,2.1-1.654,1.775-2.955
		l-0.03-0.121c-0.324-1.301-1.654-2.1-2.955-1.775L1.848,34.396c-1.301,0.324-2.1,1.654-1.775,2.955L0.102,37.472z"/>
	<path fill="#848484" d="M19.4,22.361c0.931,0.964,2.482,0.991,3.447,0.06l0.09-0.087c0.964-0.931,0.991-2.482,0.06-3.447
		L12.123,7.628c-0.931-0.964-2.482-0.991-3.447-0.06l-0.09,0.087c-0.964,0.931-0.991,2.482-0.06,3.447L19.4,22.361z"/>
	<path fill="#848484" d="M47.008,60.173l-0.12-0.034c-1.289-0.37-2.645,0.383-3.015,1.671l-4.314,15.047
		c-0.369,1.289,0.383,2.645,1.671,3.015l0.12,0.034c1.289,0.37,2.645-0.383,3.015-1.671l4.314-15.047
		C49.048,61.899,48.296,60.543,47.008,60.173z"/>
	<path fill="#848484" d="M79.898,42.528c-0.324-1.301-1.654-2.1-2.955-1.775L61.755,44.54c-1.301,0.324-2.1,1.654-1.775,2.955
		l0.03,0.121c0.324,1.301,1.654,2.1,2.955,1.775l15.188-3.787c1.301-0.324,2.1-1.654,1.775-2.955L79.898,42.528z"/>
	<path fill="#848484" d="M60.6,57.639c-0.931-0.964-2.482-0.991-3.447-0.06l-0.09,0.087c-0.964,0.931-0.991,2.482-0.06,3.447
		l10.874,11.259c0.931,0.964,2.482,0.991,3.447,0.06l0.09-0.087c0.964-0.931,0.991-2.482,0.06-3.447L60.6,57.639z"/>
</g>
</svg>
