<?xml version="1.0" encoding="utf-8"?>
<!-- Generator: Adobe Illustrator 21.0.0, SVG Export Plug-In . SVG Version: 6.00 Build 0)  -->
<svg version="1.1" id="图层_1" xmlns="http://www.w3.org/2000/svg" xmlns:xlink="http://www.w3.org/1999/xlink" x="0px" y="0px"
	 width="80px" height="80px" viewBox="0 0 80 80" enable-background="new 0 0 80 80" xml:space="preserve">
<path fill="#848484" d="M72.649,31.972L41.165,0.488c-0.651-0.651-1.706-0.651-2.357,0L7.143,32.153
	c-0.477,0.477-0.619,1.193-0.361,1.816c0.258,0.623,0.866,1.029,1.54,1.029h17.205v43.335c0,0.92,0.746,1.667,1.667,1.667H52.78
	c0.92,0,1.667-0.746,1.667-1.667V34.998h17.205c0.006,0,0.011,0,0.016,0c1.002,0.026,1.684-0.741,1.684-1.667
	C73.352,32.77,73.075,32.274,72.649,31.972z M52.78,31.665c-0.92,0-1.667,0.746-1.667,1.667v43.335H28.86V33.332
	c0-0.92-0.746-1.667-1.667-1.667H12.345L39.987,4.023l27.642,27.642H52.78z"/>
</svg>
