<?xml version="1.0" encoding="utf-8"?>
<!-- Generator: Adobe Illustrator 21.0.0, SVG Export Plug-In . SVG Version: 6.00 Build 0)  -->
<svg version="1.1" id="图层_1" xmlns="http://www.w3.org/2000/svg" xmlns:xlink="http://www.w3.org/1999/xlink" x="0px" y="0px"
	 width="80px" height="80px" viewBox="0 0 80 80" enable-background="new 0 0 80 80" xml:space="preserve">
<path fill="#848484" d="M75.058,9.481H4.942C2.224,9.481,0,11.705,0,14.423v51.153c0,2.718,2.224,4.942,4.942,4.942h70.115
	c2.718,0,4.942-2.224,4.942-4.942V14.423C80,11.705,77.776,9.481,75.058,9.481z M60.663,15.081L40,35.744L19.337,15.081H60.663z
	 M74.4,64.919H5.6V15.081h5.817l25.088,25.088c0.961,0.961,2.228,1.442,3.495,1.442s2.534-0.481,3.495-1.442l25.088-25.088H74.4
	V64.919z"/>
</svg>
