<?xml version="1.0" encoding="utf-8"?>
<!-- Generator: Adobe Illustrator 21.0.0, SVG Export Plug-In . SVG Version: 6.00 Build 0)  -->
<svg version="1.1" id="图层_1" xmlns="http://www.w3.org/2000/svg" xmlns:xlink="http://www.w3.org/1999/xlink" x="0px" y="0px"
	 width="80px" height="80px" viewBox="0 0 80 80" enable-background="new 0 0 80 80" xml:space="preserve">
<g>
	<path fill="#848484" d="M70.098,0h-9.036H18.945H9.909C7.204,0,5.004,2.243,5.004,5v70c0,2.757,2.201,5,4.906,5h60.189
		c2.705,0,4.906-2.243,4.906-5V5C75.004,2.243,72.803,0,70.098,0z M61.062,3.333c0.231,0,0.434,0.017,0.6,0.042v9.006
		c-0.166,0.024-0.369,0.042-0.6,0.042H18.945c-0.231,0-0.434-0.017-0.6-0.042V3.375c0.166-0.024,0.369-0.042,0.6-0.042H61.062z
		 M71.67,75c0,0.919-0.706,1.667-1.572,1.667H9.909c-0.867,0-1.572-0.748-1.572-1.667V5c0-0.919,0.706-1.667,1.572-1.667h5.103
		v9.925c0,1.517,1.544,2.497,3.933,2.497h42.117c2.389,0,3.933-0.98,3.933-2.497V3.333h5.103c0.867,0,1.572,0.748,1.572,1.667V75z"
		/>
	<path fill="#848484" d="M62.712,22.778H17.295c-0.92,0-1.667,0.746-1.667,1.667c0,0.921,0.746,1.667,1.667,1.667h45.417
		c0.921,0,1.667-0.746,1.667-1.667C64.378,23.524,63.632,22.778,62.712,22.778z"/>
	<path fill="#848484" d="M62.712,32.778H17.295c-0.92,0-1.667,0.746-1.667,1.667c0,0.921,0.746,1.667,1.667,1.667h45.417
		c0.921,0,1.667-0.746,1.667-1.667C64.378,33.524,63.632,32.778,62.712,32.778z"/>
	<path fill="#848484" d="M62.712,42.778H17.295c-0.92,0-1.667,0.746-1.667,1.667c0,0.921,0.746,1.667,1.667,1.667h45.417
		c0.921,0,1.667-0.746,1.667-1.667C64.378,43.524,63.632,42.778,62.712,42.778z"/>
	<path fill="#848484" d="M62.712,52.778H17.295c-0.92,0-1.667,0.746-1.667,1.667c0,0.921,0.746,1.667,1.667,1.667h45.417
		c0.921,0,1.667-0.746,1.667-1.667C64.378,53.524,63.632,52.778,62.712,52.778z"/>
	<path fill="#848484" d="M39.378,62.778H17.295c-0.92,0-1.667,0.746-1.667,1.667c0,0.921,0.746,1.667,1.667,1.667h22.083
		c0.921,0,1.667-0.746,1.667-1.667C41.045,63.524,40.299,62.778,39.378,62.778z"/>
</g>
</svg>
