<?xml version="1.0" encoding="utf-8"?>
<!-- Generator: Adobe Illustrator 21.0.0, SVG Export Plug-In . SVG Version: 6.00 Build 0)  -->
<svg version="1.1" id="图层_1" xmlns="http://www.w3.org/2000/svg" xmlns:xlink="http://www.w3.org/1999/xlink" x="0px" y="0px"
	 width="80px" height="80px" viewBox="0 0 80 80" enable-background="new 0 0 80 80" xml:space="preserve">
<g>
	<path fill="#848484" d="M22.833,76.132c1.039,0.493,2.117,0.949,3.203,1.353l1.164-3.123c-0.997-0.371-1.985-0.789-2.936-1.241
		L22.833,76.132z"/>
	<path fill="#848484" d="M36.179,79.81c1.149,0.11,2.318,0.17,3.473,0.181l0.029-3.333c-1.06-0.009-2.131-0.065-3.184-0.166
		L36.179,79.81z"/>
	<path fill="#848484" d="M13.923,65.765l-2.375,2.339l0.171,0.172c0.758,0.758,1.557,1.496,2.376,2.195l2.163-2.536
		c-0.753-0.642-1.487-1.32-2.192-2.025L13.923,65.765z"/>
	<path fill="#848484" d="M29.349,78.554c1.112,0.306,2.251,0.567,3.388,0.776l0.604-3.278c-1.042-0.192-2.088-0.432-3.108-0.713
		L29.349,78.554z"/>
	<path fill="#848484" d="M16.84,72.61c0.938,0.668,1.921,1.305,2.918,1.89l1.689-2.873c-0.915-0.538-1.815-1.121-2.676-1.734
		L16.84,72.61z"/>
	<path fill="#848484" d="M4.545,49.35L1.32,50.196c0.295,1.122,0.641,2.24,1.031,3.323l3.136-1.128
		C5.132,51.401,4.814,50.377,4.545,49.35z"/>
	<path fill="#848484" d="M3.392,38.698c0.145,0.771,0.308,1.54,0.512,2.296l3.219-0.868c-0.272-1.008-0.487-2.042-0.639-3.071
		l-3.037,0.448c0.018-0.267,0.013-0.535,0.037-0.801l-3.32-0.298c-0.103,1.154-0.157,2.323-0.16,3.475l3.333,0.007
		C3.338,39.492,3.378,39.094,3.392,38.698z"/>
	<path fill="#848484" d="M9.852,60.868l-2.739,1.899c0.658,0.948,1.366,1.878,2.105,2.766l2.562-2.132
		C11.102,62.587,10.453,61.735,9.852,60.868z"/>
	<path fill="#848484" d="M6.692,55.343l-3.027,1.393c0.482,1.047,1.017,2.087,1.592,3.092l2.894-1.655
		C7.624,57.253,7.133,56.301,6.692,55.343z"/>
	<path fill="#848484" d="M3.466,43.072l-3.322,0.278c0.096,1.147,0.244,2.307,0.439,3.448l3.286-0.563
		C3.689,45.188,3.553,44.124,3.466,43.072z"/>
	<path fill="#848484" d="M55.155,73.393l1.377,3.035c1.054-0.478,2.097-1.007,3.101-1.573l-1.637-2.904
		C57.077,72.47,56.121,72.955,55.155,73.393z"/>
	<polygon fill="#848484" points="65.619,66.227 67.95,68.61 68.288,68.276 65.931,65.919 	"/>
	<path fill="#848484" d="M60.698,70.268l1.885,2.749c0.955-0.654,1.89-1.357,2.778-2.087l-2.118-2.575
		C62.43,69.024,61.573,69.668,60.698,70.268z"/>
	<path fill="#848484" d="M49.151,75.506l0.827,3.229c1.121-0.287,2.241-0.627,3.328-1.01L52.2,74.581
		C51.203,74.931,50.178,75.243,49.151,75.506z"/>
	<path fill="#848484" d="M9.37,14.267l0.038,0.032c-0.011,0.013-0.022,0.026-0.033,0.039l0.076,0.06
		c-0.019,0.026-0.041,0.051-0.06,0.077l1.366,0.959l1.163,0.979c0.01-0.012,0.021-0.022,0.031-0.034l0.036,0.028
		c0.019-0.023,0.042-0.044,0.06-0.067l0.072,0.05c0.231-0.329,0.484-0.646,0.739-0.96c0.402-0.46,0.785-0.934,1.216-1.365
		c0.001-0.001,0.002-0.002,0.003-0.003c14.295-14.297,37.556-14.297,51.854,0c0.326,0.326,0.752,0.488,1.178,0.488
		c0.426,0,0.853-0.163,1.178-0.488c0.651-0.651,0.651-1.706,0-2.357c-15.596-15.596-40.973-15.597-56.568,0
		c0,0-0.001,0.001-0.001,0.001l0,0c-0.001,0.001-0.001,0.001-0.002,0.002c-0.552,0.551-1.075,1.132-1.582,1.724
		C9.884,13.715,9.611,13.98,9.37,14.267z"/>
	<path fill="#848484" d="M42.867,76.547l0.259,3.324c1.147-0.09,2.309-0.23,3.451-0.419l-0.544-3.289
		C44.984,76.336,43.919,76.465,42.867,76.547z"/>
	<path fill="#848484" d="M17.752,55.206c-0.854-0.596-1.685-1.249-2.467-1.942l-2.209,2.497c0.878,0.777,1.811,1.51,2.77,2.179
		L17.752,55.206z"/>
	<path fill="#848484" d="M6.517,47.529l2.93-1.59C8.948,45.021,8.5,44.066,8.114,43.1l-3.096,1.239
		C5.453,45.424,5.957,46.498,6.517,47.529z"/>
	<path fill="#848484" d="M2.874,34.031l3.332-0.101c-0.008-0.278-0.013-0.557-0.013-0.835c0-0.768,0.033-1.537,0.098-2.305
		l-1.74-0.148c0.018-0.07,0.029-0.142,0.047-0.211l-3.219-0.866c-0.299,1.114-0.553,2.256-0.756,3.394l2.24,0.399
		C2.865,33.583,2.867,33.808,2.874,34.031z"/>
	<path fill="#848484" d="M5.677,20.331l0.764,0.356c-0.031,0.11-0.073,0.217-0.103,0.327l1.605,0.428l0.315,0.182
		c0.014-0.023,0.031-0.046,0.044-0.069l0.395,0.184c0.013-0.029,0.032-0.055,0.045-0.084l0.817,0.218
		c0.26-0.976,0.61-1.936,1.038-2.853l-1.404-0.656l-0.308-0.19l-1.64-1.151c-0.669,0.953-1.3,1.939-1.874,2.931l0.382,0.221
		C5.73,20.228,5.701,20.279,5.677,20.331z"/>
	<path fill="#848484" d="M3.473,27.019l2.2,0.45c0.012,0.241,0.01,0.483,0.031,0.724l3.322-0.283
		c-0.042-0.497-0.064-0.996-0.064-1.495c0-0.516,0.023-1.032,0.068-1.546l-1.507-0.133c0.009-0.026,0.013-0.055,0.022-0.081
		l-1.097-0.361l-2.685-1.256c-0.489,1.045-0.938,2.125-1.335,3.211l1.129,0.413C3.531,26.781,3.497,26.899,3.473,27.019z"/>
	<path fill="#848484" d="M38.699,59.427l0.688,3.262c1.151-0.243,2.296-0.556,3.402-0.929l-1.066-3.158
		C40.74,58.933,39.723,59.212,38.699,59.427z"/>
	<path fill="#848484" d="M20.426,56.844l-1.572,2.939c1.035,0.553,2.113,1.051,3.204,1.478l1.216-3.104
		C22.304,57.779,21.346,57.337,20.426,56.844z"/>
	<path fill="#848484" d="M25.411,62.353c1.138,0.299,2.301,0.531,3.458,0.693l0.462-3.301c-1.029-0.144-2.063-0.352-3.075-0.617
		L25.411,62.353z"/>
	<path fill="#848484" d="M33.108,60.011l-0.646-0.007l-0.083,3.332c0.243,0.007,0.487,0.009,0.729,0.009
		c0.925,0,1.865-0.043,2.794-0.129l-0.304-3.319C34.77,59.973,33.933,60.011,33.108,60.011z"/>
	<path fill="#848484" d="M13.058,51.053c-0.698-0.779-1.357-1.604-1.956-2.454l-2.723,1.924c0.675,0.954,1.414,1.881,2.197,2.755
		L13.058,51.053z"/>
	<path fill="#848484" d="M49.935,54.106l2.088,2.598c0.856-0.688,1.689-1.435,2.473-2.218l-2.355-2.358
		C51.44,52.827,50.698,53.492,49.935,54.106z"/>
	<path fill="#848484" d="M49.152,58.746l-1.772-2.824c-0.88,0.553-1.804,1.059-2.747,1.506l1.426,3.013
		C47.12,59.938,48.161,59.368,49.152,58.746z"/>
	<path fill="#848484" d="M35.115,45.318c1.096-0.504,2.154-1.107,3.145-1.794l-1.899-2.739c-0.83,0.575-1.717,1.082-2.637,1.504
		L35.115,45.318z"/>
	<path fill="#848484" d="M28.14,47.144c1.203-0.099,2.402-0.304,3.565-0.608l-0.843-3.224c-0.977,0.255-1.985,0.426-2.996,0.51
		L28.14,47.144z"/>
	<polygon fill="#848484" points="39.87,40.028 41.134,41.122 38.777,38.765 	"/>
	<path fill="#848484" d="M9.545,30.904l-3.223,0.853c0.308,1.166,0.722,2.311,1.229,3.405l3.024-1.401
		C10.15,32.844,9.804,31.883,9.545,30.904z"/>
	<path fill="#848484" d="M24.524,47.126l0.303-3.32c-1.012-0.092-2.018-0.273-2.992-0.537l-0.874,3.216
		C22.121,46.801,23.32,47.016,24.524,47.126z"/>
	<path fill="#848484" d="M16.36,40.692l-1.924,2.721c0.988,0.698,2.04,1.312,3.13,1.824l1.418-3.016
		C18.071,41.791,17.188,41.277,16.36,40.692z"/>
	<path fill="#848484" d="M12.087,36.394l-2.734,1.908c0.688,0.986,1.469,1.92,2.32,2.775l2.363-2.35
		C13.322,38.006,12.666,37.222,12.087,36.394z"/>
	<path fill="#848484" d="M76.793,36.78H66.315V26.303c0-1.773-1.437-3.211-3.211-3.211c-1.773,0-3.211,1.437-3.211,3.211V36.78
		H49.416c-1.773,0-3.211,1.437-3.211,3.211s1.438,3.211,3.211,3.211h10.477v10.477c0,1.773,1.438,3.211,3.211,3.211
		c1.773,0,3.211-1.438,3.211-3.211V43.202h10.477c1.773,0,3.211-1.438,3.211-3.211S78.566,36.78,76.793,36.78z"/>
</g>
</svg>
