<?xml version="1.0" encoding="utf-8"?>
<!-- Generator: Adobe Illustrator 21.0.0, SVG Export Plug-In . SVG Version: 6.00 Build 0)  -->
<svg version="1.1" id="图层_1" xmlns="http://www.w3.org/2000/svg" xmlns:xlink="http://www.w3.org/1999/xlink" x="0px" y="0px"
	 width="80px" height="80px" viewBox="0 0 80 80" enable-background="new 0 0 80 80" xml:space="preserve">
<g>
	<path fill="#848484" d="M63.339,31.083c-4.925,0-8.917,3.992-8.917,8.917s3.992,8.917,8.917,8.917c4.925,0,8.917-3.992,8.917-8.917
		S68.264,31.083,63.339,31.083z M63.339,47.517c-4.145,0-7.517-3.372-7.517-7.517s3.372-7.517,7.517-7.517
		c4.145,0,7.517,3.372,7.517,7.517S67.484,47.517,63.339,47.517z"/>
	<path fill="#848484" d="M63.339,28.339c-0.942,0-1.857,0.115-2.734,0.325L46.549,14.608c0.202-0.647,0.311-1.334,0.311-2.048
		c0-3.789-3.071-6.86-6.86-6.86s-6.86,3.071-6.86,6.86c0,0.713,0.109,1.401,0.311,2.048L14.421,33.639
		c-0.792-0.319-1.655-0.499-2.561-0.499C8.071,33.14,5,36.211,5,40s3.071,6.86,6.86,6.86c0.906,0,1.769-0.18,2.56-0.499
		l19.031,19.031c-0.202,0.647-0.311,1.335-0.311,2.048c0,3.789,3.071,6.86,6.86,6.86s6.86-3.071,6.86-6.86
		c0-0.713-0.109-1.401-0.311-2.048l14.056-14.056c0.877,0.211,1.792,0.326,2.734,0.326c6.44,0,11.66-5.22,11.661-11.66V40
		c0,0,0-0.001,0-0.001C74.999,33.559,69.779,28.339,63.339,28.339z M40,8.444c2.27,0,4.116,1.846,4.116,4.116
		c0,2.27-1.846,4.116-4.116,4.116c-2.27,0-4.116-1.846-4.116-4.116C35.884,10.29,37.73,8.444,40,8.444z M7.744,40
		c0-2.27,1.846-4.116,4.116-4.116c2.27,0,4.116,1.846,4.116,4.116s-1.846,4.116-4.116,4.116C9.59,44.116,7.744,42.27,7.744,40z
		 M40,71.556c-2.27,0-4.116-1.846-4.116-4.116c0-2.27,1.846-4.116,4.116-4.116c2.27,0,4.116,1.846,4.116,4.116
		C44.116,69.71,42.27,71.556,40,71.556z M45.146,62.914C43.888,61.486,42.052,60.58,40,60.58s-3.889,0.906-5.146,2.334
		L16.749,44.809C17.967,43.57,18.72,41.874,18.72,40c0-1.874-0.753-3.57-1.971-4.808l18.105-18.105
		c1.257,1.428,3.094,2.334,5.146,2.334c2.052,0,3.889-0.906,5.146-2.334l12.651,12.652C54.153,31.71,51.678,35.566,51.678,40
		s2.475,8.29,6.119,10.262L45.146,62.914z M63.339,50.261c-5.658,0-10.261-4.603-10.261-10.261s4.603-10.261,10.261-10.261
		C68.997,29.739,73.6,34.342,73.6,40S68.997,50.261,63.339,50.261z"/>
	<path fill="#848484" d="M63.339,33.827c-3.409,0-6.173,2.764-6.173,6.173s2.764,6.173,6.173,6.173c3.409,0,6.173-2.764,6.173-6.173
		S66.748,33.827,63.339,33.827z M63.339,43.429c-1.891,0-3.429-1.538-3.429-3.429s1.538-3.429,3.429-3.429
		c1.891,0,3.429,1.538,3.429,3.429S65.23,43.429,63.339,43.429z"/>
</g>
</svg>
