<?xml version="1.0" encoding="utf-8"?>
<!-- Generator: Adobe Illustrator 21.0.0, SVG Export Plug-In . SVG Version: 6.00 Build 0)  -->
<svg version="1.1" id="图层_1" xmlns="http://www.w3.org/2000/svg" xmlns:xlink="http://www.w3.org/1999/xlink" x="0px" y="0px"
	 width="80px" height="80px" viewBox="0 0 80 80" enable-background="new 0 0 80 80" xml:space="preserve">
<g>
	<path fill="#848484" d="M40.004,0c-22.091,0-40,17.909-40,40c0,22.091,17.909,40,40,40s40-17.909,40-40
		C80.004,17.909,62.095,0,40.004,0z M46.306,10.052l-1.6,36.943h-9.521L33.51,10.052H46.306z M44.574,62.135
		c-1.258,1.257-2.762,1.885-4.514,1.885c-1.777,0-3.295-0.628-4.551-1.885c-1.258-1.257-1.885-2.774-1.885-4.552
		c0-1.828,0.646-3.364,1.941-4.608c1.295-1.243,2.691-1.866,4.189-1.866c1.98,0,3.594,0.635,4.838,1.904
		c1.244,1.271,1.865,2.78,1.865,4.532C46.459,59.349,45.83,60.878,44.574,62.135z"/>
</g>
</svg>
