<?xml version="1.0" encoding="utf-8"?>
<!-- Generator: Adobe Illustrator 21.0.0, SVG Export Plug-In . SVG Version: 6.00 Build 0)  -->
<svg version="1.1" id="图层_1" xmlns="http://www.w3.org/2000/svg" xmlns:xlink="http://www.w3.org/1999/xlink" x="0px" y="0px"
	 width="80px" height="80px" viewBox="0 0 80 80" enable-background="new 0 0 80 80" xml:space="preserve">
<g>
	<path fill="#848484" d="M5.868,22.108c0.236,0.136,0.494,0.201,0.748,0.201c0.519,0,1.023-0.27,1.301-0.751
		c2.081-3.612,4.738-6.828,7.897-9.559c0.627-0.542,0.696-1.489,0.154-2.116c-0.543-0.627-1.489-0.695-2.116-0.154
		c-3.415,2.952-6.286,6.427-8.535,10.331C4.903,20.777,5.15,21.695,5.868,22.108z"/>
	<path fill="#848484" d="M40,0c-5.4,0-10.638,1.058-15.57,3.144c-0.763,0.323-1.12,1.203-0.797,1.966
		c0.322,0.763,1.202,1.121,1.966,0.797C30.159,3.978,35.004,3,40,3c20.402,0,37,16.598,37,37S60.402,77,40,77S3,60.402,3,40
		c0-2.318,0.216-4.639,0.642-6.898c0.153-0.814-0.382-1.599-1.196-1.752c-0.813-0.153-1.598,0.383-1.752,1.196
		C0.233,34.989,0,37.497,0,40c0,22.056,17.944,40,40,40s40-17.944,40-40S62.056,0,40,0z"/>
	<path fill="#848484" d="M30.758,26.184c3.109,0,5.961,0.719,8.555,2.156v-4.898c-2.266-0.984-5.133-1.477-8.602-1.477
		c-5.391,0-9.836,1.781-13.336,5.344s-5.25,8.266-5.25,14.109c0,5.438,1.555,9.809,4.664,13.113s7.266,4.957,12.469,4.957
		c4.031,0,7.383-0.703,10.055-2.109v-4.5c-2.656,1.625-5.781,2.438-9.375,2.438c-3.844,0-6.953-1.277-9.328-3.832
		s-3.563-6.004-3.563-10.348c0-4.578,1.273-8.215,3.82-10.91S26.711,26.184,30.758,26.184z"/>
	<path fill="#848484" d="M45.992,20.512v38.367h4.594V44.184c0-2.313,0.656-4.23,1.969-5.754s2.961-2.285,4.945-2.285
		c3.875,0,5.813,2.609,5.813,7.828v14.906h4.57V42.918c0-7.047-2.914-10.57-8.742-10.57c-3.656,0-6.477,1.625-8.461,4.875h-0.094
		V20.512H45.992z"/>
</g>
</svg>
