<?xml version="1.0" encoding="utf-8"?>
<!-- Generator: Adobe Illustrator 21.0.0, SVG Export Plug-In . SVG Version: 6.00 Build 0)  -->
<svg version="1.1" id="图层_1" xmlns="http://www.w3.org/2000/svg" xmlns:xlink="http://www.w3.org/1999/xlink" x="0px" y="0px"
	 width="80px" height="80px" viewBox="0 0 80 80" enable-background="new 0 0 80 80" xml:space="preserve">
<g>
	<path fill="#848484" d="M33.335,73.332c-0.434,0-0.859-0.169-1.178-0.488L0.492,41.179c-0.651-0.651-0.651-1.706,0-2.357
		L32.157,7.157c0.475-0.477,1.191-0.621,1.816-0.361c0.623,0.258,1.029,0.866,1.029,1.54v17.205h43.335
		c0.92,0,1.667,0.746,1.667,1.667v25.586c0,0.92-0.746,1.667-1.667,1.667H35.002v17.205c0,0.674-0.406,1.282-1.029,1.54
		C33.767,73.291,33.55,73.332,33.335,73.332z M4.027,40l27.642,27.642V52.793c0-0.92,0.746-1.667,1.667-1.667H76.67V28.874H33.335
		c-0.92,0-1.667-0.746-1.667-1.667V12.359L4.027,40z"/>
</g>
</svg>
