<?xml version="1.0" encoding="utf-8"?>
<!-- Generator: Adobe Illustrator 21.0.0, SVG Export Plug-In . SVG Version: 6.00 Build 0)  -->
<svg version="1.1" id="图层_1" xmlns="http://www.w3.org/2000/svg" xmlns:xlink="http://www.w3.org/1999/xlink" x="0px" y="0px"
	 width="80px" height="80px" viewBox="0 0 80 80" enable-background="new 0 0 80 80" xml:space="preserve">
<g>
	<path fill="#848484" d="M58.265,32.999c-12.006,0-21.739,9.733-21.739,21.739c0,12.006,9.733,21.739,21.739,21.739
		s21.739-9.733,21.739-21.739C80.004,42.732,70.271,32.999,58.265,32.999z M60.628,70.339H55.43V66.01h5.198V70.339z M68.189,51.221
		c-0.945,1.324-2.208,2.466-3.781,3.427c-1.577,0.964-2.68,1.925-3.308,2.886c-0.632,0.964-0.945,1.623-0.945,1.984v1.263h-4.253
		v-1.804c0-1.082,0.354-2.133,1.063-3.156c0.709-1.02,1.927-2.133,3.663-3.337c1.259-0.84,2.127-1.713,2.599-2.615
		c0.473-0.902,0.709-1.772,0.709-2.615c0-1.561-0.473-2.734-1.418-3.517c-0.945-0.78-2.286-1.172-4.017-1.172
		c-1.735,0-3.19,0.513-4.371,1.533c-1.181,1.023-1.772,2.677-1.772,4.96h-5.435c0.155-3.365,1.336-5.862,3.544-7.485
		c2.204-1.623,4.881-2.435,8.034-2.435c3.463,0,6.18,0.721,8.152,2.164c1.967,1.443,2.954,3.308,2.954,5.591
		C69.607,48.457,69.134,49.9,68.189,51.221z"/>
</g>
<g>
	<path fill="#848484" d="M27.349,17.324c15.334,0,27.345-3.483,27.345-7.93c0-4.447-12.011-7.93-27.345-7.93
		S0.004,4.946,0.004,9.393C0.004,13.84,12.015,17.324,27.349,17.324z"/>
	<path fill="#848484" d="M53.847,27.687c0.284,0,0.565,0.012,0.847,0.021V14.027c0-0.41-0.51-0.742-1.139-0.742
		s-1.139,0.332-1.139,0.742c0,3.113-10.073,6.446-25.067,6.446S2.282,17.14,2.282,14.027c0-0.41-0.51-0.742-1.139-0.742
		s-1.139,0.332-1.139,0.742v15.127c0,4.447,12.011,7.93,27.345,7.93c2.29,0,4.504-0.079,6.616-0.226
		C38.763,31.248,45.887,27.687,53.847,27.687z"/>
	<path fill="#848484" d="M31.194,40.774c-1.242,0.049-2.523,0.077-3.845,0.077c-14.994,0-25.067-3.333-25.067-6.446
		c0-0.41-0.51-0.742-1.139-0.742s-1.139,0.332-1.139,0.742v15.126c0,4.447,12.011,7.93,27.345,7.93c0.2,0,0.397-0.003,0.596-0.004
		c-0.163-1.182-0.254-2.387-0.254-3.614C27.691,49.081,28.97,44.621,31.194,40.774z"/>
	<path fill="#848484" d="M28.965,61.912c-0.533,0.009-1.07,0.014-1.616,0.014c-14.994,0-25.067-3.333-25.067-6.446
		c0-0.41-0.51-0.742-1.139-0.742S0.004,55.07,0.004,55.48v15.127c0,4.447,12.011,7.93,27.345,7.93c5.54,0,10.641-0.456,14.904-1.247
		C35.989,74.187,31.148,68.649,28.965,61.912z"/>
</g>
</svg>
