<?xml version="1.0" encoding="utf-8"?>
<!-- Generator: Adobe Illustrator 21.0.0, SVG Export Plug-In . SVG Version: 6.00 Build 0)  -->
<svg version="1.1" id="图层_1" xmlns="http://www.w3.org/2000/svg" xmlns:xlink="http://www.w3.org/1999/xlink" x="0px" y="0px"
	 width="80px" height="80px" viewBox="0 0 80 80" enable-background="new 0 0 80 80" xml:space="preserve">
<g>
	<path fill="#848484" d="M40.004,28.266c-6.471,0-11.735,5.264-11.735,11.734s5.264,11.734,11.735,11.734S51.738,46.471,51.738,40
		S46.474,28.266,40.004,28.266z"/>
	<path fill="#848484" d="M76.67,36.667h-5.43C69.686,22.001,58.003,10.318,43.337,8.763v-5.43C43.337,1.493,41.844,0,40.004,0
		S36.67,1.493,36.67,3.333v5.43c-14.667,1.554-26.35,13.237-27.904,27.903H3.337c-1.841,0-3.333,1.493-3.333,3.333
		s1.493,3.333,3.333,3.333h5.429c1.554,14.666,13.237,26.349,27.904,27.903v5.43c0,1.841,1.493,3.333,3.333,3.333
		s3.333-1.493,3.333-3.333v-5.43c14.666-1.554,26.349-13.237,27.903-27.903h5.43c1.841,0,3.333-1.493,3.333-3.333
		S78.511,36.667,76.67,36.667z M43.337,67.869v-6.221c0-1.841-1.493-3.333-3.333-3.333s-3.333,1.493-3.333,3.333v6.221
		c-12.823-1.526-23.01-11.713-24.536-24.535h6.221c1.841,0,3.333-1.493,3.333-3.333s-1.493-3.333-3.333-3.333h-6.221
		C13.66,23.844,23.847,13.657,36.67,12.131v6.22c0,1.841,1.493,3.333,3.333,3.333s3.333-1.493,3.333-3.333v-6.22
		c12.822,1.526,23.009,11.713,24.535,24.535h-6.221c-1.841,0-3.333,1.493-3.333,3.333s1.493,3.333,3.333,3.333h6.221
		C66.346,56.156,56.159,66.342,43.337,67.869z"/>
</g>
</svg>
