<?xml version="1.0" encoding="utf-8"?>
<!-- Generator: Adobe Illustrator 21.0.0, SVG Export Plug-In . SVG Version: 6.00 Build 0)  -->
<svg version="1.1" id="图层_1" xmlns="http://www.w3.org/2000/svg" xmlns:xlink="http://www.w3.org/1999/xlink" x="0px" y="0px"
	 width="80px" height="80px" viewBox="0 0 80 80" enable-background="new 0 0 80 80" xml:space="preserve">
<g>
	<path fill="#848484" d="M6.121,22.108c0.236,0.136,0.493,0.201,0.748,0.201c0.519,0,1.023-0.27,1.301-0.752
		c2.08-3.61,4.736-6.826,7.897-9.559c0.626-0.542,0.695-1.489,0.153-2.116c-0.543-0.627-1.488-0.696-2.116-0.154
		c-3.415,2.953-6.286,6.429-8.534,10.331C5.157,20.778,5.403,21.695,6.121,22.108z"/>
	<path fill="#848484" d="M59.872,71.376C54.002,75.055,47.218,77,40.254,77c-20.402,0-37-16.598-37-37
		c0-2.322,0.216-4.643,0.641-6.898c0.154-0.814-0.382-1.598-1.195-1.752c-0.817-0.151-1.599,0.381-1.752,1.196
		C0.487,34.984,0.254,37.492,0.254,40c0,22.056,17.944,40,40,40c7.528,0,14.863-2.103,21.212-6.082
		c0.702-0.44,0.914-1.366,0.475-2.067C61.499,71.148,60.574,70.937,59.872,71.376z"/>
	<path fill="#848484" d="M25.851,5.907C30.412,3.978,35.258,3,40.254,3c6.964,0,13.747,1.944,19.617,5.623
		c0.248,0.155,0.523,0.229,0.796,0.229c0.499,0,0.987-0.249,1.272-0.704c0.439-0.702,0.227-1.627-0.475-2.067
		C55.116,2.103,47.781,0,40.254,0c-5.399,0-10.638,1.058-15.57,3.144c-0.764,0.323-1.12,1.203-0.798,1.966
		C24.208,5.872,25.088,6.232,25.851,5.907z"/>
	<path fill="#848484" d="M79.314,38.939L60.038,19.663c-0.429-0.429-1.074-0.557-1.635-0.325c-0.561,0.232-0.926,0.779-0.926,1.386
		v9.941H33.023c-0.828,0-1.5,0.671-1.5,1.5v15.67c0,0.829,0.672,1.5,1.5,1.5h24.454v9.941c0,0.607,0.365,1.154,0.926,1.386
		c0.186,0.077,0.381,0.114,0.574,0.114c0.39,0,0.773-0.152,1.061-0.439l19.276-19.276C79.9,40.475,79.9,39.525,79.314,38.939z
		 M60.477,55.655v-7.82c0-0.829-0.672-1.5-1.5-1.5H34.523v-12.67h24.454c0.828,0,1.5-0.671,1.5-1.5v-7.82L76.133,40L60.477,55.655z"
		/>
</g>
</svg>
