<?xml version="1.0" encoding="utf-8"?>
<!-- Generator: Adobe Illustrator 21.0.0, SVG Export Plug-In . SVG Version: 6.00 Build 0)  -->
<svg version="1.1" id="图层_1" xmlns="http://www.w3.org/2000/svg" xmlns:xlink="http://www.w3.org/1999/xlink" x="0px" y="0px"
	 width="80px" height="80px" viewBox="0 0 80 80" enable-background="new 0 0 80 80" xml:space="preserve">
<g>
	<path fill="#848484" d="M25.955,0H5.104c-2.812,0-5.1,2.402-5.1,5.354v20.597c0,0.92,0.746,1.667,1.667,1.667
		s1.667-0.746,1.667-1.667V5.354c0-1.114,0.793-2.021,1.767-2.021h20.851c0.92,0,1.667-0.746,1.667-1.667S26.875,0,25.955,0z"/>
	<path fill="#848484" d="M74.903,0H54.052c-0.92,0-1.667,0.746-1.667,1.667s0.746,1.667,1.667,1.667h20.851
		c0.975,0,1.768,0.907,1.768,2.021v20.597c0,0.92,0.746,1.667,1.667,1.667s1.667-0.746,1.667-1.667V5.354
		C80.004,2.402,77.715,0,74.903,0z"/>
	<path fill="#848484" d="M25.955,76.667H5.104c-0.974,0-1.767-0.907-1.767-2.021V54.048c0-0.92-0.746-1.667-1.667-1.667
		s-1.667,0.746-1.667,1.667v20.598c0,2.952,2.288,5.354,5.1,5.354h20.851c0.92,0,1.667-0.746,1.667-1.667
		S26.875,76.667,25.955,76.667z"/>
	<path fill="#848484" d="M64.364,53.718l11.576-5.597c0.616-0.298,0.988-0.942,0.937-1.624c-0.05-0.683-0.513-1.265-1.165-1.468
		L34.157,32.067c-0.591-0.183-1.235-0.025-1.675,0.413c-0.439,0.438-0.597,1.083-0.413,1.675l12.964,41.554
		c0.203,0.653,0.785,1.115,1.468,1.165c0.68,0.058,1.326-0.32,1.624-0.937l5.597-11.576l15.151,15.151
		C69.199,79.837,69.625,80,70.052,80c0.426,0,0.853-0.163,1.178-0.488l8.285-8.285c0.651-0.651,0.651-1.706,0-2.357L64.364,53.718z
		 M70.052,75.977L54.42,60.345c-0.315-0.315-0.74-0.488-1.178-0.488c-0.092,0-0.186,0.007-0.278,0.024
		c-0.531,0.09-0.987,0.432-1.222,0.918l-4.781,9.891L36.198,36.195l34.495,10.761l-9.891,4.781
		c-0.486,0.235-0.828,0.691-0.918,1.222c-0.09,0.532,0.083,1.075,0.465,1.457L75.98,70.048L70.052,75.977z"/>
</g>
</svg>
