<?xml version="1.0" encoding="utf-8"?>
<!-- Generator: Adobe Illustrator 21.0.0, SVG Export Plug-In . SVG Version: 6.00 Build 0)  -->
<svg version="1.1" id="图层_1" xmlns="http://www.w3.org/2000/svg" xmlns:xlink="http://www.w3.org/1999/xlink" x="0px" y="0px"
	 width="80px" height="80px" viewBox="0 0 80 80" enable-background="new 0 0 80 80" xml:space="preserve">
<g>
	<path fill="#848484" d="M35.355,43.605c-0.95-0.568-2.177-0.257-2.743,0.691l-4.744,7.946H10.368v-8.364L0.004,54.243
		l10.364,10.364v-8.364h18.636c0.704,0,1.356-0.37,1.717-0.975l5.326-8.921C36.614,45.399,36.303,44.17,35.355,43.605z"/>
	<path fill="#848484" d="M44.252,28.701c0.321,0.192,0.675,0.283,1.023,0.283c0.681,0,1.345-0.348,1.719-0.975l5.144-8.616h20.865
		c1.104,0,2-0.896,2-2s-0.896-2-2-2h-22c-0.704,0-1.356,0.37-1.717,0.975l-5.726,9.591C42.994,26.907,43.304,28.135,44.252,28.701z"
		/>
	<path fill="#848484" d="M80.004,54.243L69.64,43.879v8.364H52.139L30.721,16.368c-0.361-0.604-1.013-0.975-1.717-0.975h-22
		c-1.104,0-2,0.896-2,2s0.896,2,2,2h20.865l21.418,35.875c0.361,0.604,1.013,0.975,1.717,0.975H69.64v8.364L80.004,54.243z"/>
</g>
</svg>
