<?xml version="1.0" encoding="utf-8"?>
<!-- Generator: Adobe Illustrator 21.0.0, SVG Export Plug-In . SVG Version: 6.00 Build 0)  -->
<svg version="1.1" id="图层_1" xmlns="http://www.w3.org/2000/svg" xmlns:xlink="http://www.w3.org/1999/xlink" x="0px" y="0px"
	 width="80px" height="80px" viewBox="0 0 80 80" enable-background="new 0 0 80 80" xml:space="preserve">
<path fill="#848484" d="M73.405,0H6.601C2.963,0,0.004,2.96,0.004,6.598V53.1c0,3.639,2.96,6.598,6.597,6.598H36.67v13.635H20.249
	c-1.841,0-3.333,1.493-3.333,3.333S18.409,80,20.249,80h39.508c1.841,0,3.333-1.493,3.333-3.333s-1.493-3.333-3.333-3.333H43.337
	V59.698h30.068c3.639,0,6.598-2.96,6.598-6.598V6.598C80.004,2.96,77.044,0,73.405,0z M73.337,53.031l-32.998,0.034
	c-0.112-0.011-0.221-0.034-0.335-0.034c-0.117,0-0.228,0.023-0.342,0.034L6.67,53.1L6.601,6.667l66.736-0.068V53.031z"/>
</svg>
