<?xml version="1.0" encoding="utf-8"?>
<!-- Generator: Adobe Illustrator 21.0.0, SVG Export Plug-In . SVG Version: 6.00 Build 0)  -->
<svg version="1.1" id="图层_1" xmlns="http://www.w3.org/2000/svg" xmlns:xlink="http://www.w3.org/1999/xlink" x="0px" y="0px"
	 width="80px" height="80px" viewBox="0 0 80 80" enable-background="new 0 0 80 80" xml:space="preserve">
<g>
	<path fill="#848484" d="M70.004,61.236h-6c-1.104,0-2,0.896-2,2s0.896,2,2,2h6c1.104,0,2-0.896,2-2S71.108,61.236,70.004,61.236z"
		/>
	<path fill="#848484" d="M52.004,61.236h-12c-1.104,0-2,0.896-2,2s0.896,2,2,2h12c1.104,0,2-0.896,2-2S53.108,61.236,52.004,61.236z
		"/>
	<path fill="#848484" d="M28.004,61.236h-1.921l1.176-1.519c0.676-0.873,0.517-2.129-0.356-2.806
		c-0.873-0.677-2.129-0.517-2.806,0.356l-3.674,4.743c-0.467,0.604-0.551,1.42-0.215,2.105c0.336,0.685,1.033,1.119,1.796,1.119h6
		c1.104,0,2-0.896,2-2S29.108,61.236,28.004,61.236z"/>
	<path fill="#848484" d="M38.364,42.117c-0.872-0.676-2.129-0.517-2.806,0.356l-5.73,7.397c-0.676,0.873-0.517,2.129,0.356,2.806
		c0.364,0.282,0.795,0.419,1.223,0.419c0.597,0,1.188-0.267,1.583-0.775l5.73-7.397C39.396,44.05,39.237,42.794,38.364,42.117z"/>
	<path fill="#848484" d="M58.004,14.764h-6h-12h-12h-12h-0.741v-5.63H0.004v15.259h15.259v-5.63h0.741h12h12h12h1.921L38.738,38.368
		c-0.676,0.873-0.517,2.129,0.356,2.806c0.364,0.282,0.795,0.419,1.223,0.419c0.597,0,1.188-0.267,1.583-0.775l2.546-3.287
		c0.001-0.002,0.003-0.003,0.004-0.004l5.73-7.397c0.001-0.001,0.002-0.003,0.003-0.005l5.727-7.392c0,0,0,0,0,0l3.674-4.743
		c0.467-0.604,0.551-1.42,0.215-2.105C59.464,15.198,58.767,14.764,58.004,14.764z"/>
</g>
</svg>
