<?xml version="1.0" encoding="utf-8"?>
<!-- Generator: Adobe Illustrator 21.0.0, SVG Export Plug-In . SVG Version: 6.00 Build 0)  -->
<svg version="1.1" id="图层_1" xmlns="http://www.w3.org/2000/svg" xmlns:xlink="http://www.w3.org/1999/xlink" x="0px" y="0px"
	 width="80px" height="80px" viewBox="0 0 80 80" enable-background="new 0 0 80 80" xml:space="preserve">
<g>
	<circle fill="#848484" cx="20.423" cy="40" r="4.419"/>
	<circle fill="#848484" cx="40.004" cy="40" r="4.419"/>
	<circle fill="#848484" cx="59.584" cy="40" r="4.419"/>
	<path fill="#848484" d="M67.425,69.107c6.6-6.6,12.578-17.632,12.578-29.107c0-22.091-17.909-40-40-40s-40,17.909-40,40
		c0,22.091,17.909,40,40,40h40C80.004,80,60.825,75.707,67.425,69.107z M62.314,73.753c0.233,0.802,0.614,1.55,1.111,2.247H40.004
		c-19.85,0-36-16.15-36-36s16.15-36,36-36s36,16.15,36,36c0,10.977-6.145,21.016-11.407,26.278
		C61.594,69.281,61.878,72.25,62.314,73.753z"/>
</g>
</svg>
