<?xml version="1.0" encoding="utf-8"?>
<!-- Generator: Adobe Illustrator 21.0.0, SVG Export Plug-In . SVG Version: 6.00 Build 0)  -->
<svg version="1.1" id="图层_1" xmlns="http://www.w3.org/2000/svg" xmlns:xlink="http://www.w3.org/1999/xlink" x="0px" y="0px"
	 width="80px" height="80px" viewBox="0 0 80 80" enable-background="new 0 0 80 80" xml:space="preserve">
<g>
	<path fill="#848484" d="M40.004,0c-22.091,0-40,17.909-40,40c0,22.091,17.909,40,40,40s40-17.909,40-40
		C80.004,17.909,62.095,0,40.004,0z M40.004,76.667C19.786,76.667,3.337,60.218,3.337,40c0-20.218,16.449-36.667,36.667-36.667
		S76.67,19.782,76.67,40C76.67,60.218,60.222,76.667,40.004,76.667z"/>
	<path fill="#848484" d="M53.692,36.789H43.215V26.312c0-1.773-1.438-3.211-3.211-3.211s-3.211,1.437-3.211,3.211v10.477H26.316
		c-1.773,0-3.211,1.437-3.211,3.211s1.437,3.211,3.211,3.211h10.477v10.477c0,1.773,1.437,3.211,3.211,3.211
		s3.211-1.438,3.211-3.211V43.211h10.477c1.773,0,3.211-1.438,3.211-3.211S55.465,36.789,53.692,36.789z"/>
</g>
</svg>
