<?xml version="1.0" encoding="utf-8"?>
<!-- Generator: Adobe Illustrator 21.0.0, SVG Export Plug-In . SVG Version: 6.00 Build 0)  -->
<svg version="1.1" id="图层_1" xmlns="http://www.w3.org/2000/svg" xmlns:xlink="http://www.w3.org/1999/xlink" x="0px" y="0px"
	 width="80px" height="80px" viewBox="0 0 80 80" enable-background="new 0 0 80 80" xml:space="preserve">
<g>
	<path fill="none" d="M66.653,44.825c-1.972-1.443-4.689-2.164-8.152-2.164c-3.153,0-5.83,0.812-8.034,2.435
		c-2.208,1.623-3.389,4.12-3.544,7.485h5.435c0-2.283,0.591-3.936,1.772-4.96c1.181-1.02,2.636-1.533,4.371-1.533
		c1.731,0,3.072,0.392,4.017,1.172c0.945,0.783,1.418,1.956,1.418,3.517c0,0.843-0.236,1.713-0.709,2.615
		c-0.473,0.902-1.341,1.775-2.599,2.615c-1.735,1.204-2.954,2.316-3.663,3.337c-0.709,1.023-1.063,2.074-1.063,3.156v1.804h4.253
		v-1.263c0-0.361,0.313-1.02,0.945-1.984c0.628-0.961,1.731-1.922,3.308-2.886c1.573-0.961,2.836-2.102,3.781-3.427
		c0.945-1.321,1.418-2.764,1.418-4.329C69.607,48.133,68.621,46.268,66.653,44.825z"/>
	<rect x="55.43" y="69.534" fill="none" width="5.198" height="4.329"/>
	<path fill="#848484" d="M4.544,68.098V4.54h63.558v31.256c1.612,0.722,3.134,1.608,4.54,2.644V0H0.004v72.637h38.09
		c-1.016-1.409-1.888-2.929-2.591-4.54H4.544z"/>
	<rect x="27.243" y="13.62" fill="#848484" width="9.08" height="4.54"/>
	<rect x="40.862" y="13.62" fill="#848484" width="9.08" height="4.54"/>
	<polygon fill="#848484" points="63.561,13.62 54.482,13.62 54.482,18.159 59.021,18.159 59.021,27.239 49.942,27.239 
		49.942,31.779 63.561,31.779 	"/>
	<rect x="22.703" y="27.239" fill="#848484" width="9.08" height="4.54"/>
	<rect x="36.322" y="27.239" fill="#848484" width="9.08" height="4.54"/>
	<polygon fill="#848484" points="9.083,31.779 18.163,31.779 18.163,27.239 13.623,27.239 13.623,18.159 22.703,18.159 
		22.703,13.62 9.083,13.62 	"/>
	<rect x="27.243" y="40.859" fill="#848484" width="9.08" height="4.54"/>
	<rect x="22.703" y="54.478" fill="#848484" width="9.08" height="4.54"/>
	<polygon fill="#848484" points="22.703,45.398 22.703,40.859 9.083,40.859 9.083,59.018 18.163,59.018 18.163,54.478 
		13.623,54.478 13.623,45.398 	"/>
	<path fill="#848484" d="M58.265,36.523c-12.006,0-21.739,9.733-21.739,21.739C36.527,70.267,46.259,80,58.265,80
		s21.739-9.733,21.739-21.739C80.004,46.256,70.271,36.523,58.265,36.523z M60.628,73.862H55.43v-4.329h5.198V73.862z
		 M68.189,54.745c-0.945,1.324-2.208,2.466-3.781,3.427c-1.577,0.964-2.68,1.925-3.308,2.886c-0.632,0.964-0.945,1.623-0.945,1.984
		v1.263h-4.253V62.5c0-1.082,0.354-2.133,1.063-3.156c0.709-1.02,1.927-2.133,3.663-3.337c1.259-0.84,2.127-1.713,2.599-2.615
		c0.473-0.902,0.709-1.772,0.709-2.615c0-1.561-0.473-2.734-1.418-3.517c-0.945-0.78-2.286-1.172-4.017-1.172
		c-1.735,0-3.19,0.513-4.371,1.533c-1.181,1.023-1.772,2.677-1.772,4.96h-5.435c0.155-3.365,1.336-5.862,3.544-7.485
		c2.204-1.623,4.881-2.435,8.034-2.435c3.463,0,6.18,0.721,8.152,2.164c1.967,1.443,2.954,3.308,2.954,5.591
		C69.607,51.98,69.134,53.423,68.189,54.745z"/>
</g>
</svg>
