<?xml version="1.0" encoding="utf-8"?>
<!-- Generator: Adobe Illustrator 21.0.0, SVG Export Plug-In . SVG Version: 6.00 Build 0)  -->
<svg version="1.1" id="图层_1" xmlns="http://www.w3.org/2000/svg" xmlns:xlink="http://www.w3.org/1999/xlink" x="0px" y="0px"
	 width="80px" height="80px" viewBox="0 0 80 80" enable-background="new 0 0 80 80" xml:space="preserve">
<g>
	<path fill="#848484" d="M25,30c5.514,0,10,4.486,10,10s-4.486,10-10,10s-10-4.486-10-10S19.486,30,25,30 M25,25
		c-8.25,0-15,6.75-15,15v0c0,8.25,6.75,15,15,15s15-6.75,15-15v0C40,31.75,33.25,25,25,25L25,25z"/>
	<g>
		<path fill="#848484" d="M55,20c11.028,0,20,8.972,20,20c0,11.028-8.972,20-20,20H25C13.972,60,5,51.028,5,40
			c0-11.028,8.972-20,20-20H55 M55,15H25C11.25,15,0,26.25,0,40v0c0,13.75,11.25,25,25,25h30c13.75,0,25-11.25,25-25v0
			C80,26.25,68.75,15,55,15L55,15z"/>
	</g>
</g>
</svg>
