<?xml version="1.0" encoding="utf-8"?>
<!-- Generator: Adobe Illustrator 21.0.0, SVG Export Plug-In . SVG Version: 6.00 Build 0)  -->
<svg version="1.1" id="图层_1" xmlns="http://www.w3.org/2000/svg" xmlns:xlink="http://www.w3.org/1999/xlink" x="0px" y="0px"
	 width="80px" height="80px" viewBox="0 0 80 80" enable-background="new 0 0 80 80" xml:space="preserve">
<g>
	<path fill="#848484" d="M5.868,22.108c0.236,0.136,0.494,0.201,0.748,0.201c0.519,0,1.023-0.27,1.301-0.751
		c2.081-3.612,4.738-6.828,7.897-9.559c0.627-0.542,0.696-1.489,0.154-2.116c-0.543-0.627-1.489-0.695-2.116-0.154
		c-3.415,2.952-6.286,6.427-8.535,10.331C4.903,20.777,5.15,21.695,5.868,22.108z"/>
	<path fill="#848484" d="M40,0c-5.4,0-10.638,1.058-15.57,3.144c-0.763,0.323-1.12,1.203-0.797,1.966
		c0.322,0.763,1.202,1.121,1.966,0.797C30.159,3.978,35.004,3,40,3c20.402,0,37,16.598,37,37S60.402,77,40,77S3,60.402,3,40
		c0-2.318,0.216-4.639,0.642-6.898c0.153-0.814-0.382-1.599-1.196-1.752c-0.813-0.153-1.598,0.383-1.752,1.196
		C0.233,34.989,0,37.497,0,40c0,22.056,17.944,40,40,40s40-17.944,40-40S62.056,0,40,0z"/>
	<path fill="#848484" d="M57.573,42.588l9.305-10.246c0.48-0.529,0.501-1.33,0.048-1.883L56.298,17.459
		c-0.231-0.494-0.731-0.832-1.308-0.832h-5.344c-0.797,0-1.442,0.646-1.442,1.442c0,2.064-3.675,5.226-8.204,5.226
		c-4.759,0-8.204-3.122-8.204-5.226c0-0.796-0.646-1.442-1.442-1.442h-5.286c-0.474,0-0.896,0.232-1.159,0.588L13.074,30.46
		c-0.453,0.553-0.432,1.354,0.048,1.883l9.305,10.246c0.488,0.536,1.299,0.628,1.895,0.211l0.236-0.165l-1.509,19.185
		c-0.032,0.4,0.105,0.797,0.378,1.092c0.273,0.296,0.658,0.463,1.059,0.463h31.086c0.403,0,0.786-0.168,1.059-0.463
		c0.273-0.296,0.41-0.691,0.378-1.092l-1.508-19.14l0.183,0.127C56.28,43.218,57.088,43.122,57.573,42.588z M54.646,38.579
		c-0.457-0.316-1.055-0.342-1.54-0.064c-0.482,0.277-0.761,0.808-0.718,1.363l1.623,20.611H26.047l1.627-20.68
		c0.044-0.556-0.237-1.088-0.722-1.365c-0.485-0.277-1.086-0.249-1.543,0.072l-1.701,1.192l-7.615-8.385l9.664-11.813h3.37
		c0.991,3.387,5.318,6.668,10.874,6.668c5.455,0,9.841-3.327,10.863-6.668h3.386l9.658,11.813l-7.62,8.391L54.646,38.579z"/>
</g>
</svg>
