<?xml version="1.0" encoding="utf-8"?>
<!-- Generator: Adobe Illustrator 21.0.0, SVG Export Plug-In . SVG Version: 6.00 Build 0)  -->
<svg version="1.1" id="图层_1" xmlns="http://www.w3.org/2000/svg" xmlns:xlink="http://www.w3.org/1999/xlink" x="0px" y="0px"
	 width="80px" height="80px" viewBox="0 0 80 80" enable-background="new 0 0 80 80" xml:space="preserve">
<g>
	<path fill="#848484" d="M78.609,71.87l-19.82-19.82h16.314c2.63,0,4.762-2.132,4.762-4.762c0-2.63-2.132-4.762-4.762-4.762H47.291
		c-0.313,0-0.625,0.033-0.933,0.094c-0.139,0.028-0.268,0.08-0.402,0.119c-0.163,0.048-0.328,0.086-0.487,0.151
		c-0.157,0.065-0.299,0.154-0.447,0.235c-0.125,0.068-0.254,0.123-0.373,0.202c-0.258,0.173-0.499,0.368-0.718,0.587
		c-0.002,0.002-0.005,0.004-0.007,0.006c-0.002,0.002-0.003,0.004-0.005,0.006c-0.219,0.22-0.415,0.461-0.588,0.72
		c-0.079,0.119-0.134,0.248-0.202,0.372c-0.081,0.148-0.171,0.291-0.236,0.449c-0.065,0.158-0.103,0.322-0.15,0.484
		c-0.04,0.135-0.092,0.265-0.12,0.404c-0.061,0.308-0.094,0.62-0.094,0.933v27.812c0,2.63,2.132,4.762,4.762,4.762
		c2.63,0,4.762-2.132,4.762-4.762V58.785l19.82,19.82c1.86,1.86,4.875,1.86,6.735,0C80.469,76.745,80.469,73.73,78.609,71.87z"/>
	<path fill="#848484" d="M32.716,0.138c-2.63,0-4.762,2.132-4.762,4.762v16.314L8.134,1.395c-1.86-1.86-4.875-1.86-6.735,0
		c-1.86,1.86-1.86,4.875,0,6.735l19.82,19.82H4.905c-2.63,0-4.762,2.132-4.762,4.762c0,2.63,2.132,4.762,4.762,4.762h27.812
		c0.313,0,0.625-0.033,0.933-0.094c0.139-0.028,0.268-0.08,0.402-0.119c0.163-0.048,0.328-0.086,0.487-0.151
		c0.157-0.065,0.299-0.154,0.447-0.235c0.125-0.068,0.254-0.123,0.373-0.202c0.258-0.173,0.499-0.368,0.718-0.587
		c0.002-0.002,0.005-0.004,0.007-0.006c0.002-0.002,0.003-0.004,0.005-0.006c0.219-0.22,0.415-0.461,0.588-0.72
		c0.079-0.119,0.134-0.248,0.202-0.372c0.081-0.148,0.171-0.291,0.236-0.449c0.065-0.158,0.103-0.322,0.15-0.484
		c0.04-0.135,0.092-0.265,0.12-0.404c0.061-0.308,0.094-0.62,0.094-0.933V4.901C37.479,2.271,35.346,0.138,32.716,0.138z"/>
</g>
</svg>
