<?xml version="1.0" encoding="utf-8"?>
<!-- Generator: Adobe Illustrator 21.0.0, SVG Export Plug-In . SVG Version: 6.00 Build 0)  -->
<svg version="1.1" id="图层_1" xmlns="http://www.w3.org/2000/svg" xmlns:xlink="http://www.w3.org/1999/xlink" x="0px" y="0px"
	 width="80px" height="80px" viewBox="0 0 80 80" enable-background="new 0 0 80 80" xml:space="preserve">
<path fill="#848484" d="M79.515,38.822l-15.16-15.16c-0.478-0.477-1.194-0.621-1.816-0.361c-0.623,0.258-1.029,0.866-1.029,1.54
	v7.368H47.794V18.492h7.368c0.006,0,0.011,0,0.016,0c0.97,0.029,1.684-0.741,1.684-1.667c0-0.562-0.278-1.058-0.703-1.36
	L41.182,0.488c-0.651-0.651-1.706-0.651-2.357,0l-15.16,15.159c-0.477,0.477-0.619,1.193-0.361,1.816
	c0.258,0.623,0.866,1.029,1.54,1.029h7.368v13.717H18.496V24.84c0-0.674-0.406-1.282-1.029-1.54c-0.626-0.26-1.34-0.116-1.816,0.361
	L0.492,38.822c-0.651,0.651-0.651,1.706,0,2.357l15.159,15.159c0.477,0.475,1.191,0.618,1.816,0.361
	c0.623-0.258,1.029-0.866,1.029-1.54v-7.367h13.717v13.717h-7.368c-0.674,0-1.282,0.406-1.54,1.029
	c-0.258,0.623-0.116,1.34,0.361,1.816l15.16,15.159C39.151,79.837,39.577,80,40.004,80s0.853-0.163,1.178-0.488l15.159-15.159
	c0.477-0.477,0.619-1.193,0.361-1.816c-0.258-0.623-0.866-1.029-1.54-1.029h-7.368V47.791h13.717v7.367
	c0,0.674,0.406,1.282,1.029,1.54c0.623,0.258,1.339,0.116,1.816-0.361l15.16-15.159c0.313-0.313,0.488-0.736,0.488-1.178
	S79.828,39.134,79.515,38.822z M64.844,51.135v-5.011c0-0.92-0.746-1.667-1.667-1.667h-17.05c-0.92,0-1.667,0.746-1.667,1.667v17.05
	c0,0.92,0.746,1.667,1.667,1.667h5.011L40.004,75.977L28.868,64.841h5.011c0.92,0,1.667-0.746,1.667-1.667v-17.05
	c0-0.92-0.746-1.667-1.667-1.667h-17.05c-0.92,0-1.667,0.746-1.667,1.667v5.011L4.027,40l11.135-11.135v5.011
	c0,0.92,0.746,1.667,1.667,1.667h17.05c0.92,0,1.667-0.746,1.667-1.667v-17.05c0-0.92-0.746-1.667-1.667-1.667h-5.011L40.004,4.023
	l11.135,11.135h-5.011c-0.92,0-1.667,0.746-1.667,1.667v17.05c0,0.92,0.746,1.667,1.667,1.667h17.05c0.92,0,1.667-0.746,1.667-1.667
	v-5.011L75.98,40L64.844,51.135z"/>
</svg>
