<?xml version="1.0" encoding="utf-8"?>
<!-- Generator: Adobe Illustrator 21.0.0, SVG Export Plug-In . SVG Version: 6.00 Build 0)  -->
<svg version="1.1" id="图层_1" xmlns="http://www.w3.org/2000/svg" xmlns:xlink="http://www.w3.org/1999/xlink" x="0px" y="0px"
	 width="80px" height="80px" viewBox="0 0 80 80" enable-background="new 0 0 80 80" xml:space="preserve">
<g>
	<path fill="#848484" d="M25.955,0c-0.92,0-1.667,0.746-1.667,1.667v20.261L5.284,2.924c-0.651-0.651-1.706-0.651-2.357,0
		s-0.651,1.706,0,2.357l19.004,19.004H1.67c-0.92,0-1.667,0.746-1.667,1.667s0.746,1.667,1.667,1.667h20.851
		c2.813,0,5.1-2.402,5.1-5.354V1.667C27.622,0.746,26.875,0,25.955,0z"/>
	<path fill="#848484" d="M78.337,52.381H57.485c-2.813,0-5.1,2.402-5.1,5.355v20.597c0,0.92,0.746,1.667,1.667,1.667
		s1.667-0.746,1.667-1.667V58.071l19.774,19.774c0.326,0.326,0.752,0.488,1.178,0.488c0.426,0,0.853-0.163,1.178-0.488
		c0.651-0.651,0.651-1.706,0-2.357L58.075,55.715h20.262c0.92,0,1.667-0.746,1.667-1.667S79.257,52.381,78.337,52.381z"/>
	<path fill="#848484" d="M22.268,52.381H1.67c-0.92,0-1.667,0.746-1.667,1.667s0.746,1.667,1.667,1.667h20.261L2.928,74.719
		c-0.651,0.651-0.651,1.706,0,2.357c0.326,0.326,0.752,0.488,1.178,0.488s0.853-0.163,1.178-0.488l19.004-19.005v20.262
		c0,0.92,0.746,1.667,1.667,1.667s1.667-0.746,1.667-1.667V57.482C27.622,54.67,25.22,52.381,22.268,52.381z"/>
	<path fill="#848484" d="M57.739,27.618h20.598c0.92,0,1.667-0.746,1.667-1.667s-0.746-1.667-1.667-1.667H58.076L77.849,4.512
		c0.651-0.651,0.651-1.706,0-2.357c-0.651-0.651-1.706-0.651-2.357,0L55.718,21.929V1.667c0-0.92-0.746-1.667-1.667-1.667
		s-1.667,0.746-1.667,1.667v20.851C52.385,25.33,54.786,27.618,57.739,27.618z"/>
</g>
</svg>
