<?xml version="1.0" encoding="utf-8"?>
<!-- Generator: Adobe Illustrator 21.0.0, SVG Export Plug-In . SVG Version: 6.00 Build 0)  -->
<svg version="1.1" id="图层_1" xmlns="http://www.w3.org/2000/svg" xmlns:xlink="http://www.w3.org/1999/xlink" x="0px" y="0px"
	 width="80px" height="80px" viewBox="0 0 80 80" enable-background="new 0 0 80 80" xml:space="preserve">
<g>
	<path fill="#848484" d="M40.004,40l8.267-18.444c-10.186-4.566-22.145-0.009-26.71,10.177c-4.566,10.186-0.009,22.145,10.177,26.71
		c10.186,4.566,22.145,0.009,26.71-10.177c2.283-5.093,2.285-10.629,0.443-15.463L40.004,40z"/>
	<path fill="#848484" d="M40.004,11.667c-22.091,0-40,28.333-40,28.333s17.909,28.333,40,28.333s40-28.333,40-28.333
		S62.095,11.667,40.004,11.667z M40.004,65C23.088,65,8.277,45.983,4.035,39.998C8.27,34.009,23.049,15,40.004,15
		C56.92,15,71.73,34.017,75.972,40.002C71.737,45.992,56.958,65,40.004,65z"/>
</g>
</svg>
