<?xml version="1.0" encoding="utf-8"?>
<!-- Generator: Adobe Illustrator 21.0.0, SVG Export Plug-In . SVG Version: 6.00 Build 0)  -->
<svg version="1.1" id="图层_1" xmlns="http://www.w3.org/2000/svg" xmlns:xlink="http://www.w3.org/1999/xlink" x="0px" y="0px"
	 width="80px" height="80px" viewBox="0 0 80 80" enable-background="new 0 0 80 80" xml:space="preserve">
<g>
	<path fill="#848484" d="M78.672,4.762c0,2.63-2.132,4.762-4.762,4.762H6.098c-2.63,0-4.762-2.132-4.762-4.762l0,0
		C1.335,2.132,3.468,0,6.098,0h67.812C76.54,0,78.672,2.132,78.672,4.762L78.672,4.762z"/>
	<path fill="#848484" d="M78.672,40c0,2.63-2.132,4.762-4.762,4.762H6.098c-2.63,0-4.762-2.132-4.762-4.762l0,0
		c0-2.63,2.132-4.762,4.762-4.762h67.812C76.54,35.238,78.672,37.37,78.672,40L78.672,40z"/>
	<path fill="#848484" d="M78.672,75.238c0,2.63-2.132,4.762-4.762,4.762H6.098c-2.63,0-4.762-2.132-4.762-4.762l0,0
		c0-2.63,2.132-4.762,4.762-4.762h67.812C76.54,70.475,78.672,72.607,78.672,75.238L78.672,75.238z"/>
</g>
</svg>
