<?xml version="1.0" encoding="utf-8"?>
<!-- Generator: Adobe Illustrator 21.0.0, SVG Export Plug-In . SVG Version: 6.00 Build 0)  -->
<svg version="1.1" id="图层_1" xmlns="http://www.w3.org/2000/svg" xmlns:xlink="http://www.w3.org/1999/xlink" x="0px" y="0px"
	 width="80px" height="80px" viewBox="0 0 80 80" enable-background="new 0 0 80 80" xml:space="preserve">
<path fill="#848484" d="M80.004,36.136h-12.12c0,0-4.542,0.521-6.682-1.545c-2.139-2.066-3.362-3.745-5.01-5.936
	c-3.635-4.832-9.531-7.973-16.188-7.973c-6.542,0-12.35,3.034-15.998,7.725c-1.748,2.247-1.826,3.974-5.2,6.184
	c-3.491,2.287-6.915,1.545-6.915,1.545H0.004v7.727h11.794c0,0,4.535-0.46,7.008,1.545c3.107,2.519,3.455,3.943,5.206,6.191
	c3.649,4.687,9.454,7.717,15.993,7.717c6.311,0,11.939-2.824,15.604-7.235c1.954-2.351,3.344-4.501,5.594-6.674
	c2.25-2.173,6.774-1.545,6.774-1.545h12.028V36.136z"/>
</svg>
