<?xml version="1.0" encoding="utf-8"?>
<!-- Generator: Adobe Illustrator 21.0.0, SVG Export Plug-In . SVG Version: 6.00 Build 0)  -->
<svg version="1.1" id="图层_1" xmlns="http://www.w3.org/2000/svg" xmlns:xlink="http://www.w3.org/1999/xlink" x="0px" y="0px"
	 width="80px" height="80px" viewBox="0 0 80 80" enable-background="new 0 0 80 80" xml:space="preserve">
<g>
	<path fill="#848484" d="M40.004,35.621c22.43,0,40-7.823,40-17.81c0-9.988-17.57-17.811-40-17.811s-40,7.823-40,17.811
		C0.004,27.798,17.574,35.621,40.004,35.621z M40.004,3.333c21.933,0,36.667,7.486,36.667,14.478S61.936,32.288,40.004,32.288
		S3.337,24.802,3.337,17.811S18.071,3.333,40.004,3.333z"/>
	<path fill="#848484" d="M78.337,26.55c-0.92,0-1.667,0.746-1.667,1.667c0,6.991-14.734,14.478-36.667,14.478
		S3.337,35.208,3.337,28.217c0-0.92-0.746-1.667-1.667-1.667s-1.667,0.746-1.667,1.667v33.972c0,9.988,17.57,17.811,40,17.811
		s40-7.823,40-17.811V28.217C80.004,27.297,79.257,26.55,78.337,26.55z M76.67,62.189c0,6.991-14.734,14.478-36.667,14.478
		S3.337,69.181,3.337,62.189V35.462C9.459,41.74,23.4,46.028,40.004,46.028S70.548,41.74,76.67,35.462V62.189z"/>
</g>
</svg>
