<?xml version="1.0" encoding="utf-8"?>
<!-- Generator: Adobe Illustrator 21.0.0, SVG Export Plug-In . SVG Version: 6.00 Build 0)  -->
<svg version="1.1" id="图层_1" xmlns="http://www.w3.org/2000/svg" xmlns:xlink="http://www.w3.org/1999/xlink" x="0px" y="0px"
	 width="80px" height="80px" viewBox="0 0 80 80" enable-background="new 0 0 80 80" xml:space="preserve">
<g>
	<path fill="#848484" d="M11.67,0H3.337C1.496,0,0.004,1.492,0.004,3.333v5c0,1.841,1.492,3.333,3.333,3.333h8.333
		c1.841,0,3.333-1.492,3.333-3.333v-5C15.004,1.492,13.511,0,11.67,0z"/>
	<path fill="#848484" d="M11.67,22.778H3.337c-1.841,0-3.333,1.492-3.333,3.333v5c0,1.841,1.492,3.333,3.333,3.333h8.333
		c1.841,0,3.333-1.492,3.333-3.333v-5C15.004,24.27,13.511,22.778,11.67,22.778z"/>
	<path fill="#848484" d="M11.67,45.556H3.337c-1.841,0-3.333,1.492-3.333,3.333v5c0,1.841,1.492,3.333,3.333,3.333h8.333
		c1.841,0,3.333-1.492,3.333-3.333v-5C15.004,47.048,13.511,45.556,11.67,45.556z"/>
	<path fill="#848484" d="M11.67,68.333H3.337c-1.841,0-3.333,1.492-3.333,3.333v5C0.004,78.508,1.496,80,3.337,80h8.333
		c1.841,0,3.333-1.492,3.333-3.333v-5C15.004,69.826,13.511,68.333,11.67,68.333z"/>
	<path fill="#848484" d="M76.67,0H28.125c-1.841,0-3.333,1.492-3.333,3.333v5c0,1.841,1.492,3.333,3.333,3.333H76.67
		c1.841,0,3.333-1.492,3.333-3.333v-5C80.004,1.492,78.511,0,76.67,0z M78.337,8.333c0,0.919-0.748,1.667-1.667,1.667H28.125
		c-0.919,0-1.667-0.748-1.667-1.667v-5c0-0.919,0.748-1.667,1.667-1.667H76.67c0.919,0,1.667,0.748,1.667,1.667V8.333z"/>
	<path fill="#848484" d="M76.67,22.778H28.125c-1.841,0-3.333,1.492-3.333,3.333v5c0,1.841,1.492,3.333,3.333,3.333H76.67
		c1.841,0,3.333-1.492,3.333-3.333v-5C80.004,24.27,78.511,22.778,76.67,22.778z M78.337,31.111c0,0.919-0.748,1.667-1.667,1.667
		H28.125c-0.919,0-1.667-0.748-1.667-1.667v-5c0-0.919,0.748-1.667,1.667-1.667H76.67c0.919,0,1.667,0.748,1.667,1.667V31.111z"/>
	<path fill="#848484" d="M76.67,45.556H28.125c-1.841,0-3.333,1.492-3.333,3.333v5c0,1.841,1.492,3.333,3.333,3.333H76.67
		c1.841,0,3.333-1.492,3.333-3.333v-5C80.004,47.048,78.511,45.556,76.67,45.556z M78.337,53.889c0,0.919-0.748,1.667-1.667,1.667
		H28.125c-0.919,0-1.667-0.748-1.667-1.667v-5c0-0.919,0.748-1.667,1.667-1.667H76.67c0.919,0,1.667,0.748,1.667,1.667V53.889z"/>
	<path fill="#848484" d="M76.67,68.333H28.125c-1.841,0-3.333,1.492-3.333,3.333v5c0,1.841,1.492,3.333,3.333,3.333H76.67
		c1.841,0,3.333-1.492,3.333-3.333v-5C80.004,69.826,78.511,68.333,76.67,68.333z M78.337,76.667c0,0.919-0.748,1.667-1.667,1.667
		H28.125c-0.919,0-1.667-0.748-1.667-1.667v-5c0-0.919,0.748-1.667,1.667-1.667H76.67c0.919,0,1.667,0.748,1.667,1.667V76.667z"/>
</g>
</svg>
