<?xml version="1.0" encoding="utf-8"?>
<!-- Generator: Adobe Illustrator 21.0.0, SVG Export Plug-In . SVG Version: 6.00 Build 0)  -->
<svg version="1.1" id="图层_1" xmlns="http://www.w3.org/2000/svg" xmlns:xlink="http://www.w3.org/1999/xlink" x="0px" y="0px"
	 width="80px" height="80px" viewBox="0 0 80 80" enable-background="new 0 0 80 80" xml:space="preserve">
<g>
	<path fill="#848484" d="M4.939,3.333h63.593c0.92,0,1.667-0.746,1.667-1.667S69.452,0,68.531,0H4.939
		c-0.92,0-1.667,0.746-1.667,1.667S4.018,3.333,4.939,3.333z"/>
	<path fill="#848484" d="M4.939,16.536h63.593c0.92,0,1.667-0.746,1.667-1.667s-0.746-1.667-1.667-1.667H4.939
		c-0.92,0-1.667,0.746-1.667,1.667S4.018,16.536,4.939,16.536z"/>
	<path fill="#848484" d="M4.939,29.74h63.593c0.92,0,1.667-0.746,1.667-1.667s-0.746-1.667-1.667-1.667H4.939
		c-0.92,0-1.667,0.746-1.667,1.667S4.018,29.74,4.939,29.74z"/>
	<path fill="#848484" d="M4.939,43.087h63.593c0.92,0,1.667-0.746,1.667-1.667s-0.746-1.667-1.667-1.667H4.939
		c-0.92,0-1.667,0.746-1.667,1.667S4.018,43.087,4.939,43.087z"/>
	<path fill="#848484" d="M36.735,52.957H4.939c-0.92,0-1.667,0.746-1.667,1.667s0.746,1.667,1.667,1.667h31.797
		c0.92,0,1.667-0.746,1.667-1.667S37.656,52.957,36.735,52.957z"/>
	<path fill="#848484" d="M36.735,66.16H4.939c-0.92,0-1.667,0.746-1.667,1.667s0.746,1.667,1.667,1.667h31.797
		c0.92,0,1.667-0.746,1.667-1.667S37.656,66.16,36.735,66.16z"/>
	<path fill="#848484" d="M76.247,77.155l-8.583-8.583c3.527-4.676,3.173-11.348-1.087-15.607c-2.33-2.33-5.385-3.495-8.439-3.495
		s-6.108,1.165-8.439,3.495c-4.661,4.661-4.661,12.217,0,16.877c2.33,2.33,5.385,3.495,8.439,3.495c2.529,0,5.051-0.811,7.169-2.409
		l8.583,8.583C74.216,79.837,74.642,80,75.069,80c0.426,0,0.853-0.163,1.178-0.488C76.898,78.861,76.898,77.806,76.247,77.155z
		 M64.221,67.485c-1.624,1.624-3.784,2.519-6.082,2.519s-4.457-0.895-6.082-2.519c-3.353-3.353-3.353-8.81,0-12.163
		c1.624-1.624,3.784-2.519,6.082-2.519s4.457,0.895,6.082,2.519C67.574,58.676,67.574,64.132,64.221,67.485z"/>
</g>
</svg>
