<?xml version="1.0" encoding="utf-8"?>
<!-- Generator: Adobe Illustrator 21.0.0, SVG Export Plug-In . SVG Version: 6.00 Build 0)  -->
<svg version="1.1" id="图层_1" xmlns="http://www.w3.org/2000/svg" xmlns:xlink="http://www.w3.org/1999/xlink" x="0px" y="0px"
	 width="80px" height="80px" viewBox="0 0 80 80" enable-background="new 0 0 80 80" xml:space="preserve">
<g>
	<g>
		<path fill="#848484" d="M54.004,0h-28c-14.359,0-26,11.641-26,26v28c0,14.359,11.641,26,26,26h28c14.359,0,26-11.641,26-26V26
			C80.004,11.641,68.363,0,54.004,0L54.004,0z M26.004,74c-11.028,0-20-8.972-20-20V26c0-11.028,8.972-20,20-20h28
			c11.028,0,20,8.972,20,20v28c0,11.028-8.972,20-20,20H26.004L26.004,74z"/>
	</g>
	<g>
		<path fill="#848484" d="M57.555,36H22.452c-1.657,0-3,1.791-3,4c0,2.209,1.343,4,3,4h35.103c1.657,0,3-1.791,3-4
			C60.555,37.791,59.212,36,57.555,36L57.555,36z"/>
	</g>
</g>
</svg>
