<?xml version="1.0" encoding="utf-8"?>
<!-- Generator: Adobe Illustrator 21.0.0, SVG Export Plug-In . SVG Version: 6.00 Build 0)  -->
<svg version="1.1" id="图层_1" xmlns="http://www.w3.org/2000/svg" xmlns:xlink="http://www.w3.org/1999/xlink" x="0px" y="0px"
	 width="80px" height="80px" viewBox="0 0 80 80" enable-background="new 0 0 80 80" xml:space="preserve">
<g>
	<path fill="#848484" d="M33.879,66.685h12.249c0.92,0,1.667-0.746,1.667-1.667V45.141h7.368c0.006,0,0.011,0,0.016,0
		c0.872,0.022,1.684-0.741,1.684-1.667c0-0.562-0.278-1.058-0.703-1.36L41.182,27.137c-0.651-0.651-1.706-0.651-2.357,0
		l-15.16,15.159c-0.477,0.477-0.619,1.193-0.361,1.816c0.258,0.623,0.866,1.029,1.54,1.029h7.368v19.877
		C32.213,65.938,32.959,66.685,33.879,66.685z M28.869,41.808l11.135-11.135l11.135,11.135h-5.011c-0.92,0-1.667,0.746-1.667,1.667
		v19.877h-8.915V43.474c0-0.92-0.746-1.667-1.667-1.667H28.869z"/>
	<polygon fill="#848484" points="76.641,0 13.684,0 3.366,10.372 66.324,10.372 	"/>
	<polygon fill="#848484" points="3.366,23.962 66.324,23.962 76.641,13.59 13.684,13.59 	"/>
	<polygon fill="#848484" points="3.366,80 66.324,80 76.641,69.628 13.684,69.628 	"/>
</g>
</svg>
