<?xml version="1.0" encoding="utf-8"?>
<!-- Generator: Adobe Illustrator 21.0.0, SVG Export Plug-In . SVG Version: 6.00 Build 0)  -->
<svg version="1.1" id="图层_1" xmlns="http://www.w3.org/2000/svg" xmlns:xlink="http://www.w3.org/1999/xlink" x="0px" y="0px"
	 width="80px" height="80px" viewBox="0 0 80 80" enable-background="new 0 0 80 80" xml:space="preserve">
<g>
	<polygon fill="#848484" points="54.488,16.224 44.982,16.224 44.982,0 35.018,0 35.018,16.224 25.512,16.224 40,30.712 	"/>
	<polygon fill="#848484" points="25.512,63.776 35.018,63.776 35.018,80 44.982,80 44.982,63.776 54.488,63.776 40,49.288 	"/>
	<polygon fill="#848484" points="65.429,24.864 65.429,33.132 14.571,33.132 14.571,24.864 10.534,24.864 10.534,34.132 
		10.534,37.295 13.571,37.295 66.429,37.295 69.466,37.295 69.466,34.132 69.466,24.864 	"/>
	<polygon fill="#848484" points="13.571,42.705 10.534,42.705 10.534,45.868 10.534,55.136 14.571,55.136 14.571,46.868 
		65.429,46.868 65.429,55.136 69.466,55.136 69.466,45.868 69.466,42.705 66.429,42.705 	"/>
</g>
</svg>
