<?xml version="1.0" encoding="utf-8"?>
<!-- Generator: Adobe Illustrator 21.0.0, SVG Export Plug-In . SVG Version: 6.00 Build 0)  -->
<svg version="1.1" id="图层_1" xmlns="http://www.w3.org/2000/svg" xmlns:xlink="http://www.w3.org/1999/xlink" x="0px" y="0px"
	 width="80px" height="80px" viewBox="0 0 80 80" enable-background="new 0 0 80 80" xml:space="preserve">
<g>
	<path fill="#848484" d="M5.871,22.108c0.236,0.136,0.494,0.201,0.748,0.201c0.519,0,1.023-0.27,1.301-0.751
		c2.081-3.612,4.738-6.828,7.897-9.559c0.627-0.542,0.696-1.489,0.154-2.116c-0.543-0.627-1.489-0.695-2.116-0.154
		c-3.415,2.952-6.286,6.427-8.535,10.331C4.907,20.777,5.154,21.695,5.871,22.108z"/>
	<path fill="#848484" d="M40.004,0c-5.4,0-10.638,1.058-15.57,3.144c-0.763,0.323-1.12,1.203-0.797,1.966
		c0.322,0.763,1.202,1.121,1.966,0.797C30.162,3.978,35.008,3,40.004,3c20.402,0,37,16.598,37,37s-16.598,37-37,37s-37-16.598-37-37
		c0-2.318,0.216-4.639,0.642-6.898c0.153-0.814-0.382-1.599-1.196-1.752c-0.813-0.153-1.598,0.383-1.752,1.196
		c-0.46,2.442-0.693,4.95-0.693,7.454c0,22.056,17.944,40,40,40s40-17.944,40-40S62.06,0,40.004,0z"/>
	<path fill="#848484" d="M51.801,28.491c0-6.516-5.282-11.798-11.798-11.798s-11.798,5.282-11.798,11.798
		c0,6.516,5.282,11.798,11.798,11.798S51.801,35.007,51.801,28.491z M31.206,28.491c0-4.851,3.947-8.798,8.798-8.798
		s8.798,3.947,8.798,8.798s-3.947,8.798-8.798,8.798S31.206,33.342,31.206,28.491z"/>
	<path fill="#848484" d="M15.514,63.133c-0.096,0.823,0.493,1.568,1.316,1.664c0.823,0.093,1.568-0.493,1.664-1.316
		c1.271-10.905,10.519-19.128,21.51-19.128s20.239,8.223,21.51,19.128c0.089,0.764,0.737,1.326,1.488,1.326
		c0.058,0,0.117-0.003,0.176-0.01c0.823-0.096,1.412-0.84,1.316-1.664c-1.447-12.417-11.976-21.78-24.49-21.78
		S16.961,50.716,15.514,63.133z"/>
</g>
</svg>
