<?xml version="1.0" encoding="utf-8"?>
<!-- Generator: Adobe Illustrator 21.0.0, SVG Export Plug-In . SVG Version: 6.00 Build 0)  -->
<svg version="1.1" id="图层_1" xmlns="http://www.w3.org/2000/svg" xmlns:xlink="http://www.w3.org/1999/xlink" x="0px" y="0px"
	 width="80px" height="80px" viewBox="0 0 80 80" enable-background="new 0 0 80 80" xml:space="preserve">
<g>
	<path fill="#848484" d="M14.889,57.539l2.208-2.463C10.374,49.047,5.56,42.363,3.947,40c3.207-4.696,19.085-26.465,37.71-26.465
		c4.485,0,9.184,1.287,13.964,3.827l1.552-2.922c-5.264-2.796-10.484-4.213-15.516-4.213c-22.576,0-40.35,27.709-41.095,28.889
		l-0.559,0.884l0.559,0.884C0.79,41.245,6.237,49.781,14.889,57.539z"/>
	<path fill="#848484" d="M79.444,39.116c-0.227-0.36-5.674-8.898-14.326-16.654l-2.208,2.463C69.633,30.952,74.447,37.637,76.06,40
		c-3.207,4.696-19.085,26.465-37.71,26.465c-4.485,0-9.184-1.287-13.965-3.827l-1.552,2.922c5.265,2.796,10.486,4.213,15.517,4.213
		c22.575,0,40.35-27.709,41.095-28.889l0.559-0.884L79.444,39.116z"/>
	<path fill="#848484" d="M21.699,31.796c-2.516,5.614-2.232,11.767,0.242,16.908l25.663-25.663l0.603-1.346
		C38.098,17.165,26.23,21.687,21.699,31.796z"/>
	<path fill="#848484" d="M31.308,58.053c0.167,0.08,0.322,0.175,0.492,0.251c10.109,4.531,21.977,0.009,26.508-10.1
		c2.266-5.055,2.268-10.549,0.44-15.346L55.12,34.24L31.308,58.053z"/>
	<path fill="#848484" d="M68.073,11.93c-1.292-1.292-3.387-1.292-4.678,0L11.933,63.392c-1.292,1.291-1.292,3.386,0,4.678
		c0.646,0.646,1.493,0.969,2.339,0.969c0.846,0,1.694-0.323,2.339-0.969l51.462-51.461C69.365,15.317,69.365,13.222,68.073,11.93z"
		/>
</g>
</svg>
