<?xml version="1.0" encoding="utf-8"?>
<!-- Generator: Adobe Illustrator 21.0.0, SVG Export Plug-In . SVG Version: 6.00 Build 0)  -->
<svg version="1.1" id="图层_1" xmlns="http://www.w3.org/2000/svg" xmlns:xlink="http://www.w3.org/1999/xlink" x="0px" y="0px"
	 width="80px" height="80px" viewBox="0 0 80 80" enable-background="new 0 0 80 80" xml:space="preserve">
<g>
	<path fill="#848484" d="M72.845,67.106c-7.24,7.24-16.866,11.227-27.105,11.227C24.603,78.333,7.406,61.137,7.406,40
		S24.603,1.667,45.74,1.667c10.239,0,19.865,3.988,27.105,11.227c0.326,0.326,0.853,0.326,1.178,0c0.326-0.326,0.326-0.853,0-1.178
		C66.469,4.161,56.424,0,45.74,0c-22.056,0-40,17.944-40,40s17.944,40,40,40c10.684,0,20.729-4.161,28.284-11.715
		c0.326-0.326,0.326-0.853,0-1.178C73.698,66.781,73.171,66.781,72.845,67.106z"/>
	<path fill="#848484" d="M46.86,13.04c-0.278,0-0.565,0.005-0.86,0.016c-0.46,0.017-0.819,0.404-0.802,0.863
		c0.016,0.449,0.386,0.802,0.832,0.802c0.011,0,0.021,0,0.032-0.001c0.274-0.01,0.54-0.015,0.798-0.015
		c0.461,0,0.833-0.373,0.833-0.833C47.694,13.413,47.321,13.04,46.86,13.04z"/>
	<path fill="#848484" d="M35.923,16.385c0.072,0,0.145-0.009,0.217-0.028c0.536-0.144,1.082-0.281,1.633-0.41
		c0.448-0.105,0.727-0.553,0.622-1.001c-0.104-0.449-0.554-0.727-1.001-0.622c-0.569,0.133-1.133,0.274-1.687,0.423
		c-0.444,0.12-0.708,0.577-0.588,1.021C35.219,16.14,35.556,16.385,35.923,16.385z"/>
	<path fill="#848484" d="M40.116,14.595c0.069,0.407,0.422,0.694,0.821,0.694c0.046,0,0.093-0.004,0.14-0.011
		c0.562-0.095,1.117-0.181,1.663-0.255c0.457-0.062,0.776-0.482,0.715-0.938c-0.062-0.457-0.481-0.771-0.938-0.715
		c-0.563,0.076-1.139,0.164-1.718,0.263C40.345,13.711,40.04,14.141,40.116,14.595z"/>
	<path fill="#848484" d="M31.055,18.002c0.108,0,0.217-0.02,0.322-0.065c0.484-0.203,1.005-0.402,1.553-0.597
		c0.435-0.153,0.662-0.629,0.508-1.063c-0.152-0.434-0.628-0.659-1.063-0.508c-0.58,0.204-1.13,0.416-1.642,0.631
		c-0.425,0.178-0.624,0.667-0.446,1.09C30.42,17.81,30.729,18.002,31.055,18.002z"/>
	<path fill="#848484" d="M29.485,21.699c-0.114,0.446,0.155,0.9,0.601,1.013c0.508,0.129,1.085,0.251,1.736,0.365
		c0.048,0.008,0.096,0.012,0.143,0.012c0.398,0,0.75-0.286,0.82-0.691c0.079-0.453-0.225-0.885-0.679-0.964
		c-0.604-0.105-1.139-0.217-1.609-0.337C30.052,20.978,29.598,21.252,29.485,21.699z"/>
	<path fill="#848484" d="M38.545,55.408c0.561,0.034,1.134,0.066,1.72,0.094c0.014,0.001,0.027,0.001,0.041,0.001
		c0.442,0,0.811-0.347,0.832-0.793c0.022-0.46-0.334-0.85-0.793-0.872c-0.579-0.028-1.144-0.058-1.697-0.092
		c-0.477-0.013-0.854,0.321-0.883,0.78C37.736,54.985,38.086,55.379,38.545,55.408z"/>
	<path fill="#848484" d="M33.386,54.951c0.556,0.067,1.129,0.128,1.718,0.186c0.028,0.002,0.055,0.004,0.082,0.004
		c0.424,0,0.787-0.321,0.828-0.753c0.045-0.457-0.291-0.865-0.749-0.91c-0.577-0.056-1.137-0.117-1.681-0.182
		c-0.465-0.05-0.872,0.273-0.927,0.728C32.603,54.482,32.93,54.896,33.386,54.951z"/>
	<path fill="#848484" d="M34.526,22.614c-0.044,0.458,0.292,0.865,0.75,0.908c0.543,0.052,1.117,0.1,1.721,0.144
		c0.021,0.002,0.042,0.002,0.062,0.002c0.432,0,0.798-0.334,0.83-0.772c0.034-0.459-0.311-0.859-0.77-0.892
		c-0.592-0.044-1.154-0.09-1.685-0.141C34.976,21.811,34.569,22.157,34.526,22.614z"/>
	<path fill="#848484" d="M36.212,37.875c0.546-0.09,1.102-0.172,1.667-0.247c0.457-0.061,0.777-0.48,0.716-0.936
		c-0.061-0.457-0.477-0.774-0.936-0.716c-0.583,0.077-1.155,0.163-1.717,0.256c-0.454,0.074-0.762,0.503-0.687,0.957
		c0.067,0.409,0.42,0.698,0.821,0.698C36.121,37.887,36.166,37.883,36.212,37.875z"/>
	<path fill="#848484" d="M19.985,50.996c0.147,0.107,0.318,0.158,0.487,0.158c0.258,0,0.513-0.12,0.676-0.345
		c0.269-0.373,0.186-0.894-0.187-1.164c-0.448-0.325-0.819-0.662-1.101-1.005c-0.293-0.355-0.817-0.405-1.174-0.112
		c-0.355,0.293-0.405,0.818-0.112,1.174C18.947,50.152,19.421,50.588,19.985,50.996z"/>
	<path fill="#848484" d="M22.141,42.813c0.422-0.298,0.882-0.588,1.379-0.872c0.4-0.229,0.539-0.737,0.31-1.137
		c-0.229-0.4-0.738-0.54-1.137-0.31c-0.545,0.312-1.05,0.632-1.512,0.957c-0.376,0.265-0.466,0.785-0.201,1.161
		c0.163,0.23,0.42,0.353,0.682,0.353C21.828,42.965,21.995,42.916,22.141,42.813z"/>
	<path fill="#848484" d="M19.248,46.212c0.11-0.408,0.319-0.831,0.622-1.257c0.266-0.375,0.178-0.895-0.197-1.162
		c-0.376-0.268-0.895-0.177-1.162,0.197c-0.417,0.588-0.711,1.191-0.872,1.79c-0.12,0.444,0.144,0.902,0.588,1.021
		c0.072,0.02,0.146,0.028,0.217,0.028C18.811,46.829,19.148,46.584,19.248,46.212z"/>
	<path fill="#848484" d="M65.928,56.442c0.415,0,0.775-0.309,0.826-0.732c0.056-0.457-0.269-0.873-0.725-0.929
		c-0.386-0.047-0.812-0.09-1.235-0.132l4.198-4.199c1.257-1.257,1.949-2.927,1.949-4.704c0-3.668-2.984-6.652-6.652-6.652
		c-3.668,0-6.652,2.984-6.652,6.652c0,1.777,0.692,3.448,1.948,4.704l4.253,4.253c-0.234,0.129-0.413,0.359-0.441,0.645
		c-0.044,0.458,0.293,0.864,0.751,0.907c0.594,0.057,1.152,0.116,1.676,0.18C65.86,56.44,65.894,56.442,65.928,56.442z
		 M58.948,45.747c0-2.945,2.396-5.341,5.341-5.341c2.945,0,5.341,2.396,5.341,5.341c0,1.426-0.556,2.768-1.565,3.777L64.289,53.3
		l-3.777-3.777C59.504,48.515,58.948,47.174,58.948,45.747z"/>
	<path fill="#848484" d="M59.152,54.237c-0.5-0.046-0.851,0.332-0.874,0.791c-0.023,0.46,0.331,0.851,0.791,0.874
		c0.588,0.029,1.153,0.06,1.698,0.094c0.017,0.001,0.034,0.002,0.051,0.002c0.437,0,0.804-0.34,0.831-0.783
		c0.028-0.459-0.321-0.854-0.781-0.882C60.318,54.299,59.746,54.267,59.152,54.237z"/>
	<path fill="#848484" d="M28.25,54.126c0.545,0.115,1.114,0.224,1.708,0.327c0.049,0.008,0.097,0.012,0.144,0.012
		c0.398,0,0.75-0.286,0.82-0.69c0.079-0.454-0.225-0.885-0.678-0.964c-0.575-0.1-1.125-0.206-1.653-0.316
		c-0.451-0.098-0.892,0.194-0.986,0.645C27.511,53.59,27.8,54.032,28.25,54.126z"/>
	<path fill="#848484" d="M23.193,52.674c0.516,0.202,1.073,0.396,1.669,0.583c0.083,0.025,0.166,0.037,0.248,0.037
		c0.356,0,0.684-0.229,0.796-0.585c0.137-0.439-0.108-0.907-0.548-1.044c-0.557-0.173-1.077-0.355-1.558-0.544
		c-0.427-0.168-0.911,0.044-1.08,0.473C22.552,52.022,22.764,52.506,23.193,52.674z"/>
	<path fill="#848484" d="M31.269,38.923c0.531-0.14,1.076-0.274,1.634-0.402c0.448-0.102,0.729-0.549,0.627-0.998
		c-0.071-0.311-0.311-0.534-0.599-0.611l3.218-3.219c0.948-0.948,1.47-2.208,1.47-3.548c0-2.767-2.251-5.018-5.018-5.018
		c-2.767,0-5.018,2.251-5.018,5.018c0,1.341,0.522,2.601,1.47,3.548l3.258,3.258c-0.498,0.116-0.99,0.235-1.466,0.361
		c-0.445,0.117-0.71,0.574-0.593,1.018c0.098,0.374,0.436,0.621,0.805,0.621C31.126,38.95,31.198,38.941,31.269,38.923z
		 M28.572,30.145c0-2.222,1.807-4.029,4.029-4.029s4.029,1.807,4.029,4.029c0,1.076-0.419,2.088-1.18,2.849l-2.849,2.849
		l-2.849-2.849C28.991,32.233,28.572,31.221,28.572,30.145z"/>
	<path fill="#848484" d="M28.63,19.466c0.347-0.303,0.383-0.828,0.081-1.176c-0.303-0.348-0.831-0.383-1.176-0.081
		c-0.668,0.583-1.007,1.194-1.005,1.815c0,0.181,0.029,0.361,0.088,0.535c0.116,0.348,0.439,0.566,0.786,0.566
		c0.088,0,0.178-0.014,0.267-0.044c0.436-0.146,0.671-0.623,0.526-1.059C28.196,20.021,28.207,19.834,28.63,19.466z"/>
	<path fill="#848484" d="M26.501,40.501c0.5-0.204,1.021-0.403,1.563-0.595c0.434-0.153,0.661-0.629,0.507-1.064
		c-0.152-0.434-0.628-0.662-1.064-0.507c-0.566,0.2-1.112,0.409-1.636,0.623c-0.426,0.174-0.631,0.661-0.457,1.086
		c0.132,0.323,0.444,0.518,0.771,0.518C26.292,40.563,26.399,40.544,26.501,40.501z"/>
	<path fill="#848484" d="M56.638,36.523c0.586-0.067,1.159-0.138,1.718-0.216c0.457-0.063,0.775-0.483,0.711-0.939
		c-0.063-0.456-0.483-0.787-0.939-0.711c-0.546,0.076-1.106,0.146-1.679,0.211c-0.457,0.051-0.785,0.465-0.733,0.922
		c0.048,0.425,0.409,0.739,0.827,0.739C56.574,36.528,56.606,36.527,56.638,36.523z"/>
	<path fill="#848484" d="M53.964,55.722l1.704,0.046c0.008,0,0.016,0,0.025,0c0.448,0,0.819-0.357,0.833-0.809
		c0.013-0.46-0.349-0.844-0.809-0.858l-1.714-0.046c-0.488,0.002-0.842,0.354-0.853,0.814C53.14,55.329,53.503,55.71,53.964,55.722z
		"/>
	<path fill="#848484" d="M67.919,24.281c-0.527-0.151-1.095-0.294-1.702-0.431c-0.448-0.098-0.895,0.18-0.996,0.63
		c-0.101,0.448,0.181,0.894,0.63,0.996c0.575,0.129,1.112,0.266,1.611,0.409c0.076,0.021,0.153,0.032,0.229,0.032
		c0.362,0,0.696-0.238,0.801-0.605C68.618,24.87,68.362,24.408,67.919,24.281z"/>
	<path fill="#848484" d="M67.886,32.297c-0.484,0.194-1.004,0.383-1.558,0.565c-0.437,0.144-0.675,0.615-0.531,1.052
		c0.116,0.351,0.442,0.573,0.792,0.573c0.086,0,0.174-0.013,0.26-0.042c0.589-0.194,1.142-0.395,1.659-0.602
		c0.426-0.172,0.634-0.657,0.462-1.084C68.799,32.333,68.311,32.126,67.886,32.297z"/>
	<path fill="#848484" d="M51.472,36.94c0.583-0.03,1.159-0.064,1.724-0.103c0.459-0.033,0.806-0.431,0.774-0.889
		c-0.033-0.459-0.448-0.803-0.889-0.774c-0.555,0.039-1.119,0.073-1.693,0.102c-0.46,0.024-0.813,0.415-0.79,0.875
		c0.023,0.445,0.391,0.791,0.832,0.791C51.444,36.941,51.458,36.941,51.472,36.94z"/>
	<path fill="#848484" d="M63.103,33.751c-0.529,0.123-1.078,0.24-1.646,0.352c-0.452,0.089-0.746,0.527-0.658,0.978
		c0.078,0.397,0.426,0.673,0.817,0.673c0.053,0,0.107-0.005,0.161-0.015c0.587-0.115,1.154-0.237,1.701-0.363
		c0.448-0.104,0.728-0.552,0.624-1C63.999,33.927,63.555,33.649,63.103,33.751z"/>
	<path fill="#848484" d="M67.056,62.657c0.081,0,0.164-0.012,0.246-0.037c0.553-0.171,1.116-0.36,1.664-0.562
		c0.432-0.159,0.653-0.638,0.495-1.069c-0.158-0.432-0.639-0.653-1.069-0.495c-0.522,0.192-1.056,0.371-1.581,0.534
		c-0.44,0.136-0.686,0.602-0.55,1.042C66.371,62.428,66.7,62.657,67.056,62.657z"/>
	<path fill="#848484" d="M55.031,23.328c-0.028,0.459,0.322,0.854,0.782,0.881c0.58,0.035,1.144,0.073,1.692,0.116
		c0.021,0.002,0.043,0.002,0.064,0.002c0.431,0,0.797-0.332,0.83-0.77c0.035-0.459-0.308-0.859-0.767-0.894
		c-0.556-0.042-1.13-0.082-1.72-0.117C55.453,22.511,55.058,22.867,55.031,23.328z"/>
	<path fill="#848484" d="M71.27,25.581c-0.405-0.221-0.91-0.069-1.13,0.335c-0.22,0.404-0.069,0.911,0.335,1.13
		c0.504,0.273,0.907,0.557,1.197,0.846c0.163,0.16,0.375,0.241,0.587,0.241c0.215,0,0.429-0.082,0.592-0.247
		c0.324-0.327,0.321-0.855-0.006-1.179C72.443,26.308,71.912,25.929,71.27,25.581z"/>
	<path fill="#848484" d="M45.612,22.309c-0.002,0-0.005,0-0.007,0c-0.457,0-0.829,0.369-0.833,0.826
		c-0.004,0.461,0.365,0.837,0.826,0.841l1.717,0.009h0.001c0.46,0,0.833-0.373,0.833-0.833c0.001-0.46-0.372-0.833-0.833-0.834
		L45.612,22.309z"/>
	<path fill="#848484" d="M52.42,24.056c0.008,0,0.017,0,0.026,0c0.448,0,0.819-0.356,0.833-0.808
		c0.014-0.46-0.347-0.844-0.808-0.859c-0.56-0.017-1.133-0.032-1.719-0.043c-0.522-0.001-0.841,0.356-0.85,0.817
		c-0.009,0.46,0.357,0.841,0.817,0.85C51.299,24.024,51.865,24.039,52.42,24.056z"/>
	<path fill="#848484" d="M70.957,57.397c0.353,0,0.682-0.226,0.794-0.581c0.139-0.439-0.103-0.907-0.542-1.047
		c-0.489-0.155-1.064-0.304-1.736-0.445c-0.451-0.094-0.892,0.193-0.986,0.645c-0.094,0.45,0.194,0.892,0.645,0.986
		c0.608,0.128,1.13,0.262,1.573,0.403C70.789,57.385,70.874,57.397,70.957,57.397z"/>
	<path fill="#848484" d="M39.642,22.99c-0.019,0.46,0.339,0.848,0.799,0.866c0.553,0.022,1.125,0.042,1.72,0.059
		c0.007,0,0.015,0,0.024,0c0.449,0,0.819-0.358,0.833-0.811c0.012-0.46-0.35-0.843-0.811-0.856
		c-0.587-0.015-1.153-0.035-1.699-0.057C40.056,22.152,39.661,22.529,39.642,22.99z"/>
	<path fill="#848484" d="M41.239,37.271c0.555-0.046,1.116-0.083,1.685-0.113c0.46-0.025,0.812-0.417,0.788-0.877
		c-0.025-0.461-0.427-0.806-0.877-0.788c-0.583,0.032-1.16,0.071-1.73,0.116c-0.458,0.037-0.8,0.439-0.763,0.898
		c0.036,0.435,0.4,0.766,0.83,0.766C41.194,37.274,41.217,37.273,41.239,37.271z"/>
	<path fill="#848484" d="M71.818,29.831c-0.25,0.323-0.611,0.653-1.075,0.982c-0.376,0.266-0.464,0.786-0.198,1.161
		c0.162,0.229,0.419,0.352,0.68,0.352c0.167,0,0.334-0.05,0.481-0.154c0.598-0.424,1.079-0.868,1.43-1.321
		c0.282-0.364,0.215-0.888-0.149-1.169C72.624,29.402,72.101,29.468,71.818,29.831z"/>
	<path fill="#848484" d="M71.779,60.667c0.151,0,0.305-0.042,0.443-0.128c0.763-0.48,1.265-0.956,1.536-1.456
		c0.219-0.405,0.068-0.911-0.337-1.13c-0.406-0.221-0.911-0.067-1.13,0.337c-0.058,0.107-0.267,0.404-0.956,0.837
		c-0.39,0.245-0.507,0.759-0.262,1.149C71.231,60.529,71.502,60.667,71.779,60.667z"/>
	<path fill="#848484" d="M48.848,55.652l1.707,0.014c0.002,0,0.006,0,0.008,0c0.457,0,0.828-0.368,0.833-0.825
		c0.005-0.46-0.365-0.837-0.825-0.841l-1.713-0.014c-0.002,0-0.003,0-0.005,0c-0.458,0-0.831,0.37-0.833,0.828
		C48.017,55.274,48.388,55.649,48.848,55.652z"/>
	<path fill="#848484" d="M46.305,37.059l0.345-0.001c0.462,0,0.92-0.003,1.372-0.01c0.46-0.007,0.828-0.385,0.821-0.846
		c-0.007-0.46-0.409-0.81-0.846-0.821c-0.444,0.007-0.894,0.01-1.348,0.01l-0.356,0.001c-0.461,0.003-0.831,0.379-0.828,0.839
		c0.003,0.458,0.376,0.828,0.833,0.828C46.3,37.059,46.303,37.059,46.305,37.059z"/>
	<path fill="#848484" d="M43.705,55.614c0.563,0.011,1.135,0.02,1.719,0.025c0.002,0,0.006,0,0.008,0
		c0.457,0,0.828-0.368,0.833-0.825c0.004-0.46-0.365-0.837-0.825-0.841c-0.577-0.006-1.144-0.014-1.701-0.025
		c-0.47,0.033-0.84,0.356-0.85,0.816C42.88,55.225,43.245,55.605,43.705,55.614z"/>
	<path fill="#848484" d="M63.365,61.884c-0.292,0.047-0.527,0.076-0.69,0.076c-0.461,0-0.833,0.373-0.833,0.833
		s0.373,0.833,0.833,0.833c0.225,0,0.553-0.032,0.955-0.097c0.455-0.073,0.763-0.501,0.69-0.955S63.817,61.812,63.365,61.884z"/>
	<path fill="#848484" d="M67.628,45.747c0-1.841-1.498-3.339-3.339-3.339c-1.841,0-3.34,1.498-3.34,3.339
		c0,1.841,1.498,3.339,3.34,3.339C66.13,49.086,67.628,47.588,67.628,45.747z M62.261,45.747c0-1.118,0.91-2.028,2.028-2.028
		c1.118,0,2.028,0.91,2.028,2.028c0,1.118-0.91,2.028-2.028,2.028C63.171,47.775,62.261,46.865,62.261,45.747z"/>
	<path fill="#848484" d="M35.12,30.145c0-1.389-1.13-2.519-2.519-2.519c-1.389,0-2.519,1.13-2.519,2.519
		c0,1.389,1.13,2.519,2.519,2.519C33.99,32.664,35.12,31.534,35.12,30.145z M31.071,30.145c0-0.843,0.686-1.53,1.53-1.53
		c0.843,0,1.53,0.686,1.53,1.53c0,0.844-0.686,1.53-1.53,1.53C31.757,31.675,31.071,30.988,31.071,30.145z"/>
	<path fill="#848484" d="M60.95,14.037c-1.389,0-2.519,1.13-2.519,2.519c0,1.389,1.13,2.519,2.519,2.519
		c1.389,0,2.519-1.13,2.519-2.519C63.468,15.166,62.339,14.037,60.95,14.037z M60.95,18.085c-0.844,0-1.53-0.686-1.53-1.53
		c0-0.843,0.686-1.53,1.53-1.53c0.843,0,1.53,0.686,1.53,1.53C62.479,17.399,61.793,18.085,60.95,18.085z"/>
	<path fill="#848484" d="M60.95,11.537c-2.767,0-5.018,2.251-5.018,5.018c0,1.341,0.522,2.601,1.47,3.548l3.063,3.063
		c-0.171,0.132-0.291,0.328-0.318,0.559c-0.055,0.457,0.272,0.872,0.729,0.926c0.58,0.069,1.137,0.142,1.671,0.222
		c0.042,0.006,0.083,0.009,0.124,0.009c0.406,0,0.762-0.297,0.824-0.71c0.068-0.456-0.247-0.88-0.701-0.947
		c-0.4-0.059-0.825-0.113-1.249-0.166l2.955-2.956c0.948-0.948,1.47-2.208,1.47-3.548C65.968,13.788,63.717,11.537,60.95,11.537z
		 M63.798,19.404l-2.849,2.849l-2.849-2.849c-0.761-0.761-1.18-1.772-1.18-2.849c0-2.222,1.807-4.029,4.029-4.029
		c2.222,0,4.029,1.807,4.029,4.029C64.978,17.631,64.559,18.643,63.798,19.404z"/>
	<path fill="#848484" d="M44.023,6.821c-1.005,0-1.824,0.818-1.824,1.823s0.818,1.824,1.824,1.824s1.823-0.818,1.823-1.824
		S45.028,6.821,44.023,6.821z M44.023,9.752c-0.611,0-1.108-0.497-1.108-1.108c0-0.61,0.497-1.107,1.108-1.107
		c0.61,0,1.107,0.497,1.107,1.107C45.13,9.255,44.633,9.752,44.023,9.752z"/>
	<path fill="#848484" d="M44.023,5.012c-2.003,0-3.632,1.63-3.632,3.632c0,0.97,0.378,1.883,1.064,2.569l2.569,2.568l2.568-2.568
		c0.686-0.686,1.064-1.598,1.064-2.569C47.655,6.641,46.025,5.012,44.023,5.012z M46.084,10.706l-2.062,2.062l-2.062-2.062
		c-0.551-0.551-0.854-1.283-0.854-2.062c0-1.608,1.308-2.916,2.916-2.916s2.916,1.308,2.916,2.916
		C46.939,9.423,46.635,10.155,46.084,10.706z"/>
</g>
</svg>
