<?xml version="1.0" encoding="utf-8"?>
<!-- Generator: Adobe Illustrator 21.0.0, SVG Export Plug-In . SVG Version: 6.00 Build 0)  -->
<svg version="1.1" id="图层_1" xmlns="http://www.w3.org/2000/svg" xmlns:xlink="http://www.w3.org/1999/xlink" x="0px" y="0px"
	 width="80px" height="80px" viewBox="0 0 80 80" enable-background="new 0 0 80 80" xml:space="preserve">
<g>
	<path fill="#848484" d="M25.955,0H5.104c-2.812,0-5.1,2.402-5.1,5.354v20.597c0,0.92,0.746,1.667,1.667,1.667
		s1.667-0.746,1.667-1.667V5.69l19.004,19.004c0.326,0.326,0.752,0.488,1.178,0.488s0.853-0.163,1.178-0.488
		c0.651-0.651,0.651-1.706,0-2.357L5.694,3.333h20.261c0.92,0,1.667-0.746,1.667-1.667S26.875,0,25.955,0z"/>
	<path fill="#848484" d="M74.903,0H54.052c-0.92,0-1.667,0.746-1.667,1.667s0.746,1.667,1.667,1.667h20.262L55.31,22.337
		c-0.651,0.651-0.651,1.706,0,2.357c0.326,0.326,0.752,0.488,1.178,0.488s0.853-0.163,1.178-0.488L76.67,5.69v20.261
		c0,0.92,0.746,1.667,1.667,1.667s1.667-0.746,1.667-1.667V5.354C80.004,2.402,77.715,0,74.903,0z"/>
	<path fill="#848484" d="M25.955,76.667H5.694l19.004-19.004c0.651-0.651,0.651-1.706,0-2.357c-0.651-0.651-1.706-0.651-2.357,0
		L3.337,74.31V54.048c0-0.92-0.746-1.667-1.667-1.667s-1.667,0.746-1.667,1.667v20.598c0,2.952,2.288,5.354,5.1,5.354h20.851
		c0.92,0,1.667-0.746,1.667-1.667S26.875,76.667,25.955,76.667z"/>
	<path fill="#848484" d="M78.337,52.381c-0.92,0-1.667,0.746-1.667,1.667V74.31L57.666,55.306c-0.651-0.651-1.706-0.651-2.357,0
		c-0.651,0.651-0.651,1.706,0,2.357l19.004,19.004H54.052c-0.92,0-1.667,0.746-1.667,1.667S53.131,80,54.052,80h20.851
		c2.813,0,5.101-2.402,5.101-5.354V54.048C80.004,53.127,79.257,52.381,78.337,52.381z"/>
</g>
</svg>
