<?xml version="1.0" encoding="utf-8"?>
<!-- Generator: Adobe Illustrator 21.0.0, SVG Export Plug-In . SVG Version: 6.00 Build 0)  -->
<svg version="1.1" id="图层_1" xmlns="http://www.w3.org/2000/svg" xmlns:xlink="http://www.w3.org/1999/xlink" x="0px" y="0px"
	 width="80px" height="80px" viewBox="0 0 80 80" enable-background="new 0 0 80 80" xml:space="preserve">
<path fill="#848484" d="M78.665,72.199L60.263,53.797c-0.407-0.407-0.876-0.709-1.373-0.931c4.268-5.543,6.811-12.481,6.811-20.017
	C65.702,14.707,50.995,0,32.853,0S0.004,14.707,0.004,32.849c0,18.142,14.707,32.849,32.849,32.849
	c7.536,0,14.475-2.544,20.017-6.811c0.221,0.496,0.524,0.965,0.931,1.373l18.402,18.402c1.785,1.785,4.678,1.785,6.462,0
	C80.45,76.877,80.45,73.984,78.665,72.199z M32.853,57.049c-13.344,0-24.2-10.856-24.2-24.2c0-13.344,10.856-24.2,24.2-24.2
	s24.2,10.856,24.2,24.2C57.053,46.193,46.197,57.049,32.853,57.049z"/>
</svg>
