<?xml version="1.0" encoding="utf-8"?>
<!-- Generator: Adobe Illustrator 21.0.0, SVG Export Plug-In . SVG Version: 6.00 Build 0)  -->
<svg version="1.1" id="图层_1" xmlns="http://www.w3.org/2000/svg" xmlns:xlink="http://www.w3.org/1999/xlink" x="0px" y="0px"
	 width="80px" height="80px" viewBox="0 0 80 80" enable-background="new 0 0 80 80" xml:space="preserve">
<path fill="#848484" d="M76.793,15.525c0.05-0.143,0.08-0.289,0.089-0.44c0.002-0.036,0.021-0.066,0.021-0.103V1.667
	c0-0.92-0.746-1.667-1.667-1.667H4.771c-0.92,0-1.667,0.746-1.667,1.667v13.315c0,0.037,0.018,0.067,0.021,0.103
	c0.009,0.151,0.039,0.297,0.089,0.44c0.019,0.053,0.032,0.106,0.056,0.156c0.08,0.173,0.182,0.336,0.321,0.476
	c0.001,0.001,0.002,0.002,0.002,0.003L30.911,43.48v24.539c0,0.546,0.268,1.057,0.716,1.369l14.851,10.314
	C46.762,79.9,47.095,80,47.429,80c0.264,0,0.53-0.063,0.772-0.19c0.55-0.288,0.894-0.857,0.894-1.477V43.48l27.319-27.319
	c0.001-0.001,0.001-0.002,0.002-0.003c0.139-0.14,0.24-0.303,0.321-0.476C76.761,15.631,76.775,15.579,76.793,15.525z M6.438,3.333
	H73.57v9.982H6.438V3.333z"/>
</svg>
