<?xml version="1.0" encoding="utf-8"?>
<!-- Generator: Adobe Illustrator 21.0.0, SVG Export Plug-In . SVG Version: 6.00 Build 0)  -->
<svg version="1.1" id="图层_1" xmlns="http://www.w3.org/2000/svg" xmlns:xlink="http://www.w3.org/1999/xlink" x="0px" y="0px"
	 width="80px" height="80px" viewBox="0 0 80 80" enable-background="new 0 0 80 80" xml:space="preserve">
<g>
	<path fill="#848484" d="M53.46,62.331l5.155-11.501c-6.352-2.847-13.81-0.006-16.657,6.346c-2.847,6.352-0.006,13.81,6.346,16.657
		c6.352,2.847,13.809,0.006,16.656-6.346c1.424-3.176,1.425-6.628,0.277-9.643L53.46,62.331z"/>
	<path fill="#848484" d="M53.46,44.663c-13.776,0-24.944,17.669-24.944,17.669S39.684,80,53.46,80
		c13.776,0,24.944-17.669,24.944-17.669S67.236,44.663,53.46,44.663z M53.46,76.667c-9.385,0-17.823-10.171-20.896-14.353
		c3.789-5.203,12.226-14.317,20.896-14.317c9.372,0,17.799,10.141,20.883,14.335C71.258,66.527,62.831,76.667,53.46,76.667z"/>
	<polygon fill="#848484" points="46.006,0 16.833,0 1.603,11.159 30.776,11.159 	"/>
	<path fill="#848484" d="M29.391,13.928H1.603v46.875H25.83c0.528-0.786,1.748-2.534,3.561-4.697V13.928z M27.725,55.503
		c-1.218,1.481-2.152,2.75-2.771,3.632H3.27V15.594h24.455V55.503z"/>
	<path fill="#848484" d="M25.094,19.664H5.901v11.071h19.193V19.664z M23.427,29.067H7.567V21.33h15.86V29.067z"/>
	<path fill="#848484" d="M24.068,35.057H6.926c-0.461,0-0.833,0.373-0.833,0.833c0,0.461,0.373,0.833,0.833,0.833h17.142
		c0.461,0,0.833-0.373,0.833-0.833C24.901,35.43,24.529,35.057,24.068,35.057z"/>
	<path fill="#848484" d="M24.068,41.1H6.926c-0.461,0-0.833,0.373-0.833,0.833c0,0.461,0.373,0.833,0.833,0.833h17.142
		c0.461,0,0.833-0.373,0.833-0.833C24.901,41.473,24.529,41.1,24.068,41.1z"/>
	<path fill="#848484" d="M24.068,47.143H6.926c-0.461,0-0.833,0.373-0.833,0.833c0,0.461,0.373,0.833,0.833,0.833h17.142
		c0.461,0,0.833-0.373,0.833-0.833C24.901,47.516,24.529,47.143,24.068,47.143z"/>
	<path fill="#848484" d="M24.068,53.185H6.926c-0.461,0-0.833,0.373-0.833,0.833c0,0.461,0.373,0.833,0.833,0.833h17.142
		c0.461,0,0.833-0.373,0.833-0.833C24.901,53.558,24.529,53.185,24.068,53.185z"/>
	<path fill="#848484" d="M45.998,43.556l0.007-40.787L32.161,13.928l-0.007,39.102C35.738,49.311,40.545,45.364,45.998,43.556z"/>
</g>
</svg>
