<?xml version="1.0" encoding="utf-8"?>
<!-- Generator: Adobe Illustrator 21.0.0, SVG Export Plug-In . SVG Version: 6.00 Build 0)  -->
<svg version="1.1" id="图层_1" xmlns="http://www.w3.org/2000/svg" xmlns:xlink="http://www.w3.org/1999/xlink" x="0px" y="0px"
	 width="80px" height="80px" viewBox="0 0 80 80" enable-background="new 0 0 80 80" xml:space="preserve">
<path fill="#848484" d="M46.018,5.805V0H33.989v5.805h-6.19v68.39h6.19V80h12.029v-5.805h6.19V5.805H46.018z M33.61,71.884h-4.203
	v-0.797h4.203V71.884z M33.61,70.269h-4.203v-0.797h4.203V70.269z M33.61,68.654h-4.203v-0.797h4.203V68.654z M33.61,67.038h-4.203
	v-0.797h4.203V67.038z M33.61,65.423h-4.203v-0.797h4.203V65.423z M33.61,63.808h-4.203V63.01h4.203V63.808z M33.61,62.193h-4.203
	v-0.797h4.203V62.193z M33.61,60.577h-4.203V59.78h4.203V60.577z M33.61,58.962h-4.203v-0.797h4.203V58.962z M33.61,57.347h-4.203
	v-0.797h4.203V57.347z M33.61,55.731h-4.203v-0.797h4.203V55.731z M33.61,54.116h-4.203v-0.797h4.203V54.116z M33.61,52.501h-4.203
	v-0.797h4.203V52.501z M33.61,50.885h-4.203v-0.797h4.203V50.885z M33.61,49.27h-4.203v-0.797h4.203V49.27z M33.61,47.655h-4.203
	v-0.797h4.203V47.655z M33.61,46.039h-4.203v-0.797h4.203V46.039z M33.61,44.424h-4.203v-0.797h4.203V44.424z M33.61,42.809h-4.203
	v-0.797h4.203V42.809z M33.61,41.193h-4.203v-0.797h4.203V41.193z M33.61,39.578h-4.203v-0.797h4.203V39.578z M33.61,37.963h-4.203
	v-0.797h4.203V37.963z M33.61,36.347h-4.203V35.55h4.203V36.347z M33.61,34.732h-4.203v-0.797h4.203V34.732z M33.61,33.117h-4.203
	v-0.797h4.203V33.117z M33.61,31.501h-4.203v-0.797h4.203V31.501z M33.61,29.886h-4.203v-0.797h4.203V29.886z M33.61,28.271h-4.203
	v-0.797h4.203V28.271z M33.61,26.656h-4.203v-0.797h4.203V26.656z M33.61,25.04h-4.203v-0.797h4.203V25.04z M33.61,23.425h-4.203
	v-0.797h4.203V23.425z M33.61,21.81h-4.203v-0.797h4.203V21.81z M33.61,20.194h-4.203v-0.797h4.203V20.194z M33.61,18.579h-4.203
	v-0.797h4.203V18.579z M33.61,16.964h-4.203v-0.797h4.203V16.964z M33.61,15.348h-4.203v-0.797h4.203V15.348z M33.61,13.733h-4.203
	v-0.797h4.203V13.733z M33.61,12.118h-4.203V11.32h4.203V12.118z M33.61,10.502h-4.203V9.705h4.203V10.502z M33.61,8.887h-4.203
	V8.09h4.203V8.887z M40.004,79c-1.24,0-2.245-1.005-2.245-2.245c0-1.24,1.005-2.245,2.245-2.245s2.245,1.005,2.245,2.245
	C42.249,77.995,41.243,79,40.004,79z M40.004,5.49c-1.24,0-2.245-1.005-2.245-2.245S38.764,1,40.004,1s2.245,1.005,2.245,2.245
	S41.243,5.49,40.004,5.49z M47.91,72.387h-4.203v-5.831h4.203V72.387z M47.91,61.877h-4.203v-5.831h4.203V61.877z M47.91,34.018
	h-4.203v-5.831h4.203V34.018z M47.91,23.927h-4.203v-5.831h4.203V23.927z M47.91,14.235h-4.203V8.405h4.203V14.235z"/>
</svg>
