<?xml version="1.0" encoding="utf-8"?>
<!-- Generator: Adobe Illustrator 21.0.0, SVG Export Plug-In . SVG Version: 6.00 Build 0)  -->
<svg version="1.1" id="图层_1" xmlns="http://www.w3.org/2000/svg" xmlns:xlink="http://www.w3.org/1999/xlink" x="0px" y="0px"
	 width="80px" height="80px" viewBox="0 0 80 80" enable-background="new 0 0 80 80" xml:space="preserve">
<g>
	<path fill="#848484" d="M0.004,5.038v29.435h80V5.038H0.004z M6.478,31.178H2.992V8.333h3.486V31.178z M16.555,31.178h-3.486V8.333
		h3.486V31.178z M26.631,31.178h-3.486V8.333h3.486V31.178z M36.708,31.178h-3.486V8.333h3.486V31.178z M46.785,31.178h-3.486V8.333
		h3.486V31.178z M56.862,31.178h-3.486V8.333h3.486V31.178z M66.938,31.178h-3.486V8.333h3.486V31.178z M77.015,31.178H73.53V8.333
		h3.486V31.178z"/>
	<path fill="#848484" d="M0.004,74.962h80V37.869h-80V74.962z M44.971,43.349h30.301v2.702H44.971V43.349z M44.971,51.161h30.301
		v2.702H44.971V51.161z M44.971,58.972h30.301v2.702H44.971V58.972z M44.971,66.78h30.301v2.702H44.971V66.78z M4.736,43.349h30.301
		v2.702H4.736V43.349z M4.736,51.161h30.301v2.702H4.736V51.161z M4.736,58.972h30.301v2.702H4.736V58.972z M4.736,66.78h30.301
		v2.702H4.736V66.78z"/>
</g>
</svg>
