<?xml version="1.0" encoding="utf-8"?>
<!-- Generator: Adobe Illustrator 21.0.0, SVG Export Plug-In . SVG Version: 6.00 Build 0)  -->
<svg version="1.1" id="图层_1" xmlns="http://www.w3.org/2000/svg" xmlns:xlink="http://www.w3.org/1999/xlink" x="0px" y="0px"
	 width="80px" height="80px" viewBox="0 0 80 80" enable-background="new 0 0 80 80" xml:space="preserve">
<path fill="#848484" d="M68.467,13.75H11.533C7.925,13.75,5,16.675,5,20.283v39.433c0,3.608,2.925,6.533,6.533,6.533h56.933
	c3.608,0,6.533-2.925,6.533-6.533V20.283C75,16.675,72.075,13.75,68.467,13.75z M68.467,61.25H11.533
	c-0.846,0-1.533-0.688-1.533-1.533V20.283c0-0.845,0.688-1.533,1.533-1.533h56.141L43.693,42.731
	c-0.762,0.762-1.775,1.181-2.852,1.181s-2.09-0.42-2.852-1.182L20.259,25.002c-0.976-0.976-2.559-0.976-3.536,0
	c-0.976,0.976-0.976,2.559,0,3.536l17.729,17.729c1.706,1.706,3.975,2.646,6.388,2.646s4.682-0.94,6.388-2.646L70,23.495v36.222
	C70,60.562,69.312,61.25,68.467,61.25z"/>
</svg>
