<?xml version="1.0" encoding="utf-8"?>
<!-- Generator: Adobe Illustrator 21.0.0, SVG Export Plug-In . SVG Version: 6.00 Build 0)  -->
<svg version="1.1" id="图层_1" xmlns="http://www.w3.org/2000/svg" xmlns:xlink="http://www.w3.org/1999/xlink" x="0px" y="0px"
	 width="80px" height="80px" viewBox="0 0 80 80" enable-background="new 0 0 80 80" xml:space="preserve">
<g>
	<circle fill="#848484" cx="40.004" cy="22.845" r="2.579"/>
	<circle fill="#848484" cx="40.004" cy="57.155" r="2.579"/>
	<circle fill="#848484" cx="57.159" cy="40" r="2.579"/>
	<circle fill="#848484" cx="22.849" cy="40" r="2.579"/>
	
		<ellipse transform="matrix(0.7071 -0.7071 0.7071 0.7071 -4.437 45.0272)" fill="#848484" cx="52.134" cy="27.87" rx="2.579" ry="2.579"/>
	
		<ellipse transform="matrix(0.7071 -0.7071 0.7071 0.7071 -28.6979 34.978)" fill="#848484" cx="27.873" cy="52.13" rx="2.579" ry="2.579"/>
	
		<ellipse transform="matrix(0.7071 -0.7071 0.7071 0.7071 -21.5921 52.133)" fill="#848484" cx="52.134" cy="52.13" rx="2.579" ry="2.579"/>
	
		<ellipse transform="matrix(0.7071 -0.7071 0.7071 0.7071 -11.5429 27.8722)" fill="#848484" cx="27.873" cy="27.87" rx="2.579" ry="2.579"/>
	<rect x="50.004" y="9.312" fill="#848484" width="6" height="2"/>
	<rect x="62.004" y="9.312" fill="#848484" width="6" height="2"/>
	<rect x="62.628" y="68.688" fill="#848484" width="6" height="2"/>
	<rect x="0.004" y="61.312" fill="#848484" width="2" height="6"/>
	<rect x="38.628" y="68.688" fill="#848484" width="6" height="2"/>
	<rect x="50.628" y="68.688" fill="#848484" width="6" height="2"/>
	<rect x="74.628" y="68.688" fill="#848484" width="5.376" height="2"/>
	<polygon fill="#848484" points="74.004,9.312 74.004,11.312 78.004,11.312 78.004,16.064 80.004,16.064 80.004,9.312 	"/>
	<rect x="78.004" y="58.064" fill="#848484" width="2" height="6"/>
	<rect x="78.004" y="22.064" fill="#848484" width="2" height="6"/>
	<rect x="78.004" y="34.064" fill="#848484" width="2" height="6"/>
	<rect x="78.004" y="46.064" fill="#848484" width="2" height="6"/>
	<rect x="38.004" y="9.312" fill="#848484" width="6" height="2"/>
	<rect x="26.628" y="68.688" fill="#848484" width="6" height="2"/>
	<rect x="0.004" y="13.312" fill="#848484" width="2" height="6"/>
	<rect x="0.004" y="25.312" fill="#848484" width="2" height="6"/>
	<rect x="0.004" y="37.312" fill="#848484" width="2" height="6"/>
	<rect x="0.004" y="49.312" fill="#848484" width="2" height="6"/>
	<rect x="2.004" y="9.312" fill="#848484" width="6" height="2"/>
	<rect x="26.004" y="9.312" fill="#848484" width="6" height="2"/>
	<rect x="2.628" y="68.688" fill="#848484" width="6" height="2"/>
	<rect x="14.628" y="68.688" fill="#848484" width="6" height="2"/>
	<rect x="14.004" y="9.312" fill="#848484" width="6" height="2"/>
</g>
</svg>
