<?xml version="1.0" encoding="utf-8"?>
<!-- Generator: Adobe Illustrator 21.0.0, SVG Export Plug-In . SVG Version: 6.00 Build 0)  -->
<svg version="1.1" id="图层_1" xmlns="http://www.w3.org/2000/svg" xmlns:xlink="http://www.w3.org/1999/xlink" x="0px" y="0px"
	 width="80px" height="80px" viewBox="0 0 80 80" enable-background="new 0 0 80 80" xml:space="preserve">
<path fill="#848484" d="M78.128,35.338c-1.024-1.946-3.404-4.953-8.589-6.051c1.748-2.529,2.843-6.094,1.188-11.214
	c-1.625-5.025-6.09-7.922-12.26-7.963c-0.548-1.707-1.347-3.562-2.496-5.105C53.394,1.548,48.48,0,44.753,0
	c-1.466,0-2.852,0.216-4.12,0.643c-3.595,1.21-6.126,4.232-7.522,8.981c-0.387,1.317-0.667,2.7-0.875,4.067
	c-2.019-1.975-4.137-3.776-6.028-4.845C24.432,7.843,22.25,7.29,20.065,7.29c-3.6,0-6.838,1.452-8.883,3.984
	c-1.062,1.316-1.813,3.185-2.272,8.432c-0.036,0.411-0.068,0.817-0.096,1.208c-1.625,0.705-3.493,1.771-5.152,3.355
	c-5.248,5.009-3.091,14.419,0.765,18.96c2.21,2.603,5.893,3.362,9.6,3.943c-2.306,2.011-3.879,4.272-4.684,6.734
	c-1.082,3.311-0.698,6.777,1.111,10.023c3.392,6.086,9.136,6.379,12.222,6.537c0.352,0.018,0.785,0.04,1.122,0.07
	c0.333,0.396,0.737,0.916,1.108,1.394c2.243,2.891,5.634,7.259,10.859,8.005C36.072,79.978,36.384,80,36.693,80
	c3.03,0,5.614-1.952,7.679-5.801c1.03-1.92,2.063-4.502,3.07-7.676c0.141-0.444,0.276-0.887,0.409-1.326
	c0.412,1.706,0.683,3.752,0.411,5.789c-0.552,4.139-2.646,7.655-2.646,7.655l8.064-3.654c0,0,0.378-1.917,0.252-3.623
	c-0.066-0.886-0.743-3.511-1.379-5.83c3.262,2.751,6.23,4.099,9.02,4.099c1.633,0,3.196-0.469,4.521-1.356
	c3.372-2.257,5.088-6.46,5.099-12.491c0.002-0.853-0.031-1.677-0.081-2.442c2.072-0.96,4.382-2.472,5.985-4.806
	C79.346,45.264,80.536,39.913,78.128,35.338z M72.86,45.627c-2.27,3.306-7.355,4.174-7.355,4.174S67.726,61,63.236,64.005
	c-0.504,0.338-1.065,0.487-1.662,0.487c-4.609,0-11.395-8.91-11.395-8.91l-5.04-0.504c0,0-4.109,19.781-8.446,19.781
	c-0.067,0-0.134-0.005-0.201-0.014c-4.41-0.63-7.355-6.41-9.624-8.553s-8.71,0.898-11.923-4.867
	c-2.306-4.137-0.677-7.986,3.229-11.01c3.906-3.024,5.271-3.812,5.04-5.269c-0.543-3.426-12.348-2.278-14.869-5.246
	c-2.52-2.968-3.906-9.268-1.134-11.914c2.772-2.646,6.552-3.276,6.552-3.276s0.241-8.749,1.418-10.206
	c1.162-1.439,3.036-2.073,4.883-2.073c1.306,0,2.599,0.317,3.616,0.892c4.851,2.741,12.717,12.805,12.717,12.805
	s0.222-2.862,0.425-6.473c0.309-5.483,1.13-12.684,5.451-14.139c0.762-0.257,1.609-0.375,2.48-0.375c2.78,0,5.803,1.203,7.096,2.937
	c2.034,2.729,2.615,7.623,2.615,7.623s1.735-0.451,3.872-0.451c2.815,0,6.329,0.781,7.5,4.404c2.032,6.284-1.958,8.199-4.725,10.679
	c-2.297,2.059-3.749,3.701-3.749,3.701s1.466,0.125,3.455,0.125c0.874,0,1.849-0.024,2.845-0.094
	c0.56-0.039,1.094-0.058,1.601-0.058C75.807,34.009,75.265,42.126,72.86,45.627z"/>
</svg>
