<?xml version="1.0" encoding="utf-8"?>
<!-- Generator: Adobe Illustrator 21.0.0, SVG Export Plug-In . SVG Version: 6.00 Build 0)  -->
<svg version="1.1" id="图层_1" xmlns="http://www.w3.org/2000/svg" xmlns:xlink="http://www.w3.org/1999/xlink" x="0px" y="0px"
	 width="80px" height="80px" viewBox="0 0 80 80" enable-background="new 0 0 80 80" xml:space="preserve">
<g>
	<path fill="#848484" d="M79.793,69.674c-0.124-1.327-0.332-2.364-0.622-3.193c-0.539-1.452-1.369-2.571-2.571-3.525
		c-1.203-0.871-2.571-1.576-4.106-2.157c-1.534-0.581-8.17-3.401-9.829-3.816c-1.617-0.415-3.152-0.912-4.562-1.452
		c-1.493-0.622-2.696-1.286-3.608-2.074s-1.535-1.617-1.949-2.447c-0.373-0.829-0.622-1.7-0.664-2.53c-0.042-0.871,0-1.7,0.166-2.53
		c0.083-0.664,0.29-1.244,0.498-1.7c0.207-0.456,0.498-0.871,0.829-1.203c0.373-0.373,0.788-0.664,1.203-0.954
		c0.498-0.332,0.954-0.705,1.41-1.12c0.415-0.373,0.829-0.912,1.203-1.617c0.332-0.664,0.664-1.369,0.954-2.074
		c0.29-0.788,0.539-1.659,0.747-2.53c0.581-0.166,1.12-0.498,1.576-0.912c0.415-0.373,0.829-0.912,1.203-1.617
		c0.415-0.871,0.664-1.783,0.788-2.737c0.124-0.912,0.083-1.617-0.041-2.24c-0.124-0.622-0.332-1.12-0.539-1.493
		c-0.207-0.456-0.498-0.788-0.912-0.995c0.083-2.198-0.083-4.396-0.415-6.594c-0.249-1.866-0.746-3.857-1.452-5.972
		c-0.705-2.115-1.742-4.064-3.152-5.806c-0.622-0.788-1.41-1.534-2.447-2.281c-0.995-0.747-2.157-1.41-3.442-2.032
		s-2.654-1.12-4.147-1.493C44.416,0.207,42.841,0,41.223,0c-1.327,0-2.654,0.124-3.981,0.332c-1.369,0.249-2.737,0.622-4.064,1.161
		c-1.327,0.539-2.654,1.327-3.981,2.281c-1.327,0.995-2.488,2.198-3.567,3.691c-1.12,1.576-1.991,3.359-2.571,5.35
		c-0.539,1.825-0.954,3.691-1.203,5.599c-0.29,2.074-0.373,4.147-0.332,6.262c-0.498,0.581-0.829,1.12-1.037,1.742
		c-0.207,0.581-0.373,1.203-0.456,1.949c-0.083,0.747,0,1.617,0.29,2.53c0.332,0.954,0.622,1.659,1.037,2.157
		c0.29,0.415,0.664,0.829,1.078,1.161c0.266,0.177,0.553,0.332,0.846,0.452h0.252C32.59,34.667,40,42.077,40,51.133v26.69
		c0,1.145,0.928,2.072,2.073,2.072c0.007,0,0.014,0,0.021,0c19.326,0,33.012,0.313,34.339-0.144
		c1.327-0.456,2.115-0.871,2.405-1.244c0.373-0.581,0.664-1.452,0.871-2.613c0.207-1.161,0.29-3.401,0.29-4.686
		C80,69.923,79.917,70.96,79.793,69.674z"/>
	<path fill="#848484" d="M27.825,59.33c2.195,0,3.975,1.78,3.975,3.975v13.777c0,1.612-1.306,2.918-2.918,2.918H2.918
		C1.306,80,0,78.694,0,77.082V63.305c0-2.195,1.78-3.975,3.975-3.975l0,0h1.987v-6.775c0-5.488,4.449-9.938,9.938-9.938l0,0
		c5.488,0,9.937,4.449,9.937,9.938v6.775H27.825 M12.241,47.698c-1.282,0.795-2.303,2.723-2.303,4.232l0,7.4h11.925v-6.775
		C21.863,48.09,16.956,44.772,12.241,47.698z"/>
</g>
</svg>
