<?xml version="1.0" encoding="utf-8"?>
<!-- Generator: Adobe Illustrator 21.0.0, SVG Export Plug-In . SVG Version: 6.00 Build 0)  -->
<svg version="1.1" id="图层_1" xmlns="http://www.w3.org/2000/svg" xmlns:xlink="http://www.w3.org/1999/xlink" x="0px" y="0px"
	 width="80px" height="80px" viewBox="0 0 80 80" enable-background="new 0 0 80 80" xml:space="preserve">
<g>
	<path fill="#848484" d="M5.868,22.108c0.236,0.136,0.494,0.201,0.748,0.201c0.519,0,1.023-0.27,1.301-0.751
		c2.081-3.612,4.738-6.828,7.897-9.559c0.627-0.542,0.696-1.489,0.154-2.116c-0.543-0.627-1.489-0.695-2.116-0.154
		c-3.415,2.952-6.286,6.427-8.535,10.331C4.903,20.777,5.15,21.695,5.868,22.108z"/>
	<path fill="#848484" d="M40,0c-5.4,0-10.638,1.058-15.57,3.144c-0.763,0.323-1.12,1.203-0.797,1.966
		c0.322,0.763,1.202,1.121,1.966,0.797C30.159,3.978,35.004,3,40,3c20.402,0,37,16.598,37,37S60.402,77,40,77S3,60.402,3,40
		c0-2.318,0.216-4.639,0.642-6.898c0.153-0.814-0.382-1.599-1.196-1.752c-0.813-0.153-1.598,0.383-1.752,1.196
		C0.233,34.989,0,37.497,0,40c0,22.056,17.944,40,40,40s40-17.944,40-40S62.056,0,40,0z"/>
</g>
<path fill="#848484" d="M51.793,12.918H28.207c-3.207,0-5.832,2.624-5.832,5.832v42.5c0,3.207,2.624,5.832,5.832,5.832h23.586
	c3.207,0,5.832-2.624,5.832-5.832v-42.5C57.625,15.542,55.001,12.918,51.793,12.918z M40,66.063c-1.243,0-2.25-1.007-2.25-2.25
	c0-1.243,1.007-2.25,2.25-2.25s2.25,1.007,2.25,2.25C42.25,65.055,41.243,66.063,40,66.063z M54.125,60.082h-28.25v-43.75h28.25
	V60.082z"/>
</svg>
