<?xml version="1.0" encoding="utf-8"?>
<!-- Generator: Adobe Illustrator 21.0.0, SVG Export Plug-In . SVG Version: 6.00 Build 0)  -->
<svg version="1.1" id="图层_1" xmlns="http://www.w3.org/2000/svg" xmlns:xlink="http://www.w3.org/1999/xlink" x="0px" y="0px"
	 width="80px" height="80px" viewBox="0 0 80 80" enable-background="new 0 0 80 80" xml:space="preserve">
<g>
	<path fill="#848484" d="M63.344,11.856H16.656c-2.64,0-4.8,2.16-4.8,4.8v46.689c0,2.64,2.16,4.8,4.8,4.8h46.689
		c2.64,0,4.8-2.16,4.8-4.8V16.656C68.144,14.016,65.984,11.856,63.344,11.856z M65.174,63.344c0,0.992-0.838,1.83-1.83,1.83H16.656
		c-0.992,0-1.83-0.838-1.83-1.83V16.656c0-0.992,0.838-1.83,1.83-1.83h46.689c0.992,0,1.83,0.838,1.83,1.83V63.344z"/>
	<path fill="#848484" d="M58.554,40.241c1.071-0.897,1.755-2.242,1.755-3.739c0-2.684-2.196-4.881-4.881-4.881
		s-4.881,2.196-4.881,4.881c0,1.498,0.685,2.842,1.755,3.739c-1.416,0.564-2.638,1.504-3.56,2.69
		c-1.29-1.088-2.783-1.944-4.415-2.494c2.458-1.481,4.116-4.168,4.116-7.232c0-4.645-3.8-8.445-8.445-8.445s-8.445,3.8-8.445,8.445
		c0,3.065,1.66,5.754,4.12,7.234c-0.941,0.317-1.833,0.737-2.67,1.241c-1.005-1.708-2.562-3.052-4.427-3.782
		c1.176-0.948,1.934-2.397,1.934-4.016c0-2.838-2.322-5.16-5.16-5.16s-5.16,2.322-5.16,5.16c0,1.619,0.758,3.068,1.934,4.016
		c-2.093,0.82-3.802,2.409-4.773,4.421c-0.374,0.776-0.639,1.614-0.774,2.495c-0.045,0.294-0.075,0.592-0.091,0.894
		c-0.008,0.151-0.012,0.303-0.012,0.456c0,0.1,0.003,0.2,0.007,0.326l0.001,0c0,0.002,0,0.004,0,0.006
		c0.03,0.8,0.689,1.428,1.483,1.428c0.02,0,0.039,0,0.058-0.001c0.82-0.031,1.459-0.721,1.427-1.541
		c-0.003-0.073-0.006-0.145-0.006-0.218c0-1.018,0.259-1.976,0.714-2.813c1.001-1.841,2.953-3.093,5.192-3.093
		c2.239,0,4.191,1.252,5.192,3.093c0.027,0.049,0.05,0.101,0.075,0.151c-1.172,1.12-2.147,2.444-2.859,3.92
		c-0.859,1.781-1.341,3.776-1.341,5.882c0,0.16,0.005,0.318,0.012,0.504l0,0v0c0.029,0.801,0.688,1.431,1.484,1.431
		c0.018,0,0.037,0,0.055-0.001c0.82-0.03,1.46-0.719,1.43-1.539l-0.002-0.05c-0.004-0.115-0.009-0.23-0.009-0.345
		c0-1.463,0.297-2.857,0.835-4.126c1.613-3.807,5.387-6.484,9.775-6.484c4.388,0,8.162,2.677,9.775,6.484
		c0.538,1.269,0.835,2.663,0.835,4.126c0,0.116-0.005,0.23-0.009,0.345l-0.002,0.05c-0.03,0.82,0.611,1.509,1.43,1.539
		c0.018,0,0.037,0.001,0.055,0.001c0.795,0,1.454-0.63,1.484-1.431v0l0,0c0.007-0.186,0.012-0.345,0.012-0.504
		c0-1.638-0.292-3.209-0.825-4.665c-0.468-1.275-1.125-2.458-1.933-3.521c0.982-1.506,2.678-2.505,4.606-2.505
		c3.035,0,5.505,2.47,5.505,5.505c0,0.067-0.003,0.133-0.005,0.2c-0.033,0.82,0.604,1.511,1.424,1.544
		c0.02,0.001,0.041,0.001,0.061,0.001c0.792,0,1.45-0.626,1.483-1.425c0-0.002,0-0.004,0-0.007h0
		c0.004-0.122,0.007-0.217,0.007-0.314c0-0.292-0.015-0.581-0.044-0.865C63.535,44.06,61.429,41.386,58.554,40.241z M25.352,36.071
		c-1.207,0-2.19-0.982-2.19-2.19s0.982-2.19,2.19-2.19c1.207,0,2.19,0.982,2.19,2.19S26.56,36.071,25.352,36.071z M40,38.679
		c-3.018,0-5.474-2.456-5.474-5.474s2.456-5.474,5.474-5.474c3.018,0,5.474,2.456,5.474,5.474S43.018,38.679,40,38.679z
		 M55.429,38.412c-1.035,0-1.91-0.875-1.91-1.91c0-1.035,0.875-1.91,1.91-1.91c1.035,0,1.91,0.875,1.91,1.91
		C57.339,37.537,56.464,38.412,55.429,38.412z"/>
</g>
</svg>
