<?xml version="1.0" encoding="utf-8"?>
<!-- Generator: Adobe Illustrator 21.0.0, SVG Export Plug-In . SVG Version: 6.00 Build 0)  -->
<svg version="1.1" id="图层_1" xmlns="http://www.w3.org/2000/svg" xmlns:xlink="http://www.w3.org/1999/xlink" x="0px" y="0px"
	 width="80px" height="80px" viewBox="0 0 80 80" enable-background="new 0 0 80 80" xml:space="preserve">
<g>
	<path fill="#848484" d="M31.095,17.153c-7.953,0-14.423,6.469-14.423,14.421c0,7.95,6.47,14.418,14.423,14.418
		c7.954,0,14.425-6.468,14.425-14.418C45.519,23.622,39.048,17.153,31.095,17.153z M31.095,42.652
		c-6.111,0-11.083-4.97-11.083-11.078c0-6.11,4.971-11.081,11.083-11.081c6.112,0,11.084,4.971,11.084,11.081
		C42.179,37.683,37.207,42.652,31.095,42.652z"/>
	<path fill="#848484" d="M54.47,52.172c1.792-1.797,1.792-4.722,0.001-6.518l-1.448-1.452c-0.673-0.668-0.9-1.806-0.639-2.306
		c0.724-1.392,2.521-3.568,3.159-3.746h2.031c2.543,0,4.612-2.069,4.612-4.613v-3.922c0-2.544-2.069-4.613-4.612-4.613h-2.031
		c-0.957,0-1.94-0.665-2.116-1.221c-0.464-1.443-0.731-4.27-0.4-4.841l1.444-1.442c1.792-1.797,1.792-4.723-0.001-6.522L51.7,8.206
		c-1.738-1.741-4.798-1.736-6.522-0.002L43.73,9.65c-0.442,0.443-1.16,0.74-1.787,0.74c-0.29,0-0.454-0.063-0.524-0.099
		c-1.392-0.726-3.566-2.522-3.743-3.161V5.096c0-2.544-2.069-4.613-4.612-4.613h-3.924c-2.544,0-4.613,2.069-4.613,4.613v2.033
		c0,0.957-0.666,1.94-1.221,2.117c-0.665,0.214-2.27,0.529-3.598,0.529c-0.908,0-1.258-0.16-1.243-0.136l-1.441-1.435
		c-1.735-1.742-4.789-1.744-6.526-0.002L7.73,10.974c-1.796,1.801-1.796,4.727,0,6.522l1.443,1.447
		c0.673,0.669,0.901,1.813,0.647,2.305C9.086,22.644,7.284,24.824,6.652,25l-2.036-0.003c-2.544,0-4.613,2.069-4.613,4.612v3.924
		c0,2.544,2.069,4.613,4.613,4.613H6.65c0.958,0,1.942,0.664,2.119,1.219c0.464,1.44,0.729,4.264,0.399,4.837l-1.445,1.443
		c-0.87,0.869-1.349,2.027-1.349,3.261c0,1.234,0.479,2.392,1.348,3.261l2.773,2.773c1.739,1.742,4.796,1.735,6.522,0.002
		l1.447-1.443c0.442-0.443,1.161-0.74,1.79-0.74c0.29,0,0.454,0.063,0.522,0.098c1.391,0.727,3.565,2.524,3.742,3.16v2.033
		c0,2.543,2.069,4.612,4.613,4.612h3.923c2.544,0,4.612-2.069,4.612-4.612V56.02c0-0.957,0.669-1.94,1.224-2.118
		c0.665-0.213,2.27-0.528,3.6-0.528c0.94,0,1.263,0.148,1.247,0.137l1.435,1.428c1.735,1.741,4.791,1.743,6.525,0.003L54.47,52.172z
		 M47.532,52.576l-1.441-1.434c-0.744-0.746-1.922-1.109-3.603-1.109c-1.814,0-3.756,0.412-4.617,0.687
		c-1.989,0.635-3.547,2.963-3.547,5.299v2.031c0,0.689-0.582,1.271-1.272,1.271h-3.923c-0.69,0-1.272-0.582-1.272-1.271v-2.033
		c0-3.141-5.48-6.092-5.54-6.123c-0.599-0.311-1.314-0.475-2.064-0.475c-1.524,0-3.075,0.642-4.151,1.716l-1.45,1.447
		c-0.473,0.475-1.319,0.474-1.796-0.002l-2.774-2.774c-0.238-0.238-0.369-0.558-0.369-0.9c0-0.342,0.131-0.661,0.369-0.898
		l1.445-1.443c2.223-2.219,0.44-8.166,0.422-8.22c-0.643-2.018-2.921-3.54-5.299-3.54H4.616c-0.69,0-1.272-0.582-1.272-1.272v-3.924
		c0-0.701,0.571-1.272,1.27-1.272L6.65,28.34c3.132,0,6.098-5.484,6.131-5.549c0.968-1.871,0.43-4.544-1.248-6.213l-1.44-1.443
		c-0.496-0.496-0.495-1.304,0.001-1.801l2.768-2.772c0.475-0.476,1.317-0.483,1.8,0.003l1.445,1.44
		c0.744,0.747,1.922,1.111,3.601,1.11c1.813,0,3.755-0.412,4.616-0.688c1.987-0.634,3.543-2.96,3.543-5.298V5.096
		c0-0.701,0.571-1.272,1.272-1.272h3.924c0.701,0,1.272,0.571,1.272,1.272v2.033c0,3.096,5.483,6.094,5.541,6.124
		c1.819,0.943,4.612,0.364,6.215-1.241l1.451-1.448c0.47-0.475,1.319-0.474,1.794,0.002l2.768,2.769
		c0.496,0.497,0.497,1.306,0.003,1.801l-1.441,1.438c-2.222,2.215-0.44,8.17-0.422,8.224c0.631,1.987,2.959,3.544,5.298,3.544h2.031
		c0.689,0,1.271,0.582,1.271,1.272v3.922c0,0.701-0.57,1.272-1.271,1.272H55.54c-3.096,0-6.091,5.489-6.119,5.542
		c-0.961,1.84-0.413,4.572,1.241,6.214l1.443,1.448c0.495,0.496,0.495,1.304,0.002,1.798l-2.774,2.769
		C48.859,53.056,48.018,53.064,47.532,52.576z"/>
	<path fill="#848484" d="M78.533,62.355h-1.007c-0.808,0-1.643-0.535-1.856-1.187c-0.215-0.653-0.571-2.695,0.002-3.27l0.722-0.72
		c0.571-0.571,0.571-1.506,0-2.08l-1.383-1.386c-0.575-0.574-1.511-0.574-2.08,0l-0.72,0.721c-0.575,0.571-1.536,0.781-2.138,0.469
		c-0.597-0.314-2.321-1.507-2.321-2.317v-1.021c0-0.809-0.661-1.471-1.471-1.471h-1.958c-0.81,0-1.471,0.662-1.471,1.471v1.021
		c0,0.809-0.536,1.64-1.189,1.853c-0.657,0.209-2.695,0.565-3.27-0.006l-0.72-0.724c-0.571-0.574-1.506-0.574-2.08,0l-1.385,1.385
		c-0.573,0.575-0.573,1.51,0,2.084l0.72,0.72c0.569,0.574,0.778,1.533,0.469,2.134c-0.318,0.599-1.515,2.321-2.321,2.321h-1.021
		c-0.806,0-1.471,0.663-1.471,1.471v1.961c0,0.81,0.665,1.471,1.471,1.471h1.021c0.807,0,1.64,0.536,1.852,1.188
		c0.213,0.655,0.569,2.693-0.002,3.268l-0.724,0.723c-0.575,0.572-0.575,1.506,0,2.077l1.39,1.391
		c0.575,0.572,1.509,0.572,2.08-0.003l0.718-0.721c0.575-0.57,1.532-0.782,2.134-0.471c0.599,0.317,2.316,1.51,2.316,2.319v1.019
		c0,0.808,0.663,1.471,1.471,1.471h1.969c0.81,0,1.471-0.663,1.471-1.471v-1.019c0-0.808,0.536-1.64,1.189-1.853
		c0.657-0.208,2.691-0.564,3.266,0.006l0.724,0.721c0.569,0.574,1.506,0.574,2.08,0l1.383-1.383c0.571-0.574,0.571-1.509,0-2.083
		l-0.722-0.721c-0.573-0.575-0.781-1.531-0.469-2.132c0.318-0.603,1.507-2.325,2.314-2.325h1.017
		c0.81,0.004,1.471-0.659,1.471-1.467v-1.963C80.004,63.018,79.343,62.355,78.533,62.355z M65.305,69.71
		c-2.714,0-4.909-2.197-4.909-4.903c0-2.71,2.195-4.905,4.909-4.905c2.706,0,4.901,2.195,4.901,4.905
		C70.206,67.513,68.011,69.71,65.305,69.71z"/>
</g>
</svg>
