<?xml version="1.0" encoding="utf-8"?>
<!-- Generator: Adobe Illustrator 21.0.0, SVG Export Plug-In . SVG Version: 6.00 Build 0)  -->
<svg version="1.1" id="图层_1" xmlns="http://www.w3.org/2000/svg" xmlns:xlink="http://www.w3.org/1999/xlink" x="0px" y="0px"
	 width="80px" height="80px" viewBox="0 0 80 80" enable-background="new 0 0 80 80" xml:space="preserve">
<g>
	<path fill="#848484" d="M71.845,27.729c-1.381,0-2.5,1.119-2.5,2.5v40.675c0,2.259-1.838,4.096-4.097,4.096H14.752
		c-2.259,0-4.097-1.837-4.097-4.096V9.096C10.655,6.837,12.493,5,14.752,5h50.496c2.259,0,4.097,1.837,4.097,4.096
		c0,1.381,1.119,2.5,2.5,2.5s2.5-1.119,2.5-2.5C74.345,4.081,70.264,0,65.248,0H14.752C9.736,0,5.655,4.081,5.655,9.096v61.808
		c0,5.016,4.081,9.096,9.097,9.096h50.496c5.016,0,9.097-4.081,9.097-9.096V30.229C74.345,28.848,73.226,27.729,71.845,27.729z"/>
	<polygon fill="#848484" points="50.997,34.911 50.997,22.212 40,15.863 29.003,22.212 29.003,34.911 40,41.26 	"/>
	<polygon fill="#848484" points="63.997,57.788 63.997,45.089 53,38.74 42.003,45.089 42.003,57.788 53,64.137 	"/>
	<polygon fill="#848484" points="16.003,45.089 16.003,57.788 27,64.137 37.997,57.788 37.997,45.089 27,38.74 	"/>
</g>
</svg>
