<?xml version="1.0" encoding="utf-8"?>
<!-- Generator: Adobe Illustrator 21.0.0, SVG Export Plug-In . SVG Version: 6.00 Build 0)  -->
<svg version="1.1" id="图层_1" xmlns="http://www.w3.org/2000/svg" xmlns:xlink="http://www.w3.org/1999/xlink" x="0px" y="0px"
	 width="80px" height="80px" viewBox="0 0 80 80" enable-background="new 0 0 80 80" xml:space="preserve">
<g>
	<path fill="#848484" d="M67.943,22.785l-0.005-3.195c-0.001-0.367-0.121-0.724-0.344-1.016L53.774,0.435
		c-0.072-0.095-0.15-0.162-0.226-0.217L53.378,0L17.684,0.055c-1.544,0.002-2.988,0.784-4.066,2.201
		c-1.054,1.386-1.633,3.221-1.63,5.166l0.09,65.227c0.003,1.946,0.587,3.779,1.645,5.162C14.803,79.223,16.246,80,17.788,80
		c0.002,0,0.005,0,0.008,0l44.52-0.069c1.544-0.002,2.988-0.784,4.066-2.201c1.054-1.386,1.633-3.221,1.63-5.167L67.943,22.785z
		 M17.787,75.58c-1.185,0-2.15-1.317-2.152-2.936L15.543,7.418c-0.002-1.621,0.961-2.941,2.146-2.943L33.55,4.451
		c0.929-0.001,1.683,0.751,1.683,1.681v1.171c0,0.928,0.752,1.681,1.681,1.681h0.937c0.928,0,1.681,0.752,1.681,1.681v0.182
		c0,0.928-0.752,1.681-1.681,1.681h-0.937c-0.928,0-1.681,0.752-1.681,1.681v2.158c0,0.928,0.752,1.681,1.681,1.681h0.937
		c0.928,0,1.681,0.752,1.681,1.681v0.182c0,0.928-0.752,1.681-1.681,1.681h-0.937c-0.928,0-1.681,0.752-1.681,1.681v2.157
		c0,0.928,0.752,1.681,1.681,1.681h0.937c0.928,0,1.681,0.752,1.681,1.681v1.17c0,0.928,0.752,1.681,1.681,1.681h1.874
		c0.928,0,1.681-0.752,1.681-1.681v-2.157c0-0.928-0.752-1.681-1.681-1.681h-0.937c-0.928,0-1.681-0.752-1.681-1.681v-0.182
		c0-0.928,0.752-1.681,1.681-1.681h0.937c0.928,0,1.681-0.752,1.681-1.681V18.74c0-0.928-0.752-1.681-1.681-1.681h-0.937
		c-0.928,0-1.681-0.752-1.681-1.681v-0.183c0-0.928,0.752-1.681,1.681-1.681h0.937c0.928,0,1.681-0.752,1.681-1.681V9.677
		c0-0.928-0.752-1.681-1.681-1.681h-0.937c-0.928,0-1.681-0.752-1.681-1.681V6.118c0-0.927,0.751-1.679,1.678-1.681l6.13-0.009
		c0.928-0.001,1.682,0.75,1.683,1.678l0.014,9.84c0.006,4.055,2.566,7.351,5.71,7.351c0.002,0,0.005,0,0.006,0l7.017-0.011
		c0.928-0.001,1.682,0.75,1.683,1.678l0.066,47.603c0.002,1.621-0.961,2.941-2.147,2.943l-44.52,0.069
		C17.788,75.58,17.788,75.58,17.787,75.58z M55.684,18.877c-0.001,0-0.001,0-0.002,0c-0.554,0-1.081-0.291-1.485-0.819
		c-0.429-0.56-0.666-1.312-0.667-2.117l-0.006-4.387c-0.002-1.612,2.046-2.302,3.02-1.018l4.275,5.638
		c0.839,1.106,0.051,2.694-1.337,2.696L55.684,18.877z"/>
	<path fill="#848484" d="M36.914,49.625h6.172c0.928,0,1.681-0.752,1.681-1.681V34.459c0-0.928-0.752-1.681-1.681-1.681h-6.172
		c-0.928,0-1.681,0.752-1.681,1.681v13.485C35.233,48.872,35.986,49.625,36.914,49.625z M41.681,44.509v0.182
		c0,0.928-0.752,1.681-1.681,1.681l0,0c-0.928,0-1.681-0.752-1.681-1.681v-0.182c0-0.928,0.752-1.681,1.681-1.681l0,0
		C40.928,42.828,41.681,43.581,41.681,44.509z"/>
</g>
</svg>
