<?xml version="1.0" encoding="utf-8"?>
<!-- Generator: Adobe Illustrator 21.0.0, SVG Export Plug-In . SVG Version: 6.00 Build 0)  -->
<svg version="1.1" id="图层_1" xmlns="http://www.w3.org/2000/svg" xmlns:xlink="http://www.w3.org/1999/xlink" x="0px" y="0px"
	 width="80px" height="80px" viewBox="0 0 80 80" enable-background="new 0 0 80 80" xml:space="preserve">
<g>
	<path fill="#848484" d="M57.145,33.336c1.572,0,2.857-1.286,2.857-2.857V26.67c0-1.568-1.285-2.857-2.857-2.857h-1.972
		c-1.57,0-3.196-1.04-3.599-2.311c-0.409-1.271-1.105-5.236,0.009-6.346l1.401-1.397c1.109-1.112,1.109-2.93,0-4.043l-2.69-2.691
		c-1.111-1.112-2.933-1.112-4.04,0l-1.404,1.403c-1.109,1.109-2.974,1.52-4.143,0.913c-1.166-0.608-4.507-2.936-4.507-4.508V2.857
		C36.199,1.286,34.913,0,33.341,0H29.53c-1.574,0-2.857,1.286-2.857,2.857v1.975c0,1.572-1.04,3.195-2.312,3.6
		c-1.269,0.407-5.231,1.103-6.338-0.008L16.614,7.02c-1.109-1.114-2.93-1.112-4.04,0L9.886,9.712c-1.112,1.114-1.112,2.931,0,4.042
		l1.397,1.401c1.116,1.111,1.524,2.975,0.919,4.143c-0.612,1.166-2.941,4.512-4.513,4.512l-1.975-0.003
		c-1.574,0-2.857,1.287-2.857,2.857v3.812c0,1.568,1.283,2.857,2.857,2.857h1.975c1.572,0,3.196,1.036,3.601,2.308
		c0.409,1.271,1.101,5.233-0.011,6.342l-1.403,1.402c-1.112,1.111-1.112,2.928,0,4.04l2.694,2.694c1.111,1.112,2.933,1.112,4.04,0
		l1.404-1.401c1.107-1.107,2.974-1.52,4.143-0.913c1.164,0.608,4.505,2.933,4.505,4.506v1.975c0,1.567,1.286,2.856,2.857,2.856h3.81
		c1.574,0,2.857-1.289,2.857-2.856v-1.972c0-1.573,1.042-3.195,2.316-3.601c1.271-0.407,5.235-1.101,6.341,0.009l1.404,1.397
		c1.107,1.112,2.93,1.112,4.04,0l2.693-2.688c1.109-1.112,1.109-2.929,0-4.04l-1.401-1.404c-1.114-1.107-1.525-2.975-0.917-4.139
		c0.608-1.169,2.937-4.515,4.507-4.512H57.145z M31.429,40.953c-6.838,0-12.385-5.546-12.385-12.381
		c0-6.84,5.547-12.383,12.385-12.383c6.84,0,12.387,5.544,12.387,12.383C43.816,35.407,38.269,40.953,31.429,40.953"/>
	<path fill="#848484" d="M75.715,68.093c0.787,0.004,1.429-0.64,1.429-1.425v-1.907c0-0.785-0.642-1.429-1.429-1.429h-0.978
		c-0.785,0-1.596-0.52-1.803-1.153c-0.208-0.635-0.554-2.617,0.002-3.175l0.701-0.699c0.554-0.554,0.554-1.462,0-2.02l-1.343-1.346
		c-0.558-0.557-1.468-0.557-2.02,0l-0.699,0.7c-0.558,0.554-1.492,0.759-2.076,0.456c-0.58-0.305-2.254-1.464-2.254-2.25v-0.991
		c0-0.786-0.642-1.429-1.429-1.429h-1.901c-0.787,0-1.429,0.643-1.429,1.429v0.991c0,0.786-0.521,1.593-1.155,1.8
		c-0.638,0.203-2.617,0.549-3.175-0.006l-0.699-0.703c-0.554-0.558-1.462-0.558-2.02,0l-1.345,1.345
		c-0.556,0.558-0.556,1.467,0,2.024l0.699,0.699c0.552,0.558,0.755,1.489,0.456,2.072c-0.309,0.582-1.471,2.254-2.255,2.254H50
		c-0.783,0-1.429,0.644-1.429,1.429v1.905c0,0.787,0.646,1.429,1.429,1.429h0.991c0.783,0,1.592,0.521,1.799,1.153
		c0.206,0.636,0.552,2.616-0.002,3.173l-0.703,0.702c-0.558,0.555-0.558,1.463,0,2.017l1.35,1.351
		c0.558,0.555,1.466,0.555,2.02-0.003l0.698-0.7c0.558-0.553,1.488-0.76,2.072-0.458c0.582,0.308,2.249,1.467,2.249,2.252v0.99
		c0,0.785,0.644,1.429,1.429,1.429h1.912c0.787,0,1.429-0.644,1.429-1.429v-0.99c0-0.785,0.521-1.593,1.155-1.8
		c0.638-0.202,2.614-0.548,3.172,0.006l0.703,0.7c0.552,0.558,1.462,0.558,2.02,0l1.343-1.343c0.554-0.557,0.554-1.466,0-2.023
		l-0.701-0.7c-0.556-0.558-0.759-1.487-0.456-2.07c0.309-0.586,1.464-2.258,2.247-2.258H75.715z M67.629,65.714
		c0,2.629-2.132,4.762-4.76,4.762c-2.636,0-4.768-2.134-4.768-4.762c0-2.632,2.132-4.764,4.768-4.764
		C65.497,60.95,67.629,63.081,67.629,65.714"/>
</g>
</svg>
