<?xml version="1.0" encoding="utf-8"?>
<!-- Generator: Adobe Illustrator 21.0.0, SVG Export Plug-In . SVG Version: 6.00 Build 0)  -->
<svg version="1.1" id="图层_1" xmlns="http://www.w3.org/2000/svg" xmlns:xlink="http://www.w3.org/1999/xlink" x="0px" y="0px"
	 width="80px" height="80px" viewBox="0 0 80 80" enable-background="new 0 0 80 80" xml:space="preserve">
<g>
	<path fill="#848484" d="M30.409,38.572h19.063c5.307,0,9.543-4.369,9.543-9.698V10.7c0-5.172-4.363-9.057-9.543-9.921
		c-3.278-0.546-6.68-0.794-9.943-0.779c-3.263,0.015-6.378,0.293-9.12,0.779c-8.076,1.427-9.543,4.413-9.543,9.921v7.274h19.085
		v2.425H20.866h-7.163c-5.546,0-10.403,3.334-11.923,9.676c-1.752,7.27-1.83,11.806,0,19.397c1.357,5.65,4.597,9.676,10.143,9.676
		h6.562v-8.72C18.486,44.129,23.936,38.572,30.409,38.572z M29.208,13.125c-1.978,0-3.581-1.621-3.581-3.626
		c0-2.012,1.603-3.648,3.581-3.648c1.971,0,3.581,1.636,3.581,3.648C32.789,11.504,31.179,13.125,29.208,13.125z"/>
	<path fill="#848484" d="M78.1,30.075c-1.371-5.521-3.989-9.676-9.543-9.676h-7.163v8.475c0,6.571-5.571,12.101-11.923,12.101
		H30.409c-5.222,0-9.543,4.469-9.543,9.699v18.173c0,5.172,4.497,8.215,9.543,9.698c6.041,1.777,11.835,2.098,19.063,0
		c4.805-1.392,9.543-4.192,9.543-9.698v-7.274H39.951v-2.425h19.063h9.543c5.547,0,7.614-3.869,9.543-9.676
		C80.093,43.493,80.008,37.744,78.1,30.075z M50.673,66.422c1.978,0,3.581,1.621,3.581,3.626c0,2.012-1.603,3.648-3.581,3.648
		c-1.971,0-3.581-1.636-3.581-3.648C47.092,68.043,48.702,66.422,50.673,66.422z"/>
</g>
</svg>
