<?xml version="1.0" encoding="utf-8"?>
<!-- Generator: Adobe Illustrator 21.0.0, SVG Export Plug-In . SVG Version: 6.00 Build 0)  -->
<svg version="1.1" id="图层_1" xmlns="http://www.w3.org/2000/svg" xmlns:xlink="http://www.w3.org/1999/xlink" x="0px" y="0px"
	 width="80px" height="80px" viewBox="0 0 80 80" enable-background="new 0 0 80 80" xml:space="preserve">
<g>
	
		<ellipse transform="matrix(0.7071 -0.7071 0.7071 0.7071 -45.4723 28.1753)" fill="#848484" cx="11.274" cy="68.978" rx="10.309" ry="10.309"/>
	<path fill="#848484" d="M57.623,16.894C49.171,9.513,38.207,4.259,25.915,1.7C16.381-0.285,8.958-0.088,7.109,0.137
		C4.165,0.496,2.064,3.175,2.423,6.118c0.151,1.24,0.712,2.329,1.531,3.148c1.126,1.126,2.738,1.741,4.442,1.533
		c1.149-0.123,7.546-0.246,15.667,1.486c7.31,1.559,17.888,5.068,26.764,12.934C62.74,35.779,68.929,51.64,69.213,72.364
		c0.041,2.966,2.477,5.336,5.442,5.295c2.965-0.04,5.336-2.477,5.295-5.442C79.621,48.158,72.109,29.544,57.623,16.894z"/>
	<path fill="#848484" d="M30.947,44.166c-9.645-7.775-22.249-7.896-26.842-6.736c-2.875,0.726-4.618,3.645-3.892,6.52
		c0.246,0.974,0.743,1.817,1.405,2.479c1.293,1.293,3.214,1.892,5.115,1.412c1.958-0.494,10.939-0.583,17.474,4.685
		c5.537,4.464,8.175,11.84,7.839,21.924c-0.098,2.964,2.224,5.446,5.188,5.545c2.964,0.099,5.447-2.224,5.546-5.187
		C43.346,57.822,36.658,48.771,30.947,44.166z"/>
	<path fill="#848484" d="M45.29,31.189C30.308,17.527,10.488,18.147,6.667,18.41c-2.959,0.204-5.192,2.767-4.988,5.726
		c0.093,1.346,0.674,2.542,1.558,3.426c1.06,1.06,2.555,1.673,4.167,1.562c1.873-0.129,18.648-0.944,30.65,10
		c8.178,7.461,12.507,18.904,12.86,34.015c0.07,2.965,2.529,5.312,5.493,5.243c2.965-0.069,5.312-2.529,5.243-5.493
		C61.225,54.73,55.72,40.7,45.29,31.189z"/>
</g>
</svg>
