<?xml version="1.0" encoding="utf-8"?>
<!-- Generator: Adobe Illustrator 21.0.0, SVG Export Plug-In . SVG Version: 6.00 Build 0)  -->
<svg version="1.1" id="图层_1" xmlns="http://www.w3.org/2000/svg" xmlns:xlink="http://www.w3.org/1999/xlink" x="0px" y="0px"
	 width="80px" height="80px" viewBox="0 0 80 80" enable-background="new 0 0 80 80" xml:space="preserve">
<g>
	<path fill="#848484" d="M70.626,0H9.374C6.554,0,4.269,2.285,4.269,5.104s2.285,5.104,5.104,5.104h61.252
		c2.819,0,5.104-2.285,5.104-5.104S73.446,0,70.626,0z"/>
	<path fill="#848484" d="M40.626,26.234H9.374c-2.819,0-5.104,2.285-5.104,5.104s2.285,5.104,5.104,5.104h31.252
		c2.819,0,5.104-2.285,5.104-5.104S43.446,26.234,40.626,26.234z"/>
	<path fill="#848484" d="M70.626,48.013H9.374c-2.819,0-5.104,2.285-5.104,5.104s2.285,5.104,5.104,5.104h61.252
		c2.819,0,5.104-2.285,5.104-5.104S73.446,48.013,70.626,48.013z"/>
	<path fill="#848484" d="M40.626,69.791H9.374c-2.819,0-5.104,2.285-5.104,5.104S6.554,80,9.374,80h31.252
		c2.819,0,5.104-2.285,5.104-5.104S43.446,69.791,40.626,69.791z"/>
</g>
</svg>
