<?xml version="1.0" encoding="utf-8"?>
<!-- Generator: Adobe Illustrator 21.0.0, SVG Export Plug-In . SVG Version: 6.00 Build 0)  -->
<svg version="1.1" id="图层_1" xmlns="http://www.w3.org/2000/svg" xmlns:xlink="http://www.w3.org/1999/xlink" x="0px" y="0px"
	 width="80px" height="80px" viewBox="0 0 80 80" enable-background="new 0 0 80 80" xml:space="preserve">
<g>
	<path fill="#848484" d="M9.374,80h61.252c2.819,0,5.104-2.285,5.104-5.104s-2.285-5.104-5.104-5.104H9.374
		c-2.819,0-5.104,2.285-5.104,5.104S6.554,80,9.374,80z"/>
	<path fill="#848484" d="M39.374,53.766h31.252c2.819,0,5.104-2.285,5.104-5.104s-2.285-5.104-5.104-5.104H39.374
		c-2.819,0-5.104,2.285-5.104,5.104S36.554,53.766,39.374,53.766z"/>
	<path fill="#848484" d="M9.374,31.987h61.252c2.819,0,5.104-2.285,5.104-5.104s-2.285-5.104-5.104-5.104H9.374
		c-2.819,0-5.104,2.285-5.104,5.104S6.554,31.987,9.374,31.987z"/>
	<path fill="#848484" d="M39.374,10.209h31.252c2.819,0,5.104-2.285,5.104-5.104S73.446,0,70.626,0L39.374,0
		c-2.819,0-5.104,2.285-5.104,5.104S36.554,10.209,39.374,10.209z"/>
</g>
</svg>
