<?xml version="1.0" encoding="utf-8"?>
<!-- Generator: Adobe Illustrator 17.0.0, SVG Export Plug-In . SVG Version: 6.00 Build 0)  -->
<!DOCTYPE svg PUBLIC "-//W3C//DTD SVG 1.1//EN" "http://www.w3.org/Graphics/SVG/1.1/DTD/svg11.dtd">
<svg version="1.1" id="图层_1" xmlns="http://www.w3.org/2000/svg" xmlns:xlink="http://www.w3.org/1999/xlink" x="0px" y="0px"
	 width="16px" height="16px" viewBox="0 0 16 16" enable-background="new 0 0 16 16" xml:space="preserve">
<g>
	<path fill="#B31414" d="M14.27,6.237c0-3.168-2.569-5.737-5.737-5.737c-3.168,0-5.737,2.569-5.737,5.737
		c0,1.585,0.643,3.02,1.682,4.058l-0.001,0.001L7.6,14.303H7.467V15.5h1.067l4.057-5.204l-0.001-0.001
		C13.628,9.256,14.27,7.822,14.27,6.237z M8.533,9.105c-1.584,0-2.868-1.284-2.868-2.868s1.284-2.868,2.868-2.868
		c1.584,0,2.868,1.284,2.868,2.868S10.118,9.105,8.533,9.105z"/>
	<path fill="#FF5F5F" d="M13.204,6.237c0-3.168-2.569-5.737-5.737-5.737S1.73,3.069,1.73,6.237c0,1.585,0.643,3.02,1.682,4.058
		L3.41,10.296L7.467,15.5l4.057-5.204l-0.001-0.001C12.561,9.256,13.204,7.822,13.204,6.237z M7.467,9.105
		c-1.584,0-2.868-1.284-2.868-2.868s1.284-2.868,2.868-2.868s2.868,1.284,2.868,2.868S9.051,9.105,7.467,9.105z"/>
</g>
</svg>
