<?xml version="1.0" encoding="utf-8"?>
<!-- Generator: Adobe Illustrator 17.0.0, SVG Export Plug-In . SVG Version: 6.00 Build 0)  -->
<!DOCTYPE svg PUBLIC "-//W3C//DTD SVG 1.1//EN" "http://www.w3.org/Graphics/SVG/1.1/DTD/svg11.dtd">
<svg version="1.1" id="图层_1" xmlns="http://www.w3.org/2000/svg" xmlns:xlink="http://www.w3.org/1999/xlink" x="0px" y="0px"
	 width="32px" height="32px" viewBox="0 0 32 32" enable-background="new 0 0 32 32" xml:space="preserve">
<g>
	<path fill="#CCCCCC" d="M16,0c-0.002,0-0.005,0-0.007,0c-0.001,0-0.002,0-0.002,0c-0.002,0-0.003,0-0.005,0
		c-0.001,0-0.002,0-0.003,0c-0.002,0-0.003,0-0.005,0c-0.001,0-0.002,0-0.002,0c-0.002,0-0.004,0-0.005,0c-0.001,0-0.002,0-0.002,0
		c-0.002,0-0.005,0-0.007,0c-0.001,0-0.001,0-0.001,0c-0.002,0-0.004,0-0.006,0c-0.001,0-0.002,0-0.003,0c-0.002,0-0.003,0-0.005,0
		c-0.001,0-0.002,0-0.003,0c-0.002,0-0.003,0-0.005,0c-0.001,0-0.002,0-0.003,0c-0.002,0-0.005,0-0.007,0l0,0
		c-0.002,0-0.005,0-0.007,0c-0.001,0-0.002,0-0.002,0c-0.002,0-0.003,0-0.005,0c-0.001,0-0.002,0-0.003,0c-0.002,0-0.003,0-0.005,0
		c-0.001,0-0.002,0-0.003,0c-0.002,0-0.004,0-0.006,0c-0.001,0-0.001,0-0.001,0c-0.002,0-0.005,0-0.007,0c-0.001,0-0.001,0-0.002,0
		c-0.002,0-0.004,0-0.006,0c-0.001,0-0.002,0-0.003,0c-0.001,0-0.003,0-0.004,0c-0.001,0-0.002,0-0.003,0c-0.001,0-0.003,0-0.004,0
		c-0.001,0-0.002,0-0.003,0c-0.002,0-0.005,0-0.007,0c-0.001,0,0,0-0.001,0c-0.002,0-0.004,0-0.006,0c-0.001,0-0.002,0-0.003,0
		c-0.002,0-0.003,0-0.005,0c-0.001,0-0.002,0-0.003,0c-0.002,0-0.003,0-0.004,0c-0.001,0-0.002,0-0.003,0c-0.002,0-0.004,0-0.005,0
		c-0.001,0-0.002,0-0.002,0c-0.002,0-0.005,0-0.007,0c-0.001,0-0.001,0-0.003,0c-0.001,0-0.003,0-0.005,0c-0.001,0-0.002,0-0.003,0
		c-0.001,0-0.003,0-0.004,0c-0.001,0-0.002,0-0.003,0c-0.001,0-0.003,0-0.004,0c-0.001,0-0.002,0-0.003,0c-0.002,0-0.005,0-0.007,0
		c-0.001,0-0.001,0-0.001,0c-0.002,0-0.004,0-0.006,0c-0.001,0-0.002,0-0.003,0c-0.001,0-0.003,0-0.004,0c-0.001,0-0.002,0-0.003,0
		c-0.001,0-0.003,0-0.004,0c-0.002,0-0.002,0-0.004,0c-0.001,0-0.002,0-0.003,0c-0.005,0-0.01,0-0.015,0c-0.001,0-0.002,0-0.003,0
		c-0.002,0-0.003,0-0.004,0c-0.001,0-0.002,0-0.003,0c-0.002,0-0.003,0-0.004,0c-0.001,0-0.002,0-0.003,0c-0.002,0-0.003,0-0.004,0
		c-0.001,0-0.002,0-0.003,0c-0.003,0-0.005,0-0.008,0c-0.001,0-0.002,0-0.003,0c-0.002,0-0.003,0-0.004,0c-0.001,0-0.002,0-0.003,0
		c-0.001,0-0.003,0-0.004,0c-0.001,0-0.002,0-0.003,0c-0.002,0-0.002,0-0.004,0c-0.001,0-0.002,0-0.003,0c-0.004,0-0.007,0-0.01,0
		c0,0,0,0,0,0c-0.002,0-0.003,0-0.005,0c-0.001,0-0.001,0-0.002,0c-0.002,0-0.003,0-0.005,0c-0.001,0-0.002,0-0.003,0
		c-0.002,0-0.003,0-0.004,0c-0.001,0-0.001,0-0.002,0c-0.005,0-0.011,0-0.016,0c-0.001,0-0.001,0-0.002,0c-0.002,0-0.003,0-0.005,0
		c-0.001,0-0.001,0-0.002,0c-0.002,0-0.003,0-0.005,0c-0.001,0-0.001,0-0.002,0c-0.002,0-0.004,0-0.005,0c0,0,0,0,0,0
		c-0.006,0-0.012,0-0.018,0c-0.001,0-0.001,0-0.002,0c-0.002,0-0.003,0-0.005,0c-0.001,0-0.002,0-0.002,0c-0.002,0-0.003,0-0.005,0
		c-0.001,0-0.002,0-0.002,0c-0.006,0-0.011,0-0.017,0c0,0-0.001,0-0.001,0c-0.002,0-0.004,0-0.005,0c-0.001,0-0.001,0-0.002,0
		c-0.002,0-0.003,0-0.005,0c0,0-0.001,0-0.001,0c-0.009,0-0.016,0-0.025,0.001c0,0,0,0,0,0c-0.002,0-0.004,0-0.006,0
		c0,0,0,0-0.001,0c-0.011,0-0.021,0.001-0.032,0.001c0,0,0,0,0,0c-0.002,0-0.004,0-0.006,0c0,0-0.001,0-0.001,0
		c-0.009,0-0.017,0.001-0.025,0.001c0,0,0,0,0,0c-0.002,0-0.004,0-0.006,0c0,0,0,0,0,0c-0.011,0-0.021,0.001-0.032,0.001
		c0,0,0,0,0,0c-0.013,0-0.025,0.001-0.038,0.001c0,0,0,0-0.001,0c-0.199,0.008-0.396,0.019-0.593,0.033c0,0,0,0,0,0
		c-0.011,0.001-0.021,0.002-0.031,0.002c0,0-0.001,0-0.001,0c-0.002,0-0.004,0-0.006,0c0,0,0,0,0,0
		c-0.008,0.001-0.016,0.001-0.025,0.002c0,0,0,0,0,0c-0.002,0-0.004,0-0.006,0c0,0-0.001,0-0.001,0c-0.002,0-0.003,0-0.006,0
		c0,0,0,0,0,0c-0.006,0-0.012,0.001-0.018,0.001c0,0-0.001,0-0.001,0c-0.002,0-0.003,0-0.005,0c-0.001,0-0.001,0-0.002,0
		c-0.002,0-0.003,0-0.005,0c-0.001,0-0.002,0-0.002,0c-0.002,0-0.003,0-0.005,0c-0.001,0-0.002,0-0.002,0
		c-0.003,0-0.005,0-0.007,0.001c-0.001,0-0.002,0-0.004,0c-0.002,0-0.002,0-0.004,0c-0.001,0-0.002,0-0.003,0
		c-0.001,0-0.003,0-0.004,0c-0.001,0-0.002,0-0.003,0c-0.001,0-0.003,0-0.004,0c-0.001,0-0.002,0-0.003,0c-0.001,0-0.003,0-0.004,0
		c-0.002,0-0.004,0-0.007,0.001c-0.001,0-0.001,0-0.002,0c-0.002,0-0.003,0-0.005,0c-0.001,0-0.002,0-0.003,0
		c-0.001,0-0.003,0-0.005,0c-0.001,0-0.001,0-0.003,0c-0.002,0-0.003,0-0.005,0c-0.001,0-0.002,0-0.002,0
		c-0.002,0-0.005,0-0.007,0.001l0,0c-0.002,0-0.005,0-0.007,0.001c-0.001,0-0.001,0-0.002,0c-0.002,0-0.004,0-0.006,0
		c-0.001,0-0.001,0-0.002,0c-0.002,0-0.004,0-0.006,0c-0.001,0-0.001,0-0.002,0c-0.007,0.001-0.015,0.001-0.022,0.002
		c-0.001,0,0,0-0.001,0c-0.002,0-0.004,0-0.007,0.001l-0.001,0c-0.18,0.016-0.36,0.036-0.538,0.058l0.074,0.595
		C14.712,0.64,15.358,0.6,16,0.6V0L16,0L16,0z M12.041,0.494c-0.019,0.005-0.038,0.01-0.057,0.015c0,0-0.001,0-0.001,0
		c-0.002,0.001-0.003,0.001-0.005,0.001c-0.001,0-0.001,0-0.002,0c-0.004,0.001-0.01,0.003-0.014,0.004
		c-0.001,0-0.002,0.001-0.003,0.001c-0.001,0-0.002,0.001-0.003,0.001c-0.001,0-0.002,0.001-0.004,0.001
		c-0.001,0-0.002,0.001-0.003,0.001c-0.002,0-0.003,0.001-0.005,0.001c0,0-0.002,0-0.002,0.001
		c-0.002,0.001-0.004,0.001-0.007,0.002c-0.001,0-0.001,0-0.002,0.001c-0.002,0-0.003,0.001-0.005,0.001
		c-0.001,0-0.001,0-0.002,0.001c-0.002,0-0.003,0.001-0.005,0.001c0,0-0.002,0-0.002,0.001c-0.005,0.001-0.01,0.003-0.015,0.004l0,0
		c-0.002,0.001-0.005,0.001-0.007,0.002l0,0c-0.585,0.155-1.157,0.342-1.714,0.559l0,0c-0.002,0.001-0.005,0.002-0.007,0.003l0,0
		c-0.005,0.002-0.01,0.004-0.014,0.006l0,0c-0.002,0.001-0.004,0.002-0.006,0.002c-0.001,0-0.001,0-0.002,0.001
		c-0.002,0.001-0.004,0.001-0.005,0.002c0,0-0.001,0-0.002,0.001c-0.002,0.001-0.004,0.001-0.006,0.002c0,0-0.001,0-0.001,0
		l0.22,0.558c0.595-0.234,1.211-0.433,1.83-0.591L12.041,0.494L12.041,0.494z M8.329,1.955C8.313,1.964,8.297,1.973,8.281,1.982l0,0
		C8.278,1.983,8.276,1.984,8.274,1.986l0,0C8.269,1.988,8.265,1.991,8.261,1.993c0,0-0.001,0-0.001,0.001
		C8.258,1.995,8.256,1.996,8.254,1.997c0,0,0,0-0.001,0C8.249,2,8.244,2.002,8.24,2.005l-0.001,0
		C8.237,2.006,8.235,2.007,8.234,2.008c0,0-0.001,0.001-0.002,0.001C8.23,2.01,8.229,2.011,8.227,2.012c0,0-0.001,0-0.001,0.001
		C8.224,2.014,8.222,2.015,8.22,2.016c-0.001,0-0.001,0.001-0.002,0.001C8.216,2.018,8.215,2.019,8.213,2.019
		c-0.001,0-0.001,0.001-0.002,0.001C8.21,2.021,8.208,2.022,8.207,2.023c0,0-0.001,0.001-0.002,0.001
		C8.203,2.025,8.201,2.026,8.199,2.027c0,0-0.002,0.001-0.002,0.001C8.196,2.029,8.194,2.03,8.193,2.031
		c-0.001,0-0.002,0.001-0.003,0.002C8.189,2.033,8.188,2.034,8.187,2.034c-0.001,0-0.002,0.001-0.003,0.002
		C8.183,2.036,8.181,2.037,8.18,2.038C8.178,2.039,8.177,2.039,8.176,2.04C8.174,2.041,8.173,2.042,8.172,2.042
		C8.171,2.043,8.17,2.044,8.169,2.044c-0.001,0-0.002,0.001-0.002,0.001c-0.001,0-0.003,0.002-0.004,0.002
		c-0.001,0-0.002,0.001-0.003,0.001C8.156,2.052,8.151,2.054,8.147,2.056c0,0-0.001,0-0.001,0.001
		C8.144,2.058,8.143,2.059,8.142,2.06C8.141,2.06,8.14,2.06,8.14,2.061C8.134,2.064,8.127,2.068,8.121,2.071
		c0,0-0.001,0.001-0.002,0.001C8.118,2.073,8.116,2.074,8.115,2.075c0,0,0,0,0,0c-0.005,0.003-0.01,0.006-0.016,0.009c0,0,0,0,0,0
		C8.092,2.088,8.085,2.092,8.078,2.096c0,0,0,0,0,0C8.076,2.097,8.074,2.098,8.073,2.099c0,0,0,0,0,0
		C7.789,2.261,7.512,2.431,7.24,2.609c0,0,0,0,0,0C7.233,2.614,7.227,2.618,7.22,2.622c0,0,0,0-0.001,0
		C7.218,2.624,7.216,2.624,7.215,2.625c0,0-0.001,0-0.001,0.001C7.209,2.629,7.204,2.632,7.2,2.635c0,0,0,0-0.001,0
		C7.198,2.637,7.197,2.637,7.195,2.639c0,0-0.001,0.001-0.001,0.001C7.189,2.642,7.185,2.645,7.18,2.648c0,0-0.001,0-0.001,0
		C7.178,2.65,7.176,2.651,7.175,2.652c-0.001,0-0.001,0.001-0.002,0.001C7.172,2.654,7.171,2.655,7.17,2.655
		c0,0-0.001,0.001-0.001,0.001C7.164,2.659,7.16,2.662,7.155,2.665c-0.001,0-0.001,0.001-0.002,0.001
		C7.152,2.667,7.151,2.668,7.15,2.669c-0.001,0-0.001,0.001-0.002,0.001C7.147,2.67,7.146,2.671,7.144,2.672
		c0,0-0.001,0.001-0.001,0.001C7.141,2.674,7.139,2.676,7.136,2.677C7.135,2.678,7.134,2.679,7.133,2.68
		C7.132,2.68,7.131,2.681,7.131,2.681C7.13,2.682,7.129,2.683,7.128,2.683C7.126,2.684,7.126,2.684,7.125,2.685
		C7.123,2.686,7.122,2.687,7.121,2.688C7.12,2.688,7.119,2.689,7.117,2.69C7.116,2.691,7.115,2.692,7.114,2.693
		C7.113,2.693,7.112,2.694,7.111,2.694C7.11,2.695,7.109,2.696,7.108,2.697C7.107,2.697,7.106,2.698,7.105,2.698
		C7.104,2.699,7.103,2.7,7.102,2.701C7.101,2.701,7.1,2.702,7.098,2.703C7.097,2.704,7.095,2.705,7.094,2.706
		C7.093,2.707,7.093,2.707,7.092,2.707C7.091,2.708,7.089,2.709,7.088,2.71C7.087,2.71,7.086,2.711,7.086,2.711
		C7.084,2.712,7.083,2.713,7.082,2.714C7.081,2.715,7.081,2.715,7.08,2.715C7.078,2.717,7.076,2.718,7.074,2.719
		c0,0-0.001,0.001-0.001,0.001C7.071,2.721,7.07,2.722,7.068,2.723c0,0-0.001,0.001-0.002,0.001
		C7.065,2.725,7.063,2.726,7.062,2.728c0,0-0.001,0.001-0.001,0.001C7.056,2.731,7.052,2.734,7.048,2.736
		c0,0-0.001,0.001-0.002,0.001C7.045,2.739,7.044,2.74,7.042,2.741c0,0-0.001,0.001-0.001,0.001
		C7.039,2.743,7.037,2.744,7.035,2.745c0,0,0,0,0,0C7.033,2.747,7.031,2.748,7.029,2.75l-0.001,0
		C7.026,2.751,7.025,2.753,7.023,2.754c0,0-0.001,0.001-0.001,0.001C7.019,2.756,7.018,2.757,7.016,2.759l0,0
		C7.011,2.762,7.007,2.764,7.003,2.767c0,0,0,0-0.001,0.001C7,2.769,6.999,2.77,6.997,2.771c0,0-0.001,0.001-0.001,0.001
		C6.992,2.775,6.988,2.778,6.983,2.781l0,0C6.981,2.782,6.979,2.784,6.977,2.785l0,0C6.97,2.79,6.964,2.794,6.958,2.798l0,0
		C6.85,2.872,6.744,2.947,6.639,3.023L6.99,3.509c0.519-0.375,1.066-0.721,1.627-1.027L8.329,1.955L8.329,1.955z M5.095,4.292
		C5.094,4.293,5.094,4.293,5.093,4.293C5.092,4.294,5.091,4.295,5.09,4.296C5.09,4.297,5.089,4.297,5.088,4.298
		C5.087,4.299,5.086,4.3,5.084,4.302c0,0-0.001,0.001-0.001,0.001C5.082,4.304,5.08,4.306,5.078,4.308c0,0-0.001,0.001-0.001,0.001
		C5.075,4.31,5.074,4.311,5.073,4.312C5.072,4.313,5.072,4.313,5.071,4.314C5.07,4.315,5.068,4.317,5.066,4.318l0,0
		C5.064,4.32,5.063,4.322,5.061,4.324c0,0,0,0-0.001,0.001C5.058,4.326,5.057,4.327,5.055,4.329c0,0-0.001,0.001-0.001,0.001
		C5.053,4.331,5.051,4.333,5.05,4.334L5.049,4.335c-0.004,0.004-0.007,0.007-0.011,0.01l0,0C4.571,4.784,4.131,5.251,3.72,5.743
		l0.46,0.385c0.41-0.491,0.856-0.961,1.324-1.397L5.095,4.292L5.095,4.292z M2.536,7.353C2.535,7.354,2.534,7.355,2.534,7.356
		c0,0,0,0,0,0C2.53,7.362,2.525,7.369,2.521,7.375c0,0.001-0.001,0.001-0.001,0.002C2.519,7.378,2.518,7.38,2.518,7.381
		c0,0,0,0.001-0.001,0.001C2.514,7.386,2.511,7.391,2.508,7.395c0,0.001-0.001,0.001-0.001,0.002
		C2.506,7.399,2.506,7.399,2.505,7.401c0,0,0,0.001-0.001,0.001C2.501,7.407,2.499,7.41,2.496,7.415
		c0,0.001-0.001,0.001-0.001,0.002C2.494,7.418,2.493,7.42,2.492,7.421c0,0.001-0.001,0.001-0.001,0.002
		C2.49,7.424,2.489,7.425,2.488,7.427c0,0-0.001,0.001-0.001,0.002C2.486,7.431,2.484,7.433,2.483,7.436
		c0,0.001-0.001,0.001-0.001,0.002C2.481,7.439,2.48,7.439,2.48,7.441c0,0.001-0.001,0.001-0.001,0.002
		C2.478,7.444,2.476,7.446,2.476,7.446C2.475,7.447,2.475,7.448,2.474,7.449C2.474,7.45,2.473,7.451,2.472,7.452
		C2.472,7.453,2.471,7.454,2.47,7.455C2.469,7.457,2.468,7.459,2.467,7.46C2.466,7.461,2.466,7.462,2.465,7.463
		C2.465,7.464,2.464,7.465,2.463,7.466C2.463,7.467,2.462,7.468,2.461,7.469C2.461,7.47,2.46,7.471,2.46,7.472
		C2.459,7.473,2.458,7.475,2.457,7.476C2.457,7.477,2.456,7.477,2.455,7.479C2.455,7.48,2.454,7.482,2.453,7.483
		C2.452,7.485,2.452,7.485,2.451,7.486C2.45,7.487,2.449,7.488,2.449,7.489C2.448,7.49,2.448,7.491,2.447,7.492
		C2.446,7.493,2.445,7.495,2.445,7.496C2.444,7.497,2.444,7.497,2.443,7.498C2.442,7.5,2.441,7.502,2.44,7.504
		C2.439,7.504,2.439,7.505,2.439,7.505C2.438,7.507,2.437,7.508,2.436,7.51C2.436,7.51,2.435,7.511,2.435,7.512
		C2.434,7.513,2.433,7.515,2.432,7.516c0,0-0.001,0.001-0.001,0.002C2.428,7.522,2.426,7.526,2.423,7.53c0,0,0,0.001-0.001,0.001
		C2.421,7.533,2.42,7.535,2.419,7.536c0,0-0.001,0.001-0.001,0.001C2.417,7.539,2.416,7.541,2.415,7.543c0,0,0,0,0,0.001
		C2.413,7.546,2.412,7.548,2.411,7.55c0,0-0.001,0.001-0.001,0.001C2.409,7.553,2.408,7.554,2.407,7.556
		c0,0-0.001,0.001-0.001,0.002C2.405,7.559,2.404,7.561,2.403,7.562c0,0-0.001,0.001-0.001,0.002C2.4,7.568,2.397,7.572,2.394,7.576
		c0,0,0,0.001-0.001,0.001C2.393,7.579,2.392,7.581,2.39,7.583c0,0,0,0.001-0.001,0.001C2.389,7.586,2.387,7.588,2.386,7.59l0,0
		C2.385,7.592,2.383,7.594,2.382,7.596l0,0C2.381,7.599,2.379,7.601,2.378,7.603L2.377,7.604C2.374,7.61,2.369,7.617,2.366,7.623
		l0,0C2.364,7.625,2.363,7.627,2.362,7.629l0,0C2.359,7.634,2.356,7.639,2.353,7.643l0,0C2.352,7.645,2.351,7.647,2.349,7.65l0,0
		c-0.004,0.007-0.008,0.013-0.012,0.02l0,0C2.184,7.92,2.037,8.175,1.898,8.435l0,0c-0.004,0.007-0.007,0.014-0.011,0.02
		c0,0,0,0,0,0C1.883,8.462,1.88,8.469,1.876,8.476l0,0.001C1.875,8.478,1.874,8.48,1.873,8.482c0,0,0,0.001-0.001,0.001
		C1.871,8.486,1.87,8.488,1.869,8.49l0,0C1.867,8.492,1.866,8.494,1.865,8.497l0,0C1.864,8.499,1.863,8.501,1.861,8.503
		c0,0,0,0.001-0.001,0.001C1.86,8.506,1.859,8.508,1.858,8.51c0,0-0.001,0.001-0.001,0.001C1.855,8.515,1.853,8.52,1.85,8.524
		c0,0-0.001,0.001-0.001,0.002C1.849,8.527,1.848,8.529,1.847,8.53c0,0-0.001,0.001-0.001,0.002
		C1.845,8.534,1.844,8.535,1.844,8.537c0,0.001-0.001,0.001-0.001,0.002C1.842,8.541,1.84,8.543,1.839,8.545
		c0,0.001,0,0.001-0.001,0.002C1.838,8.548,1.837,8.549,1.836,8.551c0,0.001-0.001,0.001-0.001,0.002
		C1.834,8.555,1.833,8.556,1.833,8.558c0,0.001-0.001,0.001-0.001,0.002C1.831,8.562,1.83,8.564,1.828,8.565
		c0,0.001-0.001,0.002-0.001,0.002C1.827,8.569,1.826,8.57,1.825,8.572c0,0.001-0.001,0.002-0.002,0.003
		C1.823,8.576,1.823,8.577,1.822,8.578c0,0.001-0.001,0.002-0.002,0.003C1.82,8.582,1.819,8.584,1.818,8.585
		c0,0.001-0.001,0.001-0.001,0.002C1.816,8.589,1.815,8.591,1.814,8.592C1.814,8.594,1.813,8.595,1.812,8.596
		c0,0.001-0.001,0.001-0.001,0.002C1.81,8.6,1.81,8.601,1.809,8.603c0,0.001-0.001,0.001-0.001,0.002
		c-0.002,0.004-0.005,0.01-0.007,0.014c0,0,0,0.001-0.001,0.001C1.799,8.621,1.799,8.622,1.798,8.624
		c0,0.001-0.001,0.001-0.001,0.002C1.796,8.627,1.796,8.628,1.795,8.63c0,0,0,0.001-0.001,0.001c-0.08,0.154-0.158,0.31-0.233,0.467
		l0.541,0.259C2.378,8.781,2.694,8.216,3.04,7.677L2.536,7.353L2.536,7.353z M0.813,10.951c-0.195,0.588-0.357,1.19-0.484,1.806
		c0,0,0,0,0,0.001c0,0.002-0.001,0.003-0.001,0.006c0,0,0,0.001,0,0.001c-0.001,0.005-0.002,0.01-0.003,0.015
		c0,0.001,0,0.002-0.001,0.003c0,0.002,0,0.002-0.001,0.004c0,0.001,0,0.002-0.001,0.003c0,0.001-0.001,0.003-0.001,0.004
		c0,0.001,0,0.002-0.001,0.003c0,0.001-0.001,0.002-0.001,0.004c0,0.002-0.001,0.004-0.001,0.006c0,0.001,0,0.002-0.001,0.003
		c0,0.002-0.001,0.003-0.001,0.005c0,0.001,0,0.002-0.001,0.003c0,0.001-0.001,0.003-0.001,0.004c0,0.001,0,0.002-0.001,0.002
		c0,0.002-0.001,0.004-0.001,0.006c0,0.001,0,0,0,0.001c0,0.002-0.001,0.005-0.001,0.007l0,0.001c0,0.002-0.001,0.004-0.001,0.007
		c0,0.001,0,0,0,0.001c0,0.002-0.001,0.005-0.001,0.007l0,0c-0.002,0.01-0.004,0.02-0.006,0.031L0.892,13
		c0.124-0.628,0.289-1.253,0.49-1.86L0.813,10.951L0.813,10.951z M0.04,14.865c-0.021,0.293-0.033,0.588-0.038,0.885l0,0
		c0,0.018-0.001,0.036-0.001,0.053l0,0c0,0.006,0,0.012,0,0.018c0,0.001,0,0,0,0.001c0,0.003,0,0.005,0,0.008l0,0
		c0,0.006,0,0.011,0,0.017l0,0.001c0,0.003,0,0.005,0,0.008c0,0.001,0,0,0,0c0,0.003,0,0.006,0,0.008c0,0.001,0,0.001,0,0.001
		c0,0.002,0,0.005,0,0.007c0,0.001,0,0.001,0,0.002c0,0.006,0,0.011,0,0.017c0,0.001,0,0.001,0,0.002c0,0.002,0,0.005,0,0.007
		l0,0.001c0,0.003,0,0.006,0,0.008l0,0.001c0,0.002,0,0.005,0,0.007c0,0.001,0,0.001,0,0.002c0,0.002,0,0.005,0,0.007
		c0,0.001,0,0,0,0.001c0,0.003,0,0.005,0,0.008c0,0.001,0,0.002,0,0.002c0,0.002,0,0.004,0,0.006c0,0.001,0,0.001,0,0.002
		c0,0.003,0,0.005,0,0.008c0,0.001,0,0.001,0,0.001c0,0.002,0,0.004,0,0.006c0,0.001,0,0.002,0,0.003c0,0.002,0,0.004,0,0.006
		c0,0.001,0,0.001,0,0.002c0,0.003,0,0.005,0,0.008c0,0.001,0,0.001,0,0.002c0,0.002,0,0.004,0,0.006c0,0.001,0,0.002,0,0.002
		C0,15.995,0,15.997,0,16l0,0c0,0.004,0,0.009,0,0.013c0,0.001,0,0.001,0,0.002c0,0.001,0,0.003,0,0.004c0,0.001,0,0.002,0,0.003
		c0,0.001,0,0.003,0,0.004c0,0.001,0,0.002,0,0.003c0,0.001,0,0.002,0,0.004c0,0.001,0,0.002,0,0.003c0,0.001,0,0.002,0,0.004
		c0,0.001,0,0.002,0,0.003c0,0.001,0,0.002,0,0.004c0,0.001,0,0.002,0,0.003c0,0.001,0,0.002,0,0.003c0,0.001,0,0.002,0,0.004
		c0,0.001,0,0.002,0,0.003c0,0.001,0,0.002,0,0.003c0,0.001,0,0.002,0,0.004c0,0.001,0,0.002,0,0.003c0,0.001,0,0.003,0,0.004
		c0,0.001,0,0.001,0,0.003c0,0.001,0,0.003,0,0.004c0,0.001,0,0.002,0,0.003c0,0.001,0,0.002,0,0.004c0,0.001,0,0.002,0,0.003
		c0,0.001,0,0.003,0,0.004c0,0.001,0,0.002,0,0.003c0,0.001,0,0.003,0,0.004c0,0.001,0,0.002,0,0.002c0,0.001,0,0.003,0,0.004
		c0,0.001,0,0.002,0,0.003c0,0.001,0,0.002,0,0.003c0,0.001,0,0.002,0,0.003c0,0.001,0,0.002,0,0.003c0,0.001,0,0.002,0,0.003
		c0,0.001,0,0.002,0,0.003c0,0.001,0,0.002,0,0.003c0,0.002,0,0.004,0,0.006c0,0.001,0,0,0,0.001c0,0.002,0,0.004,0,0.007
		c0,0.001,0,0.001,0,0.002c0,0.002,0,0.003,0,0.005c0,0.001,0,0.001,0,0.002c0,0.002,0,0.003,0,0.005c0,0.001,0,0.001,0,0.002
		c0,0.001,0,0.003,0,0.004c0,0.001,0,0.002,0,0.003c0,0.001,0,0.002,0,0.003c0,0.001,0,0.002,0,0.003c0,0.001,0,0.002,0,0.004
		c0,0.001,0,0.002,0,0.003c0,0.001,0,0.003,0,0.004c0,0.001,0,0.002,0,0.003c0,0.001,0,0.002,0,0.004c0,0.001,0,0.002,0,0.003
		c0,0.001,0,0.002,0,0.003c0,0.001,0,0.002,0,0.003c0,0.001,0,0.002,0,0.003c0,0.001,0,0.002,0,0.003c0,0.001,0,0.003,0,0.004
		c0,0.001,0,0.002,0,0.003c0,0.001,0,0.002,0,0.003c0,0.001,0,0.002,0,0.003c0,0.001,0,0.002,0,0.003c0,0.001,0,0.002,0,0.003
		c0,0.001,0,0.002,0,0.003c0,0.001,0,0.002,0,0.003c0,0.001,0,0.002,0,0.003c0,0.002,0,0.002,0,0.003c0,0.001,0,0.002,0,0.003
		c0,0.002,0,0.002,0,0.004c0,0.001,0,0.001,0,0.002c0,0.002,0,0.003,0,0.004c0,0.001,0,0.001,0,0.002c0,0.002,0,0.003,0,0.004
		c0,0.001,0,0.001,0,0.002c0,0.008,0,0.015,0,0.023c0,0,0,0.001,0,0.001c0,0.002,0,0.003,0,0.004c0,0.001,0,0.002,0,0.002
		c0,0.002,0,0.003,0,0.004c0,0.001,0,0.002,0,0.002c0,0.002,0,0.003,0,0.004c0,0.001,0,0.002,0,0.002c0,0.002,0,0.002,0,0.004
		c0,0.001,0,0.002,0,0.003c0,0.002,0,0.003,0,0.004c0,0.001,0,0.001,0,0.002c0,0.002,0,0.003,0,0.005c0,0.001,0,0.001,0,0.002
		c0,0.002,0,0.003,0,0.005c0,0,0,0.001,0,0.001c0,0.002,0,0.003,0,0.005c0,0.001,0,0.001,0,0.002c0,0.002,0,0.003,0,0.005
		c0,0.001,0,0.001,0,0.002c0,0.002,0,0.003,0,0.005c0,0,0,0.001,0,0.001c0,0.002,0,0.003,0,0.005c0,0,0,0.001,0,0.001
		c0,0.002,0,0.003,0,0.005c0,0,0,0.001,0,0.001c0,0.002,0,0.003,0,0.006c0,0,0,0,0,0c0,0.002,0,0.004,0,0.006c0,0,0,0,0,0
		c0.004,0.164,0.01,0.327,0.019,0.49l0.599-0.032C0.607,16.557,0.6,16.279,0.6,16c0-0.364,0.013-0.732,0.038-1.093L0.04,14.865
		L0.04,14.865z M0.844,18.743L0.253,18.85c0,0,0,0,0,0c0.001,0.005,0.002,0.01,0.003,0.015c0,0.001,0,0.001,0,0.002
		c0,0.002,0.001,0.004,0.001,0.006c0,0.001,0,0.001,0,0.001c0,0.002,0.001,0.005,0.001,0.007l0,0c0,0.003,0.001,0.005,0.001,0.008
		c0,0.001,0,0,0,0.001c0,0.002,0.001,0.004,0.001,0.006c0,0.001,0,0.001,0,0.002c0,0.002,0.001,0.004,0.001,0.005
		c0,0.001,0,0.002,0,0.002c0,0.002,0.001,0.003,0.001,0.005c0,0.001,0,0.002,0,0.003c0,0.002,0.001,0.004,0.001,0.007
		c0,0.001,0,0.002,0,0.003c0,0.002,0.001,0.003,0.001,0.005c0,0.001,0,0.002,0.001,0.003c0,0.001,0.001,0.003,0.001,0.004
		c0,0.001,0,0.002,0.001,0.003c0,0.001,0,0.002,0.001,0.004c0,0.002,0.001,0.004,0.001,0.006c0,0.001,0,0.002,0.001,0.003
		c0,0.002,0,0.002,0.001,0.004c0,0.001,0,0.002,0.001,0.003c0,0.001,0.001,0.003,0.001,0.004c0,0.001,0,0.002,0.001,0.003
		c0,0.002,0,0.003,0.001,0.004c0,0.001,0,0.001,0,0.002c0.001,0.003,0.001,0.007,0.002,0.01c0,0,0,0.001,0,0.001
		c0,0.002,0.001,0.003,0.001,0.005c0,0.001,0,0.001,0,0.002c0,0.001,0.001,0.004,0.001,0.005c0,0.001,0,0.001,0,0.002
		c0.001,0.006,0.002,0.011,0.003,0.017c0,0,0,0,0,0c0,0.002,0.001,0.004,0.001,0.005c0,0.001,0,0.001,0,0.002
		c0,0.002,0.001,0.003,0.001,0.005c0,0.001,0,0.001,0,0.002c0.001,0.006,0.002,0.012,0.003,0.017l0,0
		c0,0.002,0.001,0.004,0.001,0.006c0,0,0,0.001,0,0.001c0,0.002,0.001,0.004,0.001,0.006c0,0,0,0,0,0
		c0.002,0.008,0.003,0.016,0.005,0.024c0,0,0,0.001,0,0.001c0.01,0.049,0.019,0.097,0.029,0.146c0,0,0,0,0,0
		c0.014,0.067,0.028,0.134,0.042,0.201l0,0c0,0.002,0.001,0.004,0.001,0.006c0,0,0,0.001,0,0.001
		c0.002,0.008,0.003,0.016,0.005,0.024c0,0,0,0,0,0c0,0.002,0.001,0.004,0.001,0.006c0,0,0,0,0,0
		c0.002,0.008,0.003,0.016,0.005,0.024c0,0,0,0,0,0c0,0.002,0.001,0.003,0.001,0.005c0,0,0,0.001,0,0.001
		c0.002,0.008,0.003,0.015,0.005,0.022c0,0.001,0,0.002,0.001,0.002c0,0.002,0.001,0.003,0.001,0.005c0,0.001,0,0.001,0,0.002
		c0.001,0.006,0.002,0.011,0.004,0.016c0,0,0,0.001,0,0.001c0,0.002,0.001,0.003,0.001,0.005c0,0.001,0,0.001,0,0.002
		c0,0.002,0.001,0.003,0.001,0.005c0,0.001,0,0.001,0,0.002c0.001,0.005,0.002,0.01,0.003,0.015c0,0.001,0,0.002,0.001,0.003
		c0,0.002,0.001,0.003,0.001,0.004c0,0.001,0,0.002,0.001,0.003c0,0.002,0.001,0.003,0.001,0.004c0,0.001,0,0.002,0.001,0.002
		c0.001,0.005,0.002,0.01,0.003,0.015c0,0.001,0,0.002,0.001,0.002c0,0.002,0.001,0.003,0.001,0.004c0,0.001,0,0.002,0.001,0.003
		c0,0.001,0.001,0.002,0.001,0.003c0,0.001,0.001,0.003,0.001,0.004c0,0.001,0,0.002,0.001,0.003
		c0.001,0.002,0.001,0.004,0.002,0.007c0,0.001,0,0.001,0.001,0.002c0,0.001,0.001,0.003,0.001,0.004c0,0.001,0,0.002,0.001,0.003
		c0,0.001,0.001,0.003,0.001,0.004c0,0.001,0.001,0.002,0.001,0.003c0,0.001,0.001,0.003,0.001,0.004
		c0,0.001,0.001,0.002,0.001,0.003c0,0.002,0.001,0.004,0.001,0.006c0,0.001,0,0.002,0.001,0.003c0,0.001,0.001,0.003,0.001,0.004
		c0,0.001,0,0.002,0.001,0.003c0,0.001,0.001,0.003,0.001,0.004c0,0.001,0.001,0.002,0.001,0.003c0,0.002,0.001,0.003,0.001,0.005
		c0,0.001,0.001,0.002,0.001,0.003c0,0.002,0.001,0.004,0.001,0.006c0,0.001,0,0.002,0.001,0.002c0,0.002,0.001,0.003,0.001,0.005
		c0,0.001,0,0.001,0.001,0.002c0,0.002,0.001,0.003,0.001,0.005c0,0.001,0,0.001,0,0.002c0.001,0.002,0.001,0.005,0.002,0.007l0,0
		c0.001,0.002,0.001,0.005,0.002,0.007c0,0.001,0,0.001,0,0.002c0,0.002,0.001,0.004,0.001,0.005c0,0.001,0,0.001,0.001,0.002
		c0,0.002,0.001,0.004,0.001,0.006l0,0.001c0.001,0.002,0.001,0.005,0.002,0.007c0,0.001,0,0,0,0.001
		c0.001,0.002,0.001,0.004,0.002,0.007c0,0.001,0,0.001,0,0.001c0,0.002,0.001,0.004,0.001,0.006c0,0.001,0,0.001,0,0.002
		c0.001,0.002,0.001,0.004,0.002,0.007l0,0c0.001,0.002,0.001,0.005,0.002,0.007c0,0.001,0,0,0,0
		c0.001,0.002,0.001,0.004,0.002,0.007c0,0.001,0,0.001,0,0.001c0,0.002,0.001,0.004,0.001,0.006c0,0.001,0,0.001,0,0.001
		c0.002,0.007,0.004,0.015,0.005,0.022h0c0.001,0.002,0.001,0.005,0.002,0.007l0,0c0.002,0.007,0.004,0.015,0.006,0.022l0,0
		c0.001,0.002,0.001,0.005,0.002,0.007l0,0c0.002,0.008,0.004,0.015,0.006,0.023l0,0c0.036,0.144,0.073,0.287,0.113,0.429
		c0,0,0,0,0,0c0.001,0.002,0.001,0.005,0.002,0.007c0,0,0,0,0,0c0.002,0.007,0.004,0.015,0.006,0.022c0,0,0,0,0,0.001
		c0.001,0.002,0.001,0.005,0.002,0.007c0,0,0,0,0,0c0.002,0.007,0.004,0.015,0.006,0.022c0,0,0,0,0,0.001
		c0.001,0.002,0.001,0.004,0.002,0.006c0,0,0,0,0,0.001c0.001,0.005,0.003,0.01,0.004,0.015l0,0.001
		c0.001,0.002,0.001,0.004,0.002,0.006c0,0.001,0,0.001,0.001,0.002c0.001,0.002,0.001,0.004,0.002,0.006c0,0,0,0.001,0,0.001
		c0.001,0.002,0.001,0.005,0.002,0.007l0,0c0.001,0.002,0.001,0.004,0.002,0.006c0,0,0.001,0.002,0.001,0.003
		c0,0.001,0.001,0.003,0.001,0.004c0,0.001,0.001,0.002,0.001,0.003c0,0.001,0.001,0.002,0.001,0.003
		c0,0.001,0.001,0.002,0.001,0.003c0,0.001,0.001,0.002,0.001,0.003c0.001,0.002,0.001,0.005,0.002,0.007
		c0,0.001,0,0.002,0.001,0.002c0,0.001,0.001,0.002,0.001,0.004c0,0.001,0.001,0.002,0.001,0.003c0,0.001,0.001,0.003,0.001,0.004
		c0,0.001,0.001,0.002,0.001,0.003c0.002,0.005,0.003,0.01,0.004,0.015c0,0,0,0,0,0.001c0,0.001,0.001,0.003,0.001,0.005
		c0,0.001,0,0.001,0.001,0.002c0,0.001,0.001,0.003,0.001,0.005c0,0,0,0,0,0c0.03,0.104,0.061,0.207,0.094,0.31l0.573-0.179
		C1.111,20.002,0.957,19.373,0.844,18.743L0.844,18.743z M1.992,22.407l-0.545,0.25c0.043,0.093,0.087,0.187,0.131,0.28
		c0,0,0,0.001,0.001,0.001c0.001,0.001,0.002,0.003,0.002,0.005c0,0,0,0,0,0.001c0.002,0.003,0.003,0.006,0.005,0.01
		c0,0,0,0.001,0,0.001c0.001,0.001,0.001,0.002,0.002,0.004c0,0.001,0.001,0.002,0.001,0.003c0,0.001,0.001,0.002,0.002,0.003
		c0,0.001,0.001,0.002,0.001,0.003c0.001,0.001,0.001,0.002,0.002,0.003c0.001,0.002,0.002,0.004,0.003,0.006
		c0,0,0.001,0.001,0.001,0.002c0.001,0.002,0.002,0.003,0.002,0.005c0,0,0.001,0.002,0.001,0.002
		c0.001,0.002,0.002,0.003,0.002,0.005c0,0,0.001,0.001,0.001,0.002c0.001,0.002,0.002,0.004,0.003,0.006l0,0.001
		c0.001,0.002,0.002,0.005,0.003,0.007l0,0.001c0.001,0.002,0.002,0.004,0.003,0.006c0,0,0,0.001,0,0.001
		c0.176,0.361,0.366,0.714,0.568,1.059c0,0,0,0,0.001,0.001c0.001,0.002,0.002,0.004,0.003,0.006c0,0,0,0,0,0.001
		c0.003,0.004,0.005,0.009,0.008,0.013c0,0,0.001,0.001,0.001,0.001c0.001,0.001,0.002,0.003,0.003,0.004
		c0.001,0.001,0.001,0.001,0.001,0.002C2.199,24.1,2.2,24.102,2.201,24.103c0,0,0.001,0.001,0.001,0.001
		c0.001,0.002,0.002,0.004,0.004,0.006c0.001,0.001,0.001,0.001,0.001,0.002c0.001,0.001,0.002,0.003,0.002,0.004
		c0.001,0.001,0.001,0.002,0.002,0.003c0.001,0.001,0.001,0.002,0.002,0.003c0.001,0.001,0.001,0.002,0.002,0.003
		c0.001,0.002,0.002,0.004,0.003,0.006c0,0,0.001,0.001,0.001,0.002c0.001,0.001,0.002,0.003,0.002,0.004
		c0.001,0.001,0.001,0.002,0.002,0.003c0,0.001,0.001,0.002,0.001,0.002c0.001,0.001,0.002,0.003,0.002,0.004
		c0,0,0,0.001,0.001,0.001c0.003,0.005,0.006,0.01,0.009,0.015c0,0,0,0,0,0c0.051,0.086,0.103,0.171,0.155,0.256l0.51-0.316
		C2.564,23.558,2.258,22.987,1.992,22.407L1.992,22.407z M4.014,25.671l-0.467,0.377c0.115,0.143,0.233,0.284,0.353,0.423
		c0,0,0.001,0.001,0.001,0.001c0.005,0.006,0.01,0.011,0.015,0.017c0,0,0.001,0.001,0.001,0.001
		c0.001,0.002,0.002,0.002,0.003,0.004c0,0,0.001,0.001,0.001,0.001c0.001,0.001,0.002,0.003,0.003,0.004c0,0,0,0,0,0
		c0.002,0.003,0.004,0.005,0.007,0.008c0,0,0.001,0.001,0.001,0.001c0.001,0.001,0.002,0.002,0.003,0.004
		c0,0,0.001,0.001,0.001,0.001c0.001,0.001,0.002,0.002,0.003,0.004c0,0,0.001,0.001,0.001,0.001
		c0.002,0.002,0.005,0.005,0.007,0.007c0,0,0,0.001,0.001,0.001c0.001,0.001,0.002,0.002,0.003,0.003
		c0.001,0.001,0.001,0.001,0.002,0.002c0.001,0.001,0.002,0.002,0.003,0.003c0.001,0.001,0.002,0.002,0.002,0.003
		c0.001,0.001,0.002,0.002,0.002,0.002c0.001,0.002,0.003,0.003,0.004,0.005c0.001,0.001,0.001,0.001,0.001,0.002
		c0.001,0.001,0.002,0.002,0.003,0.003c0.001,0.001,0.002,0.002,0.002,0.002c0.001,0.001,0.002,0.002,0.003,0.003
		c0.001,0.001,0.001,0.001,0.002,0.002c0.002,0.002,0.003,0.003,0.004,0.005c0,0,0,0,0.001,0.001
		c0.001,0.001,0.003,0.003,0.004,0.004c0,0,0.001,0.001,0.002,0.002c0.001,0.001,0.002,0.002,0.003,0.004
		c0,0,0.001,0.002,0.002,0.002c0.003,0.003,0.006,0.007,0.009,0.01c0,0,0.001,0.001,0.001,0.002
		c0.001,0.001,0.002,0.003,0.003,0.004c0,0,0.001,0.001,0.001,0.002c0.001,0.002,0.003,0.003,0.004,0.005c0,0,0,0,0,0
		c0.002,0.002,0.003,0.004,0.005,0.006l0.001,0.001c0.001,0.002,0.003,0.003,0.004,0.005l0.001,0.001
		c0.003,0.004,0.007,0.007,0.01,0.011l0,0c0.002,0.002,0.003,0.004,0.005,0.006c0,0,0,0,0.001,0.001
		c0.247,0.278,0.504,0.548,0.77,0.808c0,0,0,0,0,0c0.005,0.005,0.011,0.011,0.016,0.016l0,0c0.002,0.002,0.003,0.003,0.005,0.005
		l0.001,0.001c0.002,0.002,0.003,0.003,0.005,0.005c0,0,0,0,0.001,0.001c0.001,0.001,0.003,0.003,0.004,0.004
		c0.001,0.001,0.001,0.001,0.002,0.002c0.001,0.001,0.002,0.002,0.003,0.003c0.001,0.001,0.001,0.001,0.002,0.002
		c0.001,0.001,0.002,0.002,0.003,0.003c0.001,0.001,0.002,0.002,0.004,0.004c0.001,0.001,0.002,0.002,0.003,0.003
		c0.001,0.001,0.001,0.001,0.003,0.002c0.001,0.001,0.001,0.001,0.002,0.002c0.001,0.001,0.002,0.002,0.003,0.003
		c0,0,0.001,0.001,0.001,0.001c0.004,0.004,0.008,0.007,0.012,0.011c0,0,0,0,0,0c0.001,0.001,0.003,0.003,0.004,0.004c0,0,0,0,0,0
		c0.005,0.005,0.01,0.009,0.015,0.014l0.416-0.432C4.854,26.645,4.416,26.168,4.014,25.671L4.014,25.671z M6.78,28.336l-0.36,0.48
		c0.264,0.198,0.534,0.387,0.811,0.569c0,0,0,0,0.001,0c0.002,0.001,0.004,0.002,0.006,0.004c0,0,0.001,0,0.001,0.001
		c0.004,0.003,0.008,0.005,0.012,0.008c0,0,0.001,0.001,0.001,0.001c0.002,0.001,0.003,0.002,0.005,0.003
		c0,0,0.001,0.001,0.001,0.001c0.002,0.001,0.003,0.002,0.005,0.003c0,0,0.001,0.001,0.001,0.001
		c0.002,0.001,0.004,0.003,0.006,0.004c0,0,0.001,0.001,0.001,0.001c0.002,0.001,0.003,0.002,0.005,0.003
		c0.001,0.001,0.001,0.001,0.002,0.001c0.001,0.001,0.003,0.002,0.004,0.002c0,0,0.002,0.001,0.002,0.001
		c0.001,0.001,0.003,0.002,0.004,0.003c0.001,0.001,0.002,0.002,0.004,0.002c0.001,0.001,0.002,0.002,0.004,0.002
		c0.001,0.001,0.002,0.001,0.003,0.002c0.001,0.001,0.002,0.001,0.003,0.002c0.001,0.001,0.002,0.001,0.003,0.002
		c0.001,0.001,0.002,0.001,0.003,0.002c0.002,0.001,0.005,0.003,0.007,0.004c0,0,0.001,0.001,0.001,0.001
		c0.001,0.001,0.003,0.002,0.004,0.002c0.001,0,0.001,0.001,0.002,0.001c0.001,0.001,0.002,0.002,0.004,0.002
		c0.001,0,0.001,0.001,0.002,0.001c0.006,0.004,0.013,0.008,0.019,0.012c0,0,0,0,0,0c0.244,0.157,0.493,0.308,0.746,0.452
		l0.297-0.521C7.834,29.075,7.292,28.72,6.78,28.336L6.78,28.336z M10.117,30.236l-0.229,0.554l0,0
		c0.287,0.119,0.578,0.229,0.873,0.331c0,0,0,0,0,0c0.01,0.003,0.019,0.007,0.029,0.01l0.001,0c0.002,0.001,0.004,0.002,0.007,0.002
		l0,0c0.005,0.002,0.01,0.003,0.014,0.005c0,0,0.001,0,0.001,0c0.002,0.001,0.004,0.001,0.006,0.002c0,0,0.001,0,0.002,0.001
		c0.002,0.001,0.004,0.001,0.006,0.002c0,0,0,0,0.001,0c0.002,0.001,0.005,0.002,0.007,0.002c0,0,0,0,0.001,0
		c0.002,0.001,0.004,0.001,0.006,0.002c0,0,0.001,0,0.001,0c0.002,0.001,0.004,0.001,0.006,0.002c0,0,0.001,0,0.001,0.001
		c0.005,0.002,0.009,0.003,0.014,0.005l0.001,0c0.002,0.001,0.004,0.001,0.006,0.002c0,0,0.001,0,0.002,0.001
		c0.002,0.001,0.004,0.001,0.005,0.002c0,0,0.001,0,0.002,0.001c0.002,0.001,0.005,0.002,0.007,0.002c0,0,0,0,0.001,0
		c0.002,0.001,0.004,0.001,0.006,0.002c0,0,0.001,0,0.002,0.001c0.002,0.001,0.003,0.001,0.005,0.002c0.001,0,0.001,0,0.002,0.001
		c0.002,0.001,0.003,0.001,0.005,0.002c0.001,0,0.001,0,0.002,0.001c0.002,0.001,0.004,0.001,0.007,0.002
		c0.001,0,0.001,0,0.002,0.001c0.002,0.001,0.003,0.001,0.005,0.002c0.001,0,0.002,0.001,0.003,0.001
		c0.001,0,0.002,0.001,0.003,0.001c0.001,0,0.002,0.001,0.003,0.001c0.001,0,0.002,0.001,0.003,0.001
		c0.002,0.001,0.004,0.001,0.006,0.002c0.001,0,0.003,0.001,0.004,0.001c0.001,0,0.002,0.001,0.003,0.001
		c0.001,0,0.002,0.001,0.004,0.001c0.001,0,0.002,0.001,0.003,0.001c0.001,0,0.002,0.001,0.004,0.001
		c0.001,0,0.002,0.001,0.003,0.001c0.001,0,0.003,0.001,0.004,0.001c0.001,0,0.004,0.001,0.005,0.002
		c0.001,0,0.002,0.001,0.003,0.001c0.001,0,0.002,0.001,0.004,0.001c0.001,0,0.002,0.001,0.003,0.001
		c0.001,0,0.002,0.001,0.004,0.001c0.001,0,0.002,0.001,0.003,0.001c0.005,0.002,0.01,0.003,0.015,0.005
		c0.001,0,0.001,0,0.002,0.001c0.001,0,0.003,0.001,0.004,0.001c0.001,0,0.002,0.001,0.003,0.001c0.001,0,0.003,0.001,0.004,0.001
		c0,0,0.001,0,0.001,0c0.005,0.002,0.01,0.003,0.015,0.005c0.001,0,0.001,0,0.002,0.001c0.001,0,0.003,0.001,0.005,0.001
		c0,0,0.001,0,0.001,0c0.005,0.002,0.011,0.004,0.017,0.005c0,0,0,0,0,0c0.002,0.001,0.004,0.001,0.006,0.002c0,0,0,0,0,0
		c0.01,0.003,0.019,0.006,0.029,0.009c0,0,0,0,0,0c0.228,0.073,0.457,0.141,0.689,0.205l0.158-0.579
		C11.32,30.69,10.707,30.481,10.117,30.236L10.117,30.236z M13.82,31.247l-0.084,0.594c0.087,0.012,0.173,0.024,0.26,0.035l0.001,0
		c0.002,0,0.005,0.001,0.007,0.001l0,0c0.007,0.001,0.015,0.002,0.022,0.003c0.001,0,0.001,0,0.001,0c0.002,0,0.004,0,0.006,0.001
		c0.001,0,0.001,0,0.002,0c0.002,0,0.004,0,0.006,0.001c0.001,0,0.001,0,0.002,0c0.002,0,0.005,0.001,0.007,0.001l0,0
		c0.002,0,0.004,0.001,0.007,0.001c0.001,0,0.002,0,0.002,0c0.002,0,0.003,0,0.005,0.001c0.001,0,0.001,0,0.002,0
		c0.002,0,0.003,0,0.005,0.001c0.001,0,0.002,0,0.003,0c0.002,0,0.004,0,0.006,0.001c0.001,0,0.001,0,0.002,0
		c0.002,0,0.004,0.001,0.007,0.001c0.002,0,0.002,0,0.003,0c0.001,0,0.002,0,0.003,0c0.001,0,0.003,0,0.004,0
		c0.001,0,0.002,0,0.003,0c0.002,0,0.003,0,0.005,0.001c0.001,0,0.001,0,0.002,0c0.002,0,0.003,0,0.005,0.001c0,0,0,0,0,0
		c0.004,0,0.007,0.001,0.011,0.001c0.001,0,0.002,0,0.002,0c0.002,0,0.003,0,0.004,0.001c0.001,0,0.002,0,0.002,0
		c0.002,0,0.003,0,0.004,0.001c0.001,0,0.002,0,0.002,0c0.002,0,0.003,0,0.005,0.001l0,0c0.004,0,0.008,0.001,0.012,0.001
		c0,0,0.001,0,0.001,0c0.002,0,0.003,0,0.005,0.001c0.001,0,0.001,0,0.002,0c0.002,0,0.003,0,0.005,0.001c0,0,0.001,0,0.001,0
		c0.002,0,0.003,0,0.005,0.001c0,0,0,0,0,0c0.008,0.001,0.016,0.002,0.025,0.003c0,0,0.001,0,0.001,0
		c0.013,0.001,0.025,0.003,0.037,0.004l0,0c0.008,0.001,0.017,0.002,0.025,0.003c0,0,0,0,0,0c0.025,0.003,0.05,0.005,0.075,0.008
		c0,0,0,0,0,0c0.008,0.001,0.016,0.002,0.025,0.003c0,0,0,0,0.001,0c0.002,0,0.004,0,0.006,0.001c0,0,0,0,0,0
		c0.011,0.001,0.02,0.002,0.031,0.003c0,0,0.001,0,0.001,0c0.002,0,0.004,0,0.006,0.001c0,0,0,0,0,0
		c0.008,0.001,0.016,0.002,0.025,0.002c0,0,0,0,0.001,0c0.002,0,0.004,0,0.006,0.001c0,0,0.001,0,0.001,0
		c0.008,0.001,0.016,0.002,0.024,0.002c0,0,0,0,0.001,0c0.002,0,0.004,0,0.006,0.001c0,0,0,0,0.001,0c0.002,0,0.004,0,0.006,0.001
		c0,0,0,0,0,0c0.008,0.001,0.016,0.001,0.024,0.002c0,0,0.001,0,0.001,0c0.002,0,0.003,0,0.005,0.001c0,0,0.001,0,0.001,0
		c0.002,0,0.003,0,0.005,0c0,0,0.001,0,0.001,0c0.005,0,0.011,0.001,0.017,0.002c0.001,0,0.001,0,0.002,0c0.002,0,0.003,0,0.005,0
		c0.001,0,0.002,0,0.002,0c0.002,0,0.003,0,0.005,0c0.001,0,0.001,0,0.002,0c0.005,0,0.01,0.001,0.015,0.001
		c0.001,0,0.002,0,0.003,0c0.002,0,0.002,0,0.004,0c0.001,0,0.002,0,0.003,0c0.001,0,0.003,0,0.004,0c0.001,0,0.002,0,0.003,0
		c0.002,0,0.002,0,0.004,0c0.001,0,0.002,0,0.004,0c0.002,0,0.004,0,0.006,0.001c0.001,0,0.002,0,0.003,0c0.002,0,0.002,0,0.004,0
		c0.001,0,0.002,0,0.003,0c0.001,0,0.002,0,0.003,0c0.001,0,0.003,0,0.004,0c0.001,0,0.002,0,0.003,0c0.001,0,0.003,0,0.004,0
		c0.001,0,0.002,0,0.003,0c0.002,0,0.004,0,0.007,0.001c0.001,0,0.002,0,0.003,0c0.001,0,0.003,0,0.004,0c0.001,0,0.002,0,0.003,0
		c0.001,0,0.003,0,0.004,0c0.001,0,0.002,0,0.003,0c0.001,0,0.003,0,0.004,0c0.001,0,0.002,0,0.003,0c0.002,0,0.005,0,0.007,0.001
		c0.001,0,0.001,0,0.001,0c0.002,0,0.004,0,0.006,0.001c0.001,0,0.001,0,0.002,0c0.002,0,0.004,0,0.006,0c0.001,0,0.001,0,0.002,0
		c0.002,0,0.004,0,0.006,0c0.001,0,0.001,0,0.002,0c0.005,0,0.01,0.001,0.015,0.001c0.001,0,0.001,0,0.001,0
		c0.002,0,0.004,0,0.006,0c0.001,0,0.001,0,0.002,0c0.002,0,0.004,0,0.006,0c0.001,0,0.001,0,0.001,0c0.002,0,0.004,0,0.007,0.001
		l0.001,0c0.005,0,0.01,0.001,0.015,0.001c0.001,0,0,0,0.001,0c0.002,0,0.005,0,0.007,0.001l0.001,0
		c0.324,0.025,0.652,0.041,0.981,0.046l0.01-0.6C15.097,31.387,14.451,31.336,13.82,31.247L13.82,31.247z M19.558,30.987
		c-0.621,0.147-1.259,0.256-1.896,0.324l0.064,0.597c0.67-0.072,1.328-0.185,1.97-0.337L19.558,30.987L19.558,30.987z
		 M23.153,29.642c-0.566,0.298-1.157,0.562-1.755,0.786l0.21,0.562c0.127-0.048,0.254-0.097,0.38-0.148c0,0,0,0,0.001,0
		c0.002-0.001,0.004-0.002,0.007-0.003l0,0c0.005-0.002,0.009-0.004,0.014-0.006l0.001,0c0.002-0.001,0.004-0.002,0.006-0.002
		c0,0,0.001,0,0.002-0.001c0.002-0.001,0.004-0.002,0.006-0.002l0.001,0c0.002-0.001,0.005-0.002,0.007-0.003c0,0,0.001,0,0.001,0
		c0.002-0.001,0.004-0.002,0.006-0.002c0,0,0.002-0.001,0.002-0.001c0.002-0.001,0.003-0.001,0.005-0.002
		c0,0,0.002-0.001,0.002-0.001c0.002-0.001,0.003-0.001,0.005-0.002c0.001,0,0.002-0.001,0.003-0.001
		c0.002-0.001,0.003-0.001,0.005-0.002c0.001-0.001,0.002-0.001,0.003-0.001c0.001,0,0.002-0.001,0.003-0.001
		c0.001,0,0.002-0.001,0.003-0.001c0.001,0,0.002-0.001,0.003-0.001c0.005-0.002,0.009-0.004,0.013-0.005
		c0.001,0,0.002-0.001,0.002-0.001c0.001-0.001,0.002-0.001,0.004-0.002c0.001,0,0.002-0.001,0.003-0.001
		c0.001-0.001,0.002-0.001,0.004-0.002c0.001,0,0.001,0,0.002-0.001c0.003-0.001,0.006-0.003,0.01-0.004l0,0
		c0.001-0.001,0.003-0.001,0.004-0.002c0.001,0,0.001-0.001,0.002-0.001c0.001-0.001,0.003-0.001,0.004-0.002
		c0,0,0.001,0,0.001-0.001c0.005-0.002,0.011-0.004,0.015-0.006c0,0,0.001,0,0.001,0c0.002-0.001,0.003-0.001,0.005-0.002
		c0,0,0.001,0,0.001,0c0.44-0.183,0.869-0.385,1.288-0.605L23.153,29.642L23.153,29.642z M26.304,27.446
		c-0.476,0.428-0.982,0.831-1.507,1.196l0.343,0.492c0.101-0.07,0.2-0.141,0.299-0.214c0,0,0,0,0.001-0.001
		c0.002-0.001,0.003-0.002,0.005-0.003c0.001-0.001,0.001-0.001,0.002-0.002c0.001-0.001,0.002-0.002,0.004-0.003
		c0.001-0.001,0.001-0.001,0.002-0.002c0.002-0.001,0.004-0.003,0.005-0.004c0.001-0.001,0.001-0.001,0.002-0.002
		c0.001-0.001,0.002-0.002,0.003-0.002c0.001-0.001,0.002-0.002,0.003-0.002c0.001-0.001,0.002-0.001,0.002-0.002
		c0.006-0.004,0.012-0.009,0.018-0.013c0,0,0,0,0.001,0c0.312-0.23,0.616-0.472,0.91-0.724c0.001,0,0.001-0.001,0.002-0.001
		c0.002-0.001,0.002-0.002,0.003-0.003c0.001,0,0.001-0.001,0.002-0.001c0.001-0.001,0.002-0.002,0.003-0.003
		c0.001,0,0.001-0.001,0.002-0.001c0.002-0.002,0.004-0.003,0.006-0.005c0.001-0.001,0.002-0.001,0.003-0.002
		c0.001-0.001,0.002-0.002,0.003-0.002c0.001-0.001,0.002-0.001,0.002-0.002c0.001-0.001,0.002-0.002,0.003-0.002
		c0.001-0.001,0.003-0.002,0.004-0.004c0,0,0,0,0.001-0.001c0.002-0.002,0.004-0.003,0.006-0.005c0,0,0.001,0,0.001-0.001
		c0.002-0.001,0.003-0.003,0.005-0.004l0.001,0c0.089-0.076,0.176-0.154,0.263-0.232L26.304,27.446L26.304,27.446z M28.817,24.541
		c-0.355,0.532-0.747,1.046-1.166,1.53l0.454,0.393c0.033-0.039,0.066-0.077,0.099-0.116c0,0,0,0,0,0
		c0.001-0.002,0.002-0.002,0.003-0.004c0,0,0.001-0.001,0.001-0.001c0.003-0.004,0.006-0.007,0.009-0.011
		c0.001-0.001,0.001-0.002,0.002-0.002c0.001-0.001,0.002-0.002,0.002-0.003c0.001-0.001,0.002-0.002,0.002-0.003
		c0.001-0.001,0.001-0.002,0.002-0.003c0.001-0.001,0.002-0.002,0.003-0.004c0.001-0.001,0.001-0.001,0.002-0.002
		c0.001-0.001,0.002-0.003,0.004-0.004c0,0,0.001-0.002,0.002-0.002c0.001-0.001,0.002-0.003,0.003-0.004
		c0,0,0.001-0.001,0.001-0.002c0.001-0.001,0.002-0.003,0.004-0.004c0,0,0.001-0.001,0.001-0.001
		c0.002-0.002,0.003-0.004,0.005-0.006l0,0c0.001-0.002,0.003-0.004,0.004-0.005l0.001-0.001c0.002-0.002,0.003-0.004,0.005-0.005
		l0,0c0.002-0.002,0.003-0.004,0.005-0.006c0,0,0,0,0,0c0.002-0.002,0.003-0.004,0.005-0.006l0,0
		c0.212-0.253,0.416-0.513,0.613-0.779l0,0c0.005-0.006,0.009-0.012,0.013-0.018c0,0,0,0,0.001-0.001
		c0.001-0.002,0.003-0.004,0.004-0.005l0-0.001c0.003-0.004,0.006-0.008,0.009-0.012c0,0,0-0.001,0.001-0.001
		c0.001-0.002,0.002-0.003,0.004-0.005c0,0,0.001-0.001,0.001-0.001c0.001-0.002,0.003-0.003,0.004-0.005c0,0,0,0,0-0.001
		c0.001-0.002,0.003-0.004,0.004-0.006c0,0,0.001-0.001,0.001-0.002c0.001-0.001,0.002-0.003,0.003-0.004
		c0.001-0.001,0.001-0.001,0.001-0.002c0.001-0.002,0.002-0.003,0.004-0.005l0-0.001c0.001-0.002,0.003-0.004,0.004-0.006
		c0,0,0.001-0.001,0.001-0.002c0.001-0.001,0.002-0.003,0.003-0.004c0.001-0.001,0.001-0.002,0.002-0.002
		c0.001-0.001,0.002-0.002,0.002-0.003c0.001-0.001,0.001-0.002,0.002-0.002c0.001-0.001,0.002-0.003,0.003-0.004
		c0.001-0.001,0.002-0.003,0.003-0.004c0.001-0.001,0.001-0.002,0.002-0.003c0.001-0.001,0.002-0.002,0.003-0.004
		c0-0.001,0.001-0.001,0.001-0.002c0.001-0.001,0.002-0.002,0.002-0.003c0.001-0.001,0.001-0.001,0.002-0.002
		c0.003-0.004,0.006-0.008,0.009-0.012c0,0,0.001-0.001,0.001-0.001c0.001-0.002,0.002-0.002,0.003-0.004
		c0-0.001,0.001-0.001,0.001-0.002c0.003-0.004,0.006-0.009,0.009-0.013c0,0,0-0.001,0.001-0.001
		c0.001-0.002,0.002-0.002,0.003-0.004c0,0,0.001-0.001,0.001-0.001c0.11-0.153,0.218-0.308,0.323-0.466L28.817,24.541
		L28.817,24.541z M30.533,21.107c-0.212,0.603-0.464,1.199-0.75,1.771l0.537,0.268c0.016-0.032,0.031-0.063,0.047-0.094
		c0,0,0,0,0-0.001c0.001-0.002,0.002-0.003,0.002-0.005c0,0,0-0.001,0-0.001c0.002-0.005,0.005-0.01,0.007-0.015
		c0,0,0-0.001,0.001-0.001c0.001-0.001,0.001-0.003,0.002-0.004c0-0.001,0.001-0.002,0.001-0.003
		c0.001-0.001,0.001-0.002,0.002-0.004c0-0.001,0.001-0.002,0.001-0.003c0.001-0.002,0.002-0.004,0.003-0.006
		c0-0.001,0.001-0.002,0.001-0.003c0.001-0.001,0.001-0.002,0.002-0.003c0.001-0.001,0.001-0.002,0.002-0.003
		c0-0.001,0.001-0.002,0.001-0.003c0.001-0.001,0.001-0.003,0.002-0.004c0-0.001,0.001-0.001,0.001-0.002
		c0.001-0.002,0.002-0.004,0.003-0.006c0,0,0-0.001,0.001-0.001c0.001-0.002,0.002-0.003,0.002-0.005c0,0,0.001-0.002,0.001-0.002
		c0.001-0.001,0.001-0.003,0.002-0.004c0,0,0.001-0.001,0.001-0.002c0.001-0.002,0.002-0.004,0.003-0.006c0,0,0,0,0,0
		c0.001-0.002,0.002-0.005,0.003-0.007l0,0c0.001-0.002,0.002-0.004,0.003-0.006c0,0,0-0.001,0.001-0.001
		c0.004-0.009,0.009-0.018,0.013-0.027c0,0,0,0,0-0.001c0.252-0.524,0.476-1.063,0.67-1.617L30.533,21.107L30.533,21.107z
		 M31.341,17.354c-0.056,0.638-0.152,1.278-0.286,1.902l0.587,0.126c0.139-0.645,0.239-1.305,0.297-1.976L31.341,17.354
		L31.341,17.354z M31.793,13.418L31.2,13.514c0.102,0.63,0.166,1.274,0.189,1.915l0.6-0.022c0-0.003,0-0.005,0-0.007
		c0-0.001,0-0.001,0-0.001c0-0.002,0-0.004,0-0.006l0-0.001c0-0.002,0-0.005,0-0.007l0,0c0-0.005,0-0.01-0.001-0.016l0,0
		c0-0.002,0-0.005,0-0.007c0-0.001,0-0.001,0-0.001c0-0.002,0-0.004,0-0.007c0-0.001,0,0,0-0.001c0-0.008-0.001-0.015-0.001-0.023
		c0-0.001,0,0,0-0.001c0-0.002,0-0.005,0-0.007c0-0.001,0,0,0-0.001c0-0.002,0-0.005,0-0.007l0,0c0-0.005,0-0.01-0.001-0.016l0,0
		c0-0.002,0-0.005,0-0.007l0-0.001c0-0.002,0-0.005,0-0.007l0,0c0-0.005,0-0.01-0.001-0.016l0,0c0-0.002,0-0.005,0-0.007l0-0.001
		c0-0.002,0-0.005,0-0.007c0-0.001,0,0,0-0.001c0-0.008-0.001-0.015-0.001-0.023c0-0.001,0,0,0,0c0-0.002,0-0.005,0-0.007
		c0-0.001,0-0.001,0-0.001c0-0.008-0.001-0.015-0.001-0.023l0,0c0-0.002,0-0.005,0-0.007l0-0.001
		c-0.001-0.01-0.001-0.02-0.002-0.031l0-0.001c0-0.002,0-0.005,0-0.007l0,0c0-0.008-0.001-0.015-0.001-0.023c0-0.001,0,0,0-0.001
		c0-0.002,0-0.005,0-0.007c0-0.001,0,0,0,0c0-0.008-0.001-0.015-0.001-0.023c0-0.001,0,0,0-0.001c0-0.002,0-0.005,0-0.007l0-0.001
		c0-0.008-0.001-0.015-0.001-0.023c0-0.001,0-0.001,0-0.001c0-0.002,0-0.004,0-0.006l0-0.001c0-0.002,0-0.004,0-0.006
		c0-0.001,0-0.001,0-0.001c0-0.005-0.001-0.01-0.001-0.015l0-0.001c0-0.002,0-0.005,0-0.007c0-0.001,0,0,0-0.001
		c0-0.002,0-0.005,0-0.007c0-0.001,0-0.001,0-0.001c0-0.008-0.001-0.015-0.001-0.023c0-0.001,0,0,0-0.001c0-0.002,0-0.004,0-0.007
		c0-0.001,0-0.001,0-0.001c0-0.008-0.001-0.015-0.001-0.023l0-0.001c0-0.002,0-0.004,0-0.007l0-0.001c0-0.002,0-0.004,0-0.006
		c0-0.001,0-0.001,0-0.001c0-0.005-0.001-0.01-0.001-0.015l0-0.001c0-0.002,0-0.004,0-0.006c0-0.001,0-0.001,0-0.002
		c0-0.002,0-0.004,0-0.006c0-0.001,0-0.001,0-0.002c0-0.002,0-0.004,0-0.006c0-0.001,0-0.001,0-0.002c0-0.002,0-0.005-0.001-0.007
		c0-0.001,0,0,0,0c0-0.002,0-0.005,0-0.007c0-0.001,0-0.001,0-0.002c0-0.002,0-0.004,0-0.006c0-0.001,0-0.001,0-0.002
		c0-0.002,0-0.005,0-0.007l0,0c0-0.005-0.001-0.01-0.001-0.015c0-0.001,0-0.001,0-0.001c0-0.002,0-0.004,0-0.006l0-0.001
		c0-0.002,0-0.004,0-0.006c0-0.001,0-0.001,0-0.001c0-0.005-0.001-0.01-0.001-0.015l0-0.001c0-0.002,0-0.004,0-0.006
		c0-0.001,0-0.001,0-0.001c0-0.002,0-0.004,0-0.006c0-0.001,0-0.001,0-0.002c0-0.002,0-0.005-0.001-0.007l0,0
		c0-0.003,0-0.005-0.001-0.008l0,0c0-0.002,0-0.005-0.001-0.007c0-0.001,0-0.001,0-0.001c0-0.002,0-0.004,0-0.006
		c0-0.001,0-0.002,0-0.002c0-0.002,0-0.004,0-0.006l0-0.001c0-0.003,0-0.005-0.001-0.008c0-0.001,0,0,0,0
		c0-0.002,0-0.005-0.001-0.007c0-0.001,0-0.001,0-0.002c0-0.002,0-0.004,0-0.005c0-0.001,0-0.001,0-0.002c0-0.002,0-0.004,0-0.006
		c0-0.001,0-0.001,0-0.002c0-0.005-0.001-0.01-0.001-0.015l0-0.001c0-0.002,0-0.004,0-0.006c0-0.001,0-0.001,0-0.002
		c0-0.002,0-0.004,0-0.005c0-0.001,0-0.001,0-0.002c0-0.002,0-0.004-0.001-0.006c0-0.001,0,0,0-0.001c0-0.002,0-0.005-0.001-0.007
		l0-0.001c0-0.002,0-0.004,0-0.006c0-0.001,0-0.002,0-0.002c0-0.002,0-0.004,0-0.005c0-0.001,0-0.002,0-0.002
		c0-0.002,0-0.004,0-0.006c0-0.001,0-0.001,0-0.001c0-0.002,0-0.005-0.001-0.007c0-0.001,0-0.001,0-0.002c0-0.002,0-0.003,0-0.005
		c0-0.001,0-0.002,0-0.003c0-0.001,0-0.003,0-0.004c0-0.001,0-0.002,0-0.003c0-0.002,0-0.003,0-0.004c0-0.001,0-0.002,0-0.003
		c0-0.005-0.001-0.009-0.001-0.014c0-0.001,0-0.002,0-0.003c0-0.002,0-0.003,0-0.005c0-0.001,0-0.001,0-0.003
		c0-0.002,0-0.003,0-0.005c0-0.001,0-0.002,0-0.002c0-0.002,0-0.004,0-0.006c0-0.001,0-0.001,0-0.002c0-0.002,0-0.005-0.001-0.007
		c0-0.001,0-0.002,0-0.003c0-0.002,0-0.003,0-0.005c0-0.001,0-0.002,0-0.003c0-0.002,0-0.003,0-0.004c0-0.001,0-0.002,0-0.003
		c0-0.002,0-0.004,0-0.006c0-0.001,0-0.001,0-0.001c0-0.002,0-0.005-0.001-0.007c0-0.001,0-0.001,0-0.002c0-0.002,0-0.003,0-0.005
		c0-0.001,0-0.002,0-0.003c0-0.001,0-0.003,0-0.004c0-0.001,0-0.002,0-0.003c0-0.002,0-0.003,0-0.004c0-0.001,0-0.002,0-0.003
		c0-0.002,0-0.004-0.001-0.006c0-0.002,0-0.002,0-0.004c0-0.001,0-0.003,0-0.004c0-0.001,0-0.002,0-0.003c0-0.001,0-0.003,0-0.004
		c0-0.001,0-0.002,0-0.003c0-0.001,0-0.003,0-0.004c0-0.001,0-0.002,0-0.003c0-0.002,0-0.003,0-0.005c0-0.002,0-0.003,0-0.004
		c0-0.002,0-0.003,0-0.005c0-0.001,0-0.002,0-0.003c0-0.001,0-0.003,0-0.004c0-0.001,0-0.002,0-0.003c0-0.001,0-0.003,0-0.004
		c0-0.001,0-0.002,0-0.003c0-0.001,0-0.003,0-0.004c0-0.001,0-0.002,0-0.003c0-0.002,0-0.004-0.001-0.007c0-0.001,0-0.002,0-0.003
		c0-0.001,0-0.003,0-0.004c0-0.001,0-0.003,0-0.004c0-0.001,0-0.002,0-0.003c0-0.001,0-0.003,0-0.004c0-0.001,0-0.002,0-0.004
		c0-0.001,0-0.003,0-0.004c0-0.002,0-0.004-0.001-0.005c0-0.002,0-0.003,0-0.004c0-0.001,0-0.002,0-0.004c0-0.002,0-0.002,0-0.004
		c0-0.001,0-0.002,0-0.003c0-0.001,0-0.003,0-0.004c0-0.001,0-0.002,0-0.003c0-0.002,0-0.003,0-0.004c0-0.001,0-0.001,0-0.002
		c0-0.003-0.001-0.005-0.001-0.008c0-0.001,0-0.002,0-0.003c0-0.002,0-0.002,0-0.004c0-0.001,0-0.002,0-0.003
		c0-0.001,0-0.003,0-0.004c0-0.001,0-0.002,0-0.003c0-0.002,0-0.003,0-0.004c0-0.001,0-0.002,0-0.003c0-0.001,0-0.002,0-0.003
		c0-0.002,0-0.004-0.001-0.006c0-0.002,0-0.003,0-0.004c0-0.001,0-0.002,0-0.003c0-0.002,0-0.003,0-0.004c0-0.001,0-0.002,0-0.002
		c0-0.002,0-0.003,0-0.005c0-0.001,0-0.001,0-0.002c-0.001-0.005-0.001-0.011-0.002-0.016c0,0,0-0.001,0-0.002
		c0-0.002,0-0.003,0-0.005c0-0.001,0-0.001,0-0.002c0-0.002,0-0.003-0.001-0.005c0,0,0-0.001,0-0.002c0-0.002,0-0.004-0.001-0.005
		c0,0,0,0,0,0c-0.001-0.006-0.001-0.012-0.002-0.018c0,0,0,0,0,0c0-0.002,0-0.004-0.001-0.006c0,0,0-0.001,0-0.001
		c-0.001-0.008-0.002-0.016-0.003-0.024c0,0,0,0,0,0c0-0.002,0-0.004-0.001-0.006c0,0,0,0,0-0.001c0-0.002,0-0.004-0.001-0.006
		c0,0,0,0,0-0.001c-0.001-0.008-0.002-0.016-0.003-0.024c0,0,0-0.001,0-0.001c0-0.002,0-0.004-0.001-0.006c0,0,0,0,0,0
		c-0.001-0.01-0.002-0.021-0.004-0.031c0,0,0,0,0,0C31.868,13.921,31.833,13.669,31.793,13.418L31.793,13.418z M30.665,9.591
		l-0.55,0.241c0.256,0.586,0.478,1.194,0.659,1.807l0.576-0.17l0,0c-0.003-0.01-0.006-0.02-0.009-0.03l0,0
		c-0.002-0.007-0.004-0.015-0.007-0.022c0,0,0,0,0-0.001c-0.001-0.002-0.001-0.004-0.002-0.007c0,0,0,0,0-0.001
		c-0.001-0.005-0.003-0.01-0.004-0.015l0-0.001c-0.001-0.002-0.001-0.004-0.002-0.006l0-0.001c-0.001-0.002-0.001-0.004-0.002-0.007
		l0-0.001c-0.001-0.005-0.003-0.009-0.004-0.014c0,0,0-0.001,0-0.002c-0.001-0.002-0.001-0.004-0.002-0.006c0,0,0-0.001-0.001-0.002
		c-0.001-0.002-0.001-0.004-0.002-0.005c0,0,0-0.001,0-0.002c-0.001-0.002-0.001-0.005-0.002-0.007c0,0,0-0.001,0-0.001
		c-0.001-0.002-0.001-0.004-0.002-0.006c0,0,0-0.001-0.001-0.002c-0.001-0.002-0.001-0.004-0.002-0.005c0,0,0-0.001,0-0.002
		c-0.001-0.002-0.001-0.005-0.002-0.007l0,0c-0.001-0.002-0.001-0.005-0.002-0.007c0,0,0-0.001,0-0.002
		c-0.001-0.002-0.001-0.004-0.002-0.005c0-0.001,0-0.001-0.001-0.002c-0.001-0.002-0.001-0.004-0.002-0.006c0,0,0-0.001,0-0.001
		c-0.001-0.002-0.001-0.005-0.002-0.007c0,0,0-0.001,0-0.002c-0.001-0.002-0.001-0.004-0.002-0.005c0,0-0.001-0.002-0.001-0.002
		c0-0.002-0.001-0.003-0.001-0.005c0,0-0.001-0.002-0.001-0.002c-0.001-0.002-0.001-0.004-0.002-0.006l0,0
		c-0.001-0.002-0.001-0.004-0.002-0.007c0-0.001,0-0.001-0.001-0.002c0-0.002-0.001-0.003-0.001-0.005c0-0.001,0-0.002-0.001-0.003
		c0-0.002-0.001-0.003-0.001-0.005c0,0-0.001-0.002-0.001-0.002c-0.001-0.002-0.001-0.004-0.002-0.007c0,0,0-0.001-0.001-0.002
		c-0.001-0.002-0.001-0.003-0.002-0.005c0-0.001-0.001-0.002-0.001-0.003c0-0.001-0.001-0.003-0.001-0.004
		c0-0.001,0-0.002-0.001-0.002c0-0.002-0.001-0.003-0.001-0.005c0-0.001,0-0.001-0.001-0.002c-0.001-0.002-0.001-0.004-0.002-0.006
		c0-0.001,0-0.001-0.001-0.002c0-0.001-0.001-0.003-0.001-0.004c0-0.001-0.001-0.002-0.001-0.003c0-0.001-0.001-0.003-0.001-0.004
		c0-0.001-0.001-0.002-0.001-0.003c0-0.001-0.001-0.003-0.001-0.004c0-0.001-0.001-0.003-0.001-0.004
		c0-0.001-0.001-0.003-0.001-0.004c0-0.001-0.001-0.002-0.001-0.003c0-0.001-0.001-0.002-0.001-0.003
		c0-0.001-0.001-0.003-0.001-0.004c0-0.001-0.001-0.002-0.001-0.003c0-0.001-0.001-0.002-0.001-0.003
		c-0.001-0.002-0.001-0.004-0.002-0.006c0-0.001,0-0.001-0.001-0.002c0-0.002-0.001-0.003-0.001-0.005c0-0.001,0-0.001-0.001-0.002
		c0-0.001-0.001-0.003-0.001-0.004c0-0.001-0.001-0.002-0.001-0.003c0-0.001-0.001-0.003-0.001-0.004c0-0.001,0-0.001-0.001-0.002
		c-0.001-0.002-0.001-0.004-0.002-0.006c0-0.001-0.001-0.002-0.001-0.003c0-0.001-0.001-0.002-0.001-0.004
		c0-0.001-0.001-0.002-0.001-0.003c0-0.001-0.001-0.002-0.001-0.003c0-0.001-0.001-0.002-0.001-0.003
		c-0.001-0.002-0.001-0.004-0.002-0.006c0,0,0-0.001,0-0.001c-0.001-0.002-0.001-0.003-0.002-0.005c0-0.001-0.001-0.002-0.001-0.003
		c0-0.001-0.001-0.003-0.001-0.004c0-0.001-0.001-0.002-0.001-0.003c0-0.001-0.001-0.003-0.001-0.004c0-0.001,0-0.001-0.001-0.002
		c-0.001-0.002-0.001-0.004-0.002-0.007c0-0.001,0-0.001-0.001-0.002c0-0.001-0.001-0.003-0.001-0.004
		c0-0.001-0.001-0.002-0.001-0.003c0-0.001-0.001-0.003-0.001-0.004c0,0-0.001-0.002-0.001-0.003
		c-0.001-0.002-0.001-0.003-0.002-0.005c0-0.001-0.001-0.003-0.001-0.004c-0.001-0.002-0.001-0.003-0.002-0.005
		c0-0.001-0.001-0.002-0.001-0.003c0-0.001-0.001-0.003-0.001-0.004c0-0.001-0.001-0.002-0.001-0.003
		c0-0.001-0.001-0.003-0.001-0.004c0-0.001-0.001-0.002-0.001-0.003c-0.001-0.002-0.001-0.004-0.002-0.006
		c0-0.001-0.001-0.002-0.001-0.003c0-0.001-0.001-0.003-0.001-0.004c0-0.001-0.001-0.002-0.001-0.003
		c0-0.001-0.001-0.003-0.001-0.004c0-0.001-0.001-0.002-0.001-0.003c0-0.001-0.001-0.002-0.001-0.004
		c-0.001-0.002-0.001-0.005-0.002-0.006c0-0.001-0.001-0.002-0.001-0.003c0-0.001-0.001-0.002-0.001-0.004
		c0-0.001-0.001-0.002-0.001-0.003c0-0.001-0.001-0.002-0.001-0.003c0-0.001-0.001-0.002-0.001-0.004
		c0-0.001-0.001-0.002-0.001-0.003c-0.001-0.002-0.001-0.004-0.002-0.006c0,0,0-0.001-0.001-0.002
		c-0.001-0.002-0.001-0.004-0.002-0.006c0,0-0.001-0.002-0.001-0.002c-0.001-0.002-0.001-0.003-0.002-0.005
		c0-0.001,0-0.001-0.001-0.002c-0.001-0.002-0.001-0.003-0.002-0.005c0-0.001,0-0.001-0.001-0.002
		c-0.001-0.002-0.001-0.004-0.002-0.007c0,0,0-0.001,0-0.001c-0.001-0.002-0.001-0.003-0.002-0.005c0-0.001-0.001-0.002-0.001-0.003
		c-0.001-0.002-0.001-0.003-0.002-0.005c0,0-0.001-0.002-0.001-0.002c-0.002-0.005-0.003-0.009-0.005-0.014c0,0,0-0.001,0-0.001
		c-0.001-0.002-0.001-0.004-0.002-0.005c0-0.001,0-0.001-0.001-0.002c-0.001-0.002-0.001-0.004-0.002-0.006l0-0.001
		c-0.001-0.002-0.002-0.005-0.002-0.007l0,0c-0.001-0.002-0.002-0.004-0.002-0.007c0,0,0-0.001,0-0.001
		c-0.001-0.002-0.001-0.004-0.002-0.006c0,0,0-0.001-0.001-0.002c-0.002-0.005-0.003-0.009-0.005-0.014l0,0
		c-0.001-0.002-0.002-0.005-0.002-0.007l0-0.001c-0.001-0.002-0.001-0.004-0.002-0.006c0,0,0,0,0-0.001
		c-0.002-0.005-0.003-0.009-0.005-0.014c0,0,0,0,0-0.001c-0.001-0.002-0.001-0.004-0.002-0.006c0,0,0-0.001,0-0.001
		c-0.001-0.002-0.001-0.004-0.002-0.006l0-0.001c-0.002-0.005-0.003-0.01-0.005-0.014c0,0,0-0.001,0-0.001
		c-0.001-0.002-0.002-0.004-0.002-0.007c0,0,0,0,0,0c-0.002-0.007-0.005-0.014-0.007-0.022l0-0.001
		c-0.003-0.007-0.005-0.015-0.008-0.022l0,0c-0.001-0.002-0.002-0.005-0.003-0.007l0,0c-0.108-0.31-0.225-0.616-0.351-0.917l0-0.001
		c-0.003-0.007-0.006-0.014-0.009-0.021l0,0c-0.001-0.002-0.002-0.004-0.003-0.006c0,0,0-0.001-0.001-0.001
		c-0.002-0.005-0.004-0.009-0.006-0.014l0,0c-0.001-0.002-0.002-0.004-0.003-0.007c0,0,0-0.001-0.001-0.001
		c-0.001-0.002-0.001-0.003-0.002-0.005c0,0-0.001-0.002-0.001-0.002c-0.001-0.002-0.002-0.004-0.002-0.005c0,0,0-0.001,0-0.001
		c-0.001-0.002-0.002-0.004-0.003-0.006c-0.001-0.001-0.001-0.002-0.001-0.003c0-0.001-0.001-0.002-0.001-0.003
		c0-0.001-0.001-0.003-0.001-0.004c0-0.001-0.001-0.002-0.001-0.003c-0.002-0.005-0.004-0.01-0.006-0.015c0,0,0,0,0-0.001
		C30.72,9.72,30.72,9.718,30.719,9.716c0,0,0,0,0-0.001C30.701,9.674,30.683,9.633,30.665,9.591L30.665,9.591z M28.621,6.165
		l-0.473,0.369c0.394,0.505,0.759,1.039,1.087,1.588l0.515-0.307c-0.036-0.06-0.071-0.118-0.107-0.177c0,0,0,0,0-0.001
		c-0.001-0.002-0.002-0.003-0.003-0.005c0,0,0,0,0,0c-0.002-0.003-0.004-0.006-0.005-0.009c0,0-0.001-0.001-0.001-0.001
		c-0.001-0.001-0.001-0.002-0.002-0.004c0-0.001-0.001-0.001-0.001-0.002c-0.001-0.001-0.002-0.003-0.002-0.004
		c0-0.001-0.001-0.001-0.001-0.002c-0.003-0.004-0.005-0.008-0.008-0.013c0-0.001-0.001-0.002-0.001-0.002
		c-0.001-0.001-0.001-0.002-0.002-0.003c-0.001-0.001-0.001-0.002-0.002-0.003c-0.001-0.001-0.001-0.002-0.002-0.003
		c-0.001-0.002-0.002-0.004-0.003-0.006c0,0,0,0,0-0.001c-0.001-0.002-0.002-0.004-0.003-0.005c0,0-0.001-0.002-0.001-0.002
		c-0.001-0.001-0.002-0.003-0.003-0.004c0,0-0.001-0.001-0.001-0.002c-0.001-0.002-0.002-0.004-0.004-0.006l0,0
		c-0.001-0.002-0.003-0.004-0.004-0.006l-0.001-0.001c-0.001-0.002-0.002-0.004-0.003-0.005c0,0-0.001-0.001-0.001-0.001
		c-0.004-0.006-0.008-0.013-0.012-0.019l0,0C29.28,7.056,28.962,6.601,28.621,6.165L28.621,6.165z M25.796,3.348l-0.368,0.474
		c0.505,0.392,0.991,0.82,1.444,1.271l0.424-0.425c-0.179-0.178-0.362-0.352-0.549-0.522l0,0c-0.006-0.005-0.011-0.01-0.017-0.016
		c0,0,0,0,0,0c-0.002-0.002-0.004-0.003-0.005-0.005l0,0c-0.004-0.003-0.008-0.007-0.012-0.01l0,0
		c-0.002-0.002-0.003-0.003-0.005-0.005c0,0-0.001-0.001-0.001-0.001c-0.004-0.003-0.007-0.007-0.011-0.01l0,0
		c-0.002-0.002-0.003-0.003-0.005-0.005l-0.001-0.001c-0.002-0.001-0.003-0.003-0.005-0.004l-0.001-0.001
		c-0.004-0.003-0.007-0.006-0.011-0.01c0,0-0.001-0.001-0.001-0.001c-0.001-0.001-0.003-0.003-0.004-0.004
		c0,0-0.001-0.001-0.001-0.001c-0.002-0.001-0.003-0.003-0.005-0.004L26.66,4.068c-0.002-0.001-0.003-0.003-0.005-0.004
		c0,0-0.001-0.001-0.001-0.001c-0.001-0.001-0.003-0.003-0.004-0.004c0,0-0.001-0.001-0.001-0.001
		c-0.001-0.001-0.003-0.003-0.004-0.004c0,0-0.001-0.001-0.001-0.001c-0.002-0.002-0.003-0.003-0.005-0.005
		c-0.001-0.001-0.001-0.001-0.001-0.001c-0.001-0.001-0.003-0.002-0.004-0.004c-0.001-0.001-0.001-0.001-0.002-0.001
		c-0.001-0.001-0.003-0.002-0.004-0.003c-0.001-0.001-0.001-0.001-0.001-0.001c-0.002-0.002-0.003-0.003-0.005-0.005
		c0,0-0.001-0.001-0.001-0.001c-0.001-0.001-0.003-0.002-0.004-0.004c-0.001-0.001-0.001-0.001-0.002-0.002
		c-0.001-0.001-0.002-0.002-0.003-0.003c0,0-0.002-0.002-0.002-0.002c-0.001-0.001-0.002-0.002-0.004-0.003
		c-0.001-0.001-0.002-0.002-0.003-0.003c-0.001-0.001-0.002-0.002-0.004-0.003c-0.001-0.001-0.002-0.001-0.002-0.002
		c-0.001-0.001-0.002-0.001-0.003-0.002c-0.001-0.001-0.002-0.002-0.003-0.003c-0.001-0.001-0.001-0.001-0.002-0.002
		C26.585,4.001,26.584,4,26.582,3.999c-0.001-0.001-0.002-0.002-0.003-0.002c-0.001-0.001-0.002-0.002-0.003-0.003
		c-0.001-0.001-0.001-0.001-0.002-0.002c-0.001-0.001-0.002-0.002-0.003-0.003c-0.001-0.001-0.001-0.001-0.002-0.002
		c-0.004-0.003-0.008-0.007-0.012-0.01c0,0-0.001-0.001-0.001-0.001c-0.001-0.001-0.002-0.002-0.003-0.003
		c-0.001,0-0.001-0.001-0.002-0.001c-0.001-0.001-0.002-0.002-0.004-0.003c0,0,0,0,0,0c-0.003-0.002-0.005-0.004-0.008-0.007
		c0,0-0.001-0.001-0.001-0.001c-0.001-0.001-0.002-0.002-0.003-0.003c-0.001,0-0.001-0.001-0.002-0.001
		c-0.001-0.001-0.002-0.002-0.004-0.003c0,0-0.001,0-0.001-0.001c-0.004-0.004-0.008-0.007-0.013-0.011c0,0,0,0-0.001-0.001
		c-0.002-0.001-0.003-0.002-0.004-0.004c0,0,0,0,0,0c-0.005-0.004-0.008-0.007-0.013-0.011c0,0,0,0,0,0
		c-0.002-0.001-0.003-0.002-0.004-0.004c0,0,0,0,0,0c-0.006-0.005-0.012-0.01-0.018-0.015c0,0,0,0,0,0
		C26.254,3.714,26.027,3.528,25.796,3.348L25.796,3.348z M22.363,1.315l-0.239,0.55c0.586,0.254,1.162,0.549,1.713,0.875
		l0.306-0.516c-0.336-0.199-0.68-0.386-1.032-0.561c0,0,0,0,0,0c-0.002-0.001-0.003-0.002-0.005-0.003l0,0
		c-0.007-0.004-0.014-0.007-0.022-0.011c0,0,0,0,0,0c-0.007-0.004-0.014-0.007-0.021-0.011c0,0,0,0,0,0
		c-0.002-0.001-0.003-0.002-0.005-0.003c0,0,0,0,0,0c-0.007-0.004-0.014-0.007-0.021-0.01c0,0-0.001,0-0.001-0.001
		c-0.002-0.001-0.003-0.001-0.005-0.002c0,0,0,0,0,0c-0.003-0.002-0.007-0.003-0.01-0.005c0,0-0.001,0-0.001,0
		c-0.001-0.001-0.003-0.001-0.004-0.002c-0.001,0-0.001-0.001-0.002-0.001c-0.001,0-0.003-0.001-0.004-0.002
		c-0.001,0-0.002-0.001-0.002-0.001c-0.005-0.002-0.008-0.004-0.013-0.006c-0.001,0-0.002-0.001-0.002-0.001
		c-0.001-0.001-0.002-0.001-0.004-0.002c-0.001,0-0.002-0.001-0.003-0.001C22.983,1.6,22.982,1.6,22.981,1.599
		c-0.001-0.001-0.002-0.001-0.004-0.002c-0.002-0.001-0.003-0.001-0.005-0.002c-0.001-0.001-0.002-0.001-0.004-0.002
		c-0.001-0.001-0.002-0.001-0.003-0.001c-0.001-0.001-0.002-0.001-0.003-0.002c-0.001,0-0.002-0.001-0.003-0.001
		c-0.001-0.001-0.003-0.001-0.004-0.002c-0.001,0-0.001-0.001-0.002-0.001c-0.002-0.001-0.004-0.002-0.006-0.003
		c-0.001,0-0.001-0.001-0.002-0.001c-0.001-0.001-0.003-0.001-0.004-0.002c-0.001,0-0.001-0.001-0.002-0.001
		c-0.001-0.001-0.003-0.001-0.004-0.002c-0.001,0-0.002-0.001-0.002-0.001c-0.002-0.001-0.004-0.002-0.006-0.003
		c0,0-0.001,0-0.001-0.001c-0.002-0.001-0.003-0.002-0.005-0.002c0,0-0.002-0.001-0.002-0.001c-0.001-0.001-0.003-0.001-0.004-0.002
		c0,0-0.002-0.001-0.002-0.001c-0.002-0.001-0.003-0.001-0.005-0.002c0,0-0.001-0.001-0.002-0.001
		C22.902,1.561,22.9,1.56,22.898,1.559c-0.001,0-0.001,0-0.002-0.001c-0.002-0.001-0.003-0.002-0.005-0.002
		c-0.001,0-0.001-0.001-0.002-0.001c-0.002-0.001-0.003-0.001-0.005-0.002c0,0-0.001-0.001-0.002-0.001
		c-0.002-0.001-0.004-0.002-0.006-0.003c0,0-0.001-0.001-0.002-0.001c-0.002-0.001-0.003-0.002-0.005-0.002
		c0,0-0.002-0.001-0.002-0.001c-0.001-0.001-0.003-0.001-0.004-0.002c0,0-0.002-0.001-0.002-0.001
		c-0.002-0.001-0.004-0.002-0.006-0.003c0,0,0,0-0.001,0c-0.002-0.001-0.004-0.002-0.007-0.003c0,0-0.001-0.001-0.002-0.001
		c-0.002-0.001-0.003-0.002-0.005-0.002c-0.001,0-0.001,0-0.002-0.001c-0.002-0.001-0.003-0.002-0.005-0.002
		c-0.001,0-0.001,0-0.002-0.001c-0.002-0.001-0.004-0.002-0.007-0.003c0,0,0,0,0,0c-0.002-0.001-0.004-0.002-0.006-0.003
		c-0.001,0-0.002-0.001-0.003-0.001c-0.001-0.001-0.003-0.001-0.004-0.002c0,0-0.002-0.001-0.002-0.001
		c-0.004-0.002-0.009-0.004-0.013-0.006c0,0-0.001,0-0.001-0.001c-0.002-0.001-0.003-0.002-0.005-0.002
		c-0.001,0-0.001-0.001-0.002-0.001c-0.002-0.001-0.003-0.002-0.005-0.002c-0.001,0-0.001,0-0.001-0.001
		c-0.002-0.001-0.004-0.002-0.006-0.003c0,0-0.001,0-0.001-0.001c-0.002-0.001-0.003-0.002-0.005-0.002c0,0-0.001-0.001-0.002-0.001
		c-0.002-0.001-0.003-0.002-0.005-0.002c0,0-0.001-0.001-0.002-0.001c-0.004-0.002-0.009-0.004-0.013-0.006c0,0-0.001,0-0.001-0.001
		c-0.002-0.001-0.004-0.002-0.005-0.002c0,0-0.001,0-0.001-0.001c-0.002-0.001-0.004-0.002-0.006-0.003c0,0-0.001,0-0.001-0.001
		c-0.002-0.001-0.004-0.002-0.007-0.003c0,0,0,0-0.001,0c-0.002-0.001-0.004-0.002-0.006-0.003c0,0-0.001-0.001-0.002-0.001
		c-0.002-0.001-0.004-0.002-0.005-0.003c0,0-0.001,0-0.001-0.001c-0.002-0.001-0.004-0.002-0.007-0.003l-0.001,0
		c-0.002-0.001-0.004-0.002-0.006-0.003c0,0-0.001-0.001-0.002-0.001c-0.002-0.001-0.003-0.002-0.005-0.002
		c0,0-0.001-0.001-0.002-0.001c-0.002-0.001-0.004-0.002-0.006-0.003c0,0,0,0,0,0c-0.002-0.001-0.005-0.002-0.007-0.003l-0.001,0
		c-0.002-0.001-0.004-0.002-0.006-0.003c0,0-0.001,0-0.001-0.001c-0.002-0.001-0.004-0.002-0.005-0.002c0,0-0.001,0-0.001-0.001
		c-0.002-0.001-0.004-0.002-0.007-0.003c0,0,0,0-0.001,0c-0.002-0.001-0.004-0.002-0.006-0.003c0,0-0.002-0.001-0.002-0.001
		c-0.002-0.001-0.003-0.001-0.005-0.002c0,0-0.002-0.001-0.002-0.001c-0.002-0.001-0.004-0.002-0.005-0.002c0,0-0.001,0-0.001,0
		c-0.002-0.001-0.004-0.002-0.007-0.003l-0.001,0c-0.002-0.001-0.004-0.002-0.005-0.002c-0.001,0-0.001-0.001-0.002-0.001
		c-0.002-0.001-0.003-0.002-0.005-0.002c0,0-0.001,0-0.001-0.001c-0.002-0.001-0.004-0.002-0.007-0.003c0,0-0.001,0-0.001-0.001
		C22.604,1.422,22.602,1.421,22.6,1.42c0,0-0.002-0.001-0.002-0.001c-0.001-0.001-0.003-0.001-0.004-0.002
		c-0.001,0-0.002-0.001-0.003-0.001c-0.002-0.001-0.004-0.002-0.006-0.003l0,0c-0.002-0.001-0.004-0.002-0.007-0.003
		c-0.001,0-0.001-0.001-0.002-0.001c-0.001-0.001-0.003-0.001-0.004-0.002c-0.001,0-0.002-0.001-0.003-0.001
		c-0.001-0.001-0.003-0.001-0.004-0.002c-0.001,0-0.002-0.001-0.003-0.001c-0.002-0.001-0.004-0.002-0.006-0.003
		c-0.001,0-0.002-0.001-0.003-0.001c-0.001-0.001-0.003-0.001-0.004-0.002c-0.001,0-0.002-0.001-0.003-0.001
		c-0.001-0.001-0.002-0.001-0.003-0.002c-0.001,0-0.002-0.001-0.003-0.001c-0.001-0.001-0.002-0.001-0.004-0.002
		c-0.002-0.001-0.003-0.001-0.005-0.002c-0.001-0.001-0.002-0.001-0.004-0.002c-0.001-0.001-0.002-0.001-0.003-0.001
		c-0.001-0.001-0.002-0.001-0.003-0.002c-0.001,0-0.002-0.001-0.003-0.001c-0.001,0-0.002-0.001-0.003-0.001
		c-0.001,0-0.002-0.001-0.003-0.001c-0.001,0-0.001-0.001-0.002-0.001c-0.002-0.001-0.005-0.002-0.007-0.003
		c-0.001,0-0.002-0.001-0.002-0.001c-0.001-0.001-0.002-0.001-0.004-0.002c-0.001,0-0.002-0.001-0.003-0.001
		c-0.001-0.001-0.002-0.001-0.004-0.002c-0.001,0-0.001-0.001-0.002-0.001c-0.005-0.002-0.009-0.004-0.015-0.006
		c0,0-0.001,0-0.001,0c-0.002-0.001-0.003-0.001-0.005-0.002c0,0,0,0,0,0c-0.006-0.002-0.01-0.005-0.016-0.007c0,0,0,0-0.001,0
		c-0.002-0.001-0.003-0.001-0.005-0.002c0,0,0,0,0,0C22.418,1.339,22.391,1.327,22.363,1.315L22.363,1.315z M18.532,0.199
		l-0.094,0.593c0.632,0.101,1.263,0.242,1.877,0.421l0.168-0.576c-0.026-0.008-0.052-0.015-0.079-0.023c0,0,0,0,0,0
		c-0.002-0.001-0.004-0.001-0.006-0.002c0,0,0,0,0,0c-0.005-0.002-0.011-0.003-0.016-0.005c-0.001,0-0.001,0-0.002-0.001
		c-0.001,0-0.003-0.001-0.004-0.001c-0.001,0-0.001,0-0.002-0.001c-0.001,0-0.003-0.001-0.004-0.001c-0.001,0-0.002,0-0.002-0.001
		c-0.001,0-0.003-0.001-0.004-0.001c-0.002,0-0.003-0.001-0.005-0.001c-0.001,0-0.002-0.001-0.004-0.001
		c-0.001,0-0.003-0.001-0.004-0.001c-0.001,0-0.002,0-0.003-0.001c-0.001,0-0.003-0.001-0.004-0.001c-0.001,0-0.002,0-0.003-0.001
		c-0.002,0-0.003-0.001-0.005-0.001c-0.001,0-0.001,0-0.002-0.001c-0.002-0.001-0.005-0.001-0.007-0.002c0,0,0,0-0.001,0
		C20.324,0.591,20.322,0.59,20.32,0.59c0,0-0.002,0-0.002-0.001c-0.002,0-0.003-0.001-0.005-0.001c0,0-0.001,0-0.002,0
		c-0.002-0.001-0.004-0.001-0.006-0.002c0,0-0.001,0-0.001,0c-0.002-0.001-0.005-0.001-0.007-0.002l0,0
		c-0.002-0.001-0.005-0.001-0.007-0.002c0,0,0,0-0.001,0c-0.002-0.001-0.004-0.001-0.007-0.002c0,0,0,0,0,0
		c-0.007-0.002-0.015-0.004-0.022-0.006l0,0C19.695,0.418,19.119,0.293,18.532,0.199L18.532,0.199z M16,0v0.6
		c0.175,0,0.349,0.003,0.523,0.009l0.02-0.6C16.402,0.004,16.261,0.001,16.119,0l-0.001,0c-0.006,0-0.011,0-0.017,0l0,0
		c-0.003,0-0.005,0-0.008,0l-0.001,0c-0.003,0-0.005,0-0.008,0l0,0c-0.003,0-0.006,0-0.008,0l-0.001,0c-0.002,0-0.005,0-0.007,0
		c-0.001,0-0.001,0-0.002,0c-0.002,0-0.004,0-0.006,0c-0.001,0-0.001,0-0.002,0c-0.003,0-0.005,0-0.008,0c-0.001,0-0.001,0-0.001,0
		c-0.002,0-0.004,0-0.007,0c-0.001,0-0.001,0-0.002,0c-0.002,0-0.004,0-0.005,0c-0.001,0-0.002,0-0.003,0c-0.003,0-0.005,0-0.008,0
		l0,0c-0.002,0-0.005,0-0.007,0c-0.001,0-0.002,0-0.003,0c-0.002,0-0.004,0-0.005,0c-0.001,0-0.002,0-0.002,0
		C16.005,0,16.003,0,16,0L16,0L16,0z"/>
</g>
</svg>
