<?xml version="1.0" encoding="utf-8"?>
<!-- Generator: Adobe Illustrator 17.0.0, SVG Export Plug-In . SVG Version: 6.00 Build 0)  -->
<!DOCTYPE svg PUBLIC "-//W3C//DTD SVG 1.1//EN" "http://www.w3.org/Graphics/SVG/1.1/DTD/svg11.dtd">
<svg version="1.1" id="图层_1" xmlns="http://www.w3.org/2000/svg" xmlns:xlink="http://www.w3.org/1999/xlink" x="0px" y="0px"
	 width="32px" height="32px" viewBox="0 0 32 32" enable-background="new 0 0 32 32" xml:space="preserve">
<g>
	<path fill="#FFFFFF" d="M16,31.5C7.453,31.5,0.5,24.547,0.5,16S7.453,0.5,16,0.5S31.5,7.453,31.5,16S24.547,31.5,16,31.5z"/>
	<path fill="#CCCCCC" d="M16,1c8.271,0,15,6.729,15,15s-6.729,15-15,15S1,24.271,1,16S7.729,1,16,1 M16,0C7.163,0,0,7.163,0,16
		s7.163,16,16,16s16-7.163,16-16S24.837,0,16,0L16,0z"/>
</g>
<g>
	<g>
		<path fill="#76CC4B" d="M16,7.563c-5.523,0-10,2.239-10,5s4.477,5,10,5s10-2.239,10-5S21.523,7.563,16,7.563z M8.595,13.359
			l7.924-3.963l-1.074-0.537h3.682l0,1.841l-1.074-0.537l-7.924,3.963L8.595,13.359z M23.405,12.84l-1.074-0.537l-7.924,3.963
			l-1.534-0.767l7.924-3.963l-1.074-0.537h3.682V12.84z"/>
	</g>
	<path fill="#76CC4B" d="M16,18.187c-5.523,0-10-2.239-10-5v6.25c0,2.761,4.477,5,10,5s10-2.239,10-5v-6.25
		C26,15.949,21.523,18.187,16,18.187z M17.785,19.93l-1.115,1.115l1.115,1.115h2.028v-0.66l1.132,1.132l-1.132,1.132v-0.66h-2.426
		v-0.007l-1.384-1.384l-1.389,1.389v0.003h-2.426v0.66l-1.132-1.132l1.132-1.132v0.66h2.033l1.115-1.115L14.22,19.93h-2.033v0.66
		l-1.132-1.132l1.132-1.132v0.66h2.426v0.003l1.389,1.389l1.384-1.384v-0.007h2.426v-0.66l1.132,1.132l-1.132,1.132v-0.66H17.785z"
		/>
</g>
</svg>
