<?xml version="1.0" encoding="utf-8"?>
<!-- Generator: Adobe Illustrator 17.0.0, SVG Export Plug-In . SVG Version: 6.00 Build 0)  -->
<!DOCTYPE svg PUBLIC "-//W3C//DTD SVG 1.1//EN" "http://www.w3.org/Graphics/SVG/1.1/DTD/svg11.dtd">
<svg version="1.1" xmlns="http://www.w3.org/2000/svg" xmlns:xlink="http://www.w3.org/1999/xlink" x="0px" y="0px" width="800px"
	 height="800px" viewBox="0 0 800 800" enable-background="new 0 0 800 800" xml:space="preserve">
<g id="BACKGROUND">
	<g>
		<g>
			<polygon fill="#CD8237" points="-1.39,106.124 78.938,106.124 10.984,0 -1.39,0 			"/>
			<polygon fill="#E8A542" points="10.984,0 78.938,106.124 146.891,0 			"/>
			<polygon fill="#F3B050" points="146.891,0 78.938,106.124 232.981,106.124 165.029,0 			"/>
			<polygon fill="#F0AA5B" points="165.029,0 232.981,106.124 300.933,0 			"/>
			<polygon fill="#E18E4E" points="300.933,0 232.981,106.124 387.023,106.124 319.071,0 			"/>
			<polygon fill="#E1843E" points="319.071,0 387.023,106.124 454.977,0 			"/>
			<polygon fill="#F18B3B" points="454.977,0 387.023,106.124 541.066,106.124 473.113,0 			"/>
			<polygon fill="#F08D31" points="473.113,0 541.066,106.124 609.021,0 			"/>
			<polygon fill="#E7871E" points="609.021,0 541.066,106.124 695.108,106.124 627.158,0 			"/>
			<polygon fill="#E68C1D" points="627.158,0 695.108,106.124 763.06,0 			"/>
			<polygon fill="#D06118" points="800.86,30.704 781.199,0 763.06,0 695.108,106.124 800.86,106.124 			"/>
			<polygon fill="#BF4716" points="800.86,0 781.199,0 800.86,30.704 			"/>
			<polygon fill="#DDA747" points="-1.39,106.124 -1.39,221.248 1.915,226.41 78.938,106.124 			"/>
			<polygon fill="#EBB849" points="1.915,226.41 78.938,106.124 155.96,226.41 			"/>
			<polygon fill="#F9CD5E" points="232.981,106.124 155.96,226.41 78.938,106.124 			"/>
			<polygon fill="#F6B962" points="155.96,226.41 232.981,106.124 310.002,226.41 			"/>
			<polygon fill="#E69F57" points="387.023,106.124 310.002,226.41 232.981,106.124 			"/>
			<polygon fill="#DE8D43" points="310.002,226.41 387.023,106.124 464.045,226.41 			"/>
			<polygon fill="#DBA149" points="541.066,106.124 464.045,226.41 387.023,106.124 			"/>
			<polygon fill="#F2B044" points="464.045,226.41 541.066,106.124 618.09,226.41 			"/>
			<polygon fill="#ECBF3B" points="695.108,106.124 618.09,226.41 541.066,106.124 			"/>
			<polygon fill="#EAA425" points="618.09,226.41 695.108,106.124 772.13,226.41 			"/>
			<polygon fill="#E8A62A" points="800.86,106.124 695.108,106.124 772.13,226.41 800.86,181.543 			"/>
			<polygon fill="#D67C22" points="800.86,181.543 772.13,226.41 800.86,226.41 			"/>
			<polygon fill="#D5A459" points="-1.39,346.697 78.938,346.697 1.915,226.41 -1.39,231.571 			"/>
			<polygon fill="#E1C474" points="155.96,226.41 78.938,346.697 1.915,226.41 			"/>
			<polygon fill="#F3D475" points="78.938,346.697 155.96,226.41 232.981,346.697 			"/>
			<polygon fill="#F1CB78" points="310.002,226.41 232.981,346.697 155.96,226.41 			"/>
			<polygon fill="#F6BB68" points="232.981,346.697 310.002,226.41 387.023,346.697 			"/>
			<polygon fill="#AF794A" points="464.045,226.41 387.023,346.697 310.002,226.41 			"/>
			<polygon fill="#A36E39" points="387.023,346.697 464.045,226.41 541.066,346.697 			"/>
			<polygon fill="#C4843B" points="618.09,226.41 541.066,346.697 464.045,226.41 			"/>
			<polygon fill="#ECBF52" points="541.066,346.697 618.09,226.41 695.108,346.697 			"/>
			<polygon fill="#ECC263" points="772.13,226.41 695.108,346.697 618.09,226.41 			"/>
			<polygon fill="#E7B44D" points="800.86,271.277 772.13,226.41 695.108,346.697 800.86,346.697 			"/>
			<polygon fill="#D89B4C" points="800.86,226.41 772.13,226.41 800.86,271.277 			"/>
			<polygon fill="#AAC18A" points="-1.39,346.697 -1.39,461.823 1.915,466.984 78.938,346.697 			"/>
			<polygon fill="#D1CE8B" points="1.915,466.984 78.938,346.697 155.96,466.984 			"/>
			<polygon fill="#CBCB89" points="232.981,346.697 155.96,466.984 78.938,346.697 			"/>
			<polygon fill="#E8D083" points="155.96,466.984 232.981,346.697 310.002,466.984 			"/>
			<polygon fill="#D2A86C" points="387.023,346.697 310.002,466.984 232.981,346.697 			"/>
			<polygon fill="#94593E" points="310.002,466.984 387.023,346.697 464.045,466.984 			"/>
			<polygon fill="#904A36" points="541.066,346.697 464.045,466.984 387.023,346.697 			"/>
			<polygon fill="#C97D4A" points="464.045,466.984 541.066,346.697 618.09,466.984 			"/>
			<polygon fill="#D18155" points="695.108,346.697 618.09,466.984 541.066,346.697 			"/>
			<polygon fill="#D29257" points="618.09,466.984 695.108,346.697 772.13,466.984 			"/>
			<polygon fill="#BA6C50" points="800.86,346.697 695.108,346.697 772.13,466.984 800.86,422.117 			"/>
			<polygon fill="#C27D4E" points="800.86,422.117 772.13,466.984 800.86,466.984 			"/>
			<polygon fill="#86B684" points="-1.39,587.269 78.938,587.269 1.915,466.984 -1.39,472.146 			"/>
			<polygon fill="#7FB188" points="155.96,466.984 78.938,587.269 1.915,466.984 			"/>
			<polygon fill="#AFBD89" points="78.938,587.269 155.96,466.984 232.981,587.269 			"/>
			<polygon fill="#BDB982" points="310.002,466.984 232.981,587.269 155.96,466.984 			"/>
			<polygon fill="#D5AD71" points="232.981,587.269 310.002,466.984 387.023,587.269 			"/>
			<polygon fill="#D49C62" points="464.045,466.984 387.023,587.269 310.002,466.984 			"/>
			<polygon fill="#CC8955" points="387.023,587.269 464.045,466.984 541.066,587.269 			"/>
			<polygon fill="#DFA04F" points="618.09,466.984 541.066,587.269 464.045,466.984 			"/>
			<polygon fill="#CE7C53" points="541.066,587.269 618.09,466.984 695.108,587.269 			"/>
			<polygon fill="#A94C49" points="772.13,466.984 695.108,587.269 618.09,466.984 			"/>
			<polygon fill="#9E3B42" points="800.86,511.851 772.13,466.984 695.108,587.269 800.86,587.269 			"/>
			<polygon fill="#892B3A" points="800.86,466.984 772.13,466.984 800.86,511.851 			"/>
			<polygon fill="#518F85" points="-1.39,587.269 -1.39,702.396 1.915,707.558 78.938,587.269 			"/>
			<polygon fill="#679F89" points="1.915,707.558 78.938,587.269 155.96,707.558 			"/>
			<polygon fill="#84A989" points="232.981,587.269 155.96,707.558 78.938,587.269 			"/>
			<polygon fill="#AAB787" points="155.96,707.558 232.981,587.269 310.002,707.558 			"/>
			<polygon fill="#C9CB8A" points="387.023,587.269 310.002,707.558 232.981,587.269 			"/>
			<polygon fill="#DCBD77" points="310.002,707.558 387.023,587.269 464.045,707.558 			"/>
			<polygon fill="#EAC57A" points="541.066,587.269 464.045,707.558 387.023,587.269 			"/>
			<polygon fill="#DCA25D" points="464.045,707.558 541.066,587.269 618.09,707.558 			"/>
			<polygon fill="#B26B50" points="695.108,587.269 618.09,707.558 541.066,587.269 			"/>
			<polygon fill="#9C5045" points="618.09,707.558 695.108,587.269 772.13,707.558 			"/>
			<polygon fill="#833639" points="800.86,587.269 695.108,587.269 772.13,707.558 800.86,662.69 			"/>
			<polygon fill="#772235" points="800.86,662.69 772.13,707.558 800.86,707.558 			"/>
			<polygon fill="#356F79" points="-1.39,801.08 61.8,801.08 1.915,707.558 -1.39,712.719 			"/>
			<polygon fill="#437C7D" points="96.076,801.08 155.96,707.558 1.915,707.558 61.8,801.08 			"/>
			<polygon fill="#7DA48A" points="215.843,801.08 155.96,707.558 96.076,801.08 			"/>
			<polygon fill="#97B287" points="250.119,801.08 310.002,707.558 155.96,707.558 215.843,801.08 			"/>
			<polygon fill="#C0C684" points="369.886,801.08 310.002,707.558 250.119,801.08 			"/>
			<polygon fill="#CFB86B" points="404.161,801.08 464.045,707.558 310.002,707.558 369.886,801.08 			"/>
			<polygon fill="#E0B76C" points="523.929,801.08 464.045,707.558 404.161,801.08 			"/>
			<polygon fill="#C38655" points="558.205,801.08 618.09,707.558 464.045,707.558 523.929,801.08 			"/>
			<polygon fill="#AC644B" points="677.972,801.08 618.09,707.558 558.205,801.08 			"/>
			<polygon fill="#894843" points="712.246,801.08 772.13,707.558 618.09,707.558 677.972,801.08 			"/>
			<polygon fill="#743A3E" points="800.86,752.425 772.13,707.558 712.246,801.08 800.86,801.08 			"/>
			<polygon fill="#69232F" points="800.86,707.558 772.13,707.558 800.86,752.425 			"/>
		</g>
		<g opacity="0.48">
			<polygon fill="#CD8237" points="-1.39,109.733 146.299,109.733 82.421,0 56.13,0 -1.39,98.815 			"/>
			<polygon fill="#E8A542" points="82.421,0 146.299,109.733 210.175,0 			"/>
			<polygon fill="#F3B050" points="210.175,0 146.299,109.733 300.342,109.733 236.466,0 			"/>
			<polygon fill="#F0AA5B" points="236.466,0 300.342,109.733 364.218,0 			"/>
			<polygon fill="#E18E4E" points="364.218,0 300.342,109.733 454.384,109.733 390.508,0 			"/>
			<polygon fill="#E1843E" points="390.508,0 454.384,109.733 518.26,0 			"/>
			<polygon fill="#F18B3B" points="518.26,0 454.384,109.733 608.427,109.733 544.551,0 			"/>
			<polygon fill="#F08D31" points="544.551,0 608.427,109.733 672.306,0 			"/>
			<polygon fill="#E7871E" points="672.306,0 608.427,109.733 762.469,109.733 698.596,0 			"/>
			<polygon fill="#E68C1D" points="800.86,0 698.596,0 762.469,109.733 800.86,43.779 			"/>
			<polygon fill="#D06118" points="800.86,43.779 762.469,109.733 800.86,109.733 			"/>
			<polygon fill="#DDA747" points="-1.39,109.733 -1.39,120.652 69.275,242.047 146.299,109.733 			"/>
			<polygon fill="#EBB849" points="69.275,242.047 146.299,109.733 223.32,242.047 			"/>
			<polygon fill="#F9CD5E" points="300.342,109.733 223.32,242.047 146.299,109.733 			"/>
			<polygon fill="#F6B962" points="223.32,242.047 300.342,109.733 377.363,242.047 			"/>
			<polygon fill="#E69F57" points="454.384,109.733 377.363,242.047 300.342,109.733 			"/>
			<polygon fill="#DE8D43" points="377.363,242.047 454.384,109.733 531.405,242.047 			"/>
			<polygon fill="#DBA149" points="608.427,109.733 531.405,242.047 454.384,109.733 			"/>
			<polygon fill="#F2B044" points="531.405,242.047 608.427,109.733 685.451,242.047 			"/>
			<polygon fill="#ECBF3B" points="762.469,109.733 685.451,242.047 608.427,109.733 			"/>
			<polygon fill="#EAA425" points="800.86,175.687 762.469,109.733 685.451,242.047 800.86,242.047 			"/>
			<polygon fill="#E8A62A" points="800.86,109.733 762.469,109.733 800.86,175.687 			"/>
			<polygon fill="#D5A459" points="-1.39,374.361 146.299,374.361 69.275,242.047 -1.39,363.443 			"/>
			<polygon fill="#E1C474" points="223.32,242.047 146.299,374.361 69.275,242.047 			"/>
			<polygon fill="#F3D475" points="146.299,374.361 223.32,242.047 300.342,374.361 			"/>
			<polygon fill="#F1CB78" points="377.363,242.047 300.342,374.361 223.32,242.047 			"/>
			<polygon fill="#F6BB68" points="300.342,374.361 377.363,242.047 454.384,374.361 			"/>
			<polygon fill="#AF794A" points="531.405,242.047 454.384,374.361 377.363,242.047 			"/>
			<polygon fill="#A36E39" points="454.384,374.361 531.405,242.047 608.427,374.361 			"/>
			<polygon fill="#C4843B" points="685.451,242.047 608.427,374.361 531.405,242.047 			"/>
			<polygon fill="#ECBF52" points="608.427,374.361 685.451,242.047 762.469,374.361 			"/>
			<polygon fill="#ECC263" points="800.86,242.047 685.451,242.047 762.469,374.361 800.86,308.408 			"/>
			<polygon fill="#E7B44D" points="800.86,308.408 762.469,374.361 800.86,374.361 			"/>
			<polygon fill="#AAC18A" points="-1.39,374.361 -1.39,385.28 69.275,506.68 146.299,374.361 			"/>
			<polygon fill="#D1CE8B" points="69.275,506.68 146.299,374.361 223.32,506.68 			"/>
			<polygon fill="#CBCB89" points="300.342,374.361 223.32,506.68 146.299,374.361 			"/>
			<polygon fill="#E8D083" points="223.32,506.68 300.342,374.361 377.363,506.68 			"/>
			<polygon fill="#D2A86C" points="454.384,374.361 377.363,506.68 300.342,374.361 			"/>
			<polygon fill="#94593E" points="377.363,506.68 454.384,374.361 531.405,506.68 			"/>
			<polygon fill="#904A36" points="608.427,374.361 531.405,506.68 454.384,374.361 			"/>
			<polygon fill="#C97D4A" points="531.405,506.68 608.427,374.361 685.451,506.68 			"/>
			<polygon fill="#D18155" points="762.469,374.361 685.451,506.68 608.427,374.361 			"/>
			<polygon fill="#D29257" points="800.86,440.316 762.469,374.361 685.451,506.68 800.86,506.68 			"/>
			<polygon fill="#BA6C50" points="800.86,374.361 762.469,374.361 800.86,440.316 			"/>
			<polygon fill="#86B684" points="-1.39,638.993 146.299,638.993 69.275,506.68 -1.39,628.075 			"/>
			<polygon fill="#7FB188" points="223.32,506.68 146.299,638.993 69.275,506.68 			"/>
			<polygon fill="#AFBD89" points="146.299,638.993 223.32,506.68 300.342,638.993 			"/>
			<polygon fill="#BDB982" points="377.363,506.68 300.342,638.993 223.32,506.68 			"/>
			<polygon fill="#D5AD71" points="300.342,638.993 377.363,506.68 454.384,638.993 			"/>
			<polygon fill="#D49C62" points="531.405,506.68 454.384,638.993 377.363,506.68 			"/>
			<polygon fill="#CC8955" points="454.384,638.993 531.405,506.68 608.427,638.993 			"/>
			<polygon fill="#DFA04F" points="685.451,506.68 608.427,638.993 531.405,506.68 			"/>
			<polygon fill="#CE7C53" points="608.427,638.993 685.451,506.68 762.469,638.993 			"/>
			<polygon fill="#A94C49" points="800.86,506.68 685.451,506.68 762.469,638.993 800.86,573.04 			"/>
			<polygon fill="#9E3B42" points="800.86,573.04 762.469,638.993 800.86,638.993 			"/>
			<polygon fill="#518F85" points="-1.39,638.993 -1.39,649.911 69.275,771.308 146.299,638.993 			"/>
			<polygon fill="#679F89" points="69.275,771.308 146.299,638.993 223.32,771.308 			"/>
			<polygon fill="#84A989" points="300.342,638.993 223.32,771.308 146.299,638.993 			"/>
			<polygon fill="#AAB787" points="223.32,771.308 300.342,638.993 377.363,771.308 			"/>
			<polygon fill="#C9CB8A" points="454.384,638.993 377.363,771.308 300.342,638.993 			"/>
			<polygon fill="#DCBD77" points="377.363,771.308 454.384,638.993 531.405,771.308 			"/>
			<polygon fill="#EAC57A" points="608.427,638.993 531.405,771.308 454.384,638.993 			"/>
			<polygon fill="#DCA25D" points="531.405,771.308 608.427,638.993 685.451,771.308 			"/>
			<polygon fill="#B26B50" points="762.469,638.993 685.451,771.308 608.427,638.993 			"/>
			<polygon fill="#9C5045" points="800.86,704.946 762.469,638.993 685.451,771.308 800.86,771.308 			"/>
			<polygon fill="#833639" points="800.86,638.993 762.469,638.993 800.86,704.946 			"/>
			<polygon fill="#356F79" points="86.606,801.08 69.275,771.308 51.945,801.08 			"/>
			<polygon fill="#437C7D" points="205.99,801.08 223.32,771.308 69.275,771.308 86.606,801.08 			"/>
			<polygon fill="#7DA48A" points="240.651,801.08 223.32,771.308 205.99,801.08 			"/>
			<polygon fill="#97B287" points="360.033,801.08 377.363,771.308 223.32,771.308 240.651,801.08 			"/>
			<polygon fill="#C0C684" points="394.694,801.08 377.363,771.308 360.033,801.08 			"/>
			<polygon fill="#CFB86B" points="514.074,801.08 531.405,771.308 377.363,771.308 394.694,801.08 			"/>
			<polygon fill="#E0B76C" points="548.736,801.08 531.405,771.308 514.074,801.08 			"/>
			<polygon fill="#C38655" points="668.12,801.08 685.451,771.308 531.405,771.308 548.736,801.08 			"/>
			<polygon fill="#AC644B" points="702.781,801.08 685.451,771.308 668.12,801.08 			"/>
			<polygon fill="#894843" points="800.86,771.308 685.451,771.308 702.781,801.08 800.86,801.08 			"/>
		</g>
		<g opacity="0.26">
			<polygon fill="#E8A542" points="-1.39,0 -1.39,14.563 7.087,0 			"/>
			<polygon fill="#F3B050" points="-1.39,71.844 119.31,71.844 77.489,0 7.087,0 -1.39,14.563 			"/>
			<polygon fill="#F0AA5B" points="77.489,0 119.31,71.844 161.13,0 			"/>
			<polygon fill="#E18E4E" points="161.13,0 119.31,71.844 273.352,71.844 231.532,0 			"/>
			<polygon fill="#E1843E" points="231.532,0 273.352,71.844 315.172,0 			"/>
			<polygon fill="#F18B3B" points="315.172,0 273.352,71.844 427.394,71.844 385.574,0 			"/>
			<polygon fill="#F08D31" points="385.574,0 427.394,71.844 469.216,0 			"/>
			<polygon fill="#E7871E" points="469.216,0 427.394,71.844 581.44,71.844 539.619,0 			"/>
			<polygon fill="#E68C1D" points="539.619,0 581.44,71.844 623.258,0 			"/>
			<polygon fill="#D06118" points="623.258,0 581.44,71.844 735.481,71.844 693.66,0 			"/>
			<polygon fill="#BF4716" points="693.66,0 735.481,71.844 777.302,0 			"/>
			<polygon fill="#EBB849" points="-1.39,129.123 -1.39,204.156 42.288,204.156 			"/>
			<polygon fill="#F9CD5E" points="-1.39,71.844 -1.39,129.123 42.288,204.156 119.31,71.844 			"/>
			<polygon fill="#F6B962" points="42.288,204.156 119.31,71.844 196.331,204.156 			"/>
			<polygon fill="#E69F57" points="273.352,71.844 196.331,204.156 119.31,71.844 			"/>
			<polygon fill="#DE8D43" points="196.331,204.156 273.352,71.844 350.374,204.156 			"/>
			<polygon fill="#DBA149" points="427.394,71.844 350.374,204.156 273.352,71.844 			"/>
			<polygon fill="#F2B044" points="350.374,204.156 427.394,71.844 504.418,204.156 			"/>
			<polygon fill="#ECBF3B" points="581.44,71.844 504.418,204.156 427.394,71.844 			"/>
			<polygon fill="#EAA425" points="504.418,204.156 581.44,71.844 658.458,204.156 			"/>
			<polygon fill="#E8A62A" points="735.481,71.844 658.458,204.156 581.44,71.844 			"/>
			<polygon fill="#D67C22" points="800.86,184.155 735.481,71.844 658.458,204.156 800.86,204.156 			"/>
			<polygon fill="#E1C474" points="-1.39,204.156 -1.39,279.19 42.288,204.156 			"/>
			<polygon fill="#F3D475" points="-1.39,336.472 119.31,336.472 42.288,204.156 -1.39,279.19 			"/>
			<polygon fill="#F1CB78" points="196.331,204.156 119.31,336.472 42.288,204.156 			"/>
			<polygon fill="#F6BB68" points="119.31,336.472 196.331,204.156 273.352,336.472 			"/>
			<polygon fill="#AF794A" points="350.374,204.156 273.352,336.472 196.331,204.156 			"/>
			<polygon fill="#A36E39" points="273.352,336.472 350.374,204.156 427.394,336.472 			"/>
			<polygon fill="#C4843B" points="504.418,204.156 427.394,336.472 350.374,204.156 			"/>
			<polygon fill="#ECBF52" points="427.394,336.472 504.418,204.156 581.44,336.472 			"/>
			<polygon fill="#ECC263" points="658.458,204.156 581.44,336.472 504.418,204.156 			"/>
			<polygon fill="#E7B44D" points="581.44,336.472 658.458,204.156 735.481,336.472 			"/>
			<polygon fill="#D89B4C" points="800.86,204.156 658.458,204.156 735.481,336.472 800.86,224.157 			"/>
			<polygon fill="#D1CE8B" points="-1.39,393.753 -1.39,468.788 42.288,468.788 			"/>
			<polygon fill="#CBCB89" points="-1.39,336.472 -1.39,393.753 42.288,468.788 119.31,336.472 			"/>
			<polygon fill="#E8D083" points="42.288,468.788 119.31,336.472 196.331,468.788 			"/>
			<polygon fill="#D2A86C" points="273.352,336.472 196.331,468.788 119.31,336.472 			"/>
			<polygon fill="#94593E" points="196.331,468.788 273.352,336.472 350.374,468.788 			"/>
			<polygon fill="#904A36" points="427.394,336.472 350.374,468.788 273.352,336.472 			"/>
			<polygon fill="#C97D4A" points="350.374,468.788 427.394,336.472 504.418,468.788 			"/>
			<polygon fill="#D18155" points="581.44,336.472 504.418,468.788 427.394,336.472 			"/>
			<polygon fill="#D29257" points="504.418,468.788 581.44,336.472 658.458,468.788 			"/>
			<polygon fill="#BA6C50" points="735.481,336.472 658.458,468.788 581.44,336.472 			"/>
			<polygon fill="#C27D4E" points="800.86,448.787 735.481,336.472 658.458,468.788 800.86,468.788 			"/>
			<polygon fill="#7FB188" points="-1.39,468.788 -1.39,543.823 42.288,468.788 			"/>
			<polygon fill="#AFBD89" points="-1.39,601.104 119.31,601.104 42.288,468.788 -1.39,543.823 			"/>
			<polygon fill="#BDB982" points="196.331,468.788 119.31,601.104 42.288,468.788 			"/>
			<polygon fill="#D5AD71" points="119.31,601.104 196.331,468.788 273.352,601.104 			"/>
			<polygon fill="#D49C62" points="350.374,468.788 273.352,601.104 196.331,468.788 			"/>
			<polygon fill="#CC8955" points="273.352,601.104 350.374,468.788 427.394,601.104 			"/>
			<polygon fill="#DFA04F" points="504.418,468.788 427.394,601.104 350.374,468.788 			"/>
			<polygon fill="#CE7C53" points="427.394,601.104 504.418,468.788 581.44,601.104 			"/>
			<polygon fill="#A94C49" points="658.458,468.788 581.44,601.104 504.418,468.788 			"/>
			<polygon fill="#9E3B42" points="581.44,601.104 658.458,468.788 735.481,601.104 			"/>
			<polygon fill="#892B3A" points="800.86,468.788 658.458,468.788 735.481,601.104 800.86,488.789 			"/>
			<polygon fill="#679F89" points="-1.39,658.384 -1.39,733.418 42.288,733.418 			"/>
			<polygon fill="#84A989" points="-1.39,601.104 -1.39,658.384 42.288,733.418 119.31,601.104 			"/>
			<polygon fill="#AAB787" points="42.288,733.418 119.31,601.104 196.331,733.418 			"/>
			<polygon fill="#C9CB8A" points="273.352,601.104 196.331,733.418 119.31,601.104 			"/>
			<polygon fill="#DCBD77" points="196.331,733.418 273.352,601.104 350.374,733.418 			"/>
			<polygon fill="#EAC57A" points="427.394,601.104 350.374,733.418 273.352,601.104 			"/>
			<polygon fill="#DCA25D" points="350.374,733.418 427.394,601.104 504.418,733.418 			"/>
			<polygon fill="#B26B50" points="581.44,601.104 504.418,733.418 427.394,601.104 			"/>
			<polygon fill="#9C5045" points="504.418,733.418 581.44,601.104 658.458,733.418 			"/>
			<polygon fill="#833639" points="735.481,601.104 658.458,733.418 581.44,601.104 			"/>
			<polygon fill="#772235" points="800.86,713.417 735.481,601.104 658.458,733.418 800.86,733.418 			"/>
			<polygon fill="#437C7D" points="-1.39,733.418 -1.39,801.08 2.901,801.08 42.288,733.418 			"/>
			<polygon fill="#7DA48A" points="81.674,801.08 42.288,733.418 2.901,801.08 			"/>
			<polygon fill="#97B287" points="156.945,801.08 196.331,733.418 42.288,733.418 81.674,801.08 			"/>
			<polygon fill="#C0C684" points="235.717,801.08 196.331,733.418 156.945,801.08 			"/>
			<polygon fill="#CFB86B" points="310.987,801.08 350.374,733.418 196.331,733.418 235.717,801.08 			"/>
			<polygon fill="#E0B76C" points="389.759,801.08 350.374,733.418 310.987,801.08 			"/>
			<polygon fill="#C38655" points="465.03,801.08 504.418,733.418 350.374,733.418 389.759,801.08 			"/>
			<polygon fill="#AC644B" points="543.804,801.08 504.418,733.418 465.03,801.08 			"/>
			<polygon fill="#894843" points="619.073,801.08 658.458,733.418 504.418,733.418 543.804,801.08 			"/>
			<polygon fill="#743A3E" points="697.845,801.08 658.458,733.418 619.073,801.08 			"/>
			<polygon fill="#69232F" points="800.86,733.418 658.458,733.418 697.845,801.08 773.117,801.08 800.86,753.419 			"/>
		</g>
	</g>
	<g opacity="0.1">
		<g>
			<polygon fill="#E8A542" points="-1.39,0 -1.39,35.464 21.318,0 			"/>
			<polygon fill="#F3B050" points="-1.39,70.192 130.415,70.192 85.47,0 21.318,0 -1.39,35.464 			"/>
			<polygon fill="#F0AA5B" points="85.47,0 130.415,70.192 175.36,0 			"/>
			<polygon fill="#E18E4E" points="175.36,0 130.415,70.192 284.457,70.192 239.512,0 			"/>
			<polygon fill="#E1843E" points="239.512,0 284.457,70.192 329.403,0 			"/>
			<polygon fill="#F18B3B" points="329.403,0 284.457,70.192 438.5,70.192 393.555,0 			"/>
			<polygon fill="#F08D31" points="393.555,0 438.5,70.192 483.446,0 			"/>
			<polygon fill="#E7871E" points="483.446,0 438.5,70.192 592.543,70.192 547.599,0 			"/>
			<polygon fill="#E68C1D" points="547.599,0 592.543,70.192 637.488,0 			"/>
			<polygon fill="#D06118" points="637.488,0 592.543,70.192 746.59,70.192 701.643,0 			"/>
			<polygon fill="#BF4716" points="701.643,0 746.59,70.192 791.533,0 			"/>
			<polygon fill="#EBB849" points="-1.39,104.92 -1.39,190.478 53.394,190.478 			"/>
			<polygon fill="#F9CD5E" points="-1.39,70.192 -1.39,104.92 53.394,190.478 130.415,70.192 			"/>
			<polygon fill="#F6B962" points="53.394,190.478 130.415,70.192 207.436,190.478 			"/>
			<polygon fill="#E69F57" points="284.457,70.192 207.436,190.478 130.415,70.192 			"/>
			<polygon fill="#DE8D43" points="207.436,190.478 284.457,70.192 361.479,190.478 			"/>
			<polygon fill="#DBA149" points="438.5,70.192 361.479,190.478 284.457,70.192 			"/>
			<polygon fill="#F2B044" points="361.479,190.478 438.5,70.192 515.523,190.478 			"/>
			<polygon fill="#ECBF3B" points="592.543,70.192 515.523,190.478 438.5,70.192 			"/>
			<polygon fill="#EAA425" points="515.523,190.478 592.543,70.192 669.564,190.478 			"/>
			<polygon fill="#E8A62A" points="746.59,70.192 669.564,190.478 592.543,70.192 			"/>
			<polygon fill="#D67C22" points="800.86,154.952 746.59,70.192 669.564,190.478 800.86,190.478 			"/>
			<polygon fill="#E1C474" points="-1.39,190.478 -1.39,276.037 53.394,190.478 			"/>
			<polygon fill="#F3D475" points="-1.39,310.765 130.415,310.765 53.394,190.478 -1.39,276.037 			"/>
			<polygon fill="#F1CB78" points="207.436,190.478 130.415,310.765 53.394,190.478 			"/>
			<polygon fill="#F6BB68" points="130.415,310.765 207.436,190.478 284.457,310.765 			"/>
			<polygon fill="#AF794A" points="361.479,190.478 284.457,310.765 207.436,190.478 			"/>
			<polygon fill="#A36E39" points="284.457,310.765 361.479,190.478 438.5,310.765 			"/>
			<polygon fill="#C4843B" points="515.523,190.478 438.5,310.765 361.479,190.478 			"/>
			<polygon fill="#ECBF52" points="438.5,310.765 515.523,190.478 592.543,310.765 			"/>
			<polygon fill="#ECC263" points="669.564,190.478 592.543,310.765 515.523,190.478 			"/>
			<polygon fill="#E7B44D" points="592.543,310.765 669.564,190.478 746.59,310.765 			"/>
			<polygon fill="#D89B4C" points="800.86,190.478 669.564,190.478 746.59,310.765 800.86,226.005 			"/>
			<polygon fill="#D1CE8B" points="-1.39,345.494 -1.39,431.053 53.394,431.053 			"/>
			<polygon fill="#CBCB89" points="-1.39,310.765 -1.39,345.494 53.394,431.053 130.415,310.765 			"/>
			<polygon fill="#E8D083" points="53.394,431.053 130.415,310.765 207.436,431.053 			"/>
			<polygon fill="#D2A86C" points="284.457,310.765 207.436,431.053 130.415,310.765 			"/>
			<polygon fill="#94593E" points="207.436,431.053 284.457,310.765 361.479,431.053 			"/>
			<polygon fill="#904A36" points="438.5,310.765 361.479,431.053 284.457,310.765 			"/>
			<polygon fill="#C97D4A" points="361.479,431.053 438.5,310.765 515.523,431.053 			"/>
			<polygon fill="#D18155" points="592.543,310.765 515.523,431.053 438.5,310.765 			"/>
			<polygon fill="#D29257" points="515.523,431.053 592.543,310.765 669.564,431.053 			"/>
			<polygon fill="#BA6C50" points="746.59,310.765 669.564,431.053 592.543,310.765 			"/>
			<polygon fill="#C27D4E" points="800.86,395.526 746.59,310.765 669.564,431.053 800.86,431.053 			"/>
			<polygon fill="#7FB188" points="-1.39,431.053 -1.39,516.608 53.394,431.053 			"/>
			<polygon fill="#AFBD89" points="-1.39,551.337 130.415,551.337 53.394,431.053 -1.39,516.608 			"/>
			<polygon fill="#BDB982" points="207.436,431.053 130.415,551.337 53.394,431.053 			"/>
			<polygon fill="#D5AD71" points="130.415,551.337 207.436,431.053 284.457,551.337 			"/>
			<polygon fill="#D49C62" points="361.479,431.053 284.457,551.337 207.436,431.053 			"/>
			<polygon fill="#CC8955" points="284.457,551.337 361.479,431.053 438.5,551.337 			"/>
			<polygon fill="#DFA04F" points="515.523,431.053 438.5,551.337 361.479,431.053 			"/>
			<polygon fill="#CE7C53" points="438.5,551.337 515.523,431.053 592.543,551.337 			"/>
			<polygon fill="#A94C49" points="669.564,431.053 592.543,551.337 515.523,431.053 			"/>
			<polygon fill="#9E3B42" points="592.543,551.337 669.564,431.053 746.59,551.337 			"/>
			<polygon fill="#892B3A" points="800.86,431.053 669.564,431.053 746.59,551.337 800.86,466.578 			"/>
			<polygon fill="#679F89" points="-1.39,586.066 -1.39,671.626 53.394,671.626 			"/>
			<polygon fill="#84A989" points="-1.39,551.337 -1.39,586.066 53.394,671.626 130.415,551.337 			"/>
			<polygon fill="#AAB787" points="53.394,671.626 130.415,551.337 207.436,671.626 			"/>
			<polygon fill="#C9CB8A" points="284.457,551.337 207.436,671.626 130.415,551.337 			"/>
			<polygon fill="#DCBD77" points="207.436,671.626 284.457,551.337 361.479,671.626 			"/>
			<polygon fill="#EAC57A" points="438.5,551.337 361.479,671.626 284.457,551.337 			"/>
			<polygon fill="#DCA25D" points="361.479,671.626 438.5,551.337 515.523,671.626 			"/>
			<polygon fill="#B26B50" points="592.543,551.337 515.523,671.626 438.5,551.337 			"/>
			<polygon fill="#9C5045" points="515.523,671.626 592.543,551.337 669.564,671.626 			"/>
			<polygon fill="#833639" points="746.59,551.337 669.564,671.626 592.543,551.337 			"/>
			<polygon fill="#772235" points="800.86,636.099 746.59,551.337 669.564,671.626 800.86,671.626 			"/>
			<polygon fill="#437C7D" points="-1.39,671.626 -1.39,757.184 53.394,671.626 			"/>
			<polygon fill="#7DA48A" points="-1.39,791.913 130.415,791.913 53.394,671.626 -1.39,757.184 			"/>
			<polygon fill="#97B287" points="207.436,671.626 130.415,791.913 53.394,671.626 			"/>
			<polygon fill="#C0C684" points="130.415,791.913 207.436,671.626 284.457,791.913 			"/>
			<polygon fill="#CFB86B" points="361.479,671.626 284.457,791.913 207.436,671.626 			"/>
			<polygon fill="#E0B76C" points="284.457,791.913 361.479,671.626 438.5,791.913 			"/>
			<polygon fill="#C38655" points="515.523,671.626 438.5,791.913 361.479,671.626 			"/>
			<polygon fill="#AC644B" points="438.5,791.913 515.523,671.626 592.543,791.913 			"/>
			<polygon fill="#894843" points="669.564,671.626 592.543,791.913 515.523,671.626 			"/>
			<polygon fill="#743A3E" points="592.543,791.913 669.564,671.626 746.59,791.913 			"/>
			<polygon fill="#69232F" points="800.86,671.626 669.564,671.626 746.59,791.913 800.86,707.152 			"/>
		</g>
		<g opacity="0.48">
			<polygon fill="#CD8237" points="-1.39,73.802 43.733,73.802 0.772,0 -1.39,0 			"/>
			<polygon fill="#E8A542" points="0.772,0 43.733,73.802 86.693,0 			"/>
			<polygon fill="#F3B050" points="86.693,0 43.733,73.802 197.776,73.802 154.815,0 			"/>
			<polygon fill="#F0AA5B" points="154.815,0 197.776,73.802 240.736,0 			"/>
			<polygon fill="#E18E4E" points="240.736,0 197.776,73.802 351.818,73.802 308.858,0 			"/>
			<polygon fill="#E1843E" points="308.858,0 351.818,73.802 394.778,0 			"/>
			<polygon fill="#F18B3B" points="394.778,0 351.818,73.802 505.861,73.802 462.901,0 			"/>
			<polygon fill="#F08D31" points="462.901,0 505.861,73.802 548.822,0 			"/>
			<polygon fill="#E7871E" points="548.822,0 505.861,73.802 659.902,73.802 616.944,0 			"/>
			<polygon fill="#E68C1D" points="616.944,0 659.902,73.802 702.862,0 			"/>
			<polygon fill="#D06118" points="800.86,51.32 770.986,0 702.862,0 659.902,73.802 800.86,73.802 			"/>
			<polygon fill="#BF4716" points="800.86,0 770.986,0 800.86,51.32 			"/>
			<polygon fill="#DDA747" points="-1.39,73.802 -1.39,151.316 43.733,73.802 			"/>
			<polygon fill="#EBB849" points="-1.39,206.116 120.754,206.116 43.733,73.802 -1.39,151.316 			"/>
			<polygon fill="#F9CD5E" points="197.776,73.802 120.754,206.116 43.733,73.802 			"/>
			<polygon fill="#F6B962" points="120.754,206.116 197.776,73.802 274.797,206.116 			"/>
			<polygon fill="#E69F57" points="351.818,73.802 274.797,206.116 197.776,73.802 			"/>
			<polygon fill="#DE8D43" points="274.797,206.116 351.818,73.802 428.84,206.116 			"/>
			<polygon fill="#DBA149" points="505.861,73.802 428.84,206.116 351.818,73.802 			"/>
			<polygon fill="#F2B044" points="428.84,206.116 505.861,73.802 582.885,206.116 			"/>
			<polygon fill="#ECBF3B" points="659.902,73.802 582.885,206.116 505.861,73.802 			"/>
			<polygon fill="#EAA425" points="582.885,206.116 659.902,73.802 736.924,206.116 			"/>
			<polygon fill="#E8A62A" points="800.86,73.802 659.902,73.802 736.924,206.116 800.86,96.283 			"/>
			<polygon fill="#D67C22" points="800.86,96.283 736.924,206.116 800.86,206.116 			"/>
			<polygon fill="#D5A459" points="-1.39,260.915 -1.39,338.43 43.733,338.43 			"/>
			<polygon fill="#E1C474" points="-1.39,206.116 -1.39,260.915 43.733,338.43 120.754,206.116 			"/>
			<polygon fill="#F3D475" points="43.733,338.43 120.754,206.116 197.776,338.43 			"/>
			<polygon fill="#F1CB78" points="274.797,206.116 197.776,338.43 120.754,206.116 			"/>
			<polygon fill="#F6BB68" points="197.776,338.43 274.797,206.116 351.818,338.43 			"/>
			<polygon fill="#AF794A" points="428.84,206.116 351.818,338.43 274.797,206.116 			"/>
			<polygon fill="#A36E39" points="351.818,338.43 428.84,206.116 505.861,338.43 			"/>
			<polygon fill="#C4843B" points="582.885,206.116 505.861,338.43 428.84,206.116 			"/>
			<polygon fill="#ECBF52" points="505.861,338.43 582.885,206.116 659.902,338.43 			"/>
			<polygon fill="#ECC263" points="736.924,206.116 659.902,338.43 582.885,206.116 			"/>
			<polygon fill="#E7B44D" points="800.86,315.948 736.924,206.116 659.902,338.43 800.86,338.43 			"/>
			<polygon fill="#D89B4C" points="800.86,206.116 736.924,206.116 800.86,315.948 			"/>
			<polygon fill="#AAC18A" points="-1.39,338.43 -1.39,415.947 43.733,338.43 			"/>
			<polygon fill="#D1CE8B" points="-1.39,470.748 120.754,470.748 43.733,338.43 -1.39,415.947 			"/>
			<polygon fill="#CBCB89" points="197.776,338.43 120.754,470.748 43.733,338.43 			"/>
			<polygon fill="#E8D083" points="120.754,470.748 197.776,338.43 274.797,470.748 			"/>
			<polygon fill="#D2A86C" points="351.818,338.43 274.797,470.748 197.776,338.43 			"/>
			<polygon fill="#94593E" points="274.797,470.748 351.818,338.43 428.84,470.748 			"/>
			<polygon fill="#904A36" points="505.861,338.43 428.84,470.748 351.818,338.43 			"/>
			<polygon fill="#C97D4A" points="428.84,470.748 505.861,338.43 582.885,470.748 			"/>
			<polygon fill="#D18155" points="659.902,338.43 582.885,470.748 505.861,338.43 			"/>
			<polygon fill="#D29257" points="582.885,470.748 659.902,338.43 736.924,470.748 			"/>
			<polygon fill="#BA6C50" points="800.86,338.43 659.902,338.43 736.924,470.748 800.86,360.912 			"/>
			<polygon fill="#C27D4E" points="800.86,360.912 736.924,470.748 800.86,470.748 			"/>
			<polygon fill="#86B684" points="-1.39,525.547 -1.39,603.062 43.733,603.062 			"/>
			<polygon fill="#7FB188" points="-1.39,470.748 -1.39,525.547 43.733,603.062 120.754,470.748 			"/>
			<polygon fill="#AFBD89" points="43.733,603.062 120.754,470.748 197.776,603.062 			"/>
			<polygon fill="#BDB982" points="274.797,470.748 197.776,603.062 120.754,470.748 			"/>
			<polygon fill="#D5AD71" points="197.776,603.062 274.797,470.748 351.818,603.062 			"/>
			<polygon fill="#D49C62" points="428.84,470.748 351.818,603.062 274.797,470.748 			"/>
			<polygon fill="#CC8955" points="351.818,603.062 428.84,470.748 505.861,603.062 			"/>
			<polygon fill="#DFA04F" points="582.885,470.748 505.861,603.062 428.84,470.748 			"/>
			<polygon fill="#CE7C53" points="505.861,603.062 582.885,470.748 659.902,603.062 			"/>
			<polygon fill="#A94C49" points="736.924,470.748 659.902,603.062 582.885,470.748 			"/>
			<polygon fill="#9E3B42" points="800.86,580.58 736.924,470.748 659.902,603.062 800.86,603.062 			"/>
			<polygon fill="#892B3A" points="800.86,470.748 736.924,470.748 800.86,580.58 			"/>
			<polygon fill="#518F85" points="-1.39,603.062 -1.39,680.576 43.733,603.062 			"/>
			<polygon fill="#679F89" points="-1.39,735.376 120.754,735.376 43.733,603.062 -1.39,680.576 			"/>
			<polygon fill="#84A989" points="197.776,603.062 120.754,735.376 43.733,603.062 			"/>
			<polygon fill="#AAB787" points="120.754,735.376 197.776,603.062 274.797,735.376 			"/>
			<polygon fill="#C9CB8A" points="351.818,603.062 274.797,735.376 197.776,603.062 			"/>
			<polygon fill="#DCBD77" points="274.797,735.376 351.818,603.062 428.84,735.376 			"/>
			<polygon fill="#EAC57A" points="505.861,603.062 428.84,735.376 351.818,603.062 			"/>
			<polygon fill="#DCA25D" points="428.84,735.376 505.861,603.062 582.885,735.376 			"/>
			<polygon fill="#B26B50" points="659.902,603.062 582.885,735.376 505.861,603.062 			"/>
			<polygon fill="#9C5045" points="582.885,735.376 659.902,603.062 736.924,735.376 			"/>
			<polygon fill="#833639" points="800.86,603.062 659.902,603.062 736.924,735.376 800.86,625.543 			"/>
			<polygon fill="#772235" points="800.86,625.543 736.924,735.376 800.86,735.376 			"/>
			<polygon fill="#356F79" points="-1.39,790.176 -1.39,801.08 4.957,801.08 			"/>
			<polygon fill="#437C7D" points="-1.39,735.376 -1.39,790.176 4.957,801.08 82.508,801.08 120.754,735.376 			"/>
			<polygon fill="#7DA48A" points="159.001,801.08 120.754,735.376 82.508,801.08 			"/>
			<polygon fill="#97B287" points="236.551,801.08 274.797,735.376 120.754,735.376 159.001,801.08 			"/>
			<polygon fill="#C0C684" points="313.043,801.08 274.797,735.376 236.551,801.08 			"/>
			<polygon fill="#CFB86B" points="390.593,801.08 428.84,735.376 274.797,735.376 313.043,801.08 			"/>
			<polygon fill="#E0B76C" points="467.086,801.08 428.84,735.376 390.593,801.08 			"/>
			<polygon fill="#C38655" points="544.638,801.08 582.885,735.376 428.84,735.376 467.086,801.08 			"/>
			<polygon fill="#AC644B" points="621.129,801.08 582.885,735.376 544.638,801.08 			"/>
			<polygon fill="#894843" points="698.678,801.08 736.924,735.376 582.885,735.376 621.129,801.08 			"/>
			<polygon fill="#743A3E" points="775.171,801.08 736.924,735.376 698.678,801.08 			"/>
			<polygon fill="#69232F" points="800.86,735.376 736.924,735.376 775.171,801.08 800.86,801.08 			"/>
		</g>
		<g opacity="0.26">
			<polygon fill="#F3B050" points="-1.39,4.76 -1.39,35.912 16.744,35.912 			"/>
			<polygon fill="#F0AA5B" points="-1.39,0 -1.39,4.76 16.744,35.912 37.648,0 			"/>
			<polygon fill="#E18E4E" points="37.648,0 16.744,35.912 170.786,35.912 149.882,0 			"/>
			<polygon fill="#E1843E" points="149.882,0 170.786,35.912 191.69,0 			"/>
			<polygon fill="#F18B3B" points="191.69,0 170.786,35.912 324.828,35.912 303.923,0 			"/>
			<polygon fill="#F08D31" points="303.923,0 324.828,35.912 345.733,0 			"/>
			<polygon fill="#E7871E" points="345.733,0 324.828,35.912 478.873,35.912 457.969,0 			"/>
			<polygon fill="#E68C1D" points="457.969,0 478.873,35.912 499.777,0 			"/>
			<polygon fill="#D06118" points="499.777,0 478.873,35.912 632.916,35.912 612.011,0 			"/>
			<polygon fill="#BF4716" points="612.011,0 632.916,35.912 653.82,0 			"/>
			<polygon fill="#F9CD5E" points="-1.39,35.912 -1.39,67.064 16.744,35.912 			"/>
			<polygon fill="#F6B962" points="-1.39,168.224 93.765,168.224 16.744,35.912 -1.39,67.064 			"/>
			<polygon fill="#E69F57" points="170.786,35.912 93.765,168.224 16.744,35.912 			"/>
			<polygon fill="#DE8D43" points="93.765,168.224 170.786,35.912 247.808,168.224 			"/>
			<polygon fill="#DBA149" points="324.828,35.912 247.808,168.224 170.786,35.912 			"/>
			<polygon fill="#F2B044" points="247.808,168.224 324.828,35.912 401.852,168.224 			"/>
			<polygon fill="#ECBF3B" points="478.873,35.912 401.852,168.224 324.828,35.912 			"/>
			<polygon fill="#EAA425" points="401.852,168.224 478.873,35.912 555.893,168.224 			"/>
			<polygon fill="#E8A62A" points="632.916,35.912 555.893,168.224 478.873,35.912 			"/>
			<polygon fill="#D67C22" points="555.893,168.224 632.916,35.912 709.938,168.224 			"/>
			<polygon fill="#F3D475" points="-1.39,269.388 -1.39,300.54 16.744,300.54 			"/>
			<polygon fill="#F1CB78" points="-1.39,168.224 -1.39,269.388 16.744,300.54 93.765,168.224 			"/>
			<polygon fill="#F6BB68" points="16.744,300.54 93.765,168.224 170.786,300.54 			"/>
			<polygon fill="#AF794A" points="247.808,168.224 170.786,300.54 93.765,168.224 			"/>
			<polygon fill="#A36E39" points="170.786,300.54 247.808,168.224 324.828,300.54 			"/>
			<polygon fill="#C4843B" points="401.852,168.224 324.828,300.54 247.808,168.224 			"/>
			<polygon fill="#ECBF52" points="324.828,300.54 401.852,168.224 478.873,300.54 			"/>
			<polygon fill="#ECC263" points="555.893,168.224 478.873,300.54 401.852,168.224 			"/>
			<polygon fill="#E7B44D" points="478.873,300.54 555.893,168.224 632.916,300.54 			"/>
			<polygon fill="#D89B4C" points="709.938,168.224 632.916,300.54 555.893,168.224 			"/>
			<polygon fill="#CBCB89" points="-1.39,300.54 -1.39,331.692 16.744,300.54 			"/>
			<polygon fill="#E8D083" points="-1.39,432.856 93.765,432.856 16.744,300.54 -1.39,331.692 			"/>
			<polygon fill="#D2A86C" points="170.786,300.54 93.765,432.856 16.744,300.54 			"/>
			<polygon fill="#94593E" points="93.765,432.856 170.786,300.54 247.808,432.856 			"/>
			<polygon fill="#904A36" points="324.828,300.54 247.808,432.856 170.786,300.54 			"/>
			<polygon fill="#C97D4A" points="247.808,432.856 324.828,300.54 401.852,432.856 			"/>
			<polygon fill="#D18155" points="478.873,300.54 401.852,432.856 324.828,300.54 			"/>
			<polygon fill="#D29257" points="401.852,432.856 478.873,300.54 555.893,432.856 			"/>
			<polygon fill="#BA6C50" points="632.916,300.54 555.893,432.856 478.873,300.54 			"/>
			<polygon fill="#C27D4E" points="555.893,432.856 632.916,300.54 709.938,432.856 			"/>
			<polygon fill="#AFBD89" points="-1.39,534.021 -1.39,565.173 16.744,565.173 			"/>
			<polygon fill="#BDB982" points="-1.39,432.856 -1.39,534.021 16.744,565.173 93.765,432.856 			"/>
			<polygon fill="#D5AD71" points="16.744,565.173 93.765,432.856 170.786,565.173 			"/>
			<polygon fill="#D49C62" points="247.808,432.856 170.786,565.173 93.765,432.856 			"/>
			<polygon fill="#CC8955" points="170.786,565.173 247.808,432.856 324.828,565.173 			"/>
			<polygon fill="#DFA04F" points="401.852,432.856 324.828,565.173 247.808,432.856 			"/>
			<polygon fill="#CE7C53" points="324.828,565.173 401.852,432.856 478.873,565.173 			"/>
			<polygon fill="#A94C49" points="555.893,432.856 478.873,565.173 401.852,432.856 			"/>
			<polygon fill="#9E3B42" points="478.873,565.173 555.893,432.856 632.916,565.173 			"/>
			<polygon fill="#892B3A" points="709.938,432.856 632.916,565.173 555.893,432.856 			"/>
			<polygon fill="#84A989" points="-1.39,565.173 -1.39,596.324 16.744,565.173 			"/>
			<polygon fill="#AAB787" points="-1.39,697.486 93.765,697.486 16.744,565.173 -1.39,596.324 			"/>
			<polygon fill="#C9CB8A" points="170.786,565.173 93.765,697.486 16.744,565.173 			"/>
			<polygon fill="#DCBD77" points="93.765,697.486 170.786,565.173 247.808,697.486 			"/>
			<polygon fill="#EAC57A" points="324.828,565.173 247.808,697.486 170.786,565.173 			"/>
			<polygon fill="#DCA25D" points="247.808,697.486 324.828,565.173 401.852,697.486 			"/>
			<polygon fill="#B26B50" points="478.873,565.173 401.852,697.486 324.828,565.173 			"/>
			<polygon fill="#9C5045" points="401.852,697.486 478.873,565.173 555.893,697.486 			"/>
			<polygon fill="#833639" points="632.916,565.173 555.893,697.486 478.873,565.173 			"/>
			<polygon fill="#772235" points="555.893,697.486 632.916,565.173 709.938,697.486 			"/>
			<polygon fill="#97B287" points="-1.39,697.486 -1.39,798.65 0.024,801.08 33.463,801.08 93.765,697.486 			"/>
			<polygon fill="#C0C684" points="154.066,801.08 93.765,697.486 33.463,801.08 			"/>
			<polygon fill="#CFB86B" points="187.506,801.08 247.808,697.486 93.765,697.486 154.066,801.08 			"/>
			<polygon fill="#E0B76C" points="308.108,801.08 247.808,697.486 187.506,801.08 			"/>
			<polygon fill="#C38655" points="341.548,801.08 401.852,697.486 247.808,697.486 308.108,801.08 			"/>
			<polygon fill="#AC644B" points="462.153,801.08 401.852,697.486 341.548,801.08 			"/>
			<polygon fill="#894843" points="495.592,801.08 555.893,697.486 401.852,697.486 462.153,801.08 			"/>
			<polygon fill="#743A3E" points="616.196,801.08 555.893,697.486 495.592,801.08 			"/>
			<polygon fill="#69232F" points="649.636,801.08 709.938,697.486 555.893,697.486 616.196,801.08 			"/>
		</g>
	</g>
</g>
<g id="OBJECT">
	<g>
		<g>
			<g>
				<path fill="#FFFFFF" d="M449.439,294.396c-0.037,0.024-0.076,0.048-0.115,0.072c0.662,0.012,1.311-0.02,1.94-0.085l-0.328,0.022
					l-0.984,0.031l-0.084-0.007l-0.135-0.04l-0.031-0.186l-0.188,0.118L449.439,294.396z M433.381,248.822
					c0.539,0.728,1.092,1.321,1.707,1.837c0.111,0.092,0.221,0.186,0.34,0.271c0,0,0.195,0.147,0.197,0.147
					c-0.01-0.063-0.022-0.128-0.031-0.192l-0.234-0.132c-0.045-0.026-0.1-0.067-0.154-0.11l-0.072-0.053
					c-0.103-0.075-0.211-0.165-0.312-0.25l-0.113-0.094c-0.223-0.201-0.502-0.461-0.764-0.754
					C433.756,249.283,433.568,249.061,433.381,248.822z"/>
			</g>
		</g>
	</g>
</g>
</svg>
