<?xml version="1.0" encoding="utf-8"?>
<!-- Generator: Adobe Illustrator 17.0.0, SVG Export Plug-In . SVG Version: 6.00 Build 0)  -->
<!DOCTYPE svg PUBLIC "-//W3C//DTD SVG 1.1//EN" "http://www.w3.org/Graphics/SVG/1.1/DTD/svg11.dtd">
<svg version="1.1" xmlns="http://www.w3.org/2000/svg" xmlns:xlink="http://www.w3.org/1999/xlink" x="0px" y="0px"
	 width="595.28px" height="841.89px" viewBox="0 0 595.28 841.89" enable-background="new 0 0 595.28 841.89" xml:space="preserve">
<g>
	
		<linearGradient id="SVGID_1_" gradientUnits="userSpaceOnUse" x1="2438.8125" y1="-358.4324" x2="2238.1306" y2="-358.4324" gradientTransform="matrix(-4.489659e-11 -1 -1 4.489659e-11 -175.678 3056.6638)">
		<stop  offset="0.5576" style="stop-color:#D01126"/>
		<stop  offset="0.5625" style="stop-color:#D22125"/>
		<stop  offset="0.5903" style="stop-color:#DB521F"/>
		<stop  offset="0.6197" style="stop-color:#E37314"/>
		<stop  offset="0.6505" style="stop-color:#EA8C00"/>
		<stop  offset="0.683" style="stop-color:#F19E00"/>
		<stop  offset="0.7183" style="stop-color:#F5AB00"/>
		<stop  offset="0.758" style="stop-color:#F8B300"/>
		<stop  offset="0.8121" style="stop-color:#F8B500"/>
	</linearGradient>
	<polygon fill="url(#SVGID_1_)" points="137.113,624.041 228.396,753.214 156.228,798.671 144.65,784.571 	"/>
	<polygon fill="#3B2E49" points="288.739,657.525 297.17,757.172 388.771,715.824 397.365,447.64 343.104,469.732 	"/>
	<polygon fill="#3B2E49" points="249.626,801.875 475.027,784.304 297.17,757.172 	"/>
	<polygon fill="#93C753" points="249.626,801.875 297.17,757.172 288.739,657.527 272.163,680.706 	"/>
	
		<linearGradient id="SVGID_2_" gradientUnits="userSpaceOnUse" x1="1176.0702" y1="-67.5184" x2="1142.9303" y2="-101.5789" gradientTransform="matrix(-1 0 0 1 1424.3181 805.3826)">
		<stop  offset="0.2754" style="stop-color:#55285F"/>
		<stop  offset="0.2942" style="stop-color:#652562"/>
		<stop  offset="0.3547" style="stop-color:#8C1B6B"/>
		<stop  offset="0.4168" style="stop-color:#AA0B71"/>
		<stop  offset="0.4794" style="stop-color:#C10076"/>
		<stop  offset="0.5427" style="stop-color:#D1007A"/>
		<stop  offset="0.607" style="stop-color:#DC007D"/>
		<stop  offset="0.6728" style="stop-color:#E2007E"/>
		<stop  offset="0.7425" style="stop-color:#E4007F"/>
	</linearGradient>
	<polygon fill="url(#SVGID_2_)" points="228.396,753.214 276.312,747.741 288.739,657.527 272.163,680.706 	"/>
	
		<linearGradient id="SVGID_3_" gradientUnits="userSpaceOnUse" x1="1071.2738" y1="-4032.6045" x2="1109.7832" y2="-4050.5347" gradientTransform="matrix(1 0 0 1 -893.9524 4718.6201)">
		<stop  offset="0.3653" style="stop-color:#55285F"/>
		<stop  offset="0.3925" style="stop-color:#782166"/>
		<stop  offset="0.4234" style="stop-color:#95176D"/>
		<stop  offset="0.4578" style="stop-color:#AD0872"/>
		<stop  offset="0.4952" style="stop-color:#BF0076"/>
		<stop  offset="0.537" style="stop-color:#CE0079"/>
		<stop  offset="0.5847" style="stop-color:#D8007C"/>
		<stop  offset="0.6421" style="stop-color:#DF007E"/>
		<stop  offset="0.7191" style="stop-color:#E3007F"/>
		<stop  offset="0.8982" style="stop-color:#E4007F"/>
	</linearGradient>
	<polygon fill="url(#SVGID_3_)" points="137.113,624.041 228.396,753.214 276.312,747.741 148.325,591.7 	"/>
	<polygon fill="#E4007F" points="137.113,624.041 228.396,753.214 148.325,591.7 	"/>
	
		<linearGradient id="SVGID_4_" gradientUnits="userSpaceOnUse" x1="1067.9427" y1="31.9641" x2="1059.8446" y2="-28.2729" gradientTransform="matrix(-1 0 0 1 1424.3181 805.3826)">
		<stop  offset="0.3636" style="stop-color:#55285F"/>
		<stop  offset="0.4043" style="stop-color:#7D1F67"/>
		<stop  offset="0.4515" style="stop-color:#A1126F"/>
		<stop  offset="0.4986" style="stop-color:#BB0075"/>
		<stop  offset="0.5449" style="stop-color:#CE0079"/>
		<stop  offset="0.5899" style="stop-color:#DB007C"/>
		<stop  offset="0.6331" style="stop-color:#E2007E"/>
		<stop  offset="0.6727" style="stop-color:#E4007F"/>
	</linearGradient>
	<polygon fill="url(#SVGID_4_)" points="249.626,801.875 428.739,822.559 475.024,784.304 	"/>
	<polygon fill="#FCDBAB" points="137.113,624.041 228.396,753.214 100.333,724.421 	"/>
	<polygon fill="#00AEB7" points="137.113,624.041 81.394,707.548 150.044,686.371 	"/>
	
		<linearGradient id="SVGID_5_" gradientUnits="userSpaceOnUse" x1="1320.0295" y1="-150.0698" x2="1238.1504" y2="-123.9016" gradientTransform="matrix(-1 0 0 1 1424.3181 805.3826)">
		<stop  offset="0.2061" style="stop-color:#601986"/>
		<stop  offset="0.2096" style="stop-color:#5F2288"/>
		<stop  offset="0.2288" style="stop-color:#574794"/>
		<stop  offset="0.2504" style="stop-color:#4B629F"/>
		<stop  offset="0.2737" style="stop-color:#3A78A9"/>
		<stop  offset="0.299" style="stop-color:#2288AF"/>
		<stop  offset="0.327" style="stop-color:#0095B3"/>
		<stop  offset="0.3586" style="stop-color:#009FB5"/>
		<stop  offset="0.3955" style="stop-color:#00A6B7"/>
		<stop  offset="0.4411" style="stop-color:#00ABB7"/>
		<stop  offset="0.505" style="stop-color:#00ADB8"/>
		<stop  offset="0.6826" style="stop-color:#00AEB7"/>
	</linearGradient>
	<polygon fill="url(#SVGID_5_)" points="109.717,698.811 137.113,624.041 150.044,686.371 	"/>
	<polygon fill="#3B2E49" points="595.266,841.89 476.536,841.868 513.817,709.174 595.266,841.868 595.28,841.868 595.273,841.879 
		595.28,841.89 	"/>
	<polygon fill="#E4007F" points="513.817,709.174 552.018,841.89 476.536,841.868 	"/>
	<polygon fill="#00AEB7" points="595.266,841.89 567.207,841.868 513.817,709.174 595.266,841.868 595.28,841.868 595.273,841.879 
		595.28,841.89 	"/>
	<polygon fill="#FCDBAB" points="513.817,709.174 595.28,734.851 595.28,841.868 595.266,841.868 	"/>
	<polygon fill="#93C753" points="595.28,841.868 595.28,841.89 595.273,841.879 	"/>
	<polygon fill="#FCDBAB" points="249.626,801.875 428.739,822.559 455.633,841.868 339.341,841.879 	"/>
	<polygon fill="#3B2E49" points="148.325,591.7 272.163,680.706 250.612,716.406 	"/>
	<polygon fill="#FCDBAB" points="297.17,757.172 475.027,784.304 422.277,762.234 388.771,715.827 	"/>
	
		<linearGradient id="SVGID_6_" gradientUnits="userSpaceOnUse" x1="886.701" y1="117.4993" x2="841.7814" y2="17.9554" gradientTransform="matrix(4.489659e-11 1 -1 4.489659e-11 520.3132 -98.6233)">
		<stop  offset="0.2545" style="stop-color:#1E2D56"/>
		<stop  offset="0.258" style="stop-color:#213256"/>
		<stop  offset="0.2771" style="stop-color:#33495A"/>
		<stop  offset="0.2986" style="stop-color:#46625C"/>
		<stop  offset="0.3216" style="stop-color:#58795E"/>
		<stop  offset="0.3467" style="stop-color:#678E5E"/>
		<stop  offset="0.3745" style="stop-color:#74A05C"/>
		<stop  offset="0.4058" style="stop-color:#7FAE5A"/>
		<stop  offset="0.4424" style="stop-color:#88BA57"/>
		<stop  offset="0.4876" style="stop-color:#8FC255"/>
		<stop  offset="0.5511" style="stop-color:#92C654"/>
		<stop  offset="0.7273" style="stop-color:#93C753"/>
	</linearGradient>
	<path fill="url(#SVGID_6_)" d="M475.027,784.304l-0.003-0.005v0.003L475.027,784.304z M422.277,762.234l52.732,22.062l0.015,0.003
		l38.793-75.125L422.277,762.234z"/>
	<polygon fill="#3B2E49" points="455.633,841.89 455.665,841.89 455.649,841.879 455.665,841.868 455.633,841.868 428.739,822.559 
		475.022,784.304 475.027,784.304 475.024,784.301 513.817,709.174 476.536,841.868 476.531,841.868 476.534,841.879 
		476.531,841.89 476.536,841.89 	"/>
	<polygon fill="#3B2E49" points="513.817,709.214 595.28,734.891 595.28,615.796 	"/>
	
		<linearGradient id="SVGID_7_" gradientUnits="userSpaceOnUse" x1="2458.3379" y1="-587.0413" x2="2541.1555" y2="-746.2556" gradientTransform="matrix(-4.489659e-11 -1 -1 4.489659e-11 -175.678 3056.6638)">
		<stop  offset="0.2061" style="stop-color:#601986"/>
		<stop  offset="0.2074" style="stop-color:#601B86"/>
		<stop  offset="0.2347" style="stop-color:#584393"/>
		<stop  offset="0.2639" style="stop-color:#4D5F9E"/>
		<stop  offset="0.2964" style="stop-color:#3D75A8"/>
		<stop  offset="0.3315" style="stop-color:#2687AE"/>
		<stop  offset="0.3699" style="stop-color:#0094B3"/>
		<stop  offset="0.4128" style="stop-color:#009EB5"/>
		<stop  offset="0.4623" style="stop-color:#00A6B7"/>
		<stop  offset="0.5222" style="stop-color:#00ABB7"/>
		<stop  offset="0.6036" style="stop-color:#00ADB8"/>
		<stop  offset="0.8024" style="stop-color:#00AEB7"/>
	</linearGradient>
	<polygon fill="url(#SVGID_7_)" points="595.28,615.796 513.817,709.214 342.948,469.732 397.662,447.64 	"/>
	<polygon fill="#00AEB7" points="513.817,709.214 342.948,469.732 397.662,447.64 	"/>
	
		<linearGradient id="SVGID_8_" gradientUnits="userSpaceOnUse" x1="966.2386" y1="-232.8222" x2="1046.0204" y2="-165.3152" gradientTransform="matrix(-1 0 0 1 1424.3181 805.3826)">
		<stop  offset="0.2727" style="stop-color:#1E2D56"/>
		<stop  offset="0.2761" style="stop-color:#213256"/>
		<stop  offset="0.2944" style="stop-color:#33495A"/>
		<stop  offset="0.315" style="stop-color:#46625C"/>
		<stop  offset="0.3372" style="stop-color:#58795E"/>
		<stop  offset="0.3614" style="stop-color:#678E5E"/>
		<stop  offset="0.3881" style="stop-color:#74A05C"/>
		<stop  offset="0.4182" style="stop-color:#7FAE5A"/>
		<stop  offset="0.4534" style="stop-color:#88BA57"/>
		<stop  offset="0.4969" style="stop-color:#8FC255"/>
		<stop  offset="0.5579" style="stop-color:#92C654"/>
		<stop  offset="0.7273" style="stop-color:#93C753"/>
	</linearGradient>
	<polygon fill="url(#SVGID_8_)" points="388.771,715.824 394.275,541.927 440.682,606.779 388.771,715.827 	"/>
	<polygon fill="#3B2E49" points="259.334,749.679 249.626,801.875 339.341,841.879 295.644,841.868 219.391,798.671 	"/>
	<polygon fill="#3B2E49" points="125.341,841.868 47.296,841.89 47.296,841.868 156.228,798.671 	"/>
	<polygon fill="#00AEB7" points="156.228,798.671 285.906,841.868 103.735,841.868 	"/>
	
		<linearGradient id="SVGID_9_" gradientUnits="userSpaceOnUse" x1="1166.8005" y1="59.7789" x2="1166.8005" y2="-30.6459" gradientTransform="matrix(-1 0 0 1 1424.3181 805.3826)">
		<stop  offset="0.2061" style="stop-color:#55285F"/>
		<stop  offset="0.2159" style="stop-color:#5E2661"/>
		<stop  offset="0.2694" style="stop-color:#831E69"/>
		<stop  offset="0.3264" style="stop-color:#A1126F"/>
		<stop  offset="0.3864" style="stop-color:#B80074"/>
		<stop  offset="0.4499" style="stop-color:#C90078"/>
		<stop  offset="0.5185" style="stop-color:#D5007B"/>
		<stop  offset="0.5944" style="stop-color:#DE007D"/>
		<stop  offset="0.6835" style="stop-color:#E3007F"/>
		<stop  offset="0.8182" style="stop-color:#E4007F"/>
	</linearGradient>
	<polygon fill="url(#SVGID_9_)" points="285.906,841.868 219.391,819.71 219.391,798.671 295.644,841.868 	"/>
	<polygon fill="#93C753" points="103.707,841.89 103.721,841.879 103.707,841.868 103.735,841.868 156.228,798.671 125.341,841.868 
		103.735,841.89 	"/>
	<path fill="#E4007F" d="M144.65,784.571l-97.354,57.298l108.932-43.197L144.65,784.571z"/>
	
		<linearGradient id="SVGID_10_" gradientUnits="userSpaceOnUse" x1="1466.3406" y1="-75.0124" x2="1268.2666" y2="-75.0124" gradientTransform="matrix(-1 0 0 1 1424.3181 805.3826)">
		<stop  offset="0.297" style="stop-color:#55285F"/>
		<stop  offset="0.3097" style="stop-color:#782166"/>
		<stop  offset="0.3241" style="stop-color:#95176D"/>
		<stop  offset="0.3401" style="stop-color:#AD0872"/>
		<stop  offset="0.3576" style="stop-color:#BF0076"/>
		<stop  offset="0.377" style="stop-color:#CE0079"/>
		<stop  offset="0.3993" style="stop-color:#D8007C"/>
		<stop  offset="0.426" style="stop-color:#DF007E"/>
		<stop  offset="0.4619" style="stop-color:#E3007F"/>
		<stop  offset="0.5455" style="stop-color:#E4007F"/>
	</linearGradient>
	<polygon fill="url(#SVGID_10_)" points="102.175,794.5 19.784,666.241 47.284,758.649 	"/>
	<polygon fill="#3B2E49" points="63.523,734.331 137.113,624.041 148.325,591.7 19.902,666.425 	"/>
	<polygon fill="#3B2E49" points="595.28,615.796 397.662,447.64 397.356,447.763 397.365,447.64 505.07,465.131 595.28,293.907 	"/>
	
		<linearGradient id="SVGID_11_" gradientUnits="userSpaceOnUse" x1="742.5002" y1="-350.531" x2="970.1253" y2="-350.531" gradientTransform="matrix(-1 0 0 1 1424.3181 805.3826)">
		<stop  offset="0.3818" style="stop-color:#55285F"/>
		<stop  offset="0.3936" style="stop-color:#662562"/>
		<stop  offset="0.4254" style="stop-color:#881C6A"/>
		<stop  offset="0.4596" style="stop-color:#A40F70"/>
		<stop  offset="0.496" style="stop-color:#BA0075"/>
		<stop  offset="0.535" style="stop-color:#CA0079"/>
		<stop  offset="0.5777" style="stop-color:#D6007B"/>
		<stop  offset="0.626" style="stop-color:#DE007D"/>
		<stop  offset="0.6845" style="stop-color:#E3007F"/>
		<stop  offset="0.7818" style="stop-color:#E4007F"/>
	</linearGradient>
	<polygon fill="url(#SVGID_11_)" points="595.28,615.796 505.07,465.131 595.28,293.907 	"/>
	
		<linearGradient id="SVGID_12_" gradientUnits="userSpaceOnUse" x1="766.8569" y1="-342.3005" x2="930.414" y2="-342.3005" gradientTransform="matrix(-1 0 0 1 1424.3181 805.3826)">
		<stop  offset="0.3576" style="stop-color:#55285F"/>
		<stop  offset="0.3595" style="stop-color:#5B2760"/>
		<stop  offset="0.3738" style="stop-color:#7D1F67"/>
		<stop  offset="0.3899" style="stop-color:#9A156E"/>
		<stop  offset="0.4074" style="stop-color:#B00573"/>
		<stop  offset="0.4268" style="stop-color:#C20077"/>
		<stop  offset="0.4486" style="stop-color:#CF007A"/>
		<stop  offset="0.4741" style="stop-color:#D9007C"/>
		<stop  offset="0.5057" style="stop-color:#E0007E"/>
		<stop  offset="0.5499" style="stop-color:#E3007F"/>
		<stop  offset="0.6727" style="stop-color:#E4007F"/>
	</linearGradient>
	<polygon fill="url(#SVGID_12_)" points="530.461,497.184 595.28,387.638 595.28,538.526 	"/>
	
		<linearGradient id="SVGID_13_" gradientUnits="userSpaceOnUse" x1="835.3762" y1="-433.1015" x2="979.5969" y2="-492.6312" gradientTransform="matrix(-1 0 0 1 1424.3181 805.3826)">
		<stop  offset="0.1212" style="stop-color:#601986"/>
		<stop  offset="0.1224" style="stop-color:#601B86"/>
		<stop  offset="0.1471" style="stop-color:#584393"/>
		<stop  offset="0.1733" style="stop-color:#4D5F9E"/>
		<stop  offset="0.2026" style="stop-color:#3D75A8"/>
		<stop  offset="0.2343" style="stop-color:#2687AE"/>
		<stop  offset="0.2689" style="stop-color:#0094B3"/>
		<stop  offset="0.3076" style="stop-color:#009EB5"/>
		<stop  offset="0.3521" style="stop-color:#00A6B7"/>
		<stop  offset="0.4061" style="stop-color:#00ABB7"/>
		<stop  offset="0.4795" style="stop-color:#00ADB8"/>
		<stop  offset="0.6587" style="stop-color:#00AEB7"/>
	</linearGradient>
	<polygon fill="url(#SVGID_13_)" points="595.28,375.837 468.248,403.453 595.28,293.907 	"/>
	<polygon fill="#3B2E49" points="468.248,403.453 595.28,293.907 595.28,123.655 504.297,61.786 439.699,135.482 504.297,110.007 
		553.428,232.833 	"/>
	<polygon fill="#00AEB7" points="595.28,293.907 595.28,375.837 546.532,386.434 	"/>
	<polygon fill="#3B2E49" points="448.916,293.907 397.662,447.64 342.948,469.732 289.718,258.762 	"/>
	<polygon fill="#93C753" points="448.916,293.907 397.662,447.64 342.948,469.732 	"/>
	
		<linearGradient id="SVGID_14_" gradientUnits="userSpaceOnUse" x1="1082.4521" y1="-488.2292" x2="1258.2777" y2="-420.1082" gradientTransform="matrix(-1 0 0 1 1424.3181 805.3826)">
		<stop  offset="0.0848" style="stop-color:#D01126"/>
		<stop  offset="0.0919" style="stop-color:#D22125"/>
		<stop  offset="0.1316" style="stop-color:#DB521F"/>
		<stop  offset="0.1736" style="stop-color:#E37314"/>
		<stop  offset="0.2176" style="stop-color:#EA8C00"/>
		<stop  offset="0.2641" style="stop-color:#F19E00"/>
		<stop  offset="0.3144" style="stop-color:#F5AB00"/>
		<stop  offset="0.3712" style="stop-color:#F8B300"/>
		<stop  offset="0.4485" style="stop-color:#F8B500"/>
	</linearGradient>
	<polygon fill="url(#SVGID_14_)" points="448.916,293.907 201.595,450.095 289.718,258.762 	"/>
	<polygon fill="#E4007F" points="238.804,369.306 37.102,231.47 201.595,450.095 	"/>
	<polygon fill="#FCDBAB" points="289.718,258.762 448.916,293.907 318.952,375.981 	"/>
	<polygon fill="#FCDBAB" points="288.739,657.525 297.17,757.172 343.104,469.732 	"/>
	
		<linearGradient id="SVGID_15_" gradientUnits="userSpaceOnUse" x1="1064.5945" y1="-30.0247" x2="1064.5945" y2="-91.7786" gradientTransform="matrix(-1 0 0 1 1424.3181 805.3826)">
		<stop  offset="0.2275" style="stop-color:#601986"/>
		<stop  offset="0.229" style="stop-color:#601B86"/>
		<stop  offset="0.2595" style="stop-color:#584393"/>
		<stop  offset="0.292" style="stop-color:#4D5F9E"/>
		<stop  offset="0.3282" style="stop-color:#3D75A8"/>
		<stop  offset="0.3673" style="stop-color:#2687AE"/>
		<stop  offset="0.4102" style="stop-color:#0094B3"/>
		<stop  offset="0.458" style="stop-color:#009EB5"/>
		<stop  offset="0.5131" style="stop-color:#00A6B7"/>
		<stop  offset="0.5799" style="stop-color:#00ABB7"/>
		<stop  offset="0.6706" style="stop-color:#00ADB8"/>
		<stop  offset="0.8922" style="stop-color:#00AEB7"/>
	</linearGradient>
	<polygon fill="url(#SVGID_15_)" points="297.17,757.172 422.277,762.234 388.771,715.827 	"/>
	
		<linearGradient id="SVGID_16_" gradientUnits="userSpaceOnUse" x1="1014.9125" y1="-51.1577" x2="1073.9742" y2="-148.237" gradientTransform="matrix(-1 0 0 1 1424.3181 805.3826)">
		<stop  offset="0.3697" style="stop-color:#55285F"/>
		<stop  offset="0.3898" style="stop-color:#782166"/>
		<stop  offset="0.4127" style="stop-color:#95176D"/>
		<stop  offset="0.4381" style="stop-color:#AD0872"/>
		<stop  offset="0.4658" style="stop-color:#BF0076"/>
		<stop  offset="0.4966" style="stop-color:#CE0079"/>
		<stop  offset="0.5319" style="stop-color:#D8007C"/>
		<stop  offset="0.5743" style="stop-color:#DF007E"/>
		<stop  offset="0.6312" style="stop-color:#E3007F"/>
		<stop  offset="0.7636" style="stop-color:#E4007F"/>
	</linearGradient>
	<polygon fill="url(#SVGID_16_)" points="394.275,541.927 388.771,715.824 297.17,757.172 	"/>
</g>
</svg>
